<svg width="141" height="134" fill="none" xmlns="http://www.w3.org/2000/svg"><mask id="a" maskUnits="userSpaceOnUse" x="0" y="0" width="131" height="134"><path fill-rule="evenodd" clip-rule="evenodd" d="M0 54.004L69.122 0l61.838 79.148-69.123 54.005L0 54.004z" fill="#fff"/></mask><g mask="url(#a)"><path fill-rule="evenodd" clip-rule="evenodd" d="M35.795 59.482c6.936-4.588 15.41-7.692 23.6-9.003 7.913-1.266 15.7-.187 22.236 2.99a36.436 36.436 0 01-3.39 9.428c-4.53 8.615-12.349 15.14-21.213 18.96-7.407 3.192-18.851 6.528-26.367 1.92-10.542-6.465-2.192-19.448 5.134-24.295zm11.052 30.807c11.839-2.154 23.207-8.062 30.953-17.394 4.086-4.923 6.89-10.71 8.377-16.735 6.467 4.63 11.064 11.76 12.256 21.081 2.672 20.883-14.303 38.572-35 38.581-2.528 0-3.15 3.828-.492 4.013 22.183 1.537 40.969-16.087 40.988-38.299.011-13.553-6.676-24.61-16.753-30.968 1.34-12.28-2.766-24.742-12.771-32.363 1.891.295 3.787.455 5.665.43 1.885-.026 2.173-3.067.444-3.612-6.706-2.115-13.116-3.682-19.395-6.986-2.54-1.337-5.035 2.336-3.296 4.4 4.287 5.087 1.58 11.085-.104 16.62-1.011 3.328 3.596 5.252 5.064 2.016 1.984-4.373 3.387-9.302 2.918-13.956 11.666 6.211 17.357 18.505 16.66 30.89-5.82-2.573-12.442-3.746-19.385-3.191-10.795.863-22.198 4.895-31.055 11.136-7.745 5.459-13.842 15.231-10.117 24.9 3.879 10.07 15.841 11.11 25.043 9.437z" fill="#fff"/></g><circle cx="101" cy="86" r="23" fill="#F5B325"/><path d="M86.16 95h13.397v-3.784h-6.818v-.102l1.636-1.364c3.98-3.315 4.994-5.037 4.994-7.057 0-3.255-2.667-5.386-6.852-5.386-4.065 0-6.707 2.258-6.699 5.932h4.5c-.008-1.466.886-2.285 2.199-2.285 1.304 0 2.233.81 2.233 2.148 0 1.236-.793 2.037-2.08 3.102l-6.51 5.387V95zm19.606-13.09h-4.705l3.477 6.544L100.822 95h4.705l2.148-4.16 2.216 4.16h4.636l-3.682-6.546 3.512-6.545h-4.671l-2.011 4.057-1.909-4.057z" fill="#fff"/></svg>