<svg xmlns="http://www.w3.org/2000/svg" width="18" height="18"><path d="M15.364 2.636C13.664.936 11.404 0 9 0S4.336.936 2.636 2.636C.936 4.336 0 6.596 0 9s.936 4.664 2.636 6.364C4.336 17.064 6.596 18 9 18s4.664-.936 6.364-2.636C17.064 13.664 18 11.404 18 9s-.936-4.664-2.636-6.364zM4.512 15.553A4.543 4.543 0 019 11.787a4.543 4.543 0 014.488 3.766A7.9 7.9 0 019 16.945a7.9 7.9 0 01-4.488-1.392zM6.138 7.87c0-1.578 1.284-2.86 2.862-2.86s2.862 1.283 2.862 2.861c0 1.578-1.284 2.862-2.862 2.862S6.138 9.448 6.138 7.87zm8.264 6.951a5.615 5.615 0 00-3.268-3.668 3.918 3.918 0 001.782-3.283c0-2.16-1.756-3.916-3.916-3.916S5.084 5.711 5.084 7.87c0 1.373.71 2.583 1.782 3.283a5.605 5.605 0 00-3.268 3.669A7.934 7.934 0 011.055 9c0-4.381 3.564-7.945 7.945-7.945S16.945 4.619 16.945 9c0 2.297-.98 4.37-2.543 5.821z" fill="#618CFA"/></svg>