<svg xmlns="http://www.w3.org/2000/svg" xmlns:xlink="http://www.w3.org/1999/xlink" width="107" height="114"><defs><path id="a" d="M0 .201h106.431v97.322H0z"/></defs><g fill="none" fill-rule="evenodd"><path fill="#F2F5F7" d="M0 16.677l55.198 7.562 51.233-7.562V4.617A4.627 4.627 0 00101.816 0H4.609C2.077 0 0 2.08 0 4.617v12.06z"/><g transform="translate(0 16.476)"><mask id="b" fill="#fff"><use xlink:href="#a"/></mask><path fill="#FFF" d="M73.048.201H0v92.7c0 2.542 2.077 4.623 4.609 4.623h97.207c2.538 0 4.615-2.08 4.615-4.623V.2H73.048z" mask="url(#b)"/></g><path fill="#242424" d="M20.388 70.69h-5.875c-.668 0-1.213.546-1.213 1.216v5.885c0 .67.546 1.221 1.213 1.221h5.875c.669 0 1.213-.552 1.213-1.221v-5.885a1.215 1.215 0 00-1.213-1.216"/><path fill="#EBEFF1" d="M20.388 89.039h-5.875c-.668 0-1.213.546-1.213 1.222v5.878c0 .67.546 1.223 1.213 1.223h5.875c.669 0 1.213-.553 1.213-1.223V90.26a1.217 1.217 0 00-1.213-1.222"/><path fill="#F5B325" d="M58.879 90.26v5.879c0 .67.545 1.223 1.22 1.223h5.867c.67 0 1.221-.554 1.221-1.223V90.26c0-.676-.552-1.222-1.22-1.222h-5.868a1.22 1.22 0 00-1.22 1.222"/><path fill="#618CFA" d="M60.099 79.012h5.867c.669 0 1.221-.552 1.221-1.221v-5.885c0-.67-.552-1.216-1.22-1.216h-5.868c-.675 0-1.22.546-1.22 1.216v5.885c0 .67.545 1.221 1.22 1.221M15.584 61.587h75.632a2.3 2.3 0 002.292-2.295v-26.34a2.302 2.302 0 00-2.292-2.295H15.584a2.296 2.296 0 00-2.284 2.295v26.34a2.295 2.295 0 002.284 2.295M92.333 9.56h-.046a1.738 1.738 0 010-3.475h.046a1.736 1.736 0 110 3.474"/><path fill="#F5B325" d="M84.037 9.56h-.052a1.738 1.738 0 010-3.475h.052a1.736 1.736 0 110 3.474"/><path fill="#242424" d="M75.735 9.598h-.045a1.738 1.738 0 110-3.474h.045a1.736 1.736 0 110 3.474m-13.066.475h-48.11a1.737 1.737 0 110-3.474h48.11a1.737 1.737 0 110 3.474M47.928 76.588H28.58a1.736 1.736 0 110-3.474h19.35a1.736 1.736 0 11-.001 3.474m45.579 0h-19.35a1.737 1.737 0 11.001-3.474h19.349a1.736 1.736 0 110 3.474m-45.58 18.349H28.58a1.737 1.737 0 110-3.474h19.35a1.737 1.737 0 01-.001 3.474m45.579 0h-19.35a1.737 1.737 0 11.001-3.474h19.349a1.737 1.737 0 110 3.474"/><path fill="#FFF" d="M83.381 52.348H23.426a1.737 1.737 0 110-3.473h59.955a1.736 1.736 0 110 3.473m0-8.978H23.426a1.738 1.738 0 110-3.475h59.955a1.737 1.737 0 110 3.474"/></g></svg>