<svg xmlns="http://www.w3.org/2000/svg" xmlns:xlink="http://www.w3.org/1999/xlink" width="62" height="123"><defs><path id="a" d="M.006 0h56.422v23.301H.006z"/><path id="c" d="M0 .182h61.249v64.922H0z"/></defs><g fill="none" fill-rule="evenodd"><path fill="#242424" d="M27.004 61.567h7.241V18.854h-7.241z"/><g transform="translate(2.402)"><mask id="b" fill="#fff"><use xlink:href="#a"/></mask><path fill="#F5B325" d="M3.631 11.973c2.181 5.004 4.389 8.139 6.748 9.583 1.91 1.169 4.76 1.745 8.666 1.745.92 0 1.899-.033 2.937-.096a69.346 69.346 0 006.235-.683 69.39 69.39 0 006.235.683c1.04.064 2.018.096 2.938.096 3.906 0 6.756-.577 8.666-1.745 2.359-1.444 4.566-4.579 6.748-9.583a67.675 67.675 0 002.42-6.464l1.204-3.917L52.392.88a67.668 67.668 0 00-6.858-.785c-5.45-.335-9.245.205-11.603 1.65-1.988 1.215-3.867 3.636-5.714 7.358-1.847-3.722-3.726-6.143-5.713-7.359C20.144.301 16.349-.238 10.9.095a68.002 68.002 0 00-6.858.787l-4.036.71L1.21 5.51c.04.126.964 3.12 2.422 6.464" mask="url(#b)"/></g><path fill="#F5B325" d="M47.936 27.812c-5.45-.334-9.244.205-11.603 1.65-1.988 1.215-3.867 3.636-5.714 7.358-1.846-3.722-3.726-6.143-5.713-7.359-2.36-1.444-6.155-1.983-11.604-1.65a67.835 67.835 0 00-6.858.786l-4.036.71 1.204 3.918c.038.125.963 3.12 2.42 6.464 2.182 5.004 4.39 8.139 6.749 9.583 1.909 1.169 4.76 1.745 8.665 1.745.92 0 1.9-.033 2.938-.096a69.346 69.346 0 006.235-.683c1.097.172 3.51.516 6.235.683 1.039.064 2.018.096 2.938.096 3.906 0 6.756-.577 8.666-1.745 2.359-1.444 4.566-4.579 6.747-9.583 1.458-3.344 2.383-6.338 2.422-6.464l1.203-3.917-4.036-.711a67.668 67.668 0 00-6.858-.785"/><g transform="translate(0 57.896)"><mask id="d" fill="#fff"><use xlink:href="#c"/></mask><path fill="#FFF" d="M53.798 65.104H7.451L0 .182h61.249z" mask="url(#d)"/></g><path fill="#618CFA" d="M31.158 86.92h-1.066a1.333 1.333 0 01-1.332-1.332c0-.734.597-1.332 1.332-1.332h1.066c.734 0 1.331.598 1.331 1.332h7.24c0-3.639-2.28-6.752-5.484-7.994v-4.8h-7.24v4.8c-3.206 1.242-5.486 4.355-5.486 7.994 0 4.726 3.846 8.572 8.572 8.572h1.066a1.333 1.333 0 010 2.663h-1.066a1.333 1.333 0 01-1.331-1.332h-7.24c0 3.638 2.279 6.752 5.484 7.994v4.8h7.24v-4.8c3.205-1.242 5.485-4.356 5.485-7.994 0-4.726-3.845-8.572-8.571-8.572"/></g></svg>