<svg xmlns="http://www.w3.org/2000/svg" xmlns:xlink="http://www.w3.org/1999/xlink" width="123" height="123"><defs><path id="a" d="M61.5 0C27.534 0 0 27.534 0 61.5S27.534 123 61.5 123 123 95.466 123 61.5 95.466 0 61.5 0z"/><path id="c" d="M.234 30.03c0 16.455 13.34 29.794 29.795 29.794 16.456 0 29.795-13.34 29.795-29.795C59.824 13.574 46.484.234 30.03.234 13.574.234.234 13.574.234 30.03"/><path id="e" d="M55.93.056C26.113.24.157 26.44 0 56.528.156 86.632 26.135 112.842 55.972 113c29.823-.157 55.79-26.346 55.972-56.43v-.083C111.763 26.416 85.817.239 56.014.057h-.083zm6.439 32.421c-.015-6.32-.036-12.64-.062-18.96 18.351 2.933 33.389 18.105 36.296 36.62-6.264-.027-12.529-.048-18.793-.063a2.137 2.137 0 00-2.138 2.148c.005 2.87.005 5.741 0 8.612a2.138 2.138 0 002.138 2.148c6.264-.015 12.529-.036 18.793-.063-2.907 18.515-17.945 33.688-36.296 36.62.026-6.32.047-12.64.062-18.96.003-1.193-.95-2.159-2.129-2.157-2.845.004-5.69.004-8.536 0a2.138 2.138 0 00-2.129 2.157c.015 6.32.036 12.64.062 18.96-18.35-2.932-33.389-18.105-36.296-36.62 6.264.027 12.529.048 18.794.063a2.136 2.136 0 002.136-2.148c-.004-2.87-.004-5.741 0-8.612a2.136 2.136 0 00-2.136-2.148c-6.265.015-12.53.036-18.794.063 2.907-18.515 17.945-33.687 36.296-36.62-.026 6.32-.047 12.64-.062 18.96a2.138 2.138 0 002.13 2.157c2.844-.005 5.69-.005 8.535 0h.003c1.177 0 2.129-.965 2.126-2.157z"/><path id="g" d="M8.805 2.355L8.804 8.86l-6.505.001a2.167 2.167 0 100 4.334l6.505.001v6.505a2.168 2.168 0 104.335 0l.001-6.504c2.168 0 4.336 0 6.505-.002 1.197 0 2.169-.97 2.169-2.167a2.17 2.17 0 00-2.17-2.167L13.14 8.86l-.001-6.505a2.168 2.168 0 00-4.334 0"/></defs><g fill="none" fill-rule="evenodd"><mask id="b" fill="#fff"><use xlink:href="#a"/></mask><path fill="#FFF" d="M61.5 0C27.534 0 0 27.534 0 61.5S27.534 123 61.5 123 123 95.466 123 61.5 95.466 0 61.5 0z" mask="url(#b)"/><g transform="translate(31.47 31.47)"><mask id="d" fill="#fff"><use xlink:href="#c"/></mask><path fill="#618CFA" d="M.234 30.03c0 16.455 13.34 29.794 29.795 29.794 16.456 0 29.795-13.34 29.795-29.795C59.824 13.574 46.484.234 30.03.234 13.574.234.234 13.574.234 30.03" mask="url(#d)"/></g><g transform="translate(6 5)"><mask id="f" fill="#fff"><use xlink:href="#e"/></mask><path fill="#618CFA" d="M55.93.056C26.113.24.157 26.44 0 56.528.156 86.632 26.135 112.842 55.972 113c29.823-.157 55.79-26.346 55.972-56.43v-.083C111.763 26.416 85.817.239 56.014.057h-.083zm6.439 32.421c-.015-6.32-.036-12.64-.062-18.96 18.351 2.933 33.389 18.105 36.296 36.62-6.264-.027-12.529-.048-18.793-.063a2.137 2.137 0 00-2.138 2.148c.005 2.87.005 5.741 0 8.612a2.138 2.138 0 002.138 2.148c6.264-.015 12.529-.036 18.793-.063-2.907 18.515-17.945 33.688-36.296 36.62.026-6.32.047-12.64.062-18.96.003-1.193-.95-2.159-2.129-2.157-2.845.004-5.69.004-8.536 0a2.138 2.138 0 00-2.129 2.157c.015 6.32.036 12.64.062 18.96-18.35-2.932-33.389-18.105-36.296-36.62 6.264.027 12.529.048 18.794.063a2.136 2.136 0 002.136-2.148c-.004-2.87-.004-5.741 0-8.612a2.136 2.136 0 00-2.136-2.148c-6.265.015-12.53.036-18.794.063 2.907-18.515 17.945-33.687 36.296-36.62-.026 6.32-.047 12.64-.062 18.96a2.138 2.138 0 002.13 2.157c2.844-.005 5.69-.005 8.535 0h.003c1.177 0 2.129-.965 2.126-2.157z" mask="url(#f)"/></g><g transform="translate(51 51)"><mask id="h" fill="#fff"><use xlink:href="#g"/></mask><path fill="#F5B325" d="M8.805 2.355L8.804 8.86l-6.505.001a2.167 2.167 0 100 4.334l6.505.001v6.505a2.168 2.168 0 104.335 0l.001-6.504c2.168 0 4.336 0 6.505-.002 1.197 0 2.169-.97 2.169-2.167a2.17 2.17 0 00-2.17-2.167L13.14 8.86l-.001-6.505a2.168 2.168 0 00-4.334 0" mask="url(#h)"/></g></g></svg>