<svg width="463" height="413" xmlns="http://www.w3.org/2000/svg" xmlns:xlink="http://www.w3.org/1999/xlink"><defs><path id="a" d="M.115.615h85v39h-85z"/></defs><g fill="none" fill-rule="evenodd"><g opacity=".5" transform="translate(0 43)"><rect fill="#FFF" width="205" height="107" rx="15"/><path d="M29.278 35V23.364h7.216v1.511h-5.46v3.545h4.943v1.506h-4.943V35h-1.756zm12.642.176c-.818 0-1.532-.187-2.142-.562a3.79 3.79 0 01-1.42-1.577c-.337-.676-.506-1.463-.506-2.36 0-.906.169-1.698.506-2.376a3.785 3.785 0 011.42-1.58c.61-.374 1.324-.562 2.142-.562.822 0 1.537.188 2.145.563.608.375 1.08.901 1.418 1.58.337.677.506 1.469.506 2.374 0 .898-.169 1.685-.506 2.36a3.796 3.796 0 01-1.418 1.578c-.608.375-1.323.562-2.145.562zm.006-1.426c.534 0 .975-.14 1.321-.42.347-.28.604-.655.773-1.123.168-.467.253-.98.253-1.537 0-.556-.085-1.07-.253-1.54a2.51 2.51 0 00-.773-1.127c-.346-.282-.787-.423-1.32-.423-.535 0-.976.14-1.325.423a2.52 2.52 0 00-.778 1.128c-.17.47-.256.983-.256 1.54 0 .556.085 1.069.256 1.536.17.468.43.842.778 1.123.349.28.79.42 1.324.42zm11.847-2.37v-5.107h1.704V35h-1.67v-1.511h-.091a2.71 2.71 0 01-.963 1.162c-.441.308-.99.463-1.645.463-.837 0-1.524-.278-2.06-.833-.536-.555-.804-1.374-.804-2.457v-5.551h1.7v5.346c0 .595.164 1.068.493 1.42.33.353.758.53 1.285.53a2.1 2.1 0 00.951-.24c.317-.159.58-.4.79-.724.21-.324.314-.732.31-1.224zm6.045-1.562V35H58.12v-8.727h1.631v1.42h.108c.2-.462.516-.833.946-1.113.43-.28.973-.42 1.628-.42.894 0 1.613.277 2.156.834.544.557.815 1.375.815 2.455V35h-1.698v-5.347c0-.632-.165-1.127-.495-1.485-.33-.358-.782-.537-1.358-.537-.59 0-1.077.19-1.46.57-.383.381-.574.92-.574 1.617zm11.489 5.352c-.705 0-1.332-.18-1.88-.54-.55-.36-.982-.877-1.296-1.553-.315-.676-.472-1.484-.472-2.424 0-.943.158-1.75.475-2.42.316-.67.75-1.184 1.303-1.54a3.398 3.398 0 011.881-.534c.542 0 .978.09 1.31.27.331.18.589.39.773.628.183.238.326.449.429.63h.102v-4.323h1.699V35h-1.66v-1.358h-.141a4.61 4.61 0 01-.44.636 2.497 2.497 0 01-.788.625c-.333.178-.765.267-1.295.267zm.375-1.448c.735 0 1.298-.285 1.69-.856.392-.57.588-1.313.588-2.23 0-.913-.194-1.646-.582-2.201-.388-.555-.954-.833-1.696-.833-.512 0-.938.133-1.279.398-.34.265-.597.626-.77 1.082a4.376 4.376 0 00-.258 1.554c0 .584.087 1.108.261 1.574.175.466.433.835.776 1.105.343.271.766.407 1.27.407zm10.494 1.454c-.856 0-1.595-.185-2.216-.557a3.705 3.705 0 01-1.434-1.565c-.336-.672-.503-1.46-.503-2.36 0-.895.167-1.683.503-2.364a3.856 3.856 0 011.409-1.597c.604-.383 1.311-.574 2.122-.574.659 0 1.283.147 1.872.44.589.294 1.068.762 1.437 1.404.37.642.554 1.49.554 2.542v.603h-6.204c.023.84.26 1.488.71 1.943.45.454 1.04.682 1.767.682.485 0 .904-.104 1.256-.313a1.74 1.74 0 00.756-.932l1.608.29c-.194.709-.61 1.279-1.25 1.71-.64.432-1.436.648-2.387.648zm-2.454-5.301h4.534c-.004-.667-.205-1.219-.603-1.656-.397-.438-.926-.657-1.585-.657-.458 0-.859.108-1.202.322a2.352 2.352 0 00-.812.846c-.199.35-.31.732-.332 1.145zM88.176 35v-8.727h1.642v1.386h.091c.16-.47.44-.84.844-1.11.403-.272.86-.407 1.372-.407l.242.005.139.006c.144.008.257.017.34.029v1.625l-.14-.03a6.104 6.104 0 00-.22-.036 3.712 3.712 0 00-.526-.036c-.602 0-1.1.184-1.494.554-.394.369-.591.84-.591 1.411V35h-1.699zm8.244-11.636v1.09c0 .482-.13.993-.392 1.535a3.813 3.813 0 01-1.05 1.34l-.842-.602a6.57 6.57 0 00.583-1.042c.165-.37.247-.774.247-1.213v-1.108h1.454zm7.858 5.04l-1.54.272a1.93 1.93 0 00-.548-.804c-.267-.244-.665-.366-1.196-.366-.48 0-.883.107-1.207.32-.324.215-.484.49-.48.827a.848.848 0 00.32.708c.219.176.568.32 1.05.434l1.385.319c1.591.367 2.387 1.155 2.387 2.363 0 .527-.15.993-.452 1.398-.301.405-.72.723-1.256.955-.536.23-1.156.346-1.86.346-.981 0-1.779-.21-2.392-.628-.614-.418-.993-1.014-1.137-1.787l1.642-.25c.205.864.83 1.296 1.875 1.296.557 0 1.002-.117 1.336-.35.333-.233.5-.518.5-.855 0-.557-.411-.926-1.233-1.108l-1.478-.324c-.818-.181-1.42-.477-1.806-.886-.387-.409-.58-.922-.58-1.54 0-.515.144-.967.432-1.355.288-.388.685-.69 1.193-.906.508-.216 1.089-.324 1.744-.324.943 0 1.686.205 2.228.614.541.409.9.952 1.073 1.63zm-73.244 12.96V53h-1.756V41.364h1.756zm4.483 6.454V53h-1.699v-8.727h1.63v1.42h.109c.2-.462.516-.833.946-1.113.43-.28.972-.42 1.628-.42.894 0 1.612.277 2.156.834.543.557.815 1.375.815 2.455V53h-1.699v-5.347c0-.632-.164-1.127-.494-1.485-.33-.358-.782-.537-1.358-.537-.59 0-1.078.19-1.46.57-.383.381-.574.92-.574 1.617zm15.37-3.545L47.721 53h-1.819l-3.17-8.727h1.824l2.21 6.716h.091l2.205-6.716h1.823zm5.414 8.903c-.856 0-1.595-.185-2.216-.557a3.705 3.705 0 01-1.434-1.565c-.336-.672-.503-1.46-.503-2.36 0-.895.167-1.683.503-2.364a3.856 3.856 0 011.409-1.597c.604-.383 1.311-.574 2.122-.574.659 0 1.283.147 1.872.44.589.294 1.068.762 1.437 1.404.37.642.554 1.49.554 2.542v.603h-6.204c.023.84.26 1.488.71 1.943.45.454 1.04.682 1.767.682.485 0 .904-.104 1.256-.313a1.74 1.74 0 00.756-.932l1.608.29c-.194.709-.61 1.279-1.25 1.71-.64.432-1.436.648-2.387.648zm-2.454-5.301h4.534c-.004-.667-.205-1.219-.603-1.656-.397-.438-.926-.657-1.585-.657-.458 0-.859.108-1.202.322a2.352 2.352 0 00-.812.846c-.199.35-.31.732-.332 1.145zm14.994-1.472l-1.54.273a1.93 1.93 0 00-.548-.804c-.267-.244-.666-.366-1.196-.366-.481 0-.884.107-1.208.32-.323.215-.483.49-.48.827a.848.848 0 00.321.708c.218.176.568.32 1.049.434l1.386.319c1.59.367 2.386 1.155 2.386 2.363 0 .527-.15.993-.451 1.398-.301.405-.72.723-1.256.955-.536.23-1.156.346-1.86.346-.982 0-1.78-.21-2.393-.628-.614-.418-.992-1.014-1.136-1.787l1.642-.25c.204.864.83 1.296 1.875 1.296.557 0 1.002-.117 1.335-.35.333-.233.5-.518.5-.855 0-.557-.41-.926-1.233-1.108l-1.477-.324c-.818-.181-1.42-.477-1.807-.886-.386-.409-.58-.922-.58-1.54 0-.515.144-.967.432-1.355.288-.388.686-.69 1.193-.906.508-.216 1.09-.324 1.745-.324.943 0 1.685.205 2.227.614.542.409.9.952 1.074 1.63zm6.472-2.13v1.363h-1.79v4.801c0 .493.105.81.315.952.21.142.454.213.73.213.137 0 .256-.01.358-.028l.239-.046.307 1.404c-.099.038-.24.077-.424.116-.183.04-.41.062-.679.066a3.01 3.01 0 01-1.253-.239 2.123 2.123 0 01-.937-.773c-.237-.348-.355-.786-.355-1.312v-5.154h-1.279v-1.363h1.279v-2.091h1.699v2.09h1.79zM77.55 53v-8.727h1.63v1.42h.109a2.27 2.27 0 01.892-1.128c.413-.27.907-.406 1.483-.406.583 0 1.073.136 1.469.41.395.272.688.647.877 1.124h.091a2.51 2.51 0 01.997-1.116c.453-.279.994-.418 1.623-.418.791 0 1.438.25 1.94.747.502.498.753 1.246.753 2.242V53h-1.7v-5.693c0-.591-.16-1.02-.48-1.284a1.754 1.754 0 00-1.155-.398c-.553 0-.983.17-1.29.511-.307.341-.46.775-.46 1.301V53h-1.694v-5.801c0-.474-.147-.854-.443-1.142-.295-.288-.68-.432-1.153-.432-.481 0-.9.186-1.256.557-.356.371-.534.85-.534 1.437V53H77.55zm18.261.176c-.856 0-1.594-.185-2.215-.557a3.705 3.705 0 01-1.435-1.565c-.335-.672-.503-1.46-.503-2.36 0-.895.168-1.683.503-2.364a3.856 3.856 0 011.409-1.597c.604-.383 1.312-.574 2.122-.574.66 0 1.283.147 1.872.44.59.294 1.069.762 1.438 1.404.37.642.554 1.49.554 2.542v.603h-6.205c.023.84.26 1.488.71 1.943.451.454 1.04.682 1.768.682.484 0 .903-.104 1.255-.313.353-.208.604-.519.756-.932l1.608.29c-.193.709-.61 1.279-1.25 1.71-.64.432-1.436.648-2.386.648zm-2.454-5.301h4.534c-.004-.667-.204-1.219-.602-1.656-.398-.438-.926-.657-1.585-.657-.459 0-.86.108-1.202.322a2.352 2.352 0 00-.813.846c-.199.35-.31.732-.332 1.145zm10.153-.057V53h-1.698v-8.727h1.63v1.42h.108c.2-.462.516-.833.946-1.113.43-.28.973-.42 1.628-.42.894 0 1.613.277 2.156.834.544.557.816 1.375.816 2.455V53h-1.7v-5.347c0-.632-.164-1.127-.494-1.485-.33-.358-.782-.537-1.358-.537-.59 0-1.077.19-1.46.57-.382.381-.574.92-.574 1.617zm12.296-3.545v1.363h-1.79v4.801c0 .493.105.81.315.952.21.142.454.213.73.213.137 0 .256-.01.358-.028l.24-.046.306 1.404c-.099.038-.24.077-.423.116-.184.04-.41.062-.68.066a3.01 3.01 0 01-1.252-.239 2.123 2.123 0 01-.938-.773c-.236-.348-.355-.786-.355-1.312v-5.154h-1.278v-1.363h1.278v-2.091h1.699v2.09h1.79zM36.565 88.727l.043-2.546c-2.372-.227-4.256-.978-5.652-2.253-1.395-1.275-2.097-3.141-2.104-5.598h5.625c.071 1.512.806 2.471 2.206 2.876l.063-3.995-1.118-.245c-1.932-.42-3.454-1.12-4.565-2.104-1.112-.984-1.664-2.328-1.657-4.032-.007-1.272.306-2.4.938-3.383.632-.984 1.516-1.779 2.652-2.386 1.137-.608 2.454-.982 3.953-1.124l.042-2.482h3.026l-.043 2.535c2.131.284 3.805 1.05 5.024 2.296 1.218 1.246 1.83 2.818 1.837 4.714h-5.667c-.079-.945-.501-1.594-1.268-1.95l-.064 3.718.48.107c2.407.518 4.144 1.348 5.209 2.488 1.065 1.14 1.601 2.54 1.609 4.202-.008 1.968-.672 3.52-1.993 4.656-1.32 1.136-3.157 1.797-5.507 1.981l-.043 2.525h-3.026zm3.143-7.542c.902-.299 1.36-.838 1.374-1.62a1.399 1.399 0 00-.314-.868c-.202-.252-.538-.478-1.007-.676l-.053 3.164zm-2.876-9.205l.042-3.068c-.44.135-.763.332-.97.591-.205.26-.312.56-.319.9-.035.675.38 1.2 1.247 1.577zm28.966-7.798V86h-5.923V71.043h-.213c-.291.397-.794.767-1.508 1.108-.713.34-1.66.51-2.839.51v-4.644c.817 0 1.566-.176 2.248-.527a4.534 4.534 0 001.646-1.401 3.214 3.214 0 00.623-1.907h5.966zm10.228 18.835l-.086 1.193a14.375 14.375 0 01-.506 2.94 24.217 24.217 0 01-.841 2.493l-.559 1.355c-.05.12-.096.23-.14.329h-3.621l.484-1.72c.21-.75.402-1.595.576-2.536a15.7 15.7 0 00.26-2.86v-1.194h4.433zm13.295 3.58c-1.982-.008-3.693-.466-5.135-1.375-1.442-.909-2.553-2.22-3.334-3.93-.782-1.712-1.169-3.765-1.162-6.158.007-2.401.4-4.44 1.178-6.116.777-1.676 1.885-2.95 3.323-3.824 1.439-.874 3.148-1.31 5.13-1.31 1.982 0 3.693.438 5.135 1.315 1.442.877 2.553 2.154 3.334 3.83.782 1.676 1.169 3.711 1.162 6.105 0 2.407-.39 4.467-1.172 6.178-.781 1.712-1.891 3.02-3.33 3.926-1.438.906-3.147 1.359-5.129 1.359zm0-4.816c1.023 0 1.863-.534 2.52-1.603s.981-2.75.974-5.044c-.007-2.245-.335-3.885-.985-4.922-.65-1.037-1.486-1.556-2.509-1.556s-1.857.519-2.504 1.556c-.646 1.037-.976 2.677-.99 4.922-.007 2.294.318 3.975.974 5.044.657 1.069 1.497 1.603 2.52 1.603zm21.903 4.816c-1.981-.008-3.693-.466-5.135-1.375-1.441-.909-2.553-2.22-3.334-3.93-.781-1.712-1.168-3.765-1.161-6.158.007-2.401.4-4.44 1.177-6.116.778-1.676 1.886-2.95 3.324-3.824 1.438-.874 3.148-1.31 5.13-1.31 1.981 0 3.693.438 5.134 1.315 1.442.877 2.554 2.154 3.335 3.83.781 1.676 1.168 3.711 1.161 6.105 0 2.407-.39 4.467-1.172 6.178-.781 1.712-1.89 3.02-3.329 3.926-1.438.906-3.148 1.359-5.13 1.359zm0-4.816c1.023 0 1.863-.534 2.52-1.603s.982-2.75.975-5.044c-.007-2.245-.336-3.885-.986-4.922-.65-1.037-1.486-1.556-2.509-1.556-1.022 0-1.857.519-2.503 1.556-.646 1.037-.977 2.677-.99 4.922-.008 2.294.317 3.975.974 5.044.657 1.069 1.497 1.603 2.52 1.603zm21.904-17.897c1.981 0 3.693.438 5.135 1.315 1.442.877 2.553 2.154 3.334 3.83.782 1.676 1.169 3.711 1.162 6.105 0 2.407-.391 4.467-1.172 6.178-.782 1.712-1.891 3.02-3.33 3.926-1.438.906-3.148 1.359-5.13 1.359-1.98-.008-3.692-.466-5.134-1.375-1.442-.909-2.553-2.22-3.335-3.93-.78-1.712-1.168-3.765-1.161-6.158.007-2.401.4-4.44 1.177-6.116.778-1.676 1.886-2.95 3.324-3.824 1.438-.874 3.148-1.31 5.13-1.31zm0 4.772c-1.023 0-1.857.519-2.504 1.556-.646 1.037-.976 2.677-.99 4.922-.008 2.294.317 3.975.974 5.044.657 1.069 1.497 1.603 2.52 1.603s1.862-.534 2.52-1.603c.656-1.069.981-2.75.974-5.044-.007-2.245-.335-3.885-.985-4.922-.65-1.037-1.486-1.556-2.51-1.556z" fill="#232323" fill-rule="nonzero"/></g><rect fill="#618CFA" x="264" y="174" width="176" height="107" rx="15"/><rect fill="#FFF" y="174" width="205" height="107" rx="15"/><g opacity=".5" transform="translate(0 306)"><rect fill="#FFF" width="205" height="107" rx="15"/><path d="M28.705 24.875v-1.511h9.005v1.511h-3.63V35h-1.75V24.875h-3.625zm12.914 4.943V35H39.92V23.364h1.677v4.33h.108c.204-.474.517-.848.937-1.123.42-.275.97-.412 1.648-.412.898 0 1.62.277 2.167.83.548.553.821 1.373.821 2.46V35H45.58v-5.347c0-.64-.165-1.137-.495-1.491-.33-.354-.788-.531-1.375-.531-.606 0-1.106.19-1.5.57-.394.381-.59.92-.59 1.617zm12.057 5.358c-.856 0-1.595-.185-2.216-.557a3.705 3.705 0 01-1.434-1.565c-.336-.672-.503-1.46-.503-2.36 0-.895.167-1.683.503-2.364a3.856 3.856 0 011.409-1.597c.604-.383 1.311-.574 2.122-.574.659 0 1.283.147 1.872.44.589.294 1.068.762 1.437 1.404.37.642.554 1.49.554 2.542v.603h-6.204c.023.84.26 1.488.71 1.943.45.454 1.04.682 1.767.682.485 0 .904-.104 1.256-.313a1.74 1.74 0 00.756-.932l1.608.29c-.194.709-.61 1.279-1.25 1.71-.64.432-1.436.648-2.387.648zm-2.454-5.301h4.534c-.004-.667-.205-1.219-.603-1.656-.397-.438-.926-.657-1.585-.657-.458 0-.859.108-1.202.322a2.352 2.352 0 00-.812.846c-.199.35-.31.732-.332 1.145zm13.193-6.511h2.13l3.705 9.045h.136l3.705-9.045h2.13V35h-1.67v-8.42h-.108l-3.432 8.403h-1.386l-3.432-8.41h-.108V35h-1.67V23.364zM79.295 35v-8.727h1.7V35h-1.7zm.858-10.074c-.295 0-.548-.1-.758-.298a.948.948 0 01-.315-.713c0-.28.105-.52.315-.719.21-.199.463-.298.758-.298.292 0 .544.1.756.298a.95.95 0 01.318.719.944.944 0 01-.318.713 1.067 1.067 0 01-.756.298zm5.188-1.562V35h-1.699V23.364h1.699zm4.347 0V35h-1.7V23.364h1.7zM92.335 35v-8.727h1.7V35h-1.7zm.858-10.074c-.295 0-.548-.1-.758-.298a.948.948 0 01-.316-.713c0-.28.105-.52.316-.719.21-.199.463-.298.758-.298.292 0 .544.1.756.298a.95.95 0 01.318.719.944.944 0 01-.318.713 1.067 1.067 0 01-.756.298zm7.165 10.25c-.818 0-1.532-.187-2.142-.562a3.79 3.79 0 01-1.42-1.577c-.338-.676-.506-1.463-.506-2.36 0-.906.168-1.698.505-2.376a3.785 3.785 0 011.42-1.58c.61-.374 1.325-.562 2.143-.562.822 0 1.537.188 2.145.563.608.375 1.08.901 1.417 1.58.338.677.506 1.469.506 2.374 0 .898-.168 1.685-.506 2.36a3.796 3.796 0 01-1.417 1.578c-.608.375-1.323.562-2.145.562zm.006-1.426c.534 0 .974-.14 1.32-.42.347-.28.605-.655.773-1.123a4.49 4.49 0 00.253-1.537c0-.556-.084-1.07-.253-1.54a2.51 2.51 0 00-.772-1.127c-.347-.282-.787-.423-1.321-.423-.534 0-.976.14-1.324.423a2.52 2.52 0 00-.779 1.128c-.17.47-.255.983-.255 1.54 0 .556.085 1.069.255 1.536.17.468.43.842.779 1.123.348.28.79.42 1.324.42zm8.017-3.932V35h-1.7v-8.727h1.632v1.42h.107c.201-.462.517-.833.946-1.113.43-.28.973-.42 1.628-.42.894 0 1.613.277 2.157.834.543.557.815 1.375.815 2.455V35h-1.699v-5.347c0-.632-.165-1.127-.494-1.485-.33-.358-.782-.537-1.358-.537-.591 0-1.078.19-1.46.57-.383.381-.574.92-.574 1.617zM125.108 35h-3.767V23.364h3.886c1.144 0 2.124.232 2.94.696a4.648 4.648 0 011.881 1.994c.438.866.657 1.902.657 3.11 0 1.213-.22 2.255-.66 3.126a4.644 4.644 0 01-1.911 2.008c-.836.468-1.844.702-3.026.702zm-2.011-1.534h1.914c1.326 0 2.319-.372 2.978-1.117.659-.744.988-1.805.988-3.184 0-1.371-.325-2.425-.974-3.162-.65-.737-1.61-1.105-2.884-1.105h-2.022v8.568zm13.693 1.71c-.818 0-1.532-.187-2.142-.562a3.79 3.79 0 01-1.42-1.577c-.338-.676-.506-1.463-.506-2.36 0-.906.168-1.698.505-2.376a3.785 3.785 0 011.42-1.58c.61-.374 1.325-.562 2.143-.562.822 0 1.537.188 2.145.563.608.375 1.08.901 1.417 1.58.337.677.506 1.469.506 2.374 0 .898-.169 1.685-.506 2.36a3.796 3.796 0 01-1.417 1.578c-.608.375-1.323.562-2.145.562zm.005-1.426c.535 0 .975-.14 1.321-.42.347-.28.605-.655.773-1.123a4.49 4.49 0 00.253-1.537c0-.556-.084-1.07-.253-1.54a2.51 2.51 0 00-.773-1.127c-.346-.282-.786-.423-1.32-.423-.535 0-.976.14-1.324.423a2.52 2.52 0 00-.779 1.128c-.17.47-.256.983-.256 1.54 0 .556.086 1.069.256 1.536.17.468.43.842.779 1.123.348.28.79.42 1.323.42zm8.018-10.386V35h-1.7V23.364h1.7zm4.346 0V35h-1.699V23.364h1.7zm5.188 11.83a3.544 3.544 0 01-1.498-.308 2.485 2.485 0 01-1.06-.9c-.26-.396-.391-.88-.391-1.452 0-.496.095-.903.287-1.221.19-.319.447-.57.767-.756.32-.186.679-.325 1.076-.418a11.07 11.07 0 011.216-.213l1.27-.15c.324-.04.56-.106.71-.196.15-.091.225-.24.225-.444v-.04c0-.496-.14-.88-.418-1.153-.278-.273-.692-.409-1.241-.409-.572 0-1.022.125-1.35.375-.327.25-.554.53-.679.841l-1.596-.364c.284-.795.758-1.365 1.423-1.71a4.663 4.663 0 012.179-.517c.349 0 .718.04 1.108.122.39.082.759.231 1.105.45.347.217.629.525.847.922.218.398.326.915.326 1.552V35h-1.659v-1.193h-.068c-.163.326-.453.638-.87.937-.416.3-.986.45-1.71.45zm.369-1.364c.473 0 .877-.093 1.21-.279a1.97 1.97 0 00.764-.73c.176-.301.265-.624.265-.969v-1.125c-.08.08-.254.15-.523.21-.18.04-.366.077-.558.11l-1.022.146c-.492.065-.914.194-1.264.39-.35.194-.525.52-.525.974 0 .42.155.738.465.952.311.214.707.32 1.188.32zm6.562 1.17v-8.727h1.642v1.386h.091c.16-.47.44-.84.841-1.11.402-.272.86-.407 1.375-.407.239 0 .453.028.642.085a1.8 1.8 0 01.5.233l-.545 1.42a1.494 1.494 0 00-.347-.124 1.945 1.945 0 00-.443-.046c-.587 0-1.077.185-1.469.554-.392.37-.588.838-.588 1.406V35h-1.699zm-132 18V41.364h7.216v1.511h-5.46v3.545h4.943v1.506h-4.943V53h-1.756zm14.586-3.62v-5.107h1.704V53h-1.67v-1.511h-.091a2.71 2.71 0 01-.963 1.162c-.442.308-.99.463-1.645.463-.837 0-1.524-.278-2.06-.833-.536-.555-.804-1.374-.804-2.457v-5.551h1.7v5.346c0 .595.164 1.068.493 1.42.33.353.758.53 1.285.53a2.1 2.1 0 00.951-.24c.316-.159.58-.4.79-.724.21-.324.313-.732.31-1.224zm6.045-1.562V53H48.21v-8.727h1.63v1.42h.109c.2-.462.516-.833.946-1.113.43-.28.972-.42 1.628-.42.894 0 1.612.277 2.156.834.544.557.815 1.375.815 2.455V53h-1.699v-5.347c0-.632-.164-1.127-.494-1.485-.33-.358-.782-.537-1.358-.537-.59 0-1.077.19-1.46.57-.383.381-.574.92-.574 1.617zm11.489 5.352c-.705 0-1.332-.18-1.881-.54-.55-.36-.981-.877-1.295-1.553-.315-.676-.472-1.484-.472-2.424 0-.943.158-1.75.474-2.42.317-.67.751-1.184 1.304-1.54a3.398 3.398 0 011.881-.534c.542 0 .978.09 1.31.27.331.18.589.39.772.628.184.238.327.449.43.63h.102v-4.323h1.699V53h-1.66v-1.358h-.142a4.61 4.61 0 01-.44.636 2.497 2.497 0 01-.787.625c-.333.178-.765.267-1.295.267zm.375-1.448c.735 0 1.298-.285 1.69-.856.392-.57.588-1.313.588-2.23 0-.913-.194-1.646-.582-2.201-.389-.555-.954-.833-1.696-.833-.512 0-.938.133-1.279.398-.34.265-.597.626-.77 1.082a4.376 4.376 0 00-.258 1.554c0 .584.087 1.108.261 1.574.175.466.433.835.776 1.105.343.271.766.407 1.27.407zm8.193-10.358v1.09c0 .482-.13.993-.392 1.535a3.813 3.813 0 01-1.051 1.34l-.841-.602a6.57 6.57 0 00.582-1.042c.165-.37.247-.774.247-1.213v-1.108h1.455zm7.858 5.04l-1.54.272a1.93 1.93 0 00-.548-.804c-.267-.244-.666-.366-1.196-.366-.481 0-.884.107-1.208.32-.323.215-.484.49-.48.827a.848.848 0 00.321.708c.218.176.568.32 1.049.434l1.386.319c1.59.367 2.386 1.155 2.386 2.363 0 .527-.15.993-.451 1.398-.302.405-.72.723-1.256.955-.536.23-1.156.346-1.86.346-.982 0-1.78-.21-2.393-.628-.614-.418-.992-1.014-1.136-1.787l1.642-.25c.204.864.83 1.296 1.875 1.296.557 0 1.002-.117 1.335-.35.333-.233.5-.518.5-.855 0-.557-.411-.926-1.233-1.108l-1.477-.324c-.818-.181-1.42-.477-1.807-.886-.386-.409-.58-.922-.58-1.54 0-.515.144-.967.432-1.355.288-.388.686-.69 1.193-.906.508-.216 1.09-.324 1.745-.324.943 0 1.685.205 2.227.614.542.409.9.952 1.074 1.63zm13.494-5.04V53h-1.755V41.364h1.755zm4.483 6.454V53h-1.699v-8.727h1.631v1.42h.108c.2-.462.516-.833.946-1.113.43-.28.972-.42 1.628-.42.894 0 1.612.277 2.156.834.544.557.815 1.375.815 2.455V53h-1.698v-5.347c0-.632-.165-1.127-.495-1.485-.33-.358-.782-.537-1.358-.537-.59 0-1.077.19-1.46.57-.383.381-.574.92-.574 1.617zm15.37-3.545L108.005 53h-1.819l-3.17-8.727h1.824l2.21 6.716h.091l2.205-6.716h1.823zm5.414 8.903c-.856 0-1.594-.185-2.216-.557a3.705 3.705 0 01-1.434-1.565c-.336-.672-.503-1.46-.503-2.36 0-.895.167-1.683.503-2.364a3.856 3.856 0 011.409-1.597c.604-.383 1.311-.574 2.122-.574.659 0 1.283.147 1.872.44.59.294 1.068.762 1.438 1.404.369.642.554 1.49.554 2.542v.603h-6.205c.023.84.26 1.488.71 1.943.451.454 1.04.682 1.767.682.485 0 .904-.104 1.256-.313a1.74 1.74 0 00.756-.932l1.608.29c-.194.709-.61 1.279-1.25 1.71-.64.432-1.436.648-2.387.648zm-2.454-5.301h4.534c-.004-.667-.205-1.219-.603-1.656-.397-.438-.926-.657-1.585-.657-.458 0-.859.108-1.201.322a2.352 2.352 0 00-.813.846c-.199.35-.31.732-.332 1.145zm14.994-1.472l-1.54.273a1.93 1.93 0 00-.548-.804c-.267-.244-.666-.366-1.196-.366-.481 0-.884.107-1.207.32-.324.215-.484.49-.48.827a.848.848 0 00.32.708c.218.176.568.32 1.049.434l1.386.319c1.591.367 2.386 1.155 2.386 2.363 0 .527-.15.993-.451 1.398-.301.405-.72.723-1.256.955-.536.23-1.156.346-1.86.346-.982 0-1.78-.21-2.393-.628-.613-.418-.992-1.014-1.136-1.787l1.642-.25c.204.864.83 1.296 1.875 1.296.557 0 1.002-.117 1.335-.35.333-.233.5-.518.5-.855 0-.557-.41-.926-1.233-1.108l-1.477-.324c-.818-.181-1.42-.477-1.807-.886-.386-.409-.58-.922-.58-1.54 0-.515.144-.967.432-1.355.288-.388.686-.69 1.194-.906.507-.216 1.089-.324 1.744-.324.943 0 1.685.205 2.227.614.542.409.9.952 1.074 1.63zm6.472-2.13v1.363h-1.79v4.801c0 .493.105.81.315.952.21.142.454.213.73.213.137 0 .256-.01.358-.028l.239-.046.307 1.404c-.099.038-.24.077-.424.116-.183.04-.41.062-.679.066a3.01 3.01 0 01-1.252-.239 2.123 2.123 0 01-.938-.773c-.237-.348-.355-.786-.355-1.312v-5.154h-1.278v-1.363h1.278v-2.091h1.699v2.09h1.79zM137.835 53v-8.727h1.63v1.42h.109a2.27 2.27 0 01.892-1.128c.413-.27.907-.406 1.483-.406.583 0 1.073.136 1.469.41.395.272.688.647.877 1.124h.091c.212-.466.545-.838.998-1.116.452-.279.993-.418 1.622-.418.791 0 1.438.25 1.94.747.502.498.753 1.246.753 2.242V53H148v-5.693c0-.591-.16-1.02-.48-1.284a1.754 1.754 0 00-1.156-.398c-.553 0-.983.17-1.29.511-.307.341-.46.775-.46 1.301V53h-1.694v-5.801c0-.474-.147-.854-.443-1.142-.295-.288-.68-.432-1.153-.432-.481 0-.9.186-1.256.557-.356.371-.534.85-.534 1.437V53h-1.699zm18.262.176c-.856 0-1.595-.185-2.216-.557a3.705 3.705 0 01-1.435-1.565c-.335-.672-.503-1.46-.503-2.36 0-.895.168-1.683.503-2.364a3.856 3.856 0 011.41-1.597c.603-.383 1.31-.574 2.121-.574.66 0 1.283.147 1.872.44.59.294 1.069.762 1.438 1.404.37.642.554 1.49.554 2.542v.603h-6.205c.023.84.26 1.488.71 1.943.451.454 1.04.682 1.768.682.484 0 .903-.104 1.255-.313.353-.208.604-.519.756-.932l1.608.29c-.193.709-.61 1.279-1.25 1.71-.64.432-1.436.648-2.386.648zm-2.455-5.301h4.534c-.004-.667-.204-1.219-.602-1.656-.398-.438-.926-.657-1.585-.657-.459 0-.86.108-1.202.322a2.352 2.352 0 00-.813.846c-.198.35-.31.732-.332 1.145zm10.153-.057V53h-1.698v-8.727h1.63v1.42h.108c.201-.462.516-.833.946-1.113.43-.28.973-.42 1.628-.42.894 0 1.613.277 2.156.834.544.557.816 1.375.816 2.455V53h-1.7v-5.347c0-.632-.164-1.127-.494-1.485-.329-.358-.782-.537-1.357-.537-.591 0-1.078.19-1.46.57-.383.381-.575.92-.575 1.617zm12.296-3.545v1.363h-1.79v4.801c0 .493.105.81.315.952.21.142.454.213.73.213.137 0 .256-.01.359-.028l.238-.046.307 1.404c-.098.038-.24.077-.423.116-.184.04-.41.062-.68.066a3.01 3.01 0 01-1.252-.239 2.123 2.123 0 01-.938-.773c-.236-.348-.355-.786-.355-1.312v-5.154h-1.278v-1.363h1.278v-2.091h1.7v2.09h1.789zM36.565 88.727l.043-2.546c-2.372-.227-4.256-.978-5.652-2.253-1.395-1.275-2.097-3.141-2.104-5.598h5.625c.071 1.512.806 2.471 2.206 2.876l.063-3.995-1.118-.245c-1.932-.42-3.454-1.12-4.565-2.104-1.112-.984-1.664-2.328-1.657-4.032-.007-1.272.306-2.4.938-3.383.632-.984 1.516-1.779 2.652-2.386 1.137-.608 2.454-.982 3.953-1.124l.042-2.482h3.026l-.043 2.535c2.131.284 3.805 1.05 5.024 2.296 1.218 1.246 1.83 2.818 1.837 4.714h-5.667c-.079-.945-.501-1.594-1.268-1.95l-.064 3.718.48.107c2.407.518 4.144 1.348 5.209 2.488 1.065 1.14 1.601 2.54 1.609 4.202-.008 1.968-.672 3.52-1.993 4.656-1.32 1.136-3.157 1.797-5.507 1.981l-.043 2.525h-3.026zm3.143-7.542c.902-.299 1.36-.838 1.374-1.62a1.399 1.399 0 00-.314-.868c-.202-.252-.538-.478-1.007-.676l-.053 3.164zm-2.876-9.205l.042-3.068c-.44.135-.763.332-.97.591-.205.26-.312.56-.319.9-.035.675.38 1.2 1.247 1.577zm18.355 10.61v-4.6l8.779-13.807h7.5V77.99h2.514v4.602h-2.514V86h-5.668v-3.41h-10.61zm10.74-4.601v-7.67h-.171l-4.73 7.5v.17h4.9zm16.278 5.028l-.086 1.193a14.375 14.375 0 01-.506 2.94 24.217 24.217 0 01-.841 2.493l-.559 1.355-.14.329h-3.621l.484-1.72c.21-.75.402-1.595.576-2.536a15.7 15.7 0 00.26-2.86v-1.194h4.433zm12.528 3.281c-1.676 0-3.162-.296-4.458-.89-1.297-.592-2.316-1.41-3.058-2.455-.742-1.044-1.12-2.244-1.135-3.6h5.753c.022.752.315 1.352.88 1.8.564.447 1.237.67 2.018.67.909 0 1.65-.287 2.221-.862.572-.575.854-1.339.847-2.29.007-.952-.275-1.716-.847-2.291s-1.312-.863-2.221-.863c-.625 0-1.202.151-1.731.453a2.76 2.76 0 00-1.167 1.252l-5.199-1.023.853-12.017h14.659v4.73h-9.801l-.427 4.815h.128c.341-.66.93-1.209 1.769-1.646.838-.436 1.81-.655 2.919-.655 1.3 0 2.459.302 3.478.906a6.567 6.567 0 012.418 2.498c.593 1.062.886 2.285.88 3.67.006 1.52-.354 2.868-1.082 4.043-.728 1.175-1.749 2.095-3.063 2.76-1.314.663-2.858.995-4.634.995zm20.838.299c-1.982-.008-3.693-.466-5.135-1.375-1.442-.909-2.553-2.22-3.334-3.93-.782-1.712-1.169-3.765-1.162-6.158.007-2.401.4-4.44 1.178-6.116.777-1.676 1.885-2.95 3.323-3.824 1.439-.874 3.148-1.31 5.13-1.31 1.982 0 3.693.438 5.135 1.315 1.442.877 2.553 2.154 3.334 3.83.782 1.676 1.169 3.711 1.162 6.105 0 2.407-.39 4.467-1.172 6.178-.781 1.712-1.891 3.02-3.33 3.926-1.438.906-3.147 1.359-5.129 1.359zm0-4.816c1.023 0 1.863-.534 2.52-1.603s.981-2.75.974-5.044c-.007-2.245-.335-3.885-.985-4.922-.65-1.037-1.486-1.556-2.509-1.556s-1.857.519-2.504 1.556c-.646 1.037-.976 2.677-.99 4.922-.007 2.294.318 3.975.974 5.044.657 1.069 1.497 1.603 2.52 1.603zm21.903-17.897c1.982 0 3.694.438 5.135 1.315 1.442.877 2.554 2.154 3.335 3.83.781 1.676 1.168 3.711 1.161 6.105 0 2.407-.39 4.467-1.172 6.178-.781 1.712-1.89 3.02-3.329 3.926-1.438.906-3.148 1.359-5.13 1.359-1.981-.008-3.693-.466-5.135-1.375-1.441-.909-2.553-2.22-3.334-3.93-.781-1.712-1.168-3.765-1.161-6.158.007-2.401.4-4.44 1.177-6.116.778-1.676 1.886-2.95 3.324-3.824 1.438-.874 3.148-1.31 5.13-1.31zm0 4.772c-1.022 0-1.857.519-2.503 1.556-.646 1.037-.977 2.677-.99 4.922-.008 2.294.317 3.975.974 5.044.657 1.069 1.497 1.603 2.52 1.603 1.022 0 1.862-.534 2.519-1.603s.982-2.75.975-5.044c-.007-2.245-.336-3.885-.986-4.922-.65-1.037-1.486-1.556-2.509-1.556z" fill="#232323" fill-rule="nonzero"/></g><path d="M269 134.81v-2.845h11.362v2.845h-3.932v10.159h-3.498v-10.16H269zm17.464 10.337c-1.064 0-1.975-.211-2.732-.632a4.308 4.308 0 01-1.743-1.765c-.404-.756-.606-1.633-.606-2.632 0-1 .202-1.876.606-2.632a4.308 4.308 0 011.743-1.765c.757-.421 1.668-.632 2.732-.632 1.064 0 1.974.21 2.732.632a4.308 4.308 0 011.742 1.765c.405.756.607 1.633.607 2.632 0 .999-.202 1.876-.607 2.632a4.308 4.308 0 01-1.742 1.765c-.758.421-1.668.632-2.732.632zm.025-2.591c.298 0 .556-.1.773-.298.217-.2.385-.483.504-.851.12-.369.179-.807.179-1.315 0-.512-.06-.95-.179-1.317-.12-.366-.287-.649-.504-.848a1.105 1.105 0 00-.773-.298c-.315 0-.585.1-.81.298-.226.2-.398.482-.517.848-.12.366-.179.805-.179 1.317 0 .508.06.946.179 1.315.119.368.291.652.517.85.225.2.495.299.81.299zm12.332-7.34v2.54h-6.46v-2.54h6.46zm-5.208-2.337h3.523v8.953c0 .136.024.249.07.34a.44.44 0 00.217.203.915.915 0 00.377.067c.106 0 .23-.013.373-.038a5.27 5.27 0 00.316-.064l.511 2.464c-.157.046-.382.103-.673.171a6.053 6.053 0 01-1.038.133c-.808.043-1.487-.04-2.036-.25-.549-.21-.962-.541-1.238-.994-.277-.453-.41-1.02-.402-1.702v-9.283zm9.37 12.242c-.626 0-1.178-.102-1.656-.308a2.47 2.47 0 01-1.127-.936c-.272-.42-.409-.953-.409-1.6 0-.534.092-.99.275-1.369a2.46 2.46 0 01.766-.93c.328-.241.71-.425 1.146-.552a6.89 6.89 0 011.413-.248c.55-.042.99-.094 1.325-.155.334-.062.575-.149.724-.26a.533.533 0 00.224-.448v-.026a.667.667 0 00-.294-.584c-.196-.135-.447-.203-.753-.203-.336 0-.61.073-.82.219-.21.146-.337.37-.38.67h-3.243c.043-.593.233-1.14.572-1.642.338-.501.833-.903 1.484-1.206.65-.303 1.464-.454 2.438-.454.702 0 1.332.082 1.89.245a4.468 4.468 0 011.423.679c.391.29.69.628.897 1.016.206.387.31.807.31 1.26v6.68h-3.294v-1.372h-.077a2.838 2.838 0 01-.712.883 2.67 2.67 0 01-.95.489 4.25 4.25 0 01-1.172.152zm1.149-2.21c.268 0 .52-.054.756-.165.236-.11.429-.268.578-.476.149-.207.223-.459.223-.755v-.813a4.367 4.367 0 01-.628.203 7.1 7.1 0 01-.37.083 9.43 9.43 0 01-.406.07 2.029 2.029 0 00-.667.206.993.993 0 00-.383.35.874.874 0 00-.124.46c0 .27.095.478.287.622.191.144.436.216.734.216zm10.264-10.946v13.004h-3.524v-13.004h3.524zm17.515 4.876h-3.6a2.47 2.47 0 00-.201-.806 1.914 1.914 0 00-.447-.625 1.958 1.958 0 00-.686-.407 2.716 2.716 0 00-.913-.143c-.596 0-1.1.144-1.51.432-.41.288-.721.7-.932 1.238-.21.538-.316 1.183-.316 1.937 0 .796.108 1.461.323 1.997.215.535.526.937.935 1.206.408.27.9.403 1.474.403.328 0 .622-.04.881-.123.26-.083.485-.202.677-.36.191-.156.348-.345.469-.567.121-.223.203-.473.246-.753l3.6.026a4.805 4.805 0 01-.466 1.679 5.443 5.443 0 01-2.962 2.733c-.723.293-1.564.439-2.521.439-1.2 0-2.276-.257-3.227-.769-.951-.512-1.702-1.265-2.253-2.26-.551-.995-.827-2.212-.827-3.651 0-1.448.281-2.668.843-3.66.562-.993 1.319-1.744 2.272-2.255.953-.51 2.017-.765 3.192-.765a7.37 7.37 0 012.278.337 5.524 5.524 0 011.826.98 4.9 4.9 0 011.264 1.585c.319.627.513 1.344.58 2.152zm6.383 8.306c-1.064 0-1.975-.211-2.732-.632a4.308 4.308 0 01-1.743-1.765c-.404-.756-.606-1.633-.606-2.632 0-1 .202-1.876.606-2.632a4.308 4.308 0 011.743-1.765c.757-.421 1.668-.632 2.732-.632 1.063 0 1.974.21 2.732.632a4.308 4.308 0 011.742 1.765c.404.756.606 1.633.606 2.632 0 .999-.202 1.876-.606 2.632a4.308 4.308 0 01-1.742 1.765c-.758.421-1.669.632-2.732.632zm.025-2.591c.298 0 .555-.1.772-.298.218-.2.386-.483.505-.851.119-.369.178-.807.178-1.315 0-.512-.06-.95-.178-1.317-.12-.366-.287-.649-.505-.848a1.105 1.105 0 00-.772-.298c-.315 0-.585.1-.81.298-.226.2-.398.482-.518.848-.119.366-.178.805-.178 1.317 0 .508.06.946.178 1.315.12.368.292.652.518.85.225.2.495.299.81.299zm10.009-3.073v5.486h-3.524v-9.753h3.345v1.854h.102a2.76 2.76 0 011.127-1.454c.538-.351 1.167-.527 1.886-.527.693 0 1.297.158 1.81.473.512.315.91.748 1.193 1.299.283.55.422 1.178.418 1.885v6.223h-3.523v-5.486c.004-.483-.118-.862-.367-1.137-.25-.275-.595-.412-1.038-.412-.289 0-.541.062-.756.187-.215.125-.38.303-.495.533a1.895 1.895 0 00-.178.829zm17.974-4.267l-3.293 9.753h-4.086l-3.293-9.753h3.702l1.583 6.451h.102l1.583-6.451h3.702zm4.11 3.759h3.141a1.371 1.371 0 00-.214-.74 1.44 1.44 0 00-.555-.501 1.683 1.683 0 00-.788-.181c-.285 0-.547.06-.785.18-.239.121-.43.287-.572.499-.142.212-.218.46-.226.743zm0 1.93v.153c0 .313.067.592.199.838.132.245.32.438.568.577.247.14.544.21.893.21.243 0 .465-.034.667-.102.202-.067.376-.166.52-.295a1.16 1.16 0 00.32-.467h3.217a3.617 3.617 0 01-.785 1.762c-.413.498-.959.883-1.638 1.156-.678.273-1.47.41-2.377.41-1.047 0-1.948-.2-2.703-.6a4.145 4.145 0 01-1.743-1.727c-.406-.752-.61-1.652-.61-2.702 0-1.008.205-1.888.613-2.642a4.367 4.367 0 011.73-1.758c.745-.42 1.623-.629 2.636-.629.74 0 1.41.114 2.01.343.6.229 1.114.56 1.54.994.425.433.752.96.982 1.577.23.618.345 1.315.345 2.09v.812h-6.383zm7.814 4.064v-9.753h3.42v1.854h.103c.179-.686.463-1.187.852-1.505.39-.317.846-.476 1.37-.476a3.204 3.204 0 01.894.133l-.001 2.991a3.169 3.169 0 00-.645-.133 5.826 5.826 0 00-.657-.045 1.86 1.86 0 00-.929.232c-.274.154-.49.37-.648.648a1.94 1.94 0 00-.236.974v5.08h-3.523zm13.634-9.753v2.54h-6.46v-2.54h6.46zm-5.209-2.337h3.523v8.953c0 .136.024.249.07.34a.44.44 0 00.218.203.915.915 0 00.376.067c.107 0 .231-.013.374-.038a5.27 5.27 0 00.316-.064l.51 2.464c-.157.046-.382.103-.673.171a6.053 6.053 0 01-1.037.133c-.809.043-1.488-.04-2.037-.25-.548-.21-.961-.541-1.238-.994-.276-.453-.41-1.02-.402-1.702v-9.283zm6.638 12.09v-9.753h3.524v9.753h-3.524zm1.768-10.769a1.75 1.75 0 01-1.231-.47c-.34-.313-.511-.69-.511-1.13 0-.44.17-.817.51-1.13.341-.313.75-.47 1.226-.47.48 0 .89.157 1.229.47.338.313.507.69.507 1.13 0 .44-.169.817-.507 1.13-.339.314-.746.47-1.223.47zm3.492 10.769v-13.004h3.523v4.953h.051a2.98 2.98 0 01.562-.911c.247-.278.553-.5.92-.667.365-.167.79-.251 1.276-.251a3.6 3.6 0 011.848.514c.585.343 1.061.883 1.43 1.62.368.736.552 1.693.552 2.87 0 1.125-.176 2.059-.527 2.8-.351.74-.82 1.293-1.404 1.657a3.573 3.573 0 01-1.925.546c-.46 0-.869-.075-1.228-.226a2.736 2.736 0 01-1.504-1.501h-.076v1.6h-3.498zm3.447-4.877c0 .475.063.884.188 1.229.126.345.304.612.536.8.232.188.51.283.833.283.324 0 .6-.092.827-.277.227-.184.402-.448.523-.793.121-.345.182-.759.182-1.242 0-.482-.06-.896-.182-1.24-.121-.346-.296-.61-.523-.795a1.273 1.273 0 00-.827-.276c-.323 0-.6.092-.833.276-.232.185-.41.45-.536.794-.125.345-.188.759-.188 1.241zm11.719-8.127v13.004h-3.524v-13.004h3.524zm4.902 7.01h3.14a1.371 1.371 0 00-.213-.74 1.44 1.44 0 00-.556-.501 1.683 1.683 0 00-.788-.181c-.285 0-.547.06-.785.18a1.48 1.48 0 00-.571.499c-.143.212-.218.46-.227.743zm0 1.93v.153c0 .313.066.592.198.838.132.245.321.438.568.577.247.14.545.21.894.21.242 0 .464-.034.667-.102.202-.067.375-.166.52-.295.145-.129.25-.285.319-.467H425a3.617 3.617 0 01-.785 1.762c-.413.498-.959.883-1.637 1.156-.68.273-1.472.41-2.378.41-1.047 0-1.948-.2-2.703-.6a4.145 4.145 0 01-1.743-1.727c-.406-.752-.61-1.652-.61-2.702 0-1.008.205-1.888.613-2.642a4.367 4.367 0 011.73-1.758c.745-.42 1.624-.629 2.636-.629.74 0 1.411.114 2.011.343.6.229 1.113.56 1.538.994a4.4 4.4 0 01.983 1.577c.23.618.345 1.315.345 2.09v.812h-6.383zm-144.23 25.917h-5.03V153.82h4.98c1.344 0 2.507.259 3.487.777a5.442 5.442 0 012.273 2.235c.534.972.8 2.135.8 3.49 0 1.354-.265 2.517-.797 3.488a5.436 5.436 0 01-2.26 2.235c-.974.519-2.125.778-3.453.778zm-1.48-2.997h1.353c.646 0 1.199-.103 1.656-.31.457-.208.806-.566 1.047-1.074.24-.508.36-1.215.36-2.12 0-.906-.122-1.613-.367-2.121-.244-.508-.602-.866-1.072-1.073-.47-.208-1.046-.312-1.727-.312h-1.25v7.01zm12.79-2.997h3.141a1.371 1.371 0 00-.214-.74 1.44 1.44 0 00-.555-.501 1.683 1.683 0 00-.788-.18c-.285 0-.547.06-.785.18a1.48 1.48 0 00-.572.498c-.142.212-.218.46-.226.743zm0 1.93v.153c0 .313.067.593.199.838.132.246.321.438.568.578.247.14.545.21.893.21.243 0 .465-.034.667-.102.203-.068.376-.166.52-.295.145-.13.252-.285.32-.467h3.217a3.617 3.617 0 01-.785 1.762c-.413.497-.959.882-1.637 1.155-.68.273-1.472.41-2.378.41-1.047 0-1.948-.2-2.703-.6a4.145 4.145 0 01-1.743-1.727c-.406-.751-.61-1.652-.61-2.702 0-1.007.205-1.888.613-2.641a4.367 4.367 0 011.73-1.759c.745-.419 1.623-.629 2.636-.629.74 0 1.41.115 2.01.343.6.229 1.114.56 1.54.994.425.434.752.96.982 1.578.23.618.345 1.314.345 2.089v.813h-6.383zm7.763 4.064V153.82h3.523v4.952h.051a2.98 2.98 0 01.562-.911c.247-.277.553-.5.919-.667.366-.167.791-.25 1.276-.25a3.6 3.6 0 011.848.514c.585.343 1.062.882 1.43 1.619.368.736.552 1.693.552 2.87 0 1.126-.175 2.06-.526 2.8-.351.74-.82 1.293-1.405 1.657a3.573 3.573 0 01-1.924.546c-.46 0-.87-.075-1.229-.225a2.736 2.736 0 01-1.503-1.502h-.077v1.6h-3.497zm3.446-4.876c0 .474.063.883.189 1.228.125.345.304.612.536.8.232.189.51.283.833.283.323 0 .599-.092.826-.276.228-.184.403-.449.524-.794.121-.345.182-.759.182-1.241 0-.483-.06-.896-.182-1.241-.121-.345-.296-.61-.524-.794a1.273 1.273 0 00-.826-.276c-.324 0-.601.092-.833.276-.232.184-.41.449-.536.794-.126.345-.189.758-.189 1.24zm14.043-4.877v2.54h-6.46v-2.54h6.46zm-5.209-2.336h3.524v8.953a.74.74 0 00.07.34.44.44 0 00.217.202.915.915 0 00.377.067c.106 0 .23-.013.373-.038a5.27 5.27 0 00.316-.063l.51 2.463c-.157.047-.381.104-.673.172a6.053 6.053 0 01-1.037.133c-.808.042-1.487-.041-2.036-.25-.55-.21-.962-.542-1.238-.995-.277-.453-.411-1.02-.403-1.701v-9.283zm13.711 5.054h1.251c.417 0 .774-.052 1.07-.156.295-.103.523-.27.682-.498.16-.229.24-.527.24-.895 0-.373-.08-.676-.24-.911a1.397 1.397 0 00-.683-.521c-.295-.112-.652-.168-1.069-.168h-1.25v3.149zm0 2.743v4.292h-3.549V153.82h5.643c.97 0 1.819.175 2.546.527a3.96 3.96 0 011.698 1.517c.405.66.607 1.452.607 2.375 0 .931-.208 1.716-.623 2.355-.414.64-.995 1.122-1.742 1.448-.747.326-1.618.489-2.614.489h-1.966zm4.11-1.676l3.269 5.968h-3.856l-3.191-5.968h3.779zm7.507-.026h3.14a1.371 1.371 0 00-.213-.74 1.44 1.44 0 00-.556-.501 1.683 1.683 0 00-.788-.18c-.285 0-.547.06-.785.18s-.429.287-.571.498c-.143.212-.218.46-.227.743zm0 1.93v.153c0 .313.066.593.198.838.132.246.321.438.568.578.247.14.545.21.894.21.242 0 .465-.034.667-.102.202-.068.375-.166.52-.295.145-.13.251-.285.319-.467h3.217a3.617 3.617 0 01-.785 1.762c-.413.497-.959.882-1.637 1.155-.679.273-1.472.41-2.378.41-1.047 0-1.948-.2-2.703-.6a4.145 4.145 0 01-1.743-1.727c-.406-.751-.61-1.652-.61-2.702 0-1.007.205-1.888.614-2.641a4.367 4.367 0 011.73-1.759c.744-.419 1.623-.629 2.635-.629.74 0 1.411.115 2.011.343.6.229 1.113.56 1.538.994.426.434.754.96.983 1.578.23.618.345 1.314.345 2.089v.813h-6.383zM343.604 167c-1.064 0-1.974-.21-2.732-.632a4.308 4.308 0 01-1.742-1.765c-.404-.756-.607-1.633-.607-2.632 0-.999.203-1.876.607-2.632a4.308 4.308 0 011.742-1.765c.758-.42 1.668-.632 2.732-.632.962 0 1.795.173 2.5.518.703.345 1.25.832 1.636 1.46.388.629.583 1.367.588 2.213h-3.268c-.047-.512-.195-.903-.444-1.171-.249-.27-.57-.404-.96-.404-.307 0-.575.088-.805.264-.23.176-.408.44-.536.794-.128.353-.192.796-.192 1.33 0 .533.064.977.192 1.33.128.353.306.618.536.794.23.175.498.263.804.263.26 0 .49-.06.69-.18.2-.121.362-.3.488-.534a2.16 2.16 0 00.227-.86h3.268c-.013.859-.211 1.607-.594 2.244a3.834 3.834 0 01-1.624 1.476c-.7.347-1.536.521-2.506.521zm9.294-6.172h3.14a1.371 1.371 0 00-.214-.74 1.44 1.44 0 00-.555-.501 1.683 1.683 0 00-.788-.18c-.285 0-.547.06-.785.18a1.48 1.48 0 00-.572.498c-.142.212-.218.46-.226.743zm0 1.93v.153c0 .313.066.593.198.838.132.246.321.438.568.578.247.14.545.21.893.21.243 0 .465-.034.667-.102.203-.068.376-.166.52-.295.145-.13.252-.285.32-.467h3.217a3.617 3.617 0 01-.785 1.762c-.413.497-.959.882-1.637 1.155-.68.273-1.472.41-2.378.41-1.047 0-1.948-.2-2.703-.6a4.145 4.145 0 01-1.743-1.727c-.406-.751-.61-1.652-.61-2.702 0-1.007.205-1.888.613-2.641a4.367 4.367 0 011.73-1.759c.745-.419 1.623-.629 2.636-.629.74 0 1.41.115 2.01.343.6.229 1.114.56 1.54.994.425.434.752.96.982 1.578.23.618.345 1.314.345 2.089v.813h-6.383zm7.813 4.064v-9.753h3.523v9.753h-3.523zm1.768-10.768c-.481 0-.892-.157-1.232-.47-.34-.314-.51-.69-.51-1.13 0-.44.17-.817.51-1.13.34-.314.749-.47 1.225-.47.481 0 .89.156 1.23.47.337.313.507.69.507 1.13 0 .44-.17.816-.508 1.13-.338.313-.746.47-1.222.47zm13.423 1.015l-3.293 9.753h-4.086l-3.293-9.753h3.702l1.583 6.451h.102l1.583-6.45h3.702zm4.11 3.76h3.141a1.371 1.371 0 00-.214-.74 1.44 1.44 0 00-.555-.502 1.683 1.683 0 00-.788-.18c-.285 0-.547.06-.785.18-.239.12-.43.287-.572.498-.142.212-.218.46-.226.743zm0 1.93v.152c0 .313.067.593.199.838.132.246.32.438.568.578.247.14.544.21.893.21.243 0 .465-.034.667-.102.202-.068.376-.166.52-.295.145-.13.252-.285.32-.467h3.217a3.617 3.617 0 01-.785 1.762c-.413.497-.959.882-1.638 1.155-.678.273-1.47.41-2.377.41-1.047 0-1.948-.2-2.703-.6a4.145 4.145 0 01-1.743-1.727c-.406-.751-.61-1.652-.61-2.702 0-1.007.205-1.888.613-2.641a4.367 4.367 0 011.73-1.759c.745-.419 1.623-.629 2.636-.629.74 0 1.41.115 2.01.343.6.229 1.114.56 1.54.994.425.434.752.96.982 1.578.23.618.345 1.314.345 2.089v.813h-6.383zm11.362 4.19a3.573 3.573 0 01-1.924-.546c-.585-.364-1.053-.916-1.404-1.657-.351-.74-.527-1.674-.527-2.8 0-1.177.184-2.134.552-2.87.368-.737.845-1.276 1.43-1.62a3.6 3.6 0 011.848-.514c.485 0 .91.084 1.277.251.365.167.672.39.919.667.246.277.434.58.561.911h.051v-4.952h3.524v13.003h-3.498v-1.6h-.077a2.736 2.736 0 01-1.503 1.502c-.36.15-.769.225-1.229.225zm1.303-2.692c.323 0 .6-.094.833-.283.231-.188.41-.455.536-.8.125-.345.188-.754.188-1.228 0-.483-.063-.896-.188-1.241-.126-.345-.305-.61-.536-.794a1.298 1.298 0 00-.833-.276c-.324 0-.6.092-.827.276-.228.184-.402.449-.523.794-.122.345-.182.758-.182 1.24 0 .483.06.897.182 1.242.12.345.295.61.523.794.228.184.503.276.827.276z" fill="#618CFA" fill-rule="nonzero"/><circle fill="#F5B325" cx="440" cy="178" r="23"/><g transform="scale(-1 1) rotate(-12 900.698 1346.25)"><mask id="b" fill="#fff"><use xlink:href="#a"/></mask><path d="M83.366 34.793c-11.69-1.983-23.514-2.58-35.177-5.01-10.962-2.282-21.536-5.608-32.275-8.659a44.975 44.975 0 00-3.072-5.55c2.661.302 5.333.313 7.956-.25 8.237 3.618 17.512 5.708 26.091 7.71 10.308 2.404 20.986 4.418 31.563 5.081 3.093.193 2.964-4.439 0-4.779-10.615-1.218-21.16-2.254-31.662-4.34-7.167-1.426-14.207-3.628-21.307-5.398 3.448-1.733 6.547-4.173 10.08-5.845 4.025-1.904 1.122-8.03-2.94-7.028-4.198 1.037-6.97 4.164-10.775 5.98-5.446 2.602-11.546.894-17.095-.53-3.682-.945-6.115 3.526-3.622 6.27C7.142 19.063 9.86 27.003 14.89 34.131c1.12 1.587 3.484 1.017 3.615-.986.187-2.887-.304-5.776-1.234-8.594 9.563 4.049 19.771 6.951 29.79 9.359 11.431 2.747 23.85 5.707 35.659 5.705 2.653 0 3.429-4.35.647-4.822" fill="#618CFA" mask="url(#b)"/></g><path d="M30.261 209h-1.863l4.187-11.636h2.029L38.8 209h-1.864l-1.062-3.08H31.33L30.26 209zm1.58-4.557h3.523l-1.716-4.966h-.091l-1.716 4.966zm10.562-.625V209h-1.698v-8.727h1.63v1.42h.108c.2-.462.516-.833.946-1.113.43-.28.973-.42 1.628-.42.894 0 1.613.277 2.156.834.544.557.816 1.375.816 2.455V209h-1.7v-5.347c0-.632-.164-1.127-.494-1.485-.33-.358-.782-.537-1.358-.537-.59 0-1.077.19-1.46.57-.382.381-.574.92-.574 1.617zm11.881 8.62c-1.042 0-1.863-.196-2.463-.586-.6-.39-1.016-.848-1.247-1.375l1.46-.602c.102.16.24.331.412.517s.407.345.705.477c.297.133.68.2 1.15.2.644 0 1.176-.156 1.597-.467.42-.31.63-.803.63-1.477v-1.716h-.108a4.048 4.048 0 01-.437.62 2.39 2.39 0 01-.787.59c-.335.167-.77.25-1.304.25a3.593 3.593 0 01-1.855-.485c-.551-.324-.988-.804-1.31-1.438-.322-.634-.483-1.416-.483-2.344 0-.928.158-1.723.475-2.386.316-.663.75-1.171 1.304-1.526a3.412 3.412 0 011.88-.53c.542 0 .98.09 1.316.269.335.18.596.39.784.628.187.238.33.449.429.63h.125v-1.414h1.665v8.92c0 .743-.175 1.353-.523 1.833-.349.479-.82.834-1.412 1.065-.593.231-1.26.346-2.003.346zm-.017-4.978c.735 0 1.298-.255 1.69-.764.392-.51.588-1.215.588-2.116 0-.883-.194-1.6-.582-2.151-.388-.551-.954-.827-1.696-.827-.511 0-.937.132-1.278.395a2.4 2.4 0 00-.77 1.068 4.197 4.197 0 00-.259 1.515c0 .856.195 1.55.585 2.082.39.532.964.798 1.722.798zm10.358 1.716c-.856 0-1.595-.185-2.216-.557a3.705 3.705 0 01-1.435-1.565c-.335-.672-.502-1.46-.502-2.36 0-.895.167-1.683.502-2.364a3.856 3.856 0 011.41-1.597c.604-.383 1.311-.574 2.122-.574.659 0 1.283.147 1.872.44.589.294 1.068.762 1.437 1.404.37.642.554 1.49.554 2.542v.603h-6.204c.023.84.26 1.488.71 1.943.45.454 1.04.682 1.767.682.485 0 .903-.104 1.256-.313.352-.208.604-.519.755-.932l1.608.29c-.193.709-.61 1.279-1.25 1.71-.64.432-1.435.648-2.386.648zm-2.455-5.301h4.535c-.004-.667-.205-1.219-.603-1.656-.397-.438-.926-.656-1.585-.656-.458 0-.859.107-1.202.32a2.352 2.352 0 00-.812.847c-.199.35-.31.732-.333 1.145zm10.154-6.511V209h-1.699v-11.636h1.699zm4.108 0v1.09c0 .482-.13.993-.392 1.535a3.813 3.813 0 01-1.051 1.34l-.841-.602a6.57 6.57 0 00.582-1.042c.165-.37.247-.774.247-1.213v-1.108h1.455zm7.858 5.04l-1.54.272a1.93 1.93 0 00-.548-.804c-.267-.244-.666-.366-1.196-.366-.481 0-.884.107-1.208.32-.324.215-.484.49-.48.827a.848.848 0 00.321.708c.218.176.567.32 1.049.434l1.386.319c1.59.367 2.386 1.155 2.386 2.363 0 .527-.15.993-.451 1.398-.302.405-.72.723-1.256.955-.536.23-1.156.346-1.861.346-.981 0-1.778-.21-2.392-.628-.614-.418-.992-1.014-1.136-1.787l1.642-.25c.204.864.83 1.296 1.875 1.296.557 0 1.002-.117 1.335-.35.333-.233.5-.518.5-.855 0-.557-.411-.926-1.233-1.108l-1.477-.324c-.819-.181-1.42-.477-1.807-.886-.387-.409-.58-.922-.58-1.54 0-.515.144-.967.432-1.355.288-.388.686-.69 1.193-.906.508-.216 1.09-.324 1.745-.324.943 0 1.685.205 2.227.614.542.409.9.952 1.074 1.63zm7.494.778c0-1.424.188-2.735.563-3.932a11.718 11.718 0 011.642-3.313h1.556c-.37.5-.708 1.146-1.01 1.938a15.289 15.289 0 00-.722 2.571 14.41 14.41 0 00-.268 2.736c0 .901.09 1.814.267 2.738.179.925.42 1.783.722 2.574.303.792.64 1.438 1.011 1.938H93.99a11.71 11.71 0 01-1.642-3.316c-.375-1.198-.563-2.51-.563-3.934zm5.153-5.818h1.995l3.04 5.29h.125l3.04-5.29h1.994l-4.222 7.068V209h-1.75v-4.568l-4.222-7.068zm21.722 5.818c0 1.238-.227 2.305-.682 3.199-.454.894-1.076 1.58-1.866 2.06-.79.479-1.687.718-2.69.718-1.008 0-1.907-.24-2.697-.719s-1.411-1.165-1.866-2.06c-.455-.893-.682-1.96-.682-3.198 0-1.243.227-2.31.682-3.202.455-.892 1.077-1.578 1.866-2.057.79-.479 1.689-.718 2.696-.718 1.004 0 1.901.24 2.69.718.79.48 1.413 1.165 1.867 2.057.455.892.682 1.96.682 3.202zm-1.739 0c0-.947-.152-1.745-.457-2.395-.305-.65-.722-1.142-1.25-1.477a3.275 3.275 0 00-1.793-.503c-.666 0-1.264.167-1.792.503-.529.335-.945.827-1.25 1.477-.305.65-.458 1.448-.458 2.395 0 .943.153 1.74.458 2.392.305.651.721 1.145 1.25 1.48a3.275 3.275 0 001.792.503c.667 0 1.265-.168 1.793-.503.528-.335.945-.829 1.25-1.48.305-.652.457-1.449.457-2.392zm11.773-5.818h1.756v7.698c0 .876-.207 1.62-.62 2.236a3.976 3.976 0 01-1.667 1.41c-.699.323-1.478.485-2.338.485-.856 0-1.634-.162-2.333-.486a3.976 3.976 0 01-1.667-1.409c-.413-.615-.62-1.36-.62-2.236v-7.698h1.756v7.67c0 .542.13 1.003.392 1.384.262.38.61.67 1.043.866.434.197.91.296 1.429.296.523 0 1.002-.099 1.437-.296a2.46 2.46 0 001.043-.866c.26-.381.39-.842.39-1.384v-7.67zM133.37 209v-11.636h4.148c.902 0 1.65.155 2.244.466.595.31 1.041.74 1.338 1.286.298.548.446 1.18.446 1.895 0 .78-.177 1.456-.53 2.026-.355.57-.89.988-1.606 1.253l2.58 4.71h-2l-2.364-4.403h-2.5V209h-1.756zm1.756-5.915h2.227c.856 0 1.475-.182 1.855-.545.381-.364.571-.873.571-1.529 0-.659-.19-1.18-.573-1.565-.383-.384-1.008-.577-1.875-.577h-2.205v4.216zm12.057.102c0 1.425-.188 2.735-.563 3.932a11.718 11.718 0 01-1.642 3.313h-1.557c.372-.5.709-1.146 1.012-1.938.303-.791.543-1.648.721-2.57a14.41 14.41 0 00.267-2.737c0-.901-.089-1.814-.267-2.738a15.272 15.272 0 00-.721-2.574c-.303-.792-.64-1.438-1.012-1.938h1.557a11.71 11.71 0 011.642 3.316c.375 1.199.563 2.51.563 3.935zM31.034 215.364V227h-1.756v-11.636h1.756zm4.483 6.454V227h-1.699v-8.727h1.63v1.42h.109c.2-.462.516-.833.946-1.113.43-.28.972-.42 1.628-.42.894 0 1.612.277 2.156.834.543.557.815 1.375.815 2.455V227h-1.699v-5.347c0-.632-.164-1.127-.494-1.485-.33-.358-.782-.537-1.358-.537-.59 0-1.078.19-1.46.57-.383.381-.574.92-.574 1.617zm15.37-3.545L47.721 227h-1.819l-3.17-8.727h1.824l2.21 6.716h.091l2.205-6.716h1.823zm5.414 8.903c-.856 0-1.595-.185-2.216-.557a3.705 3.705 0 01-1.434-1.565c-.336-.672-.503-1.46-.503-2.36 0-.895.167-1.683.503-2.364a3.856 3.856 0 011.409-1.597c.604-.383 1.311-.574 2.122-.574.659 0 1.283.147 1.872.44.589.294 1.068.762 1.437 1.404.37.642.554 1.49.554 2.542v.603h-6.204c.023.84.26 1.488.71 1.943.45.454 1.04.682 1.767.682.485 0 .904-.104 1.256-.313a1.74 1.74 0 00.756-.932l1.608.29c-.194.709-.61 1.279-1.25 1.71-.64.432-1.436.648-2.387.648zm-2.454-5.301h4.534c-.004-.667-.205-1.219-.603-1.656-.397-.438-.926-.656-1.585-.656-.458 0-.859.107-1.202.32a2.352 2.352 0 00-.812.847c-.199.35-.31.732-.332 1.145zm14.994-1.472l-1.54.273a1.93 1.93 0 00-.548-.804c-.267-.244-.666-.366-1.196-.366-.481 0-.884.107-1.208.32-.323.215-.483.49-.48.827a.848.848 0 00.321.708c.218.176.568.32 1.049.434l1.386.319c1.59.367 2.386 1.155 2.386 2.363 0 .527-.15.993-.451 1.398-.301.405-.72.723-1.256.955-.536.23-1.156.346-1.86.346-.982 0-1.78-.21-2.393-.628-.614-.418-.992-1.014-1.136-1.787l1.642-.25c.204.864.83 1.296 1.875 1.296.557 0 1.002-.117 1.335-.35.333-.233.5-.518.5-.855 0-.557-.41-.926-1.233-1.108l-1.477-.324c-.818-.181-1.42-.477-1.807-.886-.386-.409-.58-.922-.58-1.54 0-.515.144-.967.432-1.355.288-.388.686-.69 1.193-.906.508-.216 1.09-.324 1.745-.324.943 0 1.685.205 2.227.614.542.409.9.952 1.074 1.63zm6.472-2.13v1.363h-1.79v4.802c0 .492.105.81.315.951.21.142.454.213.73.213.137 0 .256-.01.358-.028l.239-.046.307 1.404c-.099.038-.24.077-.424.116-.183.04-.41.062-.679.066a3.01 3.01 0 01-1.253-.239 2.123 2.123 0 01-.937-.773c-.237-.348-.355-.786-.355-1.312v-5.154h-1.279v-1.363h1.279v-2.091h1.699v2.09h1.79zM77.55 227v-8.727h1.63v1.42h.109a2.27 2.27 0 01.892-1.128c.413-.27.907-.406 1.483-.406.583 0 1.073.136 1.469.41.395.272.688.647.877 1.124h.091a2.51 2.51 0 01.997-1.116c.453-.279.994-.418 1.623-.418.791 0 1.438.25 1.94.747.502.498.753 1.246.753 2.242V227h-1.7v-5.693c0-.591-.16-1.02-.48-1.284a1.754 1.754 0 00-1.155-.398c-.553 0-.983.17-1.29.511-.307.341-.46.775-.46 1.302V227h-1.694v-5.801c0-.474-.147-.854-.443-1.142-.295-.288-.68-.432-1.153-.432-.481 0-.9.186-1.256.557-.356.371-.534.85-.534 1.437V227H77.55zm18.261.176c-.856 0-1.594-.185-2.215-.557a3.705 3.705 0 01-1.435-1.565c-.335-.672-.503-1.46-.503-2.36 0-.895.168-1.683.503-2.364a3.856 3.856 0 011.409-1.597c.604-.383 1.312-.574 2.122-.574.66 0 1.283.147 1.872.44.59.294 1.069.762 1.438 1.404.37.642.554 1.49.554 2.542v.603h-6.205c.023.84.26 1.488.71 1.943.451.454 1.04.682 1.768.682.484 0 .903-.104 1.255-.313.353-.208.604-.519.756-.932l1.608.29c-.193.709-.61 1.279-1.25 1.71-.64.432-1.436.648-2.386.648zm-2.454-5.301h4.534c-.004-.667-.204-1.219-.602-1.656-.398-.438-.926-.656-1.585-.656-.459 0-.86.107-1.202.32a2.352 2.352 0 00-.813.847c-.199.35-.31.732-.332 1.145zm10.153-.057V227h-1.698v-8.727h1.63v1.42h.108c.2-.462.516-.833.946-1.113.43-.28.973-.42 1.628-.42.894 0 1.613.277 2.156.834.544.557.816 1.375.816 2.455V227h-1.7v-5.347c0-.632-.164-1.127-.494-1.485-.33-.358-.782-.537-1.358-.537-.59 0-1.077.19-1.46.57-.382.381-.574.92-.574 1.617zm12.296-3.545v1.363h-1.79v4.802c0 .492.105.81.315.951.21.142.454.213.73.213.137 0 .256-.01.358-.028l.24-.046.306 1.404c-.099.038-.24.077-.423.116-.184.04-.41.062-.68.066a3.01 3.01 0 01-1.252-.239 2.123 2.123 0 01-.938-.773c-.236-.348-.355-.786-.355-1.312v-5.154h-1.278v-1.363h1.278v-2.091h1.699v2.09h1.79zm-79.219 44.454l.032-2.514c-2.316-.213-4.153-.936-5.514-2.168-1.36-1.232-2.054-3.002-2.082-5.31h5.05c.042.823.294 1.49.756 1.997.461.508 1.076.854 1.843 1.039l.064-4.826-1.066-.245c-1.882-.434-3.368-1.135-4.458-2.104-1.09-.97-1.632-2.282-1.625-3.937-.007-1.236.297-2.333.911-3.292.615-.959 1.474-1.735 2.578-2.328 1.105-.593 2.378-.96 3.82-1.102l.032-2.482h2.77l-.033 2.514c2.096.255 3.752.989 4.97 2.2 1.218 1.21 1.838 2.729 1.86 4.554h-5.05c-.107-1.165-.718-1.925-1.833-2.28l-.064 4.539.565.127c2.152.476 3.801 1.254 4.948 2.333 1.147 1.08 1.725 2.49 1.732 4.23-.007 1.903-.66 3.427-1.96 4.57-1.3 1.144-3.115 1.808-5.445 1.992l-.031 2.493h-2.77zm2.855-6.967c1.32-.327 1.988-1.026 2.003-2.099-.015-.866-.664-1.53-1.95-1.992l-.053 4.09zm-2.653-9.482l.053-3.899c-.596.142-1.044.384-1.342.725a1.8 1.8 0 00-.458 1.193c-.014.476.133.872.442 1.188.309.316.744.58 1.305.793zm18.825 10.1v-4.112l8.938-14.084h6.637v14.041h2.61v4.155h-2.61V260h-5.04v-3.622H55.615zm10.642-4.155v-8.459h-.17l-5.23 8.289v.17h5.4zm15.672 4.794l-.096 1.183a16.05 16.05 0 01-.517 2.876 25.65 25.65 0 01-.826 2.52l-.553 1.39-.14.34h-3.28l.324-1.2.139-.53c.195-.75.378-1.593.549-2.53.17-.938.266-1.89.287-2.856l.022-1.193h4.09zm12.304 3.281c-1.59 0-3.006-.287-4.245-.863-1.24-.575-2.216-1.367-2.93-2.375-.714-1.009-1.081-2.167-1.102-3.473h5.113c.036.802.36 1.447.975 1.933.614.487 1.344.73 2.19.73.994 0 1.809-.321 2.444-.964.636-.643.95-1.486.943-2.53.007-1.051-.31-1.9-.953-2.546-.643-.647-1.465-.97-2.467-.97a3.834 3.834 0 00-1.8.416c-.561.284-.987.67-1.279 1.16l-4.655-.873.948-11.761h13.999v4.25H91.75l-.5 5.146h.127c.362-.604.947-1.103 1.753-1.497.806-.394 1.724-.59 2.754-.59 1.306 0 2.473.303 3.5.91a6.55 6.55 0 012.428 2.52c.593 1.072.89 2.3.89 3.686 0 1.498-.354 2.826-1.06 3.984-.707 1.158-1.694 2.065-2.962 2.722-1.268.657-2.75.985-4.448.985zm20.38.235c-1.903 0-3.546-.453-4.927-1.359-1.381-.905-2.443-2.208-3.185-3.91-.743-1.7-1.11-3.748-1.103-6.141.007-3.587.831-6.357 2.472-8.31 1.64-1.953 3.888-2.93 6.743-2.93 1.904 0 3.546.44 4.927 1.316 1.382.877 2.445 2.154 3.191 3.83.746 1.676 1.115 3.707 1.108 6.094 0 2.4-.373 4.453-1.119 6.158-.745 1.704-1.807 3.006-3.185 3.904-1.378.898-3.018 1.348-4.922 1.348zm0-4.315c1.144 0 2.065-.58 2.765-1.742.7-1.161 1.046-2.945 1.038-5.353-.007-2.358-.358-4.107-1.054-5.247-.696-1.14-1.612-1.71-2.749-1.71-1.13 0-2.042.57-2.738 1.71-.696 1.14-1.047 2.889-1.054 5.247-.007 2.408.339 4.192 1.038 5.353.7 1.161 1.618 1.742 2.754 1.742zm21.275-18.334c1.903 0 3.546.438 4.927 1.315 1.382.877 2.445 2.154 3.191 3.83.746 1.676 1.115 3.707 1.108 6.094 0 2.4-.373 4.453-1.119 6.158-.745 1.704-1.807 3.006-3.185 3.904-1.378.898-3.019 1.348-4.922 1.348-1.903 0-3.546-.453-4.927-1.359-1.382-.905-2.443-2.208-3.185-3.91-.743-1.7-1.11-3.748-1.103-6.141.007-3.587.83-6.357 2.471-8.31 1.641-1.953 3.889-2.93 6.744-2.93zm0 4.282c-1.13 0-2.042.57-2.738 1.71-.696 1.14-1.047 2.889-1.055 5.247-.007 2.408.34 4.192 1.04 5.353.699 1.161 1.617 1.742 2.753 1.742 1.144 0 2.065-.58 2.765-1.742.7-1.161 1.045-2.945 1.038-5.353-.007-2.358-.358-4.107-1.054-5.247-.696-1.14-1.613-1.71-2.749-1.71z" fill="#232323" fill-rule="nonzero"/><path d="M431.108 171.91V185h-3.554v-8.974h-.128c-.175.238-.476.46-.904.664-.429.205-.996.307-1.704.307v-2.787c.49 0 .94-.105 1.349-.316a2.72 2.72 0 00.987-.84c.25-.35.374-.732.374-1.145h3.58zm3.458 13.295a1.74 1.74 0 01-1.269-.521 1.694 1.694 0 01-.521-1.27c-.004-.485.17-.9.521-1.246a1.746 1.746 0 011.269-.517c.469 0 .883.172 1.243.517.36.345.542.761.547 1.247a1.718 1.718 0 01-.547 1.269c-.36.347-.774.52-1.243.52zm7.753-.026c-1.006 0-1.897-.178-2.675-.534-.778-.356-1.39-.847-1.834-1.473-.446-.627-.673-1.347-.681-2.16h3.451c.013.451.189.811.528 1.08.339.268.742.402 1.211.402.546 0 .99-.172 1.333-.517.343-.346.512-.804.508-1.375.004-.57-.165-1.029-.508-1.374-.343-.345-.787-.518-1.333-.518-.375 0-.721.09-1.039.272a1.66 1.66 0 00-.7.751l-3.119-.614.512-7.21h8.795v2.838h-5.88l-.256 2.89h.076c.205-.397.559-.726 1.061-.988.503-.262 1.087-.393 1.752-.393.78 0 1.475.18 2.087.543a3.94 3.94 0 011.45 1.499c.357.637.532 1.371.528 2.202.004.912-.212 1.72-.649 2.426-.436.705-1.049 1.257-1.837 1.655-.789.399-1.716.598-2.78.598zm8.7-9.997l1.431 3.042 1.509-3.042h3.503l-2.634 4.909L457.59 185h-3.477l-1.662-3.12-1.61 3.12h-3.529l2.787-4.91-2.608-4.908h3.528zM300.707 245.09l.049-2.885c-2.689-.257-4.824-1.109-6.406-2.553-1.581-1.445-2.376-3.56-2.384-6.345h6.375c.08 1.714.913 2.801 2.5 3.26l.072-4.528-1.268-.278c-2.19-.475-3.914-1.27-5.174-2.384-1.26-1.115-1.885-2.638-1.877-4.57-.008-1.441.346-2.719 1.062-3.834.717-1.114 1.719-2.016 3.007-2.704 1.288-.688 2.78-1.113 4.479-1.274l.048-2.813h3.43l-.049 2.873c2.415.322 4.312 1.19 5.693 2.602 1.38 1.413 2.075 3.194 2.083 5.343h-6.424c-.088-1.07-.567-1.807-1.436-2.21l-.073 4.214.543.121c2.73.588 4.697 1.527 5.905 2.82 1.207 1.291 1.815 2.879 1.823 4.762-.008 2.23-.761 3.989-2.258 5.277-1.497 1.288-3.578 2.036-6.242 2.245l-.049 2.862h-3.429zm3.562-8.547c1.022-.338 1.542-.95 1.558-1.836a1.585 1.585 0 00-.356-.984c-.23-.285-.61-.54-1.141-.766l-.06 3.586zm-3.26-10.432l.049-3.477c-.5.152-.866.376-1.1.67a1.65 1.65 0 00-.361 1.02c-.04.765.43 1.36 1.412 1.787zm24.619 16.227c-1.441 0-2.805-.227-4.093-.682a9.162 9.162 0 01-3.423-2.155c-.994-.982-1.775-2.262-2.342-3.84-.568-1.577-.856-3.49-.864-5.735.008-2.704.46-5.035 1.353-6.99.893-1.957 2.147-3.462 3.76-4.516 1.614-1.055 3.5-1.582 5.657-1.582 1.82 0 3.421.352 4.806 1.057 1.384.704 2.489 1.648 3.314 2.83a8.11 8.11 0 011.443 3.937h-6.617c-.153-.749-.505-1.29-1.056-1.624-.552-.334-1.182-.501-1.89-.501-1.408 0-2.44.616-3.097 1.847-.656 1.232-.992 2.87-1.008 4.914h.145c.475-1.135 1.296-2.022 2.463-2.662 1.167-.64 2.455-.96 3.864-.96 1.497 0 2.807.338 3.93 1.014a7.062 7.062 0 012.626 2.777c.628 1.176.937 2.52.93 4.033.007 1.77-.41 3.32-1.25 4.648-.841 1.329-2.007 2.359-3.496 3.091-1.489.733-3.207 1.1-5.155 1.1zm-.048-5.071c1.006 0 1.833-.332 2.48-.996.649-.664.965-1.507.949-2.53.016-1.022-.3-1.865-.948-2.529-.648-.664-1.475-.996-2.481-.996-.974 0-1.785.332-2.433.996-.648.664-.98 1.507-.996 2.53.016 1.022.348 1.865.996 2.529.648.664 1.459.996 2.433.996zm19.51 1.352l-.096 1.353a16.24 16.24 0 01-.573 3.332 28.78 28.78 0 01-.812 2.466l-.142.36a119.28 119.28 0 01-.79 1.907h-4.106l.55-1.95c.237-.85.454-1.807.651-2.874.198-1.066.296-2.147.296-3.241v-1.353h5.023zM350.5 242l9.707-19.222v-.144H348.81v-5.361h18.352v5.36L357.406 242H350.5zm29.557.338c-1.9 0-3.584-.336-5.053-1.008-1.47-.672-2.624-1.6-3.465-2.783-.841-1.183-1.27-2.544-1.286-4.081h6.52c.024.853.356 1.533.996 2.04.64.507 1.402.761 2.288.761 1.03 0 1.87-.326 2.517-.978.648-.652.968-1.517.96-2.596.008-1.078-.312-1.944-.96-2.596-.648-.652-1.487-.978-2.517-.978-.709 0-1.363.171-1.962.513-.6.343-1.04.815-1.322 1.42l-5.892-1.16.966-13.62h16.613v5.362h-11.108l-.483 5.457h.145c.387-.749 1.055-1.37 2.004-1.866.95-.495 2.053-.742 3.309-.742 1.473 0 2.787.342 3.942 1.026a7.442 7.442 0 012.74 2.832c.673 1.203 1.005 2.59.997 4.159.008 1.723-.4 3.25-1.226 4.582-.825 1.332-1.982 2.375-3.471 3.127-1.49.753-3.24 1.13-5.252 1.13zm23.616-25.403c2.246 0 4.186.497 5.82 1.49 1.634.995 2.894 2.442 3.779 4.341.885 1.9 1.324 4.206 1.316 6.919 0 2.728-.443 5.063-1.328 7.002-.885 1.94-2.143 3.423-3.773 4.45-1.63 1.026-3.568 1.54-5.814 1.54-2.245-.009-4.185-.528-5.82-1.558-1.633-1.03-2.893-2.516-3.778-4.456-.886-1.94-1.325-4.266-1.317-6.978.009-2.721.453-5.031 1.335-6.93.881-1.9 2.137-3.345 3.767-4.335 1.63-.99 3.568-1.485 5.813-1.485zm0 5.409c-1.159 0-2.105.587-2.837 1.763-.733 1.175-1.107 3.034-1.123 5.578-.008 2.6.36 4.505 1.105 5.717.744 1.211 1.696 1.817 2.855 1.817 1.16 0 2.111-.606 2.856-1.817.744-1.212 1.113-3.117 1.105-5.717-.009-2.544-.38-4.403-1.117-5.578-.737-1.176-1.685-1.763-2.844-1.763z" fill="#FFF" fill-rule="nonzero"/><path d="M8.031 18V2h11.531v3.5h-7.187v2.75h6.594v3.5h-6.594v2.75h7.156V18h-11.5zM25.5 6l1.75 3.719L29.094 6h4.281l-3.219 6 3.375 6h-4.25l-2.031-3.813L25.281 18H20.97l3.406-6-3.188-6H25.5zm12.75 12.188c-1.146 0-2.083-.286-2.813-.856-.729-.57-1.093-1.452-1.093-2.645 0-.88.195-1.588.586-2.124.39-.537.919-.938 1.586-1.204a7.17 7.17 0 011.886-.453l.348-.031c1.01-.073 1.727-.181 2.148-.324.422-.143.633-.39.633-.739v-.03c0-.313-.12-.553-.36-.72-.239-.166-.546-.25-.921-.25-.411 0-.746.09-1.004.27-.258.18-.413.454-.465.824h-3.968a4.096 4.096 0 01.699-2.02c.414-.616 1.02-1.111 1.816-1.484.797-.372 1.792-.558 2.984-.558 1.146 0 2.132.174 2.958.523.825.35 1.46.82 1.906 1.414a3.25 3.25 0 01.668 2V18h-4.032v-1.688h-.093c-.365.672-.839 1.153-1.422 1.442-.583.289-1.266.433-2.047.433zm1.406-2.72c.49 0 .93-.149 1.32-.448.391-.3.587-.723.587-1.27v-1c-.367.152-.84.28-1.42.386l-.3.052c-.5.078-.864.229-1.093.453-.23.224-.344.49-.344.796 0 .334.117.589.352.766.234.177.534.266.898.266zM47.906 18V6H52v2.281h.125c.25-.75.677-1.343 1.281-1.781.604-.438 1.323-.656 2.157-.656.843 0 1.57.222 2.18.668a2.668 2.668 0 011.1 1.77h.126c.203-.735.635-1.325 1.297-1.77.661-.446 1.437-.668 2.328-.668 1.15 0 2.084.37 2.8 1.11.717.739 1.075 1.723 1.075 2.952V18h-4.313v-7c0-.526-.133-.939-.398-1.238-.266-.3-.623-.45-1.07-.45-.443 0-.793.15-1.051.45-.258.3-.387.712-.387 1.238v7h-4.125v-7c0-.526-.133-.939-.398-1.238-.266-.3-.623-.45-1.07-.45-.443 0-.794.15-1.052.45-.257.3-.386.712-.386 1.238v7h-4.313zm20.688 4.5V6h4.281v2.094h.094c.234-.61.633-1.137 1.195-1.582.563-.446 1.29-.668 2.18-.668.791 0 1.545.21 2.261.633.717.421 1.3 1.085 1.75 1.992.451.906.676 2.083.676 3.531 0 1.385-.215 2.534-.644 3.445-.43.912-1.003 1.591-1.719 2.04a4.356 4.356 0 01-2.356.671c-.843 0-1.549-.202-2.117-.605a3.447 3.447 0 01-1.226-1.52h-.063V22.5h-4.312zM72.813 12c0 .875.169 1.568.507 2.078.339.51.805.766 1.399.766s1.054-.252 1.383-.754c.328-.503.492-1.2.492-2.09 0-.89-.164-1.587-.492-2.09-.329-.502-.79-.754-1.383-.754-.594 0-1.06.252-1.399.754-.338.503-.507 1.2-.507 2.09zM87.156 2v16h-4.312V2h4.312zm7.938 16.219c-1.922 0-3.434-.546-4.535-1.637-1.102-1.091-1.653-2.608-1.653-4.55 0-1.24.25-2.324.75-3.25a5.36 5.36 0 012.117-2.165c.912-.515 1.987-.773 3.227-.773 1.208 0 2.26.247 3.152.742a5.146 5.146 0 012.078 2.121c.493.92.739 2.017.739 3.293v1h-7.813v.188c0 .578.179 1.055.535 1.433.357.378.856.566 1.496.566.443 0 .83-.092 1.16-.277.331-.185.56-.446.684-.785h3.938c-.203 1.25-.817 2.245-1.84 2.984-1.024.74-2.369 1.11-4.035 1.11zm-1.938-7.594H97c-.01-.516-.197-.936-.559-1.262-.362-.325-.81-.488-1.347-.488-.526 0-.978.161-1.356.484-.377.323-.571.745-.582 1.266zM107.094 22.5V6h4.281v2.094h.094c.234-.61.633-1.137 1.195-1.582.563-.446 1.29-.668 2.18-.668.791 0 1.545.21 2.261.633.717.421 1.3 1.085 1.75 1.992.451.906.676 2.083.676 3.531 0 1.385-.215 2.534-.644 3.445-.43.912-1.003 1.591-1.719 2.04a4.356 4.356 0 01-2.356.671c-.843 0-1.549-.202-2.117-.605a3.447 3.447 0 01-1.226-1.52h-.063V22.5h-4.312zm4.219-10.5c0 .875.169 1.568.507 2.078.339.51.805.766 1.399.766s1.054-.252 1.383-.754c.328-.503.492-1.2.492-2.09 0-.89-.164-1.587-.492-2.09-.329-.502-.79-.754-1.383-.754-.594 0-1.06.252-1.399.754-.338.503-.507 1.2-.507 2.09zm10.03 6V6h4.188v2.281h.125c.224-.844.573-1.46 1.047-1.851a2.548 2.548 0 011.672-.586 3.577 3.577 0 011.719.437l-1.25 3.532a4.723 4.723 0 00-.555-.22 2.042 2.042 0 00-.633-.093c-.536 0-1.002.204-1.398.613-.396.41-.597.955-.602 1.637V18h-4.312zm15.876.219c-1.302 0-2.417-.26-3.344-.778a5.288 5.288 0 01-2.133-2.171c-.495-.93-.742-2.01-.742-3.239s.247-2.308.742-3.238a5.288 5.288 0 012.133-2.172c.927-.518 2.042-.777 3.344-.777s2.416.259 3.344.777a5.288 5.288 0 012.132 2.172c.495.93.743 2.01.743 3.238 0 1.23-.248 2.309-.743 3.239a5.288 5.288 0 01-2.132 2.171c-.928.519-2.042.778-3.344.778zm.031-3.188c.547 0 .98-.27 1.3-.808.321-.54.481-1.28.481-2.223 0-.943-.16-1.684-.48-2.223-.32-.539-.754-.808-1.301-.808-.578 0-1.03.27-1.355.808-.326.54-.489 1.28-.489 2.223 0 .943.163 1.684.489 2.223.325.539.777.808 1.355.808zM145.188 6h4.312v12.344c0 1.052-.221 1.884-.664 2.496-.443.612-1.066 1.042-1.871 1.289-.715.22-1.543.326-2.482.317l-.526-.014-.176-.002c-.12 0-.265-.008-.437-.024V19.22c.182.02.349.031.5.031.515 0 .868-.08 1.058-.238.19-.16.286-.413.286-.762V6zm2.156-1.25a2.132 2.132 0 01-1.5-.578c-.417-.386-.625-.85-.625-1.39 0-.542.208-1.006.625-1.391a2.132 2.132 0 011.5-.579c.588 0 1.09.193 1.504.579.414.385.62.849.62 1.39 0 .542-.206 1.005-.62 1.39a2.128 2.128 0 01-1.504.579zm10.094 13.469c-1.922 0-3.434-.546-4.536-1.637-1.101-1.091-1.652-2.608-1.652-4.55 0-1.24.25-2.324.75-3.25a5.36 5.36 0 012.117-2.165c.912-.515 1.987-.773 3.227-.773 1.208 0 2.259.247 3.152.742a5.146 5.146 0 012.078 2.121c.492.92.738 2.017.738 3.293v1H155.5v.188c0 .578.178 1.055.535 1.433.357.378.856.566 1.496.566.443 0 .83-.092 1.16-.277.331-.185.559-.446.684-.785h3.938c-.204 1.25-.817 2.245-1.84 2.984-1.024.74-2.369 1.11-4.036 1.11zm-1.938-7.594h3.844c-.01-.516-.197-.936-.559-1.262-.362-.325-.811-.488-1.347-.488-.527 0-.978.161-1.356.484-.378.323-.572.745-.582 1.266zm15.344 7.594c-1.302 0-2.417-.26-3.344-.778a5.288 5.288 0 01-2.133-2.171c-.495-.93-.742-2.01-.742-3.239s.247-2.308.742-3.238a5.288 5.288 0 012.133-2.172c.927-.518 2.042-.777 3.344-.777 1.177 0 2.196.212 3.058.636.862.425 1.53 1.024 2.004 1.797.474.774.714 1.681.719 2.723h-4c-.057-.63-.238-1.11-.543-1.441-.305-.331-.697-.496-1.176-.496-.567 0-1.022.243-1.363.73-.341.487-.512 1.223-.512 2.207 0 .984.17 1.72.512 2.207.341.487.796.73 1.363.73.474 0 .867-.165 1.18-.496.312-.33.492-.81.539-1.441h4c-.02 1.589-.546 2.855-1.574 3.8-1.029.946-2.431 1.419-4.207 1.419zM185.563 6v3.125H183.5v5.016c0 .5.27.75.813.75.13 0 .282-.016.457-.047l.315-.062a2.67 2.67 0 00.071-.016l.625 3.03-.27.076c-.155.04-.34.086-.554.136-.357.083-.78.138-1.27.164-1.49.083-2.615-.186-3.378-.809-.763-.622-1.137-1.56-1.121-2.816V9.125h-1.532V6h1.531V3.125h4.313V6h2.063zm11.906 12.219c-1.302 0-2.417-.26-3.344-.778a5.288 5.288 0 01-2.133-2.171c-.495-.93-.742-2.01-.742-3.239s.247-2.308.742-3.238a5.288 5.288 0 012.133-2.172c.927-.518 2.042-.777 3.344-.777 1.177 0 2.196.212 3.058.636.862.425 1.53 1.024 2.004 1.797.474.774.714 1.681.719 2.723h-4c-.057-.63-.238-1.11-.543-1.441-.305-.331-.697-.496-1.176-.496-.567 0-1.022.243-1.363.73-.341.487-.512 1.223-.512 2.207 0 .984.17 1.72.512 2.207.341.487.796.73 1.363.73.474 0 .867-.165 1.18-.496.312-.33.492-.81.539-1.441h4c-.02 1.589-.546 2.855-1.574 3.8-1.029.946-2.431 1.419-4.207 1.419zm13.344 0c-1.303 0-2.417-.26-3.344-.778a5.288 5.288 0 01-2.133-2.171c-.495-.93-.742-2.01-.742-3.239s.247-2.308.742-3.238a5.288 5.288 0 012.133-2.172c.927-.518 2.041-.777 3.344-.777 1.302 0 2.416.259 3.343.777a5.288 5.288 0 012.133 2.172c.495.93.742 2.01.742 3.238 0 1.23-.247 2.309-.742 3.239a5.288 5.288 0 01-2.133 2.171c-.927.519-2.041.778-3.344.778zm.03-3.188c.548 0 .981-.27 1.302-.808.32-.54.48-1.28.48-2.223 0-.943-.16-1.684-.48-2.223-.32-.539-.754-.808-1.301-.808-.578 0-1.03.27-1.356.808-.325.54-.488 1.28-.488 2.223 0 .943.163 1.684.488 2.223.326.539.778.808 1.356.808zm18.907-5.125h-3.969a1.118 1.118 0 00-.515-.87c-.313-.212-.683-.317-1.11-.317-.37 0-.687.067-.953.203-.266.135-.396.328-.39.578-.006.177.071.341.23.492.159.151.467.268.926.352l2.437.437c2.422.438 3.64 1.521 3.656 3.25-.005.854-.259 1.595-.761 2.223-.503.628-1.188 1.112-2.055 1.453-.867.341-1.855.512-2.965.512-1.833 0-3.267-.375-4.3-1.125-1.034-.75-1.611-1.74-1.731-2.969h4.281c.058.38.246.673.567.879.32.206.725.309 1.214.309.396 0 .723-.068.981-.204.258-.135.39-.328.394-.578-.015-.416-.473-.708-1.375-.875l-2.125-.375c-2.453-.432-3.671-1.61-3.656-3.531-.005-1.25.487-2.214 1.477-2.89.99-.678 2.34-1.016 4.054-1.016 1.735 0 3.103.36 4.106 1.078 1.003.719 1.53 1.713 1.582 2.984zM238.875 6v3.125h-2.063v5.016c0 .5.271.75.813.75.13 0 .283-.016.457-.047l.316-.062a2.67 2.67 0 00.07-.016l.626 3.03-.27.076c-.156.04-.34.086-.554.136-.357.083-.78.138-1.27.164-1.49.083-2.616-.186-3.379-.809-.763-.622-1.137-1.56-1.121-2.816V9.125h-1.531V6h1.531V3.125h4.313V6h2.062zm4.094 12.25a2.127 2.127 0 01-1.551-.637 2.071 2.071 0 01-.637-1.55 2.031 2.031 0 01.637-1.524c.43-.422.947-.633 1.55-.633.574 0 1.08.211 1.52.633.44.422.663.93.668 1.524a2.1 2.1 0 01-.668 1.55c-.44.425-.946.637-1.52.637zm0-8.063a2.127 2.127 0 01-1.551-.636A2.071 2.071 0 01240.781 8a2.031 2.031 0 01.637-1.523c.43-.422.947-.633 1.55-.633.574 0 1.08.21 1.52.633.44.421.663.93.668 1.523a2.1 2.1 0 01-.668 1.55c-.44.425-.946.637-1.52.637zM257.063 20l.03-1.867c-1.739-.167-3.12-.718-4.144-1.653-1.023-.934-1.538-2.303-1.543-4.105h4.125c.052 1.11.591 1.812 1.617 2.11l.047-2.93-.82-.18c-1.417-.307-2.533-.822-3.348-1.543s-1.22-1.707-1.214-2.957c-.006-.932.223-1.76.687-2.48.464-.722 1.112-1.305 1.945-1.75.834-.446 1.8-.72 2.899-.825l.031-1.82h2.219l-.031 1.86c1.562.208 2.79.769 3.683 1.683.893.914 1.343 2.066 1.348 3.457h-4.156c-.058-.693-.368-1.17-.93-1.43l-.047 2.727.351.078c1.766.38 3.04.988 3.82 1.824.782.836 1.175 1.863 1.18 3.082-.005 1.443-.492 2.581-1.46 3.414-.97.834-2.316 1.318-4.04 1.453l-.03 1.852h-2.22zm2.304-5.531c.662-.219.998-.615 1.008-1.188a1.026 1.026 0 00-.23-.636c-.149-.185-.395-.35-.739-.497l-.039 2.32zm-2.11-6.75l.032-2.25c-.323.099-.56.243-.71.433-.152.19-.23.41-.235.66-.026.495.278.88.914 1.157zM274.126 2v16h-4.344V7.031h-.156c-.214.292-.582.563-1.105.813-.524.25-1.218.375-2.082.375V4.813c.598 0 1.148-.13 1.648-.387.5-.258.902-.6 1.207-1.028.305-.427.457-.893.457-1.398h4.375zm7.5 13.813l-.063.874c-.052.75-.175 1.47-.37 2.157a17.76 17.76 0 01-.618 1.828l-.326.793c-.07.17-.132.316-.185.441h-2.657l.356-1.261c.153-.55.294-1.17.422-1.86.127-.69.191-1.39.191-2.098v-.875h3.25zm9.75 2.624c-1.453-.005-2.708-.34-3.766-1.007-1.057-.667-1.872-1.628-2.445-2.883-.573-1.255-.857-2.76-.852-4.516.006-1.76.293-3.255.864-4.484.57-1.23 1.383-2.164 2.437-2.805 1.055-.64 2.309-.96 3.762-.96 1.453 0 2.708.32 3.766.964 1.057.643 1.872 1.58 2.445 2.809.573 1.229.857 2.721.852 4.476 0 1.766-.287 3.276-.86 4.531-.573 1.256-1.387 2.215-2.441 2.88-1.055.663-2.309.995-3.762.995zm0-3.53c.75 0 1.366-.393 1.848-1.177.481-.783.72-2.016.714-3.699-.005-1.646-.246-2.849-.722-3.61-.477-.76-1.09-1.14-1.84-1.14s-1.362.38-1.836 1.14c-.474.761-.716 1.964-.726 3.61-.006 1.683.233 2.916.714 3.7.482.783 1.098 1.175 1.848 1.175zm16.063 3.53c-1.454-.005-2.709-.34-3.766-1.007-1.057-.667-1.873-1.628-2.445-2.883-.573-1.255-.857-2.76-.852-4.516.005-1.76.293-3.255.863-4.484.57-1.23 1.383-2.164 2.438-2.805 1.054-.64 2.308-.96 3.762-.96 1.453 0 2.708.32 3.765.964 1.057.643 1.873 1.58 2.445 2.809.573 1.229.857 2.721.852 4.476 0 1.766-.286 3.276-.86 4.531-.572 1.256-1.386 2.215-2.44 2.88-1.055.663-2.31.995-3.762.995zm0-3.53c.75 0 1.365-.393 1.847-1.177.482-.783.72-2.016.715-3.699-.005-1.646-.246-2.849-.723-3.61-.476-.76-1.09-1.14-1.84-1.14s-1.361.38-1.835 1.14c-.474.761-.717 1.964-.727 3.61-.005 1.683.233 2.916.715 3.7.482.783 1.097 1.175 1.848 1.175zM323.5 1.78c1.453 0 2.708.322 3.766.965 1.057.643 1.872 1.58 2.445 2.809.573 1.229.857 2.721.852 4.476 0 1.766-.287 3.276-.86 4.531-.573 1.256-1.387 2.215-2.441 2.88-1.055.663-2.309.995-3.762.995-1.453-.005-2.708-.34-3.766-1.007-1.057-.667-1.872-1.628-2.445-2.883-.573-1.255-.857-2.76-.852-4.516.006-1.76.293-3.255.864-4.484.57-1.23 1.383-2.164 2.437-2.805 1.055-.64 2.309-.96 3.762-.96zm0 3.5c-.75 0-1.362.38-1.836 1.14-.474.761-.716 1.964-.726 3.61-.006 1.683.233 2.916.714 3.7.482.783 1.098 1.175 1.848 1.175s1.366-.392 1.848-1.176c.481-.783.72-2.016.714-3.699-.005-1.646-.246-2.849-.722-3.61-.477-.76-1.09-1.14-1.84-1.14z" fill="#618CFA" fill-rule="nonzero"/></g></svg>