<svg xmlns="http://www.w3.org/2000/svg" width="547" height="436"><g transform="translate(-28)" fill="none" fill-rule="evenodd"><ellipse cx="196.5" cy="268" fill="#618CFA" rx="168.5" ry="168"/><ellipse fill="#B1C0FA" style="mix-blend-mode:multiply" cx="406.5" cy="268" rx="168.5" ry="168"/><ellipse fill="#F5B325" style="mix-blend-mode:multiply" cx="302.5" cy="168" rx="168.5" ry="168"/><path fill="#FFF" fill-rule="nonzero" d="M220.614 78h-3.778l4.908-14.545h4.68L231.332 78h-3.779l-3.416-10.88h-.114L220.614 78zm-.504-5.724h7.898v2.67h-7.898v-2.67zm16.264-.498V78h-3.473V67.09h3.303v2.004h.12a3.083 3.083 0 011.236-1.573c.583-.382 1.276-.572 2.081-.572.767 0 1.434.172 2 .515a3.514 3.514 0 011.32 1.434c.316.614.47 1.33.466 2.149V78h-3.473v-6.271c.005-.606-.148-1.08-.458-1.42-.31-.342-.74-.512-1.29-.512-.364 0-.685.08-.962.238-.277.158-.49.385-.639.678-.149.294-.226.649-.23 1.065zm14.297 10.448c-1.037 0-1.925-.142-2.663-.426-.739-.284-1.319-.671-1.74-1.162a3.15 3.15 0 01-.76-1.644l3.288-.184c.062.194.177.367.345.518.168.152.388.271.66.359.272.087.593.131.962.131.583 0 1.065-.137 1.446-.412.381-.274.572-.738.572-1.392v-1.917h-.121a2.606 2.606 0 01-.625.902c-.28.265-.626.473-1.04.625-.415.151-.89.227-1.425.227a4.376 4.376 0 01-2.184-.558c-.66-.371-1.188-.949-1.583-1.733-.396-.783-.593-1.793-.593-3.029 0-1.273.203-2.323.61-3.15.408-.826.941-1.438 1.602-1.836a4.07 4.07 0 012.134-.596c.573 0 1.064.098 1.474.295.41.196.747.448 1.012.756s.466.627.604.959h.099V67.09h3.459v10.952c0 .895-.232 1.653-.696 2.276-.464.623-1.113 1.096-1.946 1.42-.834.325-1.797.487-2.89.487zm.107-6.904c.421 0 .78-.11 1.08-.333.298-.223.527-.543.688-.96.161-.416.242-.915.242-1.498 0-.592-.08-1.102-.238-1.53-.159-.429-.389-.759-.69-.991-.3-.232-.66-.348-1.082-.348-.431 0-.796.118-1.094.355-.298.237-.524.57-.678.998-.154.428-.231.934-.231 1.516 0 .583.078 1.082.234 1.499.156.416.383.736.679.959.295.222.659.333 1.09.333zm10.641-3.956h4.04a1.965 1.965 0 00-.264-.987 1.803 1.803 0 00-.7-.678 2.072 2.072 0 00-1.018-.245 2.08 2.08 0 00-1.044.26 1.959 1.959 0 00-1.014 1.65zm-.002 2.018v.092c0 .445.087.834.263 1.168.175.334.423.593.745.778.322.185.706.277 1.151.277.308 0 .587-.043.838-.128s.466-.21.646-.376.315-.37.405-.611l3.19.092a3.942 3.942 0 01-.87 1.864c-.448.528-1.034.938-1.759 1.23-.724.29-1.562.436-2.514.436-1.141 0-2.125-.226-2.95-.678a4.603 4.603 0 01-1.904-1.94c-.443-.84-.664-1.84-.664-3 0-1.127.222-2.113.667-2.958a4.852 4.852 0 011.882-1.974c.81-.472 1.764-.707 2.863-.707.776 0 1.486.12 2.13.362.644.242 1.2.599 1.67 1.073a4.895 4.895 0 011.093 1.75c.26.694.39 1.488.39 2.383v.867h-7.272zm12.528-9.93V78h-3.473V63.455h3.473zm11.726 6.968l-3.189.085a1.205 1.205 0 00-.27-.607 1.508 1.508 0 00-.571-.42 2.045 2.045 0 00-.814-.152c-.402 0-.744.08-1.026.242-.282.16-.42.378-.415.653a.691.691 0 00.259.554c.177.156.496.282.955.376l2.102.398c1.09.208 1.9.554 2.433 1.037.533.483.801 1.122.806 1.918-.005.748-.226 1.399-.664 1.953-.438.554-1.036.983-1.793 1.289-.758.305-1.624.458-2.6.458-1.558 0-2.785-.32-3.682-.962-.898-.642-1.41-1.503-1.538-2.582l3.43-.085c.076.397.273.7.59.909.317.208.722.312 1.214.312.446 0 .808-.083 1.087-.248.28-.166.421-.386.426-.66a.71.71 0 00-.326-.594c-.214-.149-.547-.266-1.002-.351l-1.903-.363c-1.094-.198-1.908-.567-2.443-1.104-.536-.537-.8-1.223-.796-2.056-.005-.73.19-1.353.582-1.872.393-.518.952-.915 1.677-1.19.724-.274 1.579-.411 2.563-.411 1.478 0 2.643.309 3.495.927.852.618 1.323 1.466 1.413 2.546zm8.708-7.65l-4.688 17.416h-2.962l4.688-17.415h2.962zM295.664 78V67.09h3.473V78h-3.473zm1.747-12.18c-.492 0-.914-.163-1.264-.487a1.545 1.545 0 01-.526-1.175c0-.455.176-.844.526-1.169.35-.324.77-.486 1.257-.486.493 0 .913.162 1.26.486.349.325.523.714.523 1.169 0 .459-.174.85-.522 1.175a1.776 1.776 0 01-1.254.487zm7.4 5.958V78h-3.472V67.09h3.302v2.004h.121a3.078 3.078 0 011.236-1.573c.582-.382 1.276-.572 2.08-.572.768 0 1.434.172 2 .515a3.516 3.516 0 011.321 1.434c.315.614.47 1.33.466 2.149V78h-3.474v-6.271c.005-.606-.148-1.08-.458-1.42-.31-.342-.74-.512-1.289-.512-.364 0-.685.08-.962.238a1.6 1.6 0 00-.64.678c-.149.294-.225.649-.23 1.065zm19.795-4.687L320.863 78h-3.977l-3.736-10.91h3.658l2.01 7.515h.113l2.017-7.514h3.658zm4.334 4.275h4.04a1.964 1.964 0 00-.263-.987 1.81 1.81 0 00-.7-.678 2.08 2.08 0 00-1.02-.245c-.387 0-.735.086-1.043.26a1.959 1.959 0 00-1.014 1.65zm-.002 2.018v.092c0 .445.088.834.263 1.168.175.334.424.593.746.778.322.185.705.277 1.15.277.308 0 .587-.043.838-.128s.467-.21.647-.376.315-.37.405-.611l3.188.092a3.923 3.923 0 01-.87 1.864c-.447.528-1.033.938-1.757 1.23-.725.29-1.563.436-2.515.436-1.14 0-2.124-.226-2.95-.678a4.609 4.609 0 01-1.904-1.94c-.443-.84-.664-1.84-.664-3 0-1.127.222-2.113.668-2.958a4.846 4.846 0 011.882-1.974c.81-.472 1.763-.707 2.862-.707.776 0 1.487.12 2.13.362.644.242 1.2.599 1.67 1.073a4.895 4.895 0 011.093 1.75c.26.694.39 1.488.39 2.383v.867h-7.272zm18.58-2.962l-3.19.085a1.188 1.188 0 00-.27-.607 1.504 1.504 0 00-.57-.42 2.045 2.045 0 00-.814-.152c-.402 0-.745.08-1.026.242-.282.16-.42.378-.416.653a.695.695 0 00.26.554c.177.156.495.282.955.376l2.102.398c1.089.208 1.9.554 2.433 1.037.532.483.8 1.122.806 1.918-.005.748-.226 1.399-.664 1.953-.438.554-1.036.983-1.794 1.289-.757.305-1.624.458-2.6.458-1.557 0-2.784-.32-3.682-.962-.897-.642-1.41-1.503-1.537-2.582l3.43-.085c.076.397.272.7.59.909.317.208.722.312 1.214.312.445 0 .807-.083 1.087-.248.279-.166.421-.386.426-.66a.71.71 0 00-.327-.594c-.213-.149-.547-.266-1.001-.351l-1.904-.363c-1.093-.198-1.908-.567-2.443-1.104-.535-.537-.8-1.223-.795-2.056-.005-.73.189-1.353.582-1.872.393-.518.952-.915 1.676-1.19.725-.274 1.58-.411 2.564-.411 1.477 0 2.642.309 3.494.927.853.618 1.324 1.466 1.414 2.546zm8.132-3.331v2.557h-6.882V67.09h6.882zm-5.44-2.614h3.473V74.57c0 .213.034.384.103.515.068.13.169.222.301.277.133.054.292.081.476.081.133 0 .274-.013.423-.039.149-.026.261-.048.337-.067l.526 2.507c-.166.047-.4.106-.7.177-.3.071-.66.116-1.076.135-.814.038-1.511-.058-2.091-.287-.58-.23-1.023-.589-1.329-1.076-.305-.488-.453-1.101-.443-1.84V64.477zm12.308 13.729c-1.146 0-2.13-.236-2.951-.707a4.786 4.786 0 01-1.897-1.974c-.442-.845-.664-1.827-.664-2.944 0-1.122.222-2.106.664-2.951a4.792 4.792 0 011.897-1.974c.821-.472 1.805-.707 2.95-.707 1.147 0 2.13.235 2.952.707a4.79 4.79 0 011.896 1.974c.443.845.664 1.829.664 2.951 0 1.117-.221 2.099-.664 2.944a4.796 4.796 0 01-1.896 1.974c-.822.471-1.805.707-2.951.707zm.021-2.62c.417 0 .77-.129 1.058-.384.29-.256.51-.611.664-1.066.154-.454.231-.98.231-1.576 0-.606-.077-1.137-.23-1.591-.155-.455-.376-.81-.665-1.066a1.542 1.542 0 00-1.058-.383c-.43 0-.794.128-1.09.383-.296.256-.521.611-.675 1.066-.154.454-.23.985-.23 1.59 0 .597.076 1.123.23 1.577.154.455.379.81.675 1.066.296.255.66.383 1.09.383zM369.812 78V67.09h3.373v1.99h.114c.199-.72.523-1.256.973-1.61.45-.352.973-.528 1.57-.528.16 0 .326.01.497.032.17.021.329.053.476.096v3.018a3.307 3.307 0 00-.65-.135 5.924 5.924 0 00-.714-.05c-.412 0-.782.092-1.112.274a1.984 1.984 0 00-.774.76c-.187.324-.28.704-.28 1.14V78h-3.473zm17.947-7.578l-3.189.085a1.205 1.205 0 00-.27-.607 1.508 1.508 0 00-.571-.42 2.045 2.045 0 00-.814-.152c-.402 0-.744.08-1.026.242-.282.16-.42.378-.415.653a.691.691 0 00.259.554c.178.156.496.282.955.376l2.102.398c1.09.208 1.9.554 2.433 1.037.533.483.801 1.122.806 1.918-.005.748-.226 1.399-.664 1.953-.438.554-1.036.983-1.793 1.289-.758.305-1.624.458-2.6.458-1.557 0-2.785-.32-3.682-.962-.897-.642-1.41-1.503-1.538-2.582l3.43-.085c.076.397.273.7.59.909.317.208.722.312 1.215.312.445 0 .807-.083 1.086-.248.28-.166.422-.386.426-.66a.707.707 0 00-.326-.594c-.213-.149-.547-.266-1.002-.351l-1.903-.363c-1.094-.198-1.908-.567-2.443-1.104-.535-.537-.8-1.223-.796-2.056-.005-.73.19-1.353.583-1.872.392-.518.951-.915 1.676-1.19.724-.274 1.579-.411 2.564-.411 1.477 0 2.642.309 3.494.927.852.618 1.323 1.466 1.413 2.546zM88.548 356v-14.545H98.69v2.855h-6.626v2.983h6.108v2.862h-6.108v2.99h6.626V356H88.548zm15.817-6.222V356h-3.473v-10.91h3.303v2.004h.12a3.083 3.083 0 011.236-1.573c.583-.382 1.276-.572 2.081-.572.767 0 1.434.171 2 .515a3.514 3.514 0 011.32 1.434c.315.614.47 1.33.466 2.149V356h-3.473v-6.271c.004-.606-.148-1.08-.458-1.42-.31-.342-.74-.512-1.29-.512-.364 0-.685.08-.962.238a1.6 1.6 0 00-.64.678c-.148.294-.225.649-.23 1.065zm15.37-4.687v2.557h-6.883v-2.557h6.882zm-5.441-2.614h3.473v10.093c0 .213.034.384.103.515a.59.59 0 00.302.277c.132.054.291.081.476.081.132 0 .273-.013.422-.039.15-.026.262-.048.338-.067l.525 2.507c-.165.047-.399.106-.7.177-.3.071-.659.116-1.075.135-.815.038-1.512-.058-2.092-.287-.58-.23-1.023-.589-1.328-1.076-.305-.488-.453-1.101-.444-1.84v-10.476zM121.51 356v-10.91h3.374v1.99h.113c.199-.72.523-1.256.973-1.61.45-.352.973-.528 1.57-.528.16 0 .326.01.497.032.17.021.329.053.476.096v3.018a3.307 3.307 0 00-.65-.135 5.924 5.924 0 00-.714-.05c-.412 0-.782.092-1.111.274-.33.182-.587.435-.775.76-.187.324-.28.704-.28 1.14V356h-3.473zm11.43-6.634h4.039a1.964 1.964 0 00-.263-.987 1.81 1.81 0 00-.7-.678 2.076 2.076 0 00-1.019-.245c-.388 0-.736.086-1.044.26a1.956 1.956 0 00-1.013 1.65zm-.002 2.018v.092c0 .445.087.834.262 1.168.175.334.424.593.746.778.322.185.706.277 1.15.277.308 0 .588-.043.839-.128.25-.085.466-.21.646-.376s.315-.37.405-.611l3.189.092a3.942 3.942 0 01-.87 1.864c-.448.528-1.034.938-1.758 1.23-.725.29-1.563.436-2.514.436-1.141 0-2.125-.226-2.951-.678a4.609 4.609 0 01-1.904-1.94c-.442-.84-.664-1.84-.664-3 0-1.127.223-2.113.668-2.958a4.846 4.846 0 011.882-1.974c.81-.472 1.764-.707 2.862-.707.777 0 1.487.12 2.13.362a4.578 4.578 0 011.67 1.073c.469.473.833 1.057 1.094 1.75.26.694.39 1.488.39 2.383v.867h-7.273zm9.055 8.707v-15h3.437v1.868h.107a3.75 3.75 0 01.607-.959c.263-.308.6-.56 1.009-.756.41-.197.9-.295 1.473-.295.758 0 1.467.199 2.128.596.66.398 1.194 1.011 1.601 1.84.407.829.61 1.884.61 3.168 0 1.235-.194 2.27-.585 3.103-.39.834-.916 1.459-1.577 1.875a4.032 4.032 0 01-2.198.625c-.55 0-1.025-.09-1.427-.27a3.066 3.066 0 01-1.013-.71 3.373 3.373 0 01-.628-.944h-.071v5.859h-3.473zm3.402-9.546c0 .588.08 1.099.238 1.535.158.435.388.773.689 1.012.3.239.661.358 1.083.358.426 0 .788-.12 1.086-.358.299-.24.525-.577.679-1.012.154-.436.23-.947.23-1.535 0-.587-.076-1.096-.23-1.527-.154-.43-.379-.764-.675-1.001-.296-.237-.66-.355-1.09-.355-.426 0-.789.116-1.087.348-.298.232-.527.563-.685.994-.159.431-.238.945-.238 1.541zM154.79 356v-10.91h3.374v1.99h.113c.2-.72.524-1.256.973-1.61.45-.352.973-.528 1.57-.528.161 0 .327.01.497.032.17.021.33.053.476.096v3.018a3.29 3.29 0 00-.65-.135 5.897 5.897 0 00-.714-.05c-.412 0-.782.092-1.111.274-.33.182-.587.435-.774.76-.187.324-.28.704-.28 1.14V356h-3.474zm11.43-6.634h4.039a1.954 1.954 0 00-.263-.987 1.803 1.803 0 00-.7-.678 2.073 2.073 0 00-1.019-.245c-.388 0-.736.086-1.044.26a1.963 1.963 0 00-1.013 1.65zm-.002 2.018v.092c0 .445.087.834.263 1.168.175.334.423.593.745.778.322.185.706.277 1.15.277.309 0 .588-.043.839-.128.25-.085.466-.21.646-.376s.315-.37.405-.611l3.189.092a3.942 3.942 0 01-.87 1.864c-.448.528-1.033.938-1.758 1.23-.724.29-1.562.436-2.514.436-1.141 0-2.125-.226-2.951-.678a4.612 4.612 0 01-1.903-1.94c-.443-.84-.665-1.84-.665-3 0-1.127.223-2.113.668-2.958a4.852 4.852 0 011.882-1.974c.81-.472 1.764-.707 2.862-.707.777 0 1.487.12 2.131.362.644.242 1.2.599 1.67 1.073.468.473.832 1.057 1.093 1.75.26.694.39 1.488.39 2.383v.867h-7.272zm12.528-1.606V356h-3.473v-10.91h3.303v2.004h.12a3.083 3.083 0 011.236-1.573c.583-.382 1.276-.572 2.081-.572.767 0 1.434.171 2 .515a3.514 3.514 0 011.32 1.434c.315.614.47 1.33.466 2.149V356h-3.473v-6.271c.004-.606-.148-1.08-.458-1.42-.31-.342-.74-.512-1.29-.512-.364 0-.685.08-.962.238-.277.158-.49.385-.639.678-.15.294-.226.649-.23 1.065zm12.218-.412h4.04a1.955 1.955 0 00-.264-.987 1.803 1.803 0 00-.7-.678 2.072 2.072 0 00-1.018-.245 2.08 2.08 0 00-1.044.26 1.959 1.959 0 00-1.014 1.65zm-.002 2.018v.092c0 .445.088.834.263 1.168.175.334.424.593.746.778.322.185.705.277 1.15.277.308 0 .587-.043.838-.128s.467-.21.647-.376.314-.37.404-.611l3.19.092a3.942 3.942 0 01-.87 1.864c-.448.528-1.034.938-1.759 1.23-.724.29-1.562.436-2.514.436-1.14 0-2.125-.226-2.95-.678a4.609 4.609 0 01-1.904-1.94c-.443-.84-.664-1.84-.664-3 0-1.127.222-2.113.667-2.958a4.852 4.852 0 011.882-1.974c.81-.472 1.764-.707 2.863-.707.776 0 1.486.12 2.13.362.644.242 1.2.599 1.67 1.073a4.895 4.895 0 011.093 1.75c.26.694.39 1.488.39 2.383v.867h-7.272zm16.094-.093v-6.2h3.466V356h-3.31v-2.031h-.114a3.16 3.16 0 01-1.232 1.587c-.58.39-1.28.586-2.099.586-.743 0-1.396-.17-1.96-.511a3.486 3.486 0 01-1.314-1.431c-.312-.614-.47-1.332-.476-2.156v-6.953h3.473v6.271c.005.592.161 1.058.47 1.4.307.34.726.51 1.256.51.346 0 .657-.076.934-.23.277-.154.497-.379.66-.675.164-.296.246-.654.246-1.076zm5.675 4.709v-10.91h3.373v1.99h.114c.199-.72.523-1.256.973-1.61.45-.352.973-.528 1.57-.528.16 0 .326.01.497.032.17.021.329.053.475.096v3.018a3.275 3.275 0 00-.65-.135 5.896 5.896 0 00-.713-.05 2.26 2.26 0 00-1.112.274 1.984 1.984 0 00-.774.76c-.187.324-.28.704-.28 1.14V356h-3.473zm17.947-7.578l-3.189.085a1.205 1.205 0 00-.27-.607 1.512 1.512 0 00-.572-.42 2.036 2.036 0 00-.813-.152c-.402 0-.744.08-1.026.242-.282.16-.42.378-.416.653a.695.695 0 00.26.554c.177.156.496.282.955.376l2.102.398c1.09.208 1.9.554 2.433 1.037.532.483.801 1.122.806 1.918-.005.748-.226 1.399-.664 1.953-.438.554-1.036.983-1.794 1.289-.757.305-1.624.458-2.599.458-1.558 0-2.785-.32-3.682-.962-.898-.642-1.41-1.503-1.538-2.582l3.43-.085c.076.397.273.7.59.909.317.208.722.312 1.214.312.445 0 .808-.083 1.087-.248.28-.166.421-.386.426-.66a.71.71 0 00-.327-.594c-.213-.149-.547-.266-1.001-.351l-1.904-.363c-1.093-.198-1.908-.567-2.443-1.104-.535-.537-.8-1.223-.795-2.056-.005-.73.19-1.353.582-1.872.393-.518.952-.915 1.676-1.19.725-.274 1.58-.411 2.564-.411 1.478 0 2.642.309 3.495.927.852.618 1.323 1.466 1.413 2.546zM366.094 348h-3.779l4.908-14.545h4.68L376.811 348h-3.778l-3.417-10.88h-.113l-3.41 10.88zm-.505-5.724h7.898v2.67h-7.898v-2.67zm17.877 9.95c-1.037 0-1.925-.142-2.663-.426-.74-.284-1.32-.671-1.74-1.162a3.15 3.15 0 01-.76-1.644l3.288-.184c.061.194.176.367.344.518.168.152.389.271.66.359.273.087.594.131.963.131.583 0 1.064-.137 1.446-.412.38-.274.571-.738.571-1.392v-1.917h-.12a2.606 2.606 0 01-.625.902c-.28.265-.627.473-1.04.625-.415.151-.89.227-1.425.227a4.376 4.376 0 01-2.184-.558c-.66-.371-1.188-.949-1.584-1.733-.395-.783-.593-1.793-.593-3.029 0-1.273.204-2.323.611-3.15.407-.826.941-1.438 1.602-1.836a4.07 4.07 0 012.134-.596c.573 0 1.064.098 1.474.295.41.196.746.448 1.012.756.265.308.466.627.603.959h.1v-1.868h3.459v10.952c0 .895-.232 1.653-.696 2.276-.464.623-1.113 1.096-1.946 1.42-.834.325-1.797.487-2.891.487zm.106-6.904c.422 0 .782-.11 1.08-.333.298-.223.528-.543.689-.96.16-.416.241-.915.241-1.498 0-.592-.079-1.102-.238-1.53-.158-.429-.388-.759-.688-.991-.301-.232-.662-.348-1.084-.348-.43 0-.795.118-1.093.355-.299.237-.525.57-.679.998-.153.428-.23.934-.23 1.516 0 .583.078 1.082.234 1.499.156.416.382.736.678.959.296.222.66.333 1.09.333zm10.642-3.956h4.039a1.954 1.954 0 00-.263-.987 1.81 1.81 0 00-.7-.678 2.073 2.073 0 00-1.019-.245c-.388 0-.736.086-1.044.26a1.963 1.963 0 00-1.013 1.65zm-.002 2.018v.092c0 .445.087.834.262 1.168.176.334.424.593.746.778.322.185.706.277 1.15.277.309 0 .588-.043.839-.128.25-.085.466-.21.646-.376s.315-.37.405-.611l3.189.092a3.942 3.942 0 01-.87 1.864c-.448.528-1.034.938-1.758 1.23-.724.29-1.562.436-2.514.436-1.141 0-2.125-.226-2.951-.678a4.62 4.62 0 01-1.904-1.94c-.442-.84-.664-1.84-.664-3 0-1.127.223-2.113.668-2.958a4.846 4.846 0 011.882-1.974c.81-.472 1.764-.707 2.862-.707.777 0 1.487.12 2.131.362.644.242 1.2.599 1.669 1.073.469.473.833 1.057 1.094 1.75.26.694.39 1.488.39 2.383v.867h-7.272zm12.528-1.606V348h-3.473v-10.91h3.303v2.004h.12a3.083 3.083 0 011.236-1.573c.583-.382 1.276-.572 2.081-.572.767 0 1.434.171 2 .515a3.514 3.514 0 011.32 1.434c.315.614.47 1.33.466 2.149V348h-3.473v-6.271c.004-.606-.148-1.08-.458-1.42-.31-.342-.74-.512-1.29-.512-.364 0-.685.08-.962.238a1.6 1.6 0 00-.64.678c-.148.294-.225.649-.23 1.065zm14.304 6.428c-1.15 0-2.137-.237-2.958-.71a4.798 4.798 0 01-1.893-1.978c-.44-.845-.66-1.824-.66-2.937 0-1.117.221-2.099.664-2.944a4.818 4.818 0 011.896-1.978c.822-.473 1.803-.71 2.944-.71 1.008 0 1.888.182 2.638.547.75.364 1.338.88 1.762 1.544.424.666.647 1.446.671 2.34h-3.246c-.066-.558-.254-.996-.564-1.313-.31-.317-.714-.476-1.211-.476-.403 0-.756.112-1.059.337-.303.225-.538.557-.706.995-.168.438-.252.979-.252 1.622 0 .644.084 1.188.252 1.63.168.443.403.777.706 1.002.303.225.656.337 1.059.337.322 0 .607-.068.855-.206.25-.137.454-.34.615-.607.16-.268.263-.593.305-.977h3.246c-.033.9-.257 1.686-.671 2.358a4.185 4.185 0 01-1.74 1.566c-.746.372-1.63.558-2.653.558zm6.847-.206v-10.91h3.473V348h-3.473zm1.747-12.18c-.493 0-.914-.163-1.264-.487a1.545 1.545 0 01-.526-1.175c0-.455.175-.844.526-1.169.35-.324.769-.486 1.257-.486.492 0 .912.162 1.26.486.348.325.522.714.522 1.169 0 .459-.174.85-.522 1.175a1.776 1.776 0 01-1.253.487zm6.934 5.546h4.039a1.964 1.964 0 00-.263-.987 1.81 1.81 0 00-.7-.678 2.073 2.073 0 00-1.019-.245c-.388 0-.736.086-1.044.26a1.956 1.956 0 00-1.013 1.65zm-.002 2.018v.092c0 .445.087.834.262 1.168.176.334.424.593.746.778.322.185.706.277 1.15.277.308 0 .588-.043.839-.128.25-.085.466-.21.646-.376s.315-.37.405-.611l3.189.092a3.942 3.942 0 01-.87 1.864c-.448.528-1.034.938-1.758 1.23-.724.29-1.563.436-2.514.436-1.141 0-2.125-.226-2.951-.678a4.62 4.62 0 01-1.904-1.94c-.442-.84-.664-1.84-.664-3 0-1.127.223-2.113.668-2.958a4.846 4.846 0 011.882-1.974c.81-.472 1.764-.707 2.862-.707.777 0 1.487.12 2.13.362a4.578 4.578 0 011.67 1.073c.469.473.833 1.057 1.094 1.75.26.694.39 1.488.39 2.383v.867h-7.272zm18.58-2.962l-3.19.085a1.205 1.205 0 00-.27-.607 1.508 1.508 0 00-.571-.42 2.045 2.045 0 00-.814-.152c-.402 0-.744.08-1.026.242-.282.16-.42.378-.415.653a.691.691 0 00.259.554c.177.156.496.282.955.376l2.102.398c1.09.208 1.9.554 2.433 1.037.533.483.801 1.122.806 1.918-.005.748-.226 1.399-.664 1.953-.438.554-1.036.983-1.793 1.289-.758.305-1.624.458-2.6.458-1.558 0-2.785-.32-3.682-.962-.898-.642-1.41-1.503-1.538-2.582l3.43-.085c.076.397.273.7.59.909.317.208.722.312 1.214.312.445 0 .808-.083 1.087-.248.28-.166.421-.386.426-.66a.708.708 0 00-.327-.594c-.213-.149-.546-.266-1-.351l-1.904-.363c-1.094-.198-1.908-.567-2.444-1.104-.535-.537-.8-1.223-.795-2.056-.005-.73.19-1.353.582-1.872.393-.518.952-.915 1.677-1.19.724-.274 1.579-.411 2.563-.411 1.478 0 2.643.309 3.495.927.852.618 1.323 1.466 1.413 2.546zm7.222 1.541c0-1.78.235-3.418.703-4.915a14.642 14.642 0 012.053-4.14h1.946c-.35.468-.677 1.044-.98 1.726a16.453 16.453 0 00-.796 2.24 20.222 20.222 0 00-.532 2.522 17.583 17.583 0 00-.192 2.567c0 1.127.111 2.268.334 3.423.222 1.156.523 2.228.902 3.218.378.99.8 1.797 1.264 2.422h-1.946a14.661 14.661 0 01-2.053-4.141c-.468-1.496-.703-3.137-.703-4.922zm6.94 10.128v-15h2.073v1.768h.178c.123-.227.3-.49.532-.788.232-.298.554-.56.966-.785.412-.225.957-.337 1.634-.337.88 0 1.666.222 2.358.667.69.446 1.234 1.087 1.63 1.925.395.838.593 1.847.593 3.026 0 1.179-.197 2.188-.59 3.029-.393.84-.933 1.487-1.62 1.939-.686.452-1.47.678-2.35.678-.663 0-1.204-.111-1.623-.334-.419-.222-.747-.483-.984-.781a5.87 5.87 0 01-.546-.795h-.128v5.788h-2.124zm2.08-9.546c0 .768.111 1.44.334 2.017.222.578.544 1.03.966 1.353.421.325.937.487 1.548.487.635 0 1.165-.17 1.591-.508.426-.338.75-.799.97-1.381.22-.583.33-1.238.33-1.968 0-.72-.108-1.366-.323-1.938-.216-.573-.538-1.026-.966-1.357-.429-.331-.963-.497-1.602-.497-.615 0-1.135.158-1.559.476-.424.317-.744.76-.962 1.328-.218.568-.327 1.23-.327 1.988zM481.655 348v-10.91h2.052v1.734h.114a2.65 2.65 0 011.055-1.389 3.01 3.01 0 011.715-.507 8.677 8.677 0 01.902.049v2.032a4.074 4.074 0 00-.455-.082 4.768 4.768 0 00-.653-.046c-.502 0-.948.105-1.339.316-.39.21-.7.502-.927.873-.227.372-.34.795-.34 1.268V348h-2.124zm12.28.22c-1.023 0-1.916-.234-2.678-.703s-1.354-1.124-1.775-1.967c-.422-.843-.633-1.828-.633-2.955 0-1.131.211-2.121.633-2.969.42-.847 1.013-1.505 1.775-1.974.762-.469 1.655-.703 2.678-.703 1.022 0 1.915.234 2.677.703.763.469 1.354 1.127 1.776 1.974.421.848.632 1.838.632 2.97 0 1.126-.21 2.11-.632 2.954-.422.843-1.013 1.498-1.776 1.967-.762.469-1.655.703-2.677.703zm.007-1.783c.663 0 1.212-.175 1.647-.525.436-.35.76-.817.97-1.4.21-.582.316-1.223.316-1.924 0-.696-.105-1.336-.316-1.921-.21-.585-.534-1.055-.97-1.41-.435-.355-.984-.533-1.647-.533-.668 0-1.22.178-1.659.533-.438.355-.762.825-.973 1.41a5.647 5.647 0 00-.316 1.921c0 .7.106 1.342.316 1.925.211.582.535 1.049.973 1.399.438.35.991.526 1.659.526zm11.527 1.776c-.88 0-1.666-.226-2.355-.678-.689-.452-1.228-1.099-1.619-1.94-.39-.84-.586-1.85-.586-3.028 0-1.18.198-2.188.593-3.026.395-.838.939-1.48 1.63-1.925.691-.445 1.475-.667 2.351-.667.677 0 1.223.112 1.637.337.414.225.736.487.966.785.23.298.408.561.536.788h.128v-5.404h2.124V348H508.8v-1.697h-.178a5.76 5.76 0 01-.55.795c-.24.298-.567.559-.984.781-.417.223-.956.334-1.62.334zm.469-1.811c.61 0 1.128-.162 1.551-.487.424-.324.746-.775.966-1.353.22-.577.33-1.25.33-2.017 0-.757-.108-1.42-.326-1.988-.218-.568-.538-1.011-.959-1.328-.421-.318-.942-.476-1.563-.476-.639 0-1.171.166-1.598.497-.426.331-.746.784-.962 1.357-.215.572-.323 1.219-.323 1.938 0 .73.109 1.385.327 1.968.217.582.54 1.043.97 1.381.428.339.957.508 1.587.508zm14.872-2.926v-6.385h2.13V348h-2.088v-1.89h-.113a3.394 3.394 0 01-1.204 1.453c-.552.386-1.237.579-2.056.579-.701 0-1.32-.155-1.858-.465-.537-.31-.958-.77-1.264-1.382-.305-.61-.458-1.366-.458-2.265v-6.94h2.124v6.684c0 .744.206 1.335.618 1.776.412.44.947.66 1.605.66.397 0 .794-.1 1.19-.298.395-.199.724-.5.987-.902.262-.403.391-.914.387-1.534zm9.574 4.744c-1.056 0-1.964-.24-2.724-.72a4.71 4.71 0 01-1.75-1.993c-.408-.847-.612-1.818-.612-2.912 0-1.108.209-2.087.625-2.937.417-.85 1.004-1.514 1.762-1.992.757-.478 1.65-.717 2.677-.717.829 0 1.567.153 2.216.458a4.026 4.026 0 011.573 1.282c.4.55.638 1.19.714 1.925h-2.067a2.482 2.482 0 00-.777-1.321c-.405-.37-.946-.554-1.623-.554-.592 0-1.11.155-1.552.465-.443.31-.787.75-1.034 1.32-.246.571-.369 1.245-.369 2.021 0 .796.12 1.482.362 2.06.242.578.584 1.025 1.027 1.342.442.318.964.476 1.566.476a2.63 2.63 0 001.097-.223c.33-.15.606-.364.831-.643a2.46 2.46 0 00.472-1.009h2.067a4.014 4.014 0 01-.689 1.89 3.96 3.96 0 01-1.538 1.306c-.641.318-1.393.476-2.254.476zm11.853-11.13v1.705h-5.959v-1.704h5.96zm-4.36-2.613H540v10.32c0 .412.062.72.185.927a.94.94 0 00.48.419c.196.073.41.11.642.11.17 0 .32-.012.447-.036l.299-.056.383 1.754a3.77 3.77 0 01-.525.145c-.228.05-.512.077-.853.082-.558.01-1.08-.09-1.562-.298a2.68 2.68 0 01-1.172-.966c-.298-.436-.448-.983-.448-1.64v-10.76zM391.48 373.213c-.88 0-1.666-.226-2.355-.678-.689-.452-1.228-1.099-1.619-1.94-.39-.84-.586-1.85-.586-3.028 0-1.18.198-2.188.593-3.026.396-.838.939-1.48 1.63-1.925.691-.445 1.475-.667 2.351-.667.677 0 1.223.112 1.637.337.414.225.736.487.966.785.23.298.408.561.536.788h.128v-5.404h2.124V373h-2.074v-1.697h-.178a5.76 5.76 0 01-.55.795c-.24.298-.567.559-.984.781-.417.223-.956.334-1.62.334zm.469-1.811c.61 0 1.128-.162 1.551-.487.424-.324.746-.775.966-1.353.22-.577.33-1.25.33-2.017 0-.757-.108-1.42-.326-1.988-.218-.568-.538-1.011-.959-1.328-.421-.318-.942-.476-1.562-.476-.64 0-1.172.166-1.598.497-.427.331-.747.784-.963 1.357-.215.572-.323 1.219-.323 1.938 0 .73.109 1.385.327 1.968.218.582.54 1.043.97 1.381.428.339.957.508 1.587.508zm9.593-4.808h5.67c0-.559-.114-1.055-.342-1.488a2.58 2.58 0 00-.955-1.026c-.41-.251-.889-.377-1.438-.377-.597 0-1.116.146-1.559.437a2.95 2.95 0 00-1.023 1.136c-.21.41-.327.849-.353 1.318zm-.004 1.59c.017.666.145 1.236.386 1.712a2.73 2.73 0 001.083 1.169c.464.267 1.006.4 1.626.4.403 0 .77-.057 1.101-.173a2.34 2.34 0 00.86-.522 2.29 2.29 0 00.553-.86l2.01.363a3.615 3.615 0 01-.863 1.552 4.184 4.184 0 01-1.555 1.03c-.623.243-1.332.365-2.127.365-1.075 0-2-.23-2.774-.692a4.627 4.627 0 01-1.79-1.953c-.418-.84-.628-1.827-.628-2.959 0-1.117.21-2.102.629-2.954.419-.852 1.006-1.518 1.761-1.996.755-.478 1.64-.717 2.653-.717.615 0 1.212.102 1.79.305a4.326 4.326 0 011.555.96c.46.435.821 1 1.087 1.693.265.694.397 1.535.397 2.525v.753h-7.754zm19.452-6.093L417.035 373h-2.273l-3.963-10.91h2.28l2.763 8.396h.113l2.756-8.395h2.28zm3.627 4.503h5.67c0-.559-.114-1.055-.341-1.488a2.59 2.59 0 00-.956-1.026c-.41-.251-.888-.377-1.438-.377-.596 0-1.116.146-1.559.437-.442.291-.783.67-1.022 1.136-.21.41-.328.849-.354 1.318zm-.003 1.59c.016.666.145 1.236.385 1.712.258.512.62.901 1.083 1.169.464.267 1.006.4 1.627.4a3.31 3.31 0 001.1-.173 2.34 2.34 0 00.86-.522c.241-.232.426-.519.554-.86l2.01.363a3.636 3.636 0 01-.863 1.552 4.196 4.196 0 01-1.556 1.03c-.622.243-1.331.365-2.127.365-1.075 0-2-.23-2.773-.692a4.62 4.62 0 01-1.79-1.953c-.419-.84-.629-1.827-.629-2.959 0-1.117.21-2.102.629-2.954.419-.852 1.006-1.518 1.761-1.996.756-.478 1.64-.717 2.653-.717.616 0 1.212.102 1.79.305a4.326 4.326 0 011.555.96c.46.435.822 1 1.087 1.693.265.694.398 1.535.398 2.525v.753h-7.754zm12.242-9.73V373h-2.123v-14.545h2.123zm7.45 14.766c-1.022 0-1.915-.234-2.677-.703s-1.354-1.124-1.776-1.967c-.421-.843-.632-1.828-.632-2.955 0-1.131.211-2.121.632-2.969.422-.847 1.014-1.505 1.776-1.974.762-.469 1.655-.703 2.678-.703 1.022 0 1.915.234 2.677.703s1.354 1.127 1.776 1.974c.421.848.632 1.838.632 2.97 0 1.126-.21 2.11-.632 2.954-.422.843-1.014 1.498-1.776 1.967-.762.469-1.655.703-2.677.703zm.008-1.783c.663 0 1.212-.175 1.647-.525.436-.35.76-.817.97-1.4.21-.582.316-1.223.316-1.924 0-.696-.105-1.336-.316-1.921-.21-.585-.534-1.055-.97-1.41-.435-.355-.984-.533-1.647-.533-.668 0-1.22.178-1.659.533-.438.355-.762.825-.973 1.41a5.647 5.647 0 00-.316 1.921c0 .7.106 1.342.316 1.925.21.582.535 1.049.973 1.399.438.35.991.526 1.659.526zm7.443 5.654v-15h2.074v1.768h.177c.123-.227.3-.49.533-.788.232-.298.554-.56.966-.785.412-.225.956-.337 1.633-.337.881 0 1.667.222 2.358.667.692.446 1.235 1.087 1.63 1.925.396.838.593 1.847.593 3.026 0 1.179-.196 2.188-.59 3.029-.392.84-.932 1.487-1.619 1.939-.686.452-1.47.678-2.35.678-.663 0-1.204-.111-1.623-.334-.42-.222-.747-.483-.984-.781a5.887 5.887 0 01-.547-.795h-.128v5.788h-2.123zm2.08-9.546c0 .768.112 1.44.335 2.017.222.578.544 1.03.965 1.353.422.325.938.487 1.549.487.634 0 1.165-.17 1.59-.508.427-.338.75-.799.97-1.381.22-.583.33-1.238.33-1.968 0-.72-.107-1.366-.323-1.938-.215-.573-.537-1.026-.966-1.357-.428-.331-.962-.497-1.601-.497-.616 0-1.135.158-1.56.476-.423.317-.744.76-.962 1.328-.217.568-.326 1.23-.326 1.988zM464.103 373v-10.91h2.038v1.776h.135c.227-.6.599-1.07 1.115-1.41.516-.338 1.134-.507 1.854-.507.729 0 1.34.17 1.836.511.494.341.86.81 1.097 1.406h.113a3.09 3.09 0 011.243-1.395c.569-.348 1.246-.522 2.032-.522.99 0 1.798.31 2.425.93.627.62.941 1.556.941 2.806V373h-2.123v-7.116c0-.74-.202-1.274-.604-1.606-.403-.331-.883-.497-1.442-.497-.691 0-1.229.212-1.612.636-.384.424-.575.967-.575 1.63V373h-2.117v-7.251c0-.592-.185-1.068-.554-1.428-.37-.36-.85-.54-1.442-.54-.402 0-.773.106-1.111.316-.339.211-.61.503-.817.877-.206.374-.309.808-.309 1.3V373h-2.123zm19.302-6.406h5.67c0-.559-.114-1.055-.342-1.488a2.58 2.58 0 00-.955-1.026c-.41-.251-.889-.377-1.438-.377-.597 0-1.116.146-1.56.437-.442.291-.783.67-1.022 1.136-.21.41-.327.849-.353 1.318zm-.004 1.59c.017.666.145 1.236.386 1.712a2.73 2.73 0 001.083 1.169c.464.267 1.006.4 1.626.4.402 0 .77-.057 1.1-.173.332-.116.619-.29.86-.522a2.28 2.28 0 00.554-.86l2.01.363a3.615 3.615 0 01-.863 1.552 4.192 4.192 0 01-1.555 1.03c-.623.243-1.332.365-2.127.365-1.075 0-2-.23-2.774-.692a4.627 4.627 0 01-1.79-1.953c-.419-.84-.628-1.827-.628-2.959 0-1.117.21-2.102.629-2.954.419-.852 1.006-1.518 1.76-1.996.756-.478 1.64-.717 2.654-.717.615 0 1.212.102 1.79.305a4.334 4.334 0 011.555.96c.459.435.821 1 1.086 1.693.266.694.398 1.535.398 2.525v.753H483.4zm12.243-1.661V373h-2.124v-10.91h2.039v1.776h.134a3.122 3.122 0 011.183-1.392c.537-.35 1.216-.525 2.035-.525.743 0 1.394.155 1.953.465.559.31.992.77 1.3 1.381.307.611.461 1.366.461 2.266V373h-2.123v-6.683c0-.791-.206-1.41-.618-1.857-.412-.448-.978-.672-1.698-.672a2.64 2.64 0 00-1.31.32 2.271 2.271 0 00-.902.934c-.22.41-.33.903-.33 1.48zm14.915-4.432v1.704h-5.96v-1.704h5.96zm-4.361-2.614h2.123v10.32c0 .412.062.72.185.927a.94.94 0 00.48.419c.196.073.41.11.642.11.17 0 .32-.012.448-.036l.298-.056.383 1.754a3.77 3.77 0 01-.525.145c-.227.05-.512.077-.852.082-.56.01-1.08-.09-1.563-.298a2.68 2.68 0 01-1.172-.966c-.298-.436-.447-.983-.447-1.64v-10.76zm10.788 7.486c0 1.785-.234 3.426-.703 4.922a14.642 14.642 0 01-2.053 4.14h-1.946c.35-.468.677-1.043.98-1.725.304-.682.569-1.429.796-2.241.227-.812.405-1.654.533-2.525.127-.871.191-1.728.191-2.57 0-1.123-.11-2.262-.333-3.417a19.197 19.197 0 00-.902-3.217c-.38-.99-.8-1.797-1.265-2.422h1.946a14.642 14.642 0 012.053 4.14c.469 1.497.703 3.135.703 4.915zM247.672 251.31v-2.855h12.294v2.855h-4.41V263h-3.467v-11.69h-4.417zm17.493 5.468V263h-3.473v-14.545h3.36v5.639h.12c.246-.673.65-1.198 1.21-1.577.562-.379 1.25-.568 2.064-.568.767 0 1.435.17 2.003.508a3.45 3.45 0 011.324 1.43c.315.616.47 1.336.466 2.16V263h-3.473v-6.271c.004-.606-.147-1.08-.455-1.42-.308-.342-.74-.512-1.3-.512-.364 0-.685.08-.962.238a1.639 1.639 0 00-.646.678c-.154.294-.233.649-.238 1.065zm12.24-.412h4.038a1.954 1.954 0 00-.263-.987 1.803 1.803 0 00-.7-.678 2.072 2.072 0 00-1.018-.245 2.08 2.08 0 00-1.044.26 1.959 1.959 0 00-1.014 1.65zm-.003 2.018v.092c0 .445.088.834.263 1.168.175.334.424.593.746.778.321.185.705.277 1.15.277.308 0 .587-.043.838-.128s.467-.21.646-.376c.18-.166.315-.37.405-.611l3.19.092a3.942 3.942 0 01-.87 1.864c-.448.528-1.034.938-1.759 1.23-.724.29-1.562.436-2.514.436-1.14 0-2.125-.226-2.95-.678a4.603 4.603 0 01-1.904-1.94c-.443-.84-.664-1.84-.664-3 0-1.127.222-2.113.667-2.958a4.852 4.852 0 011.882-1.974c.81-.472 1.764-.707 2.863-.707.776 0 1.486.12 2.13.362.644.242 1.2.599 1.67 1.073a4.895 4.895 0 011.093 1.75c.26.694.39 1.488.39 2.383v.867h-7.272zm13.36 4.616v-10.91h3.302v2.004h.12c.228-.663.611-1.186 1.151-1.57.54-.383 1.184-.575 1.932-.575.758 0 1.406.194 1.946.582.54.389.883.91 1.03 1.563h.114c.203-.649.6-1.169 1.193-1.56.592-.39 1.29-.585 2.095-.585 1.032 0 1.87.33 2.514.99.644.661.966 1.567.966 2.717V263h-3.473v-6.548c0-.545-.14-.96-.419-1.247-.28-.286-.642-.43-1.087-.43-.478 0-.853.156-1.125.466-.273.31-.409.725-.409 1.246V263h-3.338v-6.584c0-.506-.137-.907-.412-1.2-.274-.294-.637-.44-1.086-.44-.303 0-.571.072-.803.216-.232.145-.413.35-.543.615-.13.265-.196.577-.196.937V263h-3.473zm18.522 0v-10.91h3.473V263h-3.473zm1.747-12.18c-.492 0-.914-.163-1.264-.487a1.545 1.545 0 01-.526-1.175c0-.455.176-.844.526-1.169.35-.324.77-.486 1.257-.486.493 0 .913.162 1.26.486.349.325.523.714.523 1.169 0 .459-.174.85-.522 1.175a1.776 1.776 0 01-1.254.487zm7.4-2.365V263h-3.472v-14.545h3.473zm5.676 0V263h-3.473v-14.545h3.473zM326.308 263v-10.91h3.473V263h-3.473zm1.747-12.18c-.492 0-.913-.163-1.264-.487a1.544 1.544 0 01-.525-1.175c0-.455.175-.844.525-1.169.35-.324.77-.486 1.257-.486.493 0 .913.162 1.26.486.349.325.523.714.523 1.169 0 .459-.174.85-.522 1.175a1.776 1.776 0 01-1.254.487zm9.02 12.386c-1.146 0-2.13-.236-2.95-.707a4.786 4.786 0 01-1.897-1.974c-.443-.845-.664-1.827-.664-2.944 0-1.122.221-2.106.664-2.951a4.796 4.796 0 011.896-1.974c.822-.472 1.805-.707 2.951-.707 1.146 0 2.13.235 2.951.707a4.786 4.786 0 011.897 1.974c.442.845.664 1.829.664 2.951 0 1.117-.222 2.099-.664 2.944a4.792 4.792 0 01-1.897 1.974c-.821.471-1.805.707-2.95.707zm.022-2.62c.416 0 .769-.129 1.058-.384.289-.256.51-.611.664-1.066.154-.454.23-.98.23-1.576 0-.606-.076-1.137-.23-1.591-.154-.455-.375-.81-.664-1.066a1.544 1.544 0 00-1.058-.383c-.431 0-.795.128-1.09.383-.297.256-.521.611-.675 1.066-.154.454-.231.985-.231 1.59 0 .597.077 1.123.23 1.577.155.455.38.81.675 1.066.296.255.66.383 1.09.383zm10.745-3.808V263h-3.473v-10.91h3.303v2.004h.12a3.083 3.083 0 011.236-1.573c.583-.382 1.276-.572 2.081-.572.767 0 1.434.171 2 .515a3.514 3.514 0 011.32 1.434c.316.614.47 1.33.466 2.149V263h-3.473v-6.271c.005-.606-.148-1.08-.458-1.42-.31-.342-.74-.512-1.29-.512-.364 0-.685.08-.962.238-.277.158-.49.385-.639.678-.149.294-.226.649-.23 1.065zm-94.78 31.378a4.016 4.016 0 01-2.194-.625c-.658-.416-1.184-1.041-1.577-1.875-.393-.833-.59-1.868-.59-3.103 0-1.284.204-2.34.612-3.168.407-.829.94-1.442 1.601-1.84a4.07 4.07 0 012.134-.596c.573 0 1.063.098 1.47.295.408.196.744.448 1.009.756.265.308.466.627.604.959h.07v-5.504h3.474V288h-3.438v-1.768h-.106a3.42 3.42 0 01-.625.944c-.27.294-.608.53-1.012.71-.405.18-.882.27-1.431.27zm1.208-2.706c.421 0 .781-.12 1.08-.358.298-.24.527-.577.688-1.012.161-.436.242-.947.242-1.535 0-.596-.08-1.11-.238-1.54-.159-.432-.388-.763-.689-.995-.3-.232-.662-.348-1.083-.348-.431 0-.796.118-1.094.355-.298.237-.524.57-.678 1.001-.154.431-.231.94-.231 1.527 0 .588.078 1.099.234 1.535.157.435.383.773.679 1.012.296.239.659.358 1.09.358zm12.699 2.756c-1.146 0-2.13-.236-2.951-.707a4.786 4.786 0 01-1.897-1.974c-.442-.845-.664-1.827-.664-2.944 0-1.122.222-2.106.664-2.951a4.792 4.792 0 011.897-1.974c.821-.472 1.805-.707 2.95-.707 1.147 0 2.13.235 2.952.707a4.79 4.79 0 011.896 1.974c.443.845.664 1.829.664 2.951 0 1.117-.221 2.099-.664 2.944a4.796 4.796 0 01-1.896 1.974c-.822.471-1.805.707-2.951.707zm.021-2.62c.417 0 .77-.129 1.058-.384.29-.256.51-.611.664-1.066.154-.454.231-.98.231-1.576 0-.606-.077-1.137-.23-1.591-.155-.455-.376-.81-.665-1.066a1.542 1.542 0 00-1.058-.383c-.43 0-.794.128-1.09.383-.296.256-.521.611-.675 1.066-.154.454-.23.985-.23 1.59 0 .597.076 1.123.23 1.577.154.455.379.81.675 1.066.296.255.66.383 1.09.383zm10.746-12.131V288h-3.473v-14.545h3.473zm5.675 0V288h-3.474v-14.545h3.474zm5.276 14.73c-.696 0-1.312-.118-1.85-.352a2.832 2.832 0 01-1.27-1.065c-.311-.476-.466-1.074-.466-1.794 0-.606.106-1.117.32-1.534a2.73 2.73 0 01.88-1.015c.374-.26.805-.458 1.293-.593a8.632 8.632 0 011.562-.274c.62-.057 1.12-.117 1.499-.18.379-.065.654-.157.827-.278a.59.59 0 00.26-.515v-.035c0-.365-.126-.647-.377-.845-.25-.2-.59-.299-1.016-.299-.459 0-.828.1-1.108.299a1.313 1.313 0 00-.532.823l-3.203-.113c.094-.663.34-1.256.735-1.78.395-.523.94-.934 1.633-1.235.694-.3 1.528-.451 2.504-.451.696 0 1.337.082 1.925.245a4.87 4.87 0 011.534.71c.435.31.773.69 1.012 1.14.239.45.358.964.358 1.541V288h-3.267v-1.52h-.085c-.194.37-.441.682-.742.938-.3.255-.653.447-1.058.575-.405.128-.86.192-1.368.192zm1.073-2.273c.374 0 .711-.076 1.012-.227.3-.152.541-.361.72-.629.18-.267.27-.579.27-.934v-1.037a2.02 2.02 0 01-.358.142c-.14.043-.292.083-.458.121a8.558 8.558 0 01-.511.1l-.505.078a3.088 3.088 0 00-.834.241c-.23.109-.405.25-.526.423-.12.172-.18.377-.18.614 0 .36.128.634.386.824.258.19.586.284.984.284zm7.564 2.088v-10.91h3.373v1.99h.114c.199-.72.523-1.256.973-1.61.45-.352.973-.528 1.57-.528.16 0 .326.01.497.032.17.021.329.053.476.096v3.018a3.307 3.307 0 00-.65-.135 5.924 5.924 0 00-.714-.05c-.412 0-.782.092-1.111.274a1.98 1.98 0 00-.775.76c-.187.324-.28.704-.28 1.14V288h-3.473zm18.927-10.91v2.558h-7.017v-2.557h7.017zM310.697 288v-11.463c0-.843.16-1.542.476-2.099a3.04 3.04 0 011.321-1.25c.564-.277 1.215-.415 1.953-.415.483 0 .94.036 1.368.11.428.073.747.138.955.195l-.554 2.543a3.408 3.408 0 00-.98-.149c-.407 0-.687.09-.838.27-.152.18-.228.426-.228.738V288h-3.473zm14.269-4.709v-6.2h3.466V288h-3.31v-2.031h-.113a3.168 3.168 0 01-1.233 1.587c-.58.39-1.28.586-2.098.586-.744 0-1.397-.17-1.96-.511a3.482 3.482 0 01-1.315-1.431c-.312-.614-.47-1.332-.475-2.156v-6.953h3.473v6.271c.004.592.16 1.058.468 1.4.308.34.727.51 1.257.51.346 0 .657-.076.934-.23a1.67 1.67 0 00.66-.675c.164-.296.246-.654.246-1.076zm9.148-1.513V288h-3.473v-10.91h3.302v2.004h.12a3.08 3.08 0 011.237-1.573c.582-.382 1.276-.572 2.08-.572.768 0 1.434.171 2 .515a3.516 3.516 0 011.321 1.434c.315.614.47 1.33.465 2.149V288h-3.473v-6.271c.005-.606-.148-1.08-.458-1.42-.31-.342-.74-.512-1.289-.512-.365 0-.685.08-.962.238a1.6 1.6 0 00-.64.678c-.149.294-.226.649-.23 1.065zm13.196 6.378a4.017 4.017 0 01-2.195-.625c-.658-.416-1.184-1.041-1.577-1.875-.393-.833-.59-1.868-.59-3.103 0-1.284.204-2.34.612-3.168.407-.829.94-1.442 1.601-1.84a4.07 4.07 0 012.134-.596c.573 0 1.063.098 1.47.295.408.196.744.448 1.01.756.264.308.466.627.603.959h.07v-5.504h3.474V288h-3.438v-1.768h-.106a3.42 3.42 0 01-.625.944c-.27.294-.607.53-1.012.71-.405.18-.882.27-1.431.27zm1.207-2.706c.421 0 .781-.12 1.08-.358.298-.24.528-.577.689-1.012.16-.436.241-.947.241-1.535 0-.596-.08-1.11-.238-1.54-.159-.432-.388-.763-.689-.995-.3-.232-.662-.348-1.083-.348-.43 0-.795.118-1.094.355-.298.237-.524.57-.678 1.001-.154.431-.23.94-.23 1.527 0 .588.077 1.099.234 1.535.156.435.382.773.678 1.012.296.239.66.358 1.09.358z"/></g></svg>