<svg xmlns="http://www.w3.org/2000/svg" xmlns:xlink="http://www.w3.org/1999/xlink" width="194" height="41"><defs><path id="a" d="M.129.025h22.508v40.829H.129z"/><path id="c" d="M0 .025h22.434v40.829H0z"/><path id="e" d="M.082.025H22.59v40.829H.082z"/><path id="g" d="M.176.025h22.508v40.829H.176z"/></defs><g fill="none" fill-rule="evenodd"><path d="M78.848 18.189V6.374h-4.47V3.208h12.878v3.166h-4.468v11.815zm19.618-9.511c.606.739.908 1.862.908 3.368v6.166h-3.757v-5.997c0-.62-.109-1.07-.328-1.352-.217-.281-.545-.422-.981-.422-.562 0-1.01.18-1.34.538-.33.36-.497.842-.497 1.447v5.786h-3.757V3.324h3.757v5.744c.38-.492.846-.865 1.394-1.119a4.329 4.329 0 011.836-.38c1.239 0 2.16.37 2.765 1.109m6.439 3.283h3.313c-.085-1.238-.619-1.858-1.604-1.858-1 0-1.569.62-1.71 1.858zm6.458 1.774h-6.416c.112.676.359 1.162.738 1.457.38.296.922.444 1.626.444.506 0 1.02-.085 1.54-.254a4.956 4.956 0 001.393-.697l.951 2.471c-.52.38-1.147.68-1.879.898a7.693 7.693 0 01-2.195.327c-1.197 0-2.231-.218-3.104-.655a4.68 4.68 0 01-2.014-1.88c-.473-.815-.709-1.773-.709-2.871 0-1.042.223-1.975.666-2.798a4.793 4.793 0 011.857-1.922c.795-.457 1.692-.686 2.692-.686 1.491 0 2.673.475 3.545 1.425.872.95 1.309 2.25 1.309 3.896v.845zm20.622-10.41h2.997v14.887h-3.377v-7.813l-2.872 5.343h-2.489l-2.85-5.216-.022 7.686h-3.376V3.325h3.059l4.475 8.468zm5.783 14.887h3.757V7.822h-3.757v10.39zm-.084-12.184h3.927v-3.4h-3.927v3.4zm6.311 12.184h3.757V3.325h-3.757zm6.226 0h3.757V3.325h-3.757zm6.227 0h3.758V7.822h-3.758v10.39zm-.083-12.184h3.927v-3.4h-3.927v3.4zm13.551 6.926c0-1.745-.668-2.619-2.006-2.619-1.336 0-2.005.874-2.005 2.619 0 1.746.669 2.618 2.005 2.618 1.338 0 2.006-.872 2.006-2.618m-5.014 4.762a4.777 4.777 0 01-2.004-1.89c-.472-.816-.708-1.774-.708-2.872 0-1.098.236-2.051.708-2.861a4.738 4.738 0 011.995-1.87c.857-.435 1.864-.654 3.017-.654 1.154 0 2.16.219 3.02.655a4.75 4.75 0 011.994 1.869c.471.81.706 1.763.706 2.861 0 1.098-.235 2.056-.706 2.872a4.795 4.795 0 01-1.995 1.89c-.858.443-1.865.665-3.019.665-1.139 0-2.141-.222-3.008-.665m20.486-9.038c.605.739.907 1.862.907 3.368v6.166h-3.757v-5.997c0-.62-.109-1.07-.327-1.352-.218-.281-.545-.422-.982-.422-.562 0-1.01.18-1.34.538-.33.36-.496.842-.496 1.447v5.786h-3.757V7.822h3.652v1.394a3.609 3.609 0 011.413-1.225 4.348 4.348 0 011.921-.422c1.239 0 2.16.37 2.765 1.109M81.115 35.244c1.464 0 2.554-.359 3.272-1.077s1.077-1.802 1.077-3.252c0-1.45-.36-2.53-1.077-3.241-.718-.71-1.808-1.067-3.272-1.067h-1.897v8.637h1.898zm-5.782-11.762h6.057c1.647 0 3.063.296 4.254.887 1.189.591 2.1 1.446 2.732 2.566.635 1.119.951 2.446.951 3.98 0 1.55-.314 2.883-.94 4.002-.626 1.119-1.534 1.974-2.723 2.566-1.189.59-2.613.886-4.274.886h-6.057V23.482zm23.598 9.629c0-1.745-.669-2.618-2.006-2.618-1.337 0-2.006.873-2.006 2.618 0 1.746.669 2.619 2.006 2.619 1.337 0 2.006-.873 2.006-2.619m-5.014 4.762a4.767 4.767 0 01-2.005-1.89c-.472-.816-.708-1.774-.708-2.872 0-1.098.236-2.051.708-2.861a4.744 4.744 0 011.995-1.87c.858-.435 1.864-.654 3.018-.654 1.154 0 2.16.22 3.019.655a4.753 4.753 0 011.995 1.869c.47.81.706 1.763.706 2.861 0 1.098-.235 2.056-.706 2.872a4.789 4.789 0 01-1.995 1.89c-.859.443-1.865.665-3.02.665-1.138 0-2.141-.222-3.007-.665m10.733.497h3.757V23.482h-3.757zm6.227 0h3.758V23.482h-3.758zm11.716-2.883c.323-.36.485-.82.485-1.383v-.254h-.338c-.9 0-1.54.081-1.921.243-.38.162-.57.433-.57.813 0 .324.103.591.307.803.203.21.467.316.792.316.505 0 .92-.18 1.245-.538m2.881-6.63c.78.753 1.172 1.925 1.172 3.515v5.997h-3.525v-1.457a2.394 2.394 0 01-.992 1.193c-.465.288-1.021.433-1.669.433-.718 0-1.365-.145-1.941-.433a3.366 3.366 0 01-1.361-1.203 3.151 3.151 0 01-.497-1.742c0-.746.194-1.341.581-1.785.387-.443 1.003-.764 1.847-.96.844-.197 1.984-.296 3.42-.296h.57v-.254c0-.52-.12-.883-.36-1.087-.24-.205-.661-.306-1.266-.306-.479 0-1.031.095-1.657.285a9.546 9.546 0 00-1.762.728l-.95-2.47c.604-.367 1.361-.672 2.269-.92.906-.246 1.741-.369 2.5-.369 1.633 0 2.84.378 3.621 1.13m11.577 1.932l-2.048.212c-.816.084-1.386.303-1.709.654-.324.352-.486.853-.486 1.5v5.215h-3.758v-10.39h3.569v1.796c.239-.634.633-1.116 1.18-1.447.55-.33 1.218-.517 2.006-.56l1.034-.084.212 3.104zm7.726 7.581V23.482h10.364v3.041h-6.545v2.745h6.121v3.041h-6.121v6.06zm22.5-10.389v10.39h-3.652v-1.395a3.3 3.3 0 01-1.235 1.162c-.499.268-1.072.401-1.72.401-1.336 0-2.329-.37-2.975-1.109-.648-.739-.972-1.86-.972-3.368V27.98h3.757v6.166c0 1.013.437 1.52 1.309 1.52.507 0 .922-.182 1.245-.549.324-.366.486-.845.486-1.436V27.98h3.757zm12.242.855c.606.739.908 1.862.908 3.368v6.166h-3.757v-5.997c0-.62-.109-1.07-.327-1.352-.218-.28-.545-.422-.982-.422-.562 0-1.01.18-1.34.539-.33.359-.496.841-.496 1.446v5.786h-3.758v-10.39h3.653v1.394a3.606 3.606 0 011.413-1.224 4.321 4.321 0 011.921-.423c1.239 0 2.16.37 2.765 1.109m10.09 6.219c.352-.45.528-1.098.528-1.943 0-.83-.176-1.468-.528-1.911-.352-.444-.858-.665-1.52-.665-.647 0-1.146.219-1.498.654-.352.437-.528 1.064-.528 1.88 0 .844.18 1.5.539 1.964.358.464.854.697 1.488.697.66 0 1.167-.225 1.52-.676zm4.222-11.572v14.886h-3.694v-1.415c-.295.494-.728.88-1.298 1.162-.57.281-1.2.422-1.89.422-.886 0-1.677-.228-2.374-.686-.696-.458-1.242-1.101-1.636-1.932-.394-.83-.59-1.78-.59-2.851 0-1.07.193-2.01.58-2.82.386-.808.929-1.431 1.624-1.868.698-.436 1.496-.655 2.397-.655.66 0 1.27.135 1.826.401.555.268.988.627 1.298 1.077v-5.722h3.757z" fill="#242424"/><g transform="translate(26.405)"><mask id="b" fill="#fff"><use xlink:href="#a"/></mask><path fill="#F5B325" d="M3.033.385A4.682 4.682 0 00.49 6.513L13.582 37.96a4.713 4.713 0 006.15 2.535 4.684 4.684 0 002.544-6.13L9.185 2.92A4.713 4.713 0 003.033.385" mask="url(#b)"/></g><g transform="translate(.111)"><mask id="d" fill="#fff"><use xlink:href="#c"/></mask><path fill="#F5B325" d="M2.895 40.495a4.692 4.692 0 01-2.536-6.13L13.41 2.92A4.69 4.69 0 0119.54.386a4.688 4.688 0 012.536 6.128L9.025 37.96a4.692 4.692 0 01-6.13 2.535" mask="url(#d)"/></g><g transform="translate(39.552)"><mask id="f" fill="#fff"><use xlink:href="#e"/></mask><path fill="#618CFA" d="M19.686 40.495a4.686 4.686 0 002.544-6.13L9.138 2.92A4.713 4.713 0 002.986.385 4.682 4.682 0 00.443 6.513L13.535 37.96a4.713 4.713 0 006.15 2.535" mask="url(#f)"/></g><path fill="#000" d="M33.536 22.728l5.124-12.233-3.187-7.61A4.682 4.682 0 0033.536.668a4.675 4.675 0 00-1.937 2.218l-3.189 7.61 5.126 12.232z" opacity=".124"/><g transform="translate(13.035)"><mask id="h" fill="#fff"><use xlink:href="#g"/></mask><path fill="#618CFA" d="M19.78.385a4.682 4.682 0 012.543 6.128L9.231 37.96a4.714 4.714 0 01-6.151 2.535 4.686 4.686 0 01-2.544-6.13L13.628 2.92A4.713 4.713 0 0119.78.385" mask="url(#h)"/></g></g></svg>