<svg xmlns="http://www.w3.org/2000/svg" xmlns:xlink="http://www.w3.org/1999/xlink" width="161" height="34"><defs><path id="a" d="M.107.021h18.665v33.858H.107z"/><path id="c" d="M0 .021h18.604v33.858H0z"/><path id="e" d="M.068.021h18.665v33.858H.068z"/><path id="g" d="M.146.021h18.665v33.858H.146z"/></defs><g fill="none" fill-rule="evenodd"><path d="M65.387 15.084V5.286H61.68V2.661h10.679v2.625h-3.705v9.798zm16.268-7.887c.503.613.753 1.544.753 2.793v5.113h-3.116V10.13c0-.513-.09-.887-.27-1.12-.181-.234-.453-.351-.815-.351-.466 0-.837.149-1.11.447-.275.297-.413.698-.413 1.2v4.797H73.57V2.758h3.115V7.52a3.062 3.062 0 011.156-.928c.455-.21.962-.316 1.522-.316 1.028 0 1.791.307 2.293.92m5.339 2.724h2.747c-.07-1.027-.513-1.541-1.33-1.541-.828 0-1.3.514-1.417 1.54zm5.355 1.47h-5.32c.093.561.298.964.612 1.21.316.244.764.367 1.348.367.42 0 .846-.07 1.277-.21a4.12 4.12 0 001.156-.578l.788 2.049a5.088 5.088 0 01-1.558.744 6.377 6.377 0 01-1.82.271c-.993 0-1.85-.18-2.574-.543a3.868 3.868 0 01-1.67-1.558c-.392-.677-.588-1.471-.588-2.382 0-.863.185-1.637.552-2.32a3.973 3.973 0 011.54-1.594c.66-.378 1.403-.569 2.232-.569 1.237 0 2.217.394 2.94 1.182.723.788 1.085 1.865 1.085 3.231v.7zm17.102-8.632h2.485v12.346h-2.8v-6.48l-2.382 4.431h-2.064l-2.363-4.326-.019 6.375h-2.8V2.758h2.538l3.711 7.022zm4.795 12.346h3.116V6.488h-3.116v8.616zm-.07-10.105h3.257V2.18h-3.257V5zm5.234 10.105h3.116V2.758h-3.116zm5.163 0h3.116V2.758h-3.116zm5.165 0h3.115V6.488h-3.114v8.616zm-.07-10.105h3.256V2.18h-3.255V5zm11.238 5.744c0-1.447-.555-2.171-1.664-2.171-1.108 0-1.663.724-1.663 2.171 0 1.448.555 2.171 1.663 2.171 1.11 0 1.664-.723 1.664-2.171m-4.158 3.949a3.956 3.956 0 01-1.662-1.567c-.392-.677-.587-1.471-.587-2.382 0-.91.195-1.701.587-2.373.39-.67.942-1.187 1.654-1.55.711-.361 1.546-.542 2.502-.542.957 0 1.792.181 2.504.542a3.95 3.95 0 011.654 1.55c.39.672.586 1.462.586 2.373 0 .91-.195 1.705-.586 2.382a3.97 3.97 0 01-1.654 1.567c-.712.368-1.547.551-2.504.551-.944 0-1.776-.183-2.494-.551m16.988-7.495c.502.613.752 1.544.752 2.793v5.113h-3.115V10.13c0-.513-.09-.887-.272-1.12-.18-.234-.452-.351-.814-.351-.466 0-.837.149-1.11.447-.275.297-.413.698-.413 1.2v4.797h-3.115V6.488h3.029v1.155a2.984 2.984 0 011.172-1.015 3.58 3.58 0 011.593-.35c1.027 0 1.79.306 2.293.919m-86.47 22.031c1.213 0 2.118-.298 2.713-.894.595-.595.893-1.494.893-2.696 0-1.203-.298-2.099-.893-2.688-.595-.59-1.5-.885-2.713-.885h-1.575v7.163h1.575zm-4.795-9.754h5.023c1.366 0 2.54.245 3.528.735.985.49 1.74 1.2 2.265 2.128.526.928.789 2.029.789 3.3 0 1.285-.261 2.391-.78 3.32-.519.927-1.272 1.636-2.258 2.127-.986.49-2.167.735-3.544.735h-5.023V19.474zm19.568 7.985c0-1.447-.554-2.172-1.663-2.172-1.108 0-1.663.725-1.663 2.172 0 1.448.555 2.171 1.663 2.171 1.11 0 1.664-.723 1.664-2.171m-4.158 3.949a3.952 3.952 0 01-1.662-1.568c-.392-.676-.587-1.47-.587-2.381 0-.91.195-1.701.587-2.373a3.927 3.927 0 011.654-1.55c.711-.361 1.546-.543 2.502-.543.957 0 1.792.182 2.504.543a3.938 3.938 0 011.654 1.55c.39.672.586 1.462.586 2.373 0 .91-.195 1.705-.586 2.381a3.973 3.973 0 01-1.654 1.568c-.712.367-1.547.551-2.504.551-.944 0-1.776-.184-2.494-.551m8.9.411h3.116V19.474h-3.116zm5.165 0h3.116V19.474h-3.116zm9.715-2.39c.268-.298.403-.68.403-1.147v-.21h-.281c-.747 0-1.277.067-1.593.201-.314.135-.472.36-.472.674 0 .269.084.49.254.666a.87.87 0 00.656.262c.42 0 .764-.148 1.033-.446m2.39-5.499c.646.625.97 1.597.97 2.916v4.973h-2.922v-1.208c-.164.42-.438.75-.823.99-.385.238-.847.358-1.384.358-.595 0-1.132-.12-1.61-.359a2.785 2.785 0 01-1.128-.998 2.61 2.61 0 01-.412-1.445c0-.618.161-1.112.482-1.48.32-.367.831-.633 1.531-.796.7-.163 1.646-.245 2.836-.245h.473v-.21c0-.432-.1-.733-.298-.902-.199-.17-.549-.254-1.05-.254-.397 0-.855.079-1.374.236-.52.158-1.008.36-1.462.604l-.788-2.048c.502-.305 1.13-.558 1.882-.762.752-.205 1.444-.307 2.074-.307 1.354 0 2.354.313 3.002.937m9.601 1.602l-1.699.176c-.676.07-1.149.251-1.417.542-.269.293-.403.707-.403 1.244v4.325h-3.116v-8.616h2.96v1.489a2.3 2.3 0 01.979-1.2c.455-.274 1.01-.429 1.662-.464l.858-.07.176 2.574zm6.406 6.287V19.473h8.595v2.522h-5.427v2.277h5.076v2.521h-5.076v5.026zm18.659-8.616v8.616h-3.028v-1.156c-.27.42-.61.742-1.024.963-.414.222-.89.333-1.427.333-1.108 0-1.93-.306-2.467-.92-.537-.612-.806-1.543-.806-2.792v-5.044h3.116v5.114c0 .84.362 1.26 1.085 1.26.42 0 .765-.15 1.033-.455.269-.303.402-.7.402-1.19v-4.729h3.116zm10.152.71c.502.612.753 1.544.753 2.793v5.113h-3.116v-4.973c0-.514-.09-.887-.271-1.121-.18-.233-.452-.35-.814-.35-.466 0-.837.149-1.11.446-.275.298-.413.698-.413 1.2v4.798h-3.116v-8.616h3.03v1.156a2.984 2.984 0 011.171-1.016c.48-.233 1.01-.35 1.593-.35 1.027 0 1.791.307 2.293.92m8.368 5.157c.291-.374.437-.91.437-1.611 0-.689-.146-1.217-.437-1.585-.292-.368-.712-.552-1.26-.552-.538 0-.951.182-1.243.543-.292.362-.438.882-.438 1.559 0 .7.149 1.243.446 1.628.298.385.71.578 1.234.578.549 0 .969-.186 1.26-.56zm3.5-9.597V31.82h-3.063v-1.173c-.245.409-.604.73-1.076.963-.473.233-.995.35-1.567.35a3.51 3.51 0 01-1.969-.569c-.578-.38-1.03-.913-1.357-1.602-.327-.689-.49-1.477-.49-2.364 0-.887.161-1.666.482-2.338.32-.671.77-1.188 1.347-1.55.578-.361 1.24-.543 1.987-.543.548 0 1.054.112 1.514.333.461.222.82.52 1.077.893v-4.746h3.116z" fill="#FFF"/><g transform="translate(21.897)"><mask id="b" fill="#fff"><use xlink:href="#a"/></mask><path fill="#F5B325" d="M2.515.319A3.884 3.884 0 00.406 5.4l10.857 26.08a3.908 3.908 0 005.1 2.102 3.884 3.884 0 002.11-5.082L7.617 2.42A3.909 3.909 0 002.515.32" mask="url(#b)"/></g><g transform="translate(.092)"><mask id="d" fill="#fff"><use xlink:href="#c"/></mask><path fill="#F5B325" d="M2.4 33.58a3.887 3.887 0 01-2.101-5.081l10.82-26.078a3.891 3.891 0 017.187 2.98L7.485 31.479a3.89 3.89 0 01-5.084 2.102" mask="url(#d)"/></g><g transform="translate(32.799)"><mask id="f" fill="#fff"><use xlink:href="#e"/></mask><path fill="#FFF" d="M16.325 33.58a3.885 3.885 0 002.11-5.082L7.577 2.421a3.908 3.908 0 00-5.1-2.102 3.882 3.882 0 00-2.11 5.082l10.857 26.078a3.908 3.908 0 005.1 2.102" mask="url(#f)"/></g><path fill="#000" d="M27.81 18.848l4.25-10.145-2.644-6.31A3.877 3.877 0 0027.81.554a3.88 3.88 0 00-1.606 1.84l-2.644 6.31 4.25 10.144z" opacity=".124"/><g transform="translate(10.81)"><mask id="h" fill="#fff"><use xlink:href="#g"/></mask><path fill="#FFF" d="M16.402.319a3.883 3.883 0 012.11 5.082L7.655 31.48a3.908 3.908 0 01-5.101 2.102A3.886 3.886 0 01.444 28.5L11.302 2.42a3.906 3.906 0 015.1-2.1" mask="url(#h)"/></g></g></svg>