<svg width="262" height="114" fill="none" xmlns="http://www.w3.org/2000/svg"><path fill-rule="evenodd" clip-rule="evenodd" d="M131 65.501C131 29.325 160.325 0 196.499 0 232.675 0 262 29.325 262 65.501 262 101.675 232.675 131 196.499 131 160.325 131 131 101.675 131 65.501z" fill="#F5B325"/><mask id="a" maskUnits="userSpaceOnUse" x="11" y="0" width="121" height="132"><path fill-rule="evenodd" clip-rule="evenodd" d="M11.04.913h120.357v130.603H11.039V.913z" fill="#fff"/></mask><g mask="url(#a)"><path fill-rule="evenodd" clip-rule="evenodd" d="M255.981 126.306L16.259-113.015l-5.22 5.211 239.723 239.32 5.219-5.21z" fill="#fff"/></g><mask id="b" maskUnits="userSpaceOnUse" x="0" y="0" width="132" height="132"><path fill-rule="evenodd" clip-rule="evenodd" d="M.69.913h130.707v130.603H.691V.913z" fill="#fff"/></mask><g mask="url(#b)"><path fill-rule="evenodd" clip-rule="evenodd" d="M245.633 136.636L5.911-102.687.69-97.473l239.723 239.32 5.219-5.211z" fill="#fff"/></g><mask id="c" maskUnits="userSpaceOnUse" x="0" y="0" width="132" height="132"><path fill-rule="evenodd" clip-rule="evenodd" d="M.576.913h130.821v130.603H.576V.913z" fill="#fff"/></mask><g mask="url(#c)"><path fill-rule="evenodd" clip-rule="evenodd" d="M235.285 146.967L-4.435-92.356l-5.222 5.212 239.723 239.322 5.219-5.211z" fill="#fff"/></g><mask id="d" maskUnits="userSpaceOnUse" x="0" y="0" width="132" height="132"><path fill-rule="evenodd" clip-rule="evenodd" d="M.576.913h130.821v130.603H.576V.913z" fill="#fff"/></mask><g mask="url(#d)"><path fill-rule="evenodd" clip-rule="evenodd" d="M224.938 157.298L-14.784-82.025l-5.22 5.211L219.72 162.51l5.219-5.211z" fill="#fff"/></g><mask id="e" maskUnits="userSpaceOnUse" x="0" y="0" width="132" height="132"><path fill-rule="evenodd" clip-rule="evenodd" d="M.576.913h130.821v130.603H.576V.913z" fill="#fff"/></mask><g mask="url(#e)"><path fill-rule="evenodd" clip-rule="evenodd" d="M214.59 167.629L-25.132-71.694l-5.22 5.211L209.37 172.84l5.219-5.211z" fill="#fff"/></g><mask id="f" maskUnits="userSpaceOnUse" x="0" y="0" width="132" height="132"><path fill-rule="evenodd" clip-rule="evenodd" d="M.576.913h130.821v130.603H.576V.913z" fill="#fff"/></mask><g mask="url(#f)"><path fill-rule="evenodd" clip-rule="evenodd" d="M204.242 177.96L-35.48-61.363l-5.22 5.211 239.723 239.323 5.219-5.211z" fill="#fff"/></g><mask id="g" maskUnits="userSpaceOnUse" x="0" y="0" width="132" height="132"><path fill-rule="evenodd" clip-rule="evenodd" d="M.576.913h130.821v130.603H.576V.913z" fill="#fff"/></mask><g mask="url(#g)"><path fill-rule="evenodd" clip-rule="evenodd" d="M193.894 188.291L-45.829-51.032l-5.22 5.211 239.723 239.323 5.22-5.211z" fill="#fff"/></g><mask id="h" maskUnits="userSpaceOnUse" x="0" y="0" width="132" height="132"><path fill-rule="evenodd" clip-rule="evenodd" d="M.576.913h130.821v130.603H.576V.913z" fill="#fff"/></mask><g mask="url(#h)"><path fill-rule="evenodd" clip-rule="evenodd" d="M183.546 198.622L-56.177-40.701l-5.22 5.211 239.723 239.323 5.22-5.211z" fill="#fff"/></g><mask id="i" maskUnits="userSpaceOnUse" x="0" y="0" width="132" height="132"><path fill-rule="evenodd" clip-rule="evenodd" d="M.576.913h130.821v130.603H.576V.913z" fill="#fff"/></mask><g mask="url(#i)"><path fill-rule="evenodd" clip-rule="evenodd" d="M173.199 208.953L-66.524-30.37l-5.22 5.21L167.98 214.165l5.219-5.211z" fill="#fff"/></g><mask id="j" maskUnits="userSpaceOnUse" x="0" y="0" width="132" height="132"><path fill-rule="evenodd" clip-rule="evenodd" d="M.576.913h130.821v130.603H.576V.913z" fill="#fff"/></mask><g mask="url(#j)"><path fill-rule="evenodd" clip-rule="evenodd" d="M162.851 219.281L-76.872-20.039l-5.22 5.21 239.723 239.324 5.22-5.214z" fill="#fff"/></g><mask id="k" maskUnits="userSpaceOnUse" x="0" y="0" width="132" height="132"><path fill-rule="evenodd" clip-rule="evenodd" d="M.576.913h130.821v130.603H.576V.913z" fill="#fff"/></mask><g mask="url(#k)"><path fill-rule="evenodd" clip-rule="evenodd" d="M152.502 229.612L-87.22-9.708-92.44-4.5l239.723 239.323 5.219-5.211z" fill="#fff"/></g><mask id="l" maskUnits="userSpaceOnUse" x="0" y="0" width="132" height="132"><path fill-rule="evenodd" clip-rule="evenodd" d="M.576.913h130.821v130.603H.576V.913z" fill="#fff"/></mask><g mask="url(#l)"><path fill-rule="evenodd" clip-rule="evenodd" d="M142.154 239.943L-97.568.62l-5.22 5.211 239.723 239.323 5.219-5.211z" fill="#fff"/></g><mask id="m" maskUnits="userSpaceOnUse" x="0" y="10" width="132" height="122"><path fill-rule="evenodd" clip-rule="evenodd" d="M.576 10.95h130.821v120.566H.576V10.951z" fill="#fff"/></mask><g mask="url(#m)"><path fill-rule="evenodd" clip-rule="evenodd" d="M131.807 250.274L-107.916 10.951l-5.22 5.21 239.723 239.323 5.22-5.21z" fill="#fff"/></g></svg>