<svg xmlns="http://www.w3.org/2000/svg" width="1234" height="406"><g fill="none" fill-rule="evenodd"><path fill="#B1C0FA" d="M1.348 0C74.733.723 134 60.438 134 133.997 134 208.005 74.006 268 0 268l1.346-.011z"/><path fill="#FFF" d="M185.652 406C112.267 405.277 53 345.562 53 272.003 53 197.995 112.994 138 187 138l-1.346.011z"/><path fill="#B1C0FA" d="M1232.652 0C1159.267.723 1100 60.438 1100 133.997 1100 208.005 1159.994 268 1234 268l-1.346-.011z"/><path fill="#FFF" d="M1048.348 406c73.385-.723 132.652-60.438 132.652-133.997C1181 197.995 1121.006 138 1047 138l1.346.011z"/><circle cx="187" cy="327" r="14" fill="#FFBA27"/><circle cx="1047" cy="327" r="14" fill="#FFBA27"/></g></svg>