<svg xmlns="http://www.w3.org/2000/svg" xmlns:xlink="http://www.w3.org/1999/xlink" width="295" height="50"><defs><path id="a" d="M.455.848h98.197v49.099H.455z"/><path id="c" d="M.205.901h98.197V50H.205z"/></defs><g fill="none" fill-rule="evenodd"><g transform="matrix(1 0 0 -1 196 50.848)"><mask id="b" fill="#fff"><use xlink:href="#a"/></mask><path fill="#242424" d="M98.652.848H.455c0 27.117 21.982 49.099 49.098 49.099 27.117 0 49.1-21.982 49.1-49.099" mask="url(#b)"/></g><g transform="matrix(1 0 0 -1 98 50.848)"><mask id="d" fill="#fff"><use xlink:href="#c"/></mask><path fill="#F5B325" d="M98.402.902V.9H72.314c0 12.709-10.302 23.012-23.011 23.012-12.708 0-23.01-10.303-23.01-23.012H.205C.205 28.017 22.187 50 49.303 50 76.42 50 98.402 28.018 98.402.9" mask="url(#d)"/></g><path fill="#B1C0FA" d="M98.197 49.96v.001H72.11c0-12.709-10.302-23.012-23.01-23.012-12.709 0-23.01 10.303-23.01 23.012H0C0 22.844 21.982.861 49.098.861c27.117 0 49.1 21.983 49.1 49.1"/></g></svg>