<svg version="1.1" id="Слой_1" xmlns="http://www.w3.org/2000/svg" x="0" y="0" width="37" height="219" xml:space="preserve"><style>.st0{fill:#f5b325}.st1{fill:#618cfa}</style><path class="st0" d="M-81.2 20C-16.9 20.4 35 72.2 35 136c0 64.1-52.4 116-117 116h.8V20z"/><path class="st1" d="M-31.6-8C5.2-7.8 35 21.9 35 58.5 35 95.2 5 125-32 125h.4V-8z"/><path class="st0" d="M461.2 20C396.9 20.4 345 72.2 345 136c0 64.1 52.4 116 117 116h-.8V20z"/><path class="st1" d="M411.6-8c-36.8.2-66.6 29.9-66.6 66.5 0 36.7 30 66.5 67 66.5h-.4V-8z"/></svg>