<svg version="1.1" id="Слой_1" xmlns="http://www.w3.org/2000/svg" x="0" y="0" width="37" height="219" xml:space="preserve"><style>.st0{fill:#f5b325}.st1{fill:#618cfa}</style><path class="st0" d="M-424.2 20c64.3.4 116.2 52.2 116.2 116 0 64.1-52.4 116-117 116h.8V20z"/><path class="st1" d="M-374.6-8c36.8.2 66.6 29.9 66.6 66.5 0 36.7-30 66.5-67 66.5h.4V-8z"/><path class="st0" d="M118.2 20C53.9 20.4 2 72.2 2 136c0 64.1 52.4 116 117 116h-.8V20z"/><path class="st1" d="M68.6-8C31.8-7.8 2 21.9 2 58.5 2 95.2 32 125 69 125h-.4V-8z"/></svg>