<svg width="284" height="180" viewBox="0 0 284 180" fill="none" xmlns="http://www.w3.org/2000/svg">
<rect x="0.5" y="0.5" width="283" height="179" rx="9.5" fill="#F2F5F7" stroke="#D8DEE1"/>
<mask id="mask0" mask-type="alpha" maskUnits="userSpaceOnUse" x="0" y="0" width="284" height="180">
<rect x="0.5" y="0.5" width="283" height="179" rx="9.5" fill="white" stroke="white"/>
</mask>
<g mask="url(#mask0)">
</g>
<g opacity="0.302595">
<path fill-rule="evenodd" clip-rule="evenodd" d="M223.872 16H57.1272C50.43 16 45 21.446 45 28.1631V152.837C45 159.554 50.43 165 57.1272 165H223.872C230.57 165 236 159.554 236 152.837V28.1631C236 21.446 230.57 16 223.872 16ZM223.872 28.1631V116.624L199.973 94.83C196.381 91.5551 190.857 91.6858 187.425 95.1312L163.237 119.388L115.546 62.2506C111.941 57.9326 105.338 57.8902 101.678 62.1564L57.1272 114.088V28.1631H223.872ZM189.007 43.3672C179.797 43.3672 172.333 50.8537 172.333 60.0918C172.333 69.3299 179.797 76.8164 189.007 76.8161C198.219 76.8161 205.682 69.3299 205.682 60.0918C205.682 50.8537 198.218 43.3672 189.007 43.3672Z" fill="#618CFA"/>
</g>
<g filter="url(#filter0_d)">
<circle cx="142" cy="90" r="21" fill="white"/>
</g>
<path fill-rule="evenodd" clip-rule="evenodd" d="M151.513 82.5441C152.232 82.5441 152.863 82.827 153.32 83.3059C153.799 83.763 154.082 84.3942 154.082 85.1125V95.9522C154.082 96.6487 153.777 97.3017 153.32 97.7588C152.863 98.2376 152.232 98.5206 151.513 98.5206H133.752C133.056 98.5206 132.403 98.2159 131.945 97.7588C131.467 97.3017 131.184 96.6705 131.184 95.9522V85.1125C131.184 84.416 131.488 83.763 131.945 83.3059C132.403 82.827 133.034 82.5441 133.752 82.5441H137.343V82.5006C137.343 81.9564 137.561 81.4558 137.931 81.0857C138.301 80.7157 138.802 80.498 139.368 80.498H145.898C146.442 80.498 146.942 80.7157 147.312 81.0857C147.682 81.434 147.9 81.9564 147.9 82.5006V82.5441H151.513ZM152.928 95.9522H152.95V85.1125C152.95 84.7207 152.798 84.3725 152.536 84.1113C152.275 83.8501 151.927 83.6977 151.535 83.6977H147.334C147.008 83.6977 146.747 83.4365 146.747 83.11V82.4788C146.747 82.2394 146.659 82.0217 146.507 81.8693C146.355 81.717 146.137 81.6299 145.898 81.6299H139.39C139.15 81.6299 138.932 81.717 138.78 81.8693C138.628 82.0217 138.541 82.2394 138.541 82.4788V83.11C138.541 83.4365 138.279 83.6977 137.953 83.6977H133.752C133.36 83.6977 133.012 83.8501 132.751 84.1113C132.49 84.3725 132.337 84.7207 132.337 85.1125V95.9522C132.337 96.344 132.49 96.6922 132.751 96.9534C133.012 97.2146 133.36 97.367 133.752 97.367H151.513C151.905 97.367 152.253 97.2146 152.515 96.9534C152.776 96.6922 152.928 96.344 152.928 95.9522Z" fill="#618CFA"/>
<path fill-rule="evenodd" clip-rule="evenodd" d="M138.845 86.7449C139.802 85.7872 141.152 85.1777 142.632 85.1777C144.112 85.1777 145.461 85.7872 146.419 86.7449C147.377 87.7026 147.986 89.0521 147.986 90.5323C147.986 92.0124 147.399 93.3401 146.419 94.3196C145.461 95.2773 144.112 95.8868 142.632 95.8868C141.152 95.8868 139.824 95.2991 138.845 94.3196C137.887 93.3619 137.277 92.0124 137.277 90.5323C137.277 89.0521 137.865 87.7244 138.845 86.7449ZM142.632 94.7332C143.785 94.7332 144.83 94.2543 145.592 93.5142C146.354 92.7524 146.833 91.7076 146.811 90.554C146.811 89.4004 146.354 88.3556 145.592 87.5938C144.83 86.8537 143.785 86.3749 142.632 86.3749C141.478 86.3749 140.433 86.832 139.672 87.5938C138.932 88.3556 138.453 89.4004 138.453 90.554C138.453 91.7076 138.91 92.7524 139.672 93.5142C140.433 94.2543 141.478 94.7332 142.632 94.7332Z" fill="#618CFA"/>
<circle cx="150.383" cy="86.2218" r="1.06655" fill="#618CFA"/>
<defs>
<filter id="filter0_d" x="117" y="67" width="50" height="50" filterUnits="userSpaceOnUse" color-interpolation-filters="sRGB">
<feFlood flood-opacity="0" result="BackgroundImageFix"/>
<feColorMatrix in="SourceAlpha" type="matrix" values="0 0 0 0 0 0 0 0 0 0 0 0 0 0 0 0 0 0 127 0"/>
<feOffset dy="2"/>
<feGaussianBlur stdDeviation="2"/>
<feColorMatrix type="matrix" values="0 0 0 0 0 0 0 0 0 0 0 0 0 0 0 0 0 0 0.0992679 0"/>
<feBlend mode="normal" in2="BackgroundImageFix" result="effect1_dropShadow"/>
<feBlend mode="normal" in="SourceGraphic" in2="effect1_dropShadow" result="shape"/>
</filter>
</defs>
</svg>
