<svg xmlns="http://www.w3.org/2000/svg" width="44" height="54"><g fill="#FFF"><path d="M21.774 7.51c.763 0 1.383.521 1.383 1.162a1.051 1.051 0 102.101 0c0-1.46-1.024-2.698-2.433-3.117v-.147c0-.581-.47-1.053-1.05-1.053-.58 0-1.051.472-1.051 1.053v.147c-1.41.419-2.434 1.658-2.434 3.117 0 1.802 1.563 3.269 3.484 3.269.763 0 1.383.52 1.383 1.161 0 .64-.62 1.162-1.383 1.162s-1.383-.521-1.383-1.162a1.051 1.051 0 10-2.1 0c0 1.46 1.024 2.698 2.433 3.117v.147a1.051 1.051 0 102.1 0v-.147c1.41-.419 2.434-1.657 2.434-3.117 0-1.802-1.563-3.268-3.484-3.268-.763 0-1.383-.522-1.383-1.162 0-.64.62-1.162 1.383-1.162z"/><path d="M42.47 28.923h-4.926c-6.382 0-11.574 5.08-11.574 11.324v4.383l-3.118 3.051v-25.16c5.856-.534 10.456-5.369 10.456-11.236 0-1.215-.196-2.41-.584-3.554a1.085 1.085 0 00-1.362-.67 1.05 1.05 0 00-.684 1.334c.315.929.474 1.901.474 2.89 0 5.06-4.207 9.176-9.378 9.176-5.17 0-9.378-4.116-9.378-9.176 0-5.06 4.207-9.176 9.378-9.176.952 0 1.89.14 2.79.413a1.083 1.083 0 001.349-.694 1.05 1.05 0 00-.71-1.32A11.71 11.71 0 0021.775 0C15.414 0 10.24 5.063 10.24 11.285c0 5.867 4.6 10.702 10.456 11.236v16.066l-3.118-3.051v-4.383c0-6.245-5.192-11.324-11.574-11.324H1.078C.483 19.829 0 20.3 0 20.883v4.82c0 6.245 5.192 11.324 11.574 11.324h4.48l4.642 4.543v10.32H9.9c-.596 0-1.078.473-1.078 1.055 0 .583.482 1.055 1.078 1.055h23.749c.595 0 1.078-.472 1.078-1.055 0-.582-.483-1.054-1.078-1.054H22.852v-1.227l4.643-4.542h4.48c6.382 0 11.573-5.08 11.573-11.324v-4.82c0-.583-.482-1.055-1.078-1.055zm-30.896 5.995c-5.193 0-9.418-4.134-9.418-9.215v-3.765h3.848c5.193 0 9.418 4.133 9.418 9.214v2.274l-4.76-4.657a1.095 1.095 0 00-1.525 0 1.04 1.04 0 000 1.491l4.76 4.658h-2.323zm29.819-.12c0 5.08-4.225 9.214-9.418 9.214H29.65l4.76-4.657a1.04 1.04 0 000-1.492 1.095 1.095 0 00-1.524 0l-4.76 4.658v-2.274c0-5.081 4.224-9.215 9.417-9.215h3.849v3.766z"/><path d="M28.742 5.226a.878.878 0 00.616-.255.878.878 0 00.255-.616.876.876 0 00-.255-.616.878.878 0 00-.616-.255.876.876 0 00-.616.255.878.878 0 00-.255.616c0 .229.093.454.255.616a.878.878 0 00.616.255z"/></g></svg>