<svg xmlns="http://www.w3.org/2000/svg" width="34" height="54"><path d="M2.27 20.654c-2.361-8.686 3.767-17.83 12.718-18.91a.875.875 0 10-.21-1.738C4.772 1.214-2.062 11.392.582 21.113c.272.525.63.73 1.073.615a.876.876 0 00.615-1.074zM18.799.006a.875.875 0 00-.207 1.738c7.55.899 13.245 7.321 13.245 14.939 0 4.682-2.124 9.016-5.827 11.891-1.92 1.49-3.096 3.823-3.096 6.26 0 1.463-1.397 2.154-2.625 2.146V20.394h1.943c2.026 0 3.675-1.649 3.675-3.675s-1.649-3.674-3.675-3.674h-.018a3.679 3.679 0 00-3.675 3.674v1.925h-3.5v-1.925a3.678 3.678 0 00-3.674-3.674h-.018c-2.027 0-3.675 1.648-3.675 3.674s1.648 3.675 3.675 3.675h1.943V36.98c-1.23.008-2.625-.682-2.625-2.147 0-2.431-1.131-4.75-3.027-6.205a15.013 15.013 0 01-3.996-4.62.875.875 0 00-1.528.852 16.745 16.745 0 004.46 5.157c1.466 1.125 2.341 2.925 2.341 4.816 0 1.03.528 2.22 1.312 2.915-.78.627-1.312 1.742-1.312 2.732 0 1.043.46 1.981 1.187 2.623-.708.625-1.187 1.696-1.187 2.626.105 1.642.898 2.747 2.378 3.316a5.548 5.548 0 005.496 4.85 5.549 5.549 0 005.497-4.85c1.32-.445 2.378-1.921 2.378-3.316a3.49 3.49 0 00-1.188-2.624c.71-.626 1.188-1.695 1.188-2.625 0-1.104-.515-2.09-1.315-2.732a3.89 3.89 0 001.315-2.915c0-1.879.952-3.738 2.419-4.877 4.133-3.209 6.503-8.047 6.503-13.273C33.586 8.18 27.23 1.01 18.8.006zm1.49 16.713c0-1.061.863-1.925 1.925-1.925h.018c1.061 0 1.925.864 1.925 1.925a1.927 1.927 0 01-1.925 1.925h-1.943v-1.925zm-8.943 1.925a1.927 1.927 0 01-1.924-1.925c0-1.061.863-1.925 1.924-1.925h.019c1.061 0 1.925.864 1.925 1.925v1.925h-1.944zm3.693 1.75h3.5V36.98h-3.5V20.394zm1.75 31.75a3.796 3.796 0 01-3.688-2.915h7.377a3.799 3.799 0 01-3.689 2.916zm4.375-13.414c.965 0 1.75.785 1.75 1.75-.1 1.066-.684 1.65-1.75 1.75H19.9a.874.874 0 000 1.749h1.264c.965 0 1.75.785 1.75 1.75 0 .903-.81 1.75-1.75 1.75h-8.75c-1.084-.122-1.667-.705-1.75-1.75.1-1.067.684-1.65 1.75-1.75h3.673a.875.875 0 000-1.75h-3.672c-.965 0-1.75-.785-1.75-1.75.1-1.066.683-1.65 1.75-1.75h8.749z" fill="#FFF"/></svg>