<svg xmlns="http://www.w3.org/2000/svg" width="54" height="54"><g fill="#FFF"><path d="M30.633 53.936h-7.33c-1.047 0-1.9-.852-1.9-1.9v-3.208c0-.08-.05-.148-.124-.167a22.31 22.31 0 01-5.626-2.331.167.167 0 00-.205.028l-2.27 2.27c-.36.36-.836.557-1.345.557-.507 0-.984-.198-1.344-.557l-5.182-5.182a1.887 1.887 0 01-.556-1.344c0-.508.197-.985.556-1.344l2.27-2.27a.172.172 0 00.029-.206 22.276 22.276 0 01-2.332-5.626.171.171 0 00-.166-.124H1.901A1.903 1.903 0 010 30.632v-7.33c0-1.047.853-1.9 1.9-1.9h3.21c.078 0 .147-.05.165-.123a22.3 22.3 0 012.333-5.627.17.17 0 00-.03-.206l-2.27-2.27c-.358-.358-.556-.835-.556-1.343s.198-.985.557-1.344l5.182-5.183a1.904 1.904 0 012.688 0l2.27 2.27a.17.17 0 00.206.029 22.284 22.284 0 015.625-2.332.17.17 0 00.125-.166V1.901c0-1.048.852-1.901 1.9-1.901h7.329c1.048 0 1.9.853 1.9 1.9v3.21c0 .078.051.146.124.165 1.971.516 3.864 1.3 5.626 2.332.066.038.15.027.206-.028l2.27-2.27a1.903 1.903 0 012.687 0l5.183 5.182c.36.359.557.836.557 1.344 0 .508-.198.985-.557 1.344l-2.27 2.27a.17.17 0 00-.028.206 22.35 22.35 0 012.332 5.626.169.169 0 00.165.124h3.209c1.048 0 1.9.853 1.9 1.9v7.329c0 1.048-.852 1.9-1.9 1.9h-3.209a.168.168 0 00-.165.124 22.297 22.297 0 01-2.332 5.626.17.17 0 00.029.207l2.27 2.27c.359.358.556.836.556 1.343 0 .508-.197.985-.557 1.344l-5.182 5.183c-.36.359-.836.556-1.344.556-.508 0-.985-.197-1.344-.557l-2.27-2.27a.173.173 0 00-.206-.028 22.319 22.319 0 01-5.626 2.332.17.17 0 00-.124.166v3.208c0 1.047-.852 1.9-1.9 1.9zM15.57 44.582c.327 0 .657.085.954.259a20.559 20.559 0 005.19 2.151 1.897 1.897 0 011.414 1.836v3.208c0 .096.079.175.175.175h7.329a.175.175 0 00.175-.175v-3.208c0-.863.581-1.618 1.413-1.835a20.553 20.553 0 005.19-2.152 1.895 1.895 0 012.298.298l2.27 2.27c.085.084.163.084.248 0l5.183-5.183a.176.176 0 000-.248l-2.27-2.27a1.897 1.897 0 01-.298-2.298 20.528 20.528 0 002.151-5.19 1.897 1.897 0 011.835-1.413h3.209a.175.175 0 00.175-.175v-7.329a.176.176 0 00-.175-.175h-3.209a1.896 1.896 0 01-1.835-1.413 20.614 20.614 0 00-2.15-5.19 1.895 1.895 0 01.296-2.298l2.27-2.27a.169.169 0 00.052-.124.172.172 0 00-.051-.123l-5.183-5.183a.176.176 0 00-.248 0l-2.27 2.27a1.894 1.894 0 01-2.298.297 20.54 20.54 0 00-5.19-2.15 1.898 1.898 0 01-1.413-1.836V1.901a.175.175 0 00-.175-.176h-7.329a.176.176 0 00-.175.176v3.208c0 .863-.581 1.617-1.413 1.834a20.598 20.598 0 00-5.19 2.152 1.895 1.895 0 01-2.298-.298l-2.27-2.27a.177.177 0 00-.248 0L6.528 11.71c-.043.042-.051.091-.051.124s.008.08.05.123l2.27 2.27c.611.611.733 1.556.298 2.298a20.595 20.595 0 00-2.151 5.19 1.897 1.897 0 01-1.835 1.414H1.9a.175.175 0 00-.176.175v7.328c0 .097.079.176.176.176h3.208c.863 0 1.617.581 1.835 1.413a20.595 20.595 0 002.151 5.19 1.895 1.895 0 01-.297 2.297l-2.27 2.27a.176.176 0 000 .249l5.182 5.182c.086.085.164.084.248 0l2.27-2.27a1.896 1.896 0 011.343-.557z"/><path stroke="#618CFA" stroke-width=".3" d="M22.08 34.066a1.57 1.57 0 001.566-1.566V21.436c0-.863-.703-1.565-1.566-1.565h-1.74c-.635 0-1.202.378-1.446.964l-2.43 5.844-.139-.33-2.335-5.524a1.563 1.563 0 00-1.441-.954h-1.74c-.864 0-1.566.702-1.566 1.565V32.5c0 .863.702 1.566 1.565 1.566h1.453c.847 0 1.541-.677 1.565-1.521l.02-.721.269.669.238.593c.24.595.81.98 1.452.98H17.1c.644 0 1.214-.387 1.453-.985l.48-1.197.031.69a1.57 1.57 0 001.564 1.492h1.453zm-2.306-6.676a.712.712 0 00-.661.448l-1.875 4.708-.139.095-1.284.006-.14-.094-1.9-4.718a.714.714 0 00-1.374.267l.01 4.388-.15.15-1.442.01-.151-.15-.01-11.054.15-.15 1.73-.006.14.091 3.135 7.42c.112.263.37.434.657.434h.002a.711.711 0 00.656-.439l3.073-7.408.139-.092h1.73l.15.15.01 11.044-.149.15-1.443.01-.151-.15v-4.397a.714.714 0 00-.713-.713z"/><path stroke="#618CFA" stroke-width=".3" d="M29.931 34.161c.653 0 1.244-.412 1.47-1.025l4.135-11.257a1.566 1.566 0 00-1.469-2.104h-1.581c-.658 0-1.25.416-1.472 1.034l-1.999 5.536-.14-.395-1.828-5.135a1.568 1.568 0 00-1.474-1.04h-1.597a1.567 1.567 0 00-1.47 2.103l4.12 11.255a1.569 1.569 0 001.47 1.028h1.835zm-4.226-12.868l2.634 7.402c.1.284.369.473.67.474 0 0 0 0 0 0h.001c.3 0 .569-.188.67-.47l2.664-7.4.142-.099h1.78l-4.194 11.438-.14.098-1.827.007-.141-.099-4.203-11.443 1.802-.008.142.1z"/><path stroke="#618CFA" stroke-width=".3" d="M37.833 34.161c.863 0 1.566-.702 1.565-1.564v-2.82l.15-.15h.409c1.64 0 2.95-.433 3.902-1.285 1.003-.898 1.51-2.117 1.51-3.633 0-1.49-.487-2.7-1.45-3.606-.934-.88-2.265-1.328-3.962-1.328H36.38c-.863 0-1.565.702-1.565 1.566v11.255c0 .863.702 1.565 1.565 1.565h1.453zm-1.603-12.81l.15-.15h3.577c1.314 0 2.32.313 2.985.94.675.634 1.003 1.478 1.003 2.568 0 1.101-.34 1.946-1.037 2.57-.685.615-1.68.923-2.95.923h-1.272a.713.713 0 00-.713.712l.01 3.672-.149.15-1.443.01-.151-.15-.01-11.246zm3.6 5.357c.846 0 1.455-.178 1.809-.519.358-.342.54-.837.54-1.48 0-.665-.182-1.168-.538-1.502-.356-.337-.964-.513-1.812-.513h-1.143a.713.713 0 00-.713.712v2.59c0 .393.32.712.713.712h1.143zm-.431-1.575v-.864l.15-.15h.28c.364 0 .64.043.788.104l.084.087c.033.087.053.218.053.4 0 .188-.024.316-.063.395l-.076.072c-.145.061-.42.106-.786.106h-.28l-.15-.15z"/></g></svg>