<svg xmlns="http://www.w3.org/2000/svg" width="29" height="54"><g fill="#FFF"><path d="M28.48 31.322l-4.138-2.38c.88-3.194 1.553-6.459 1.553-8.974 0-1.33-.104-2.648-.308-3.918a.79.79 0 00-1.562.251 23.29 23.29 0 01.288 3.668c0 6.049-4.302 17.2-5.284 19.664H9.87c-.233-.582-.651-1.65-1.151-3.012a.791.791 0 10-1.485.546c.368 1.003.694 1.85.935 2.466H1.603v-7.168l3.405-1.958c.299 1.004.631 2.055.997 3.152a.79.79 0 101.5-.499c-1.91-5.734-2.92-10.295-2.92-13.191 0-3.57.77-6.873 2.293-9.864h15.135c.432.85.826 1.763 1.16 2.746a.79.79 0 001.002.496.792.792 0 00.496-1.004C21.829 3.956 15.11.25 14.825.095a.79.79 0 00-.752 0c-.066.036-1.64.895-3.593 2.699a.792.792 0 00-.044 1.118c.297.32.797.34 1.118.044a20.129 20.129 0 012.895-2.244c1.072.673 4.22 2.871 6.672 6.811H7.771c.416-.667.87-1.317 1.367-1.95a.79.79 0 10-1.244-.976c-3.245 4.134-4.89 8.97-4.89 14.372 0 2.233.521 5.24 1.553 8.972l-4.14 2.38a.793.793 0 00-.396.686v8.417a.79.79 0 00.791.791h6.837c-.603.92-1.214 2.262-1.214 3.935 0 3.237 2.798 5.68 2.917 5.782a.791.791 0 001.19-.185l.29-.471 3.022 3.454a.792.792 0 001.191 0l3.022-3.454.29.47a.79.79 0 001.189.186c.12-.102 2.918-2.545 2.918-5.782 0-1.673-.611-3.015-1.215-3.935h6.837a.79.79 0 00.791-.791v-8.417a.788.788 0 00-.396-.685zM16.855 44.046c0 1.668-1.691 2.772-2.406 3.164-.717-.39-2.404-1.486-2.404-3.164 0-1.384.633-2.398.961-2.83h2.888c.33.434.961 1.448.961 2.83zm2.318 5.007l-.32-.52a.793.793 0 00-1.269-.106l-3.134 3.58-3.133-3.58a.789.789 0 00-1.269.106l-.32.52c-.701-.81-1.71-2.261-1.71-3.903 0-2.001 1.17-3.438 1.64-3.935h1.49a6.233 6.233 0 00-.685 2.831c0 3.147 3.523 4.71 3.673 4.775a.796.796 0 00.629 0c.15-.065 3.672-1.628 3.672-4.775a6.212 6.212 0 00-.686-2.83h1.49c.473.498 1.641 1.934 1.641 3.934 0 1.642-1.008 3.093-1.709 3.903zm8.123-9.42h-6.562c.68-1.73 2.017-5.273 3.16-9.124l3.403 1.956v7.168z"/><path d="M7.266 22.206c0 3.96 3.222 7.183 7.183 7.183s7.184-3.222 7.184-7.183-3.223-7.184-7.184-7.184c-3.96 0-7.183 3.223-7.183 7.184zm12.785 0a5.608 5.608 0 01-5.602 5.601 5.608 5.608 0 01-5.601-5.601 5.608 5.608 0 015.601-5.602 5.608 5.608 0 015.602 5.602z"/><path d="M10.675 22.206c0 2.08 1.693 3.774 3.774 3.774s3.774-1.693 3.774-3.774-1.693-3.774-3.774-3.774a3.779 3.779 0 00-3.774 3.774zm5.966 0c0 1.208-.983 2.192-2.192 2.192s-2.192-.984-2.192-2.192c0-1.21.983-2.192 2.192-2.192s2.192.983 2.192 2.192z"/></g></svg>