<svg xmlns="http://www.w3.org/2000/svg" xmlns:xlink="http://www.w3.org/1999/xlink" width="1354" height="398"><defs><rect id="a" width="1354" height="398" x="0" y="0" rx="20"/></defs><g fill="none" fill-rule="evenodd"><mask id="b" fill="#fff"><use xlink:href="#a"/></mask><use fill="#618CFA" xlink:href="#a"/><g mask="url(#b)"><path fill="#F5B325" d="M-39.287 132C92.473 132.921 199 240.019 199 371.997 199 504.547 91.548 612-41 612l1.711-.014z"/><path fill="#FFF" d="M61.886 46c75.745.474 137 61.628 137 136.997 0 75.663-61.734 137-137.886 137l.885-.007z"/><path fill="#F5B325" d="M1392.287 132C1260.527 132.921 1154 240.019 1154 371.997 1154 504.547 1261.452 612 1394 612l-1.711-.014z"/><path fill="#FFF" d="M1291.114 46c-75.745.474-137 61.628-137 136.997 0 75.663 61.734 137 137.886 137l-.885-.007z"/></g></g></svg>