<svg version="1.1" id="Слой_1" xmlns="http://www.w3.org/2000/svg" x="0" y="0" viewBox="0 0 84.8 84.3" xml:space="preserve"><style>.st0{fill:#618cfa}</style><g transform="translate(22 20)"><path id="uj9raqwqnb" d="M-21.8-19.8h69c8.3 0 15 6.7 15 15v54c0 8.3-6.7 15-15 15h-54c-8.3 0-15-6.7-15-15v-69z"/></g><g transform="translate(22 20)"><path id="uj9raqwqnb_1_" class="st0" d="M-21.8-19.8h69c8.3 0 15 6.7 15 15v54c0 8.3-6.7 15-15 15h-54c-8.3 0-15-6.7-15-15v-69z"/></g><g transform="translate(39 47)"><path d="M28.2-3.7c.5-.6.5-1.5 0-2.1-.2-.1-2.9-3.5-7.2-6.9-5.9-4.6-11.9-7-17.6-7-5.6 0-11.7 2.4-17.6 7-4.4 3.4-7.1 6.8-7.2 6.9-.5.6-.5 1.5 0 2.1.1.1 2.8 3.5 7.2 6.9 5.9 4.6 12 7 17.6 7 5.7 0 11.7-2.4 17.6-7 4.3-3.4 7-6.8 7.2-6.9z" fill="#fff"/><circle class="st0" cx="3.2" cy="-4.5" r="7.5"/></g></svg>