<svg width="543" height="426" xmlns="http://www.w3.org/2000/svg" xmlns:xlink="http://www.w3.org/1999/xlink"><defs><path id="a" d="M.325 1.061h153.679V83.17H.324z"/></defs><g fill="none" fill-rule="evenodd"><path d="M247 398.182v5.682h-3.75v9.119c0 .909.492 1.364 1.477 1.364.237 0 .514-.029.831-.086l.482-.092c.087-.018.16-.035.221-.05l1.137 5.512-.291.082c-.319.087-.721.188-1.208.301-.649.152-1.418.251-2.308.298-2.708.152-4.756-.338-6.144-1.47-1.32-1.077-2-2.677-2.037-4.798v-10.18h-2.785v-5.682h2.784v-5.227h7.841v5.227H247zm14.216-.284c2.367 0 4.394.47 6.08 1.413a9.614 9.614 0 013.877 3.949c.9 1.69 1.35 3.653 1.35 5.888s-.45 4.197-1.35 5.888a9.614 9.614 0 01-3.878 3.948c-1.685.943-3.712 1.414-6.08 1.414-2.367 0-4.393-.471-6.079-1.414a9.614 9.614 0 01-3.877-3.948c-.9-1.69-1.35-3.653-1.35-5.888s.45-4.198 1.35-5.888a9.614 9.614 0 013.877-3.949c1.686-.942 3.712-1.413 6.08-1.413zm.057 5.682c-1.051 0-1.873.49-2.465 1.47-.592.98-.888 2.327-.888 4.04 0 1.715.296 3.062.888 4.042.592.98 1.414 1.47 2.465 1.47.994 0 1.782-.49 2.365-1.47.582-.98.873-2.327.873-4.041 0-1.714-.29-3.061-.873-4.041-.583-.98-1.37-1.47-2.365-1.47z" fill="#618CFA" fill-rule="nonzero"/><path d="M323.039 68.621c0 34.282-27.79 62.074-62.074 62.074-34.282 0-62.074-27.792-62.074-62.074 0-34.283 27.792-62.074 62.074-62.074 34.284 0 62.074 27.791 62.074 62.074" fill="#141420"/><path d="M316.492 62.074c0 34.283-27.79 62.075-62.073 62.075-34.282 0-62.074-27.792-62.074-62.075 0-34.282 27.792-62.073 62.074-62.073s62.073 27.791 62.073 62.073" fill="#FFB73E"/><path d="M254.418 15.442c-25.78 0-46.754 20.973-46.754 46.754 0 25.779 20.974 46.753 46.754 46.753 25.78 0 46.754-20.974 46.754-46.753 0-25.78-20.974-46.754-46.754-46.754m0 96.747c-27.567 0-49.994-22.426-49.994-49.993 0-27.567 22.427-49.995 49.994-49.995s49.995 22.428 49.995 49.995c0 27.567-22.428 49.993-49.995 49.993" fill="#FFF0E3"/><path d="M257.888 75.757c3.404-.527 5.108-2.062 5.108-4.605v-.143c0-1.248-.36-2.267-1.08-3.06-.72-.79-2.062-1.546-4.028-2.265v10.073zm-6.764-32.306c-1.726.24-2.985.756-3.778 1.546-.79.792-1.186 1.764-1.186 2.916v.143c0 1.104.335 2.05 1.007 2.842.67.792 1.99 1.547 3.957 2.266v-9.713zm-.36 41.156a35.44 35.44 0 01-9.03-2.338c-2.903-1.175-5.552-2.673-7.95-4.498l5.612-8.202c1.966 1.487 3.874 2.723 5.72 3.706 1.847.984 3.85 1.691 6.008 2.122v-11.44c-2.59-.72-4.857-1.51-6.8-2.374-1.941-.863-3.55-1.894-4.82-3.094a11.787 11.787 0 01-2.878-4.21c-.647-1.606-.971-3.464-.971-5.576v-.143c0-2.015.36-3.837 1.079-5.47a12.48 12.48 0 013.058-4.244c1.318-1.198 2.914-2.17 4.785-2.914 1.87-.743 3.932-1.235 6.188-1.474v-4.174h7.483V34.6c2.589.385 4.975 1.02 7.159 1.907a31.037 31.037 0 016.223 3.417l-4.82 8.419a41.04 41.04 0 00-4.39-2.555 22.182 22.182 0 00-4.532-1.69v10.865c5.468 1.487 9.436 3.429 11.907 5.828 2.471 2.399 3.706 5.611 3.706 9.641v.144c0 2.014-.373 3.837-1.115 5.468a12.946 12.946 0 01-3.094 4.245c-1.32 1.2-2.914 2.183-4.785 2.95-1.87.768-3.957 1.271-6.26 1.511v7.123h-7.482v-7.267z" fill="#141420"/><path d="M323.039 68.621c0 34.282-27.79 62.074-62.074 62.074-34.282 0-62.074-27.792-62.074-62.074 0-34.283 27.792-62.074 62.074-62.074 34.284 0 62.074 27.791 62.074 62.074" fill="#141420"/><path d="M316.492 62.074c0 34.283-27.79 62.075-62.073 62.075-34.282 0-62.074-27.792-62.074-62.075 0-34.282 27.792-62.073 62.074-62.073s62.073 27.791 62.073 62.073" fill="#F5B325"/><path d="M254.418 15.442c-25.78 0-46.754 20.973-46.754 46.754 0 25.779 20.974 46.753 46.754 46.753 25.78 0 46.754-20.974 46.754-46.753 0-25.78-20.974-46.754-46.754-46.754m0 96.747c-27.567 0-49.994-22.426-49.994-49.993 0-27.567 22.427-49.995 49.994-49.995s49.995 22.428 49.995 49.995c0 27.567-22.428 49.993-49.995 49.993" fill="#FFF0E3"/><path d="M257.888 75.757c3.404-.527 5.108-2.062 5.108-4.605v-.143c0-1.248-.36-2.267-1.08-3.06-.72-.79-2.062-1.546-4.028-2.265v10.073zm-6.764-32.306c-1.726.24-2.985.756-3.778 1.546-.79.792-1.186 1.764-1.186 2.916v.143c0 1.104.335 2.05 1.007 2.842.67.792 1.99 1.547 3.957 2.266v-9.713zm-.36 41.156a35.44 35.44 0 01-9.03-2.338c-2.903-1.175-5.552-2.673-7.95-4.498l5.612-8.202c1.966 1.487 3.874 2.723 5.72 3.706 1.847.984 3.85 1.691 6.008 2.122v-11.44c-2.59-.72-4.857-1.51-6.8-2.374-1.941-.863-3.55-1.894-4.82-3.094a11.787 11.787 0 01-2.878-4.21c-.647-1.606-.971-3.464-.971-5.576v-.143c0-2.015.36-3.837 1.079-5.47a12.48 12.48 0 013.058-4.244c1.318-1.198 2.914-2.17 4.785-2.914 1.87-.743 3.932-1.235 6.188-1.474v-4.174h7.483V34.6c2.589.385 4.975 1.02 7.159 1.907a31.037 31.037 0 016.223 3.417l-4.82 8.419a41.04 41.04 0 00-4.39-2.555 22.182 22.182 0 00-4.532-1.69v10.865c5.468 1.487 9.436 3.429 11.907 5.828 2.471 2.399 3.706 5.611 3.706 9.641v.144c0 2.014-.373 3.837-1.115 5.468a12.946 12.946 0 01-3.094 4.245c-1.32 1.2-2.914 2.183-4.785 2.95-1.87.768-3.957 1.271-6.26 1.511v7.123h-7.482v-7.267zm-30.108-51.262c0 15.511-12.575 28.087-28.087 28.087s-28.087-12.576-28.087-28.087c0-15.512 12.575-28.086 28.087-28.086s28.087 12.574 28.087 28.086" fill="#141420"/><path d="M217.693 30.383c0 15.512-12.575 28.086-28.086 28.086-15.513 0-28.088-12.574-28.088-28.086 0-15.512 12.575-28.087 28.088-28.087 15.511 0 28.086 12.575 28.086 28.087" fill="#F5B325"/><path d="M189.606 9.283c-11.665 0-21.155 9.49-21.155 21.155 0 11.664 9.49 21.154 21.155 21.154 11.665 0 21.154-9.49 21.154-21.154 0-11.665-9.49-21.155-21.154-21.155m0 43.776c-12.473 0-22.62-10.148-22.62-22.621 0-12.473 10.147-22.621 22.62-22.621 12.474 0 22.621 10.148 22.621 22.621 0 12.473-10.147 22.62-22.62 22.62" fill="#FFF0E3"/><path d="M191.177 36.574c1.541-.238 2.311-.933 2.311-2.083v-.065c0-.565-.162-1.025-.488-1.385-.325-.357-.933-.699-1.823-1.025v4.558zm-3.06-14.617c-.782.108-1.351.341-1.71.7a1.792 1.792 0 00-.537 1.318v.066c0 .499.153.927.456 1.285.305.358.9.7 1.79 1.026v-4.395zm-.163 18.622a16.1 16.1 0 01-4.086-1.058 15.54 15.54 0 01-3.597-2.035l2.54-3.711a19.57 19.57 0 002.587 1.676 9.864 9.864 0 002.719.96v-5.176c-1.172-.326-2.198-.684-3.077-1.075-.878-.39-1.606-.856-2.181-1.4a5.343 5.343 0 01-1.303-1.904c-.292-.727-.438-1.568-.438-2.523v-.066c0-.91.162-1.734.488-2.473a5.647 5.647 0 011.383-1.92c.597-.543 1.32-.983 2.165-1.32a10.578 10.578 0 012.8-.667V16h3.386v1.953c1.172.174 2.251.462 3.24.863a14 14 0 012.815 1.547l-2.18 3.808a18.862 18.862 0 00-1.987-1.156 10.052 10.052 0 00-2.051-.764v4.915c2.474.673 4.27 1.552 5.389 2.637 1.116 1.086 1.676 2.54 1.676 4.364v.064c0 .912-.169 1.737-.504 2.475a5.847 5.847 0 01-1.401 1.92c-.597.543-1.318.988-2.165 1.335-.846.348-1.79.575-2.832.684v3.222h-3.386V40.58z" fill="#141420"/><path d="M157.885 80.818c0-6.736-5.461-12.196-12.197-12.196 6.736 0 12.197-5.462 12.197-12.198 0 6.736 5.46 12.198 12.196 12.198-6.735 0-12.196 5.46-12.196 12.196m143.287 61.322a8.958 8.958 0 00-8.958-8.957 8.958 8.958 0 008.958-8.958 8.958 8.958 0 008.957 8.958 8.958 8.958 0 00-8.957 8.957m-58.549 43.139c0-9.097-7.375-16.472-16.472-16.472 9.097 0 16.472-7.374 16.472-16.47 0 9.096 7.374 16.47 16.47 16.47-9.096 0-16.47 7.375-16.47 16.472" fill="#FFF"/><path d="M299.487 58.193c0-8.524-6.91-15.434-15.435-15.434 8.526 0 15.435-6.911 15.435-15.436 0 8.525 6.91 15.436 15.436 15.436-8.525 0-15.436 6.91-15.436 15.434" fill="#FFF0E3"/><path d="M351.086 68.621a8.514 8.514 0 00-8.514-8.514 8.514 8.514 0 008.514-8.515 8.514 8.514 0 008.515 8.515 8.514 8.514 0 00-8.515 8.514M91.37 49.707H23.417a.54.54 0 010-1.08h67.955a.54.54 0 010 1.08M80.829 65.651H23.417a.54.54 0 110-1.08H80.83a.54.54 0 010 1.08m-15.636-7.468H23.417a.54.54 0 110-1.08h41.777a.54.54 0 010 1.08m26.176 0H70.405a.54.54 0 010-1.08H91.37a.54.54 0 010 1.08" fill="#FFF"/><path d="M390.845 27.73h67.027c6.894 0 12.482 5.589 12.482 12.482 0 6.893-5.588 12.482-12.482 12.482h-67.027c-6.893 0-12.482-5.589-12.482-12.482 0-6.893 5.589-12.482 12.482-12.482" fill="#618CFA"/><path d="M450.305 36.106H398.34a.54.54 0 110-1.08h51.966a.54.54 0 010 1.08m-8.063 9.443H398.34a.54.54 0 110-1.08h43.904a.54.54 0 010 1.08m-11.957-4.423h-31.949a.54.54 0 010-1.08h31.95a.54.54 0 010 1.08m20.017 0h-16.034a.54.54 0 010-1.08h16.034a.54.54 0 010 1.08m-73.243 223.575h-105.89a.54.54 0 110-1.08h105.89a.54.54 0 010 1.08m0 24.847H287.6a.54.54 0 110-1.08h89.462a.54.54 0 010 1.08m0-11.638h-65.1a.54.54 0 010-1.08h65.1a.54.54 0 010 1.08m-73.218 0h-32.672a.54.54 0 010-1.08h32.672a.54.54 0 010 1.08M257.3 304.114H151.411a.54.54 0 110-1.08h105.89a.54.54 0 010 1.08m-16.429 24.846H151.41a.54.54 0 010-1.08h89.462a.54.54 0 010 1.08m-24.362-11.637h-65.1a.54.54 0 010-1.08h65.1a.54.54 0 010 1.08m40.79 0h-32.672a.54.54 0 010-1.08H257.3a.54.54 0 010 1.08" fill="#FFF"/><path d="M337.135 203.761l.036-.123 15.638-54.402-.068-.051c.704-1.376 2.526-4.33 6.256-6.931 6.447-4.497 7.217-11.946 7.217-11.946 3.443-3.332 7.322-6.175 10.837-9.43.367-.34.75-.713.857-1.2.12-.544-.134-1.101-.445-1.564-1.815-2.687-5.15-3.076-7.922-1.834-1.624.727-3.077 1.762-4.438 2.9-.646.538-2.85 2.021-3.518 3.009l12.439-26.56c1.104-2.36.382-5.051-1.607-5.982-.993-.466-2.123-.406-3.142.065-.646.298-1.235.777-1.73 1.377.039-.195.06-.31.06-.31-14.568-12.251-32.545 29.447-32.545 29.447l-5.101 12.039-43.27 80.228c-6.12 11.64-1.404 26.034 10.418 31.798.17.083.341.156.512.234a23.49 23.49 0 0011.785 3.154h85.157l18.35-43.612-75.776-.306z" fill="#FFC39E"/><path d="M322.552 247.658c-2.768-.084-1.092-.034 0 0m.014 0l.698.021-.698-.021m14.605-44.02l-2.478 8.618a261.654 261.654 0 01-2.18 7.582l-2.993 10.418a23.423 23.423 0 01-1.552 3.799c-2.577 7.712-4.703 13.623-4.703 13.623l30.624-43.85c-7.618 0-9.365-.182-16.718-.19m-14.619 44.02h.015-.015z" fill="#FF897C"/><path d="M349.5 124.902a.539.539 0 01-.433-.86c5.435-7.372 12.742-3.389 12.813-3.348a.54.54 0 01-.528.942c-.266-.148-6.556-3.544-11.417 3.047a.536.536 0 01-.434.22m18.352-33.918c-2.244 2.828-4.334 5.804-6.186 8.898a40.194 40.194 0 00-2.456 4.787c-.689 1.628-1.245 3.377-1.157 5.028l.003.033a.541.541 0 01-1.08.059v-.015c-.059-2.007.602-3.803 1.341-5.488a41.25 41.25 0 012.613-4.85c1.943-3.105 4.099-6.046 6.427-8.863a.322.322 0 01.5.405l-.005.006zm-3.753-1.54c-1.426.98-2.706 2.28-3.85 3.629-1.146 1.364-2.153 2.843-3.06 4.379a38.743 38.743 0 00-2.334 4.81c-.354.82-.616 1.676-.93 2.51l-.774 2.565-.01.031a.54.54 0 11-1.033-.312l.003-.01.843-2.607c.334-.85.622-1.719.998-2.551a39.742 39.742 0 012.486-4.884c.96-1.557 2.019-3.054 3.224-4.433 1.218-1.374 2.513-2.66 4.087-3.7a.334.334 0 01.464.094.333.333 0 01-.089.46l-.026.019zm-5.89.415c-2.068 2.164-3.993 4.502-5.656 6.988-.821 1.247-1.61 2.523-2.23 3.867-.623 1.339-1.138 2.73-1.364 4.15v.012a.54.54 0 11-1.066-.182c.289-1.57.877-3.023 1.56-4.405.684-1.386 1.524-2.671 2.393-3.926 1.766-2.498 3.758-4.798 5.92-6.954a.315.315 0 01.45.44l-.008.01z" fill="#FF8F77"/><path d="M533.677 282.975l-20.89-56.942c-2.486-12.494-14.373-21.966-28.673-21.966l-58.35-.464-65.739.25v43.826h20.401l-10.529 114.304 144.759.819-.811-77.401 19.832-2.426z" fill="#618CFA"/><path d="M425.65 204.091l.114-.488-65.74.25v43.825h20.403l.106-1.156c0-23.129 20.108-41.924 45.117-42.43" fill="#141420"/><path d="M342.572 140.673s3.69 31.34 3.907 30.584l6.33-22.021-10.237-8.563z" fill="#FF897C"/><path d="M428.74 299.334l-5.524-27.844-4.263-21.482a4.696 4.696 0 00-5.505-3.683l-21.34 4.234a4.697 4.697 0 00-3.681 5.505l4.289 21.622 3.402 17.15 2.094 10.554a4.7 4.7 0 005.507 3.684l12.603-2.501 8.736-1.733a4.698 4.698 0 003.682-5.506" fill="#141420"/><path d="M542.323 324.995l-9.623-41.901-43.75 5.353 2.403 10.657-.223-.055-47.558-11.773-.04.058c-1.313-.659-3.78-2.226-5.948-5.466-3.988-5.96-10.686-6.123-10.686-6.123-1.29-1.353-2.493-2.798-3.682-4.255l1.114 5.616-.279.148a18.018 18.018 0 01-9.845 2.044c-6.312-.492-16.625-1.297-20.912-1.63-1.308-.103-2.565.592-3.128 1.778-6.12 12.866 20.16 24.638 26.157 27.126h-.001c.079.034.14.058.212.087.085.036.168.071.245.101.086.035.155.064.229.092.068.028.135.056.19.077.078.031.128.052.18.071l.068.027a1.4 1.4 0 00.09.035l10.286 3.857 81.424 40.078c.756.361 1.52.678 2.293.952 3.947 1.808 8.49 2.397 13.052 1.35 12.713-2.92 20.65-15.592 17.732-28.304" fill="#FFC39E"/><path d="M539.221 311.486l-50.27-23.039c1.679 7.31.7 4.084 2.18 10.603l3.42.846c14.476.978 44.67 11.59 44.67 11.59" fill="#FF897C"/><path d="M484.888 288.987a.54.54 0 01-.527-.43l-6.282-30.425a.54.54 0 01.419-.638.537.537 0 01.638.418l6.18 29.936 21.155-2.692a.539.539 0 11.137 1.071l-21.65 2.756a.495.495 0 01-.07.004" fill="#141420"/><path d="M539.563 313.218l.085.43-.085-.43m.085.43c.006.026.007.03 0 0m-.427-2.162l.228 1.154c-.062-.307-.133-.671-.228-1.154m.228 1.154l.113.578-.113-.578" fill="#FF897C"/><path d="M479.935 91.261c-1.331-9.173-9.7-15.7-18.977-14.65a17.156 17.156 0 00-6.746 2.245c-2.986-4.883-8.605-7.876-14.667-7.19a15.103 15.103 0 00-8.839 4.18 19.905 19.905 0 00-11.192-1.995c-10.985 1.242-18.883 11.153-17.64 22.137a19.928 19.928 0 006.66 12.76l-4.068 21.73c-1.168 6.238 2.943 12.241 9.18 13.409l48.199 9.023c6.238 1.168 12.242-2.943 13.41-9.181l7.896-42.182a11.48 11.48 0 00-3.216-10.286" fill="#141420"/><path d="M409.684 103.143a.543.543 0 01-.457-.252c-8.61-13.624 3.249-22.362 3.37-22.448a.54.54 0 01.63.877c-.46.332-11.145 8.241-3.086 20.994a.541.541 0 01-.457.829" fill="#FFF0E3"/><path d="M472.139 133.86l-1.056-.198-10.639-22.869a17.227 17.227 0 01-7.198-2.783 12.932 12.932 0 01-8.074 4.097c-3.88.44-7.544-.888-10.219-3.33a19.904 19.904 0 01-10.943 4.85 19.923 19.923 0 01-13.214-3.147l-7.41 39.592c-1.025 5.47.098 10.831 2.745 15.259 2.633 6.515 8.298 11.63 15.585 13.309v26.145c0 9.082 7.432 16.512 16.513 16.512h5.21c9.081 0 16.513-7.43 16.513-16.512v-29.687a22.061 22.061 0 005.401-10.823l1.354-7.229 1.054.197c6.256 1.172 12.333-2.989 13.503-9.245l.12-.635c1.171-6.256-2.99-12.333-9.245-13.504" fill="#FFC39E"/><path d="M464.256 156.129l-.967 5.156c-2.226 11.899-13.677 19.738-25.574 17.511l-16.82-3.15c-6.43-1.202-11.653-5.11-14.763-10.315 2.742 6.785 8.76 12.08 16.486 13.526l.67.125c2.674 5.538 8.334 9.392 14.867 9.392h5.275c7.793 0 14.355-5.477 16.065-12.766a22.075 22.075 0 005.858-11.333l1.354-7.23-2.45-.916z" fill="#FF897C"/><path d="M473.064 149.366a.538.538 0 01-.332-.113l-4.202-3.262a.54.54 0 01-.038-.82l5.18-4.892a.54.54 0 01.741.786l-4.723 4.46 3.705 2.875a.542.542 0 01-.331.966" fill="#FF8F77"/><path d="M446.338 129.27c-.811-.025-1.646-.516-2.48-.945-.832-.45-1.678-.88-2.426-1.228-.75-.35-1.624-.721-2.502-1.07-.866-.363-1.784-.69-2.314-1.291-.516-.571-.415-1.472.793-2.075 1.151-.6 3.494-.742 5.977.41 2.475 1.16 3.841 3.031 4.094 4.284.283 1.3-.364 1.946-1.142 1.914m-34.366-2.962c.698.386 1.665.439 2.597.537.941.081 1.885.184 2.702.298.82.115 1.756.276 2.684.456.923.161 1.873.377 2.638.197.74-.166 1.128-.88.422-1.926-.66-1.014-2.569-2.284-5.278-2.668-2.708-.374-4.85.328-5.724 1.126-.925.818-.718 1.617-.041 1.98m26.422 12.196l.073.014a1.342 1.342 0 001.56-1.069l.32-1.71a1.34 1.34 0 00-1.068-1.56l-.072-.014a1.34 1.34 0 00-1.56 1.068l-.32 1.71a1.34 1.34 0 001.067 1.56m-23.281-3.782l.072.013a1.342 1.342 0 001.56-1.068l.32-1.71a1.34 1.34 0 00-1.068-1.56l-.072-.014a1.341 1.341 0 00-1.56 1.068l-.32 1.71a1.34 1.34 0 001.068 1.56" fill="#141420"/><path d="M439.354 144.692l4.78.538a1.66 1.66 0 001.83-1.46l.01-.091a1.659 1.659 0 00-1.46-1.83l-4.778-.538a1.661 1.661 0 00-1.831 1.46l-.011.091c-.1.905.556 1.729 1.46 1.83m-31.523-4.965l4.781.538a1.661 1.661 0 001.83-1.46l.01-.092a1.66 1.66 0 00-1.46-1.83l-4.78-.537a1.66 1.66 0 00-1.83 1.46l-.01.09a1.66 1.66 0 001.46 1.83" fill="#FF897C"/><path d="M421.761 164.179a.54.54 0 01-.319-.976c2.264-1.654 4.8-.726 5.825-.006a.54.54 0 01-.62.885c-.095-.067-2.373-1.61-4.567-.007a.537.537 0 01-.319.104" fill="#FF8F77"/><path d="M425.414 148.826l12.63-1.804-1.382 4.388a6.748 6.748 0 01-6.436 4.72 4.483 4.483 0 01-4.458-4.007l-.354-3.297z" fill="#FFF"/><path d="M428.68 144.348a.54.54 0 01-.136-.017l-3.917-1.02a5.474 5.474 0 01-3.677-3.162 5.478 5.478 0 01.248-4.845l5.964-10.735a.538.538 0 01.735-.21.539.539 0 01.21.734l-5.964 10.736a4.396 4.396 0 00-.199 3.894 4.398 4.398 0 002.955 2.543l3.917 1.02c.29.074.462.37.385.658a.537.537 0 01-.521.404" fill="#FF8F77"/><path d="M245.253 222.005l-43.27-80.228-5.102-12.039s-17.976-41.698-32.546-29.447l.061.31c-.494-.6-1.084-1.08-1.73-1.377-1.02-.471-2.148-.53-3.143-.064-1.987.93-2.71 3.622-1.605 5.98l12.439 26.56c-.67-.988-2.872-2.47-3.518-3.009-1.361-1.137-2.814-2.172-4.439-2.9-2.773-1.24-6.107-.852-7.921 1.836-.312.462-.565 1.019-.445 1.562.107.489.49.861.855 1.201 3.515 3.255 7.396 6.098 10.838 9.43 0 0 .77 7.45 7.216 11.946 3.73 2.6 5.553 5.554 6.256 6.931l-.066.05 15.672 54.526-22.889.306v43.612h50.621c4.299 0 8.326-1.154 11.798-3.162.167-.076.334-.145.5-.226 11.82-5.763 16.537-20.158 10.418-31.798" fill="#FFC39E"/><path d="M208.677 257.191c5.02-.153 0 0 0 0s-11.763-31.646-13.783-44.042c-7.794 0-8.98.347-16.773.347l30.556 43.695z" fill="#FF897C"/><path d="M182.44 134.414a.54.54 0 01-.435-.22c-4.86-6.59-11.15-3.194-11.415-3.045a.541.541 0 01-.529-.943c.074-.041 7.38-4.021 12.814 3.347a.539.539 0 01-.434.861m-17.879-34.352c1.31 1.309 2.501 2.699 3.639 4.147a45.03 45.03 0 013.129 4.547c.93 1.593 1.76 3.253 2.42 4.994.624 1.753 1.067 3.585 1.214 5.472a.539.539 0 11-1.076.084v-.007l-.002-.023c-.105-1.76-.485-3.504-1.05-5.199-.601-1.686-1.374-3.313-2.252-4.888a44.22 44.22 0 00-2.982-4.523c-1.085-1.443-2.247-2.851-3.492-4.145l-.007-.008a.322.322 0 01.46-.451m3.65-2.078c1.761.91 3.053 2.268 4.26 3.692a29.247 29.247 0 013.105 4.627c.917 1.617 1.673 3.311 2.393 5.018l.982 2.596.873 2.634a.54.54 0 11-1.025.339l-.002-.007-.008-.024-.811-2.608-.918-2.57c-.675-1.687-1.387-3.364-2.252-4.958a28.434 28.434 0 00-2.936-4.557c-1.115-1.39-2.423-2.754-3.922-3.564l-.05-.028a.333.333 0 01.311-.59m5.934.915c1.213.978 2.285 2.062 3.299 3.215a31.076 31.076 0 012.775 3.666 29.286 29.286 0 012.221 4.036c.664 1.392 1.15 2.86 1.594 4.338a.54.54 0 11-1.037.302l-.008-.028c-.393-1.43-.824-2.86-1.433-4.22a28.272 28.272 0 00-2.06-3.97 30.064 30.064 0 00-2.617-3.64c-.956-1.148-2-2.25-3.122-3.203l-.014-.011a.314.314 0 01.402-.485" fill="#FF8F77"/><path d="M177.183 155.664l16.722-2.064-10.34 20.567s-3.077-15.294-6.382-18.503" fill="#FF897C"/><path d="M109.99 213.58l.001.019c-.257-.007-.513-.02-.772-.02H56.383c-11.47 0-21.256 7.202-25.09 17.33l-.006-.001-.08.219-.04.106-22.47 61.254 20.861 2.552v68.024h113.533l8.49-105.872h19.75v-43.826l-61.342.214z" fill="#FFF"/><path d="M171.916 213.365l-60.317.252.001.007c22.614.942 40.66 19.566 40.66 42.41l-.094 1.157h19.75v-43.826zM150.85 260.07l-21.339-4.233c-2.526-.503-5.004 1.155-5.506 3.682l-4.262 21.483-5.524 27.843a4.7 4.7 0 003.683 5.507l8.735 1.733 12.603 2.5a4.698 4.698 0 005.506-3.682l2.095-10.556 3.402-17.15 4.29-21.62a4.7 4.7 0 00-3.683-5.507" fill="#141420"/><g transform="translate(0 279.94)"><mask id="b" fill="#fff"><use xlink:href="#a"/></mask><path d="M153.086 8.8a3.099 3.099 0 00-1.194-1.313c-.09-.134-.165-.268-.264-.403l-.51.065a3.218 3.218 0 00-1.16-.129l-20.912 1.631a18.018 18.018 0 01-9.845-2.044l-.504-.268 1.046-5.278c-1.13 1.384-2.275 2.75-3.49 4.042-.618.035-4.139.346-7.43 2.802a13.447 13.447 0 00-3.449 3.533c-1.285 1.923-2.673 3.248-3.865 4.153a13.32 13.32 0 01-1.788 1.097l-.041-.059-47.562 11.775-.218.054 2.414-10.709-43.762-5.302L.929 54.348c-2.918 12.712 5.02 25.384 17.732 28.303 4.56 1.048 9.105.46 13.052-1.349a23.54 23.54 0 002.294-.952l80.504-39.626 10.912-4.09s.442-.17 1.213-.49l-.16-.032c4.98-2.028 32.899-14.095 26.61-27.313" fill="#FFC39E" mask="url(#b)"/></g><path d="M3.403 322.692l-.086.433.086-.433m48.422-14.13c.986-4.534.7-4.143 2.196-10.654l-50.283 23.09s4.984-1.5 11.858-3.323a23.58 23.58 0 011.96-.63l34.269-8.483zm-48.3 13.512l-.122.618.122-.618m-.208 1.052c-.012.064-.012.067 0 0m.421-2.128l-.212 1.076.212-1.076" fill="#FF897C"/><path d="M58.07 298.448a.465.465 0 01-.067-.005l-9.546-1.178a.539.539 0 11.132-1.072l9.029 1.114 5.025-32.073a.54.54 0 011.067.166l-5.106 32.59a.541.541 0 01-.534.458" fill="#141420"/><path d="M69.223 304.075l21.555-.54c4.021.528 10.422-3.099 9.678-7.087l-31.233 7.627z" fill="#FF897C"/><path d="M137.223 199.781l-7.33-49.89a55.09 55.09 0 00-4.618-15.377l3.98-.64s-2.794-40.493-48.21-30.825a55.26 55.26 0 00-13.73.298c-22.063 3.243-37.32 23.756-34.08 45.82l4.274 29.081c3.241 22.064 23.755 37.321 45.82 34.08l50.029-7.35a4.58 4.58 0 003.865-5.197" fill="#141420"/><path d="M107.095 132.286a.541.541 0 01-.073-1.076l14.605-1.994a.436.436 0 00.292-.176.405.405 0 00.074-.309c-2.361-13.164-14.488-19.238-14.61-19.297a.54.54 0 11.474-.97c.127.062 12.74 6.36 15.2 20.076.071.4-.022.803-.264 1.135a1.521 1.521 0 01-1.02.612l-14.605 1.995a.57.57 0 01-.073.004" fill="#FFF0E3"/><path d="M121.163 135.174l-39.977 6.424-9.703-14.35c1.907 16.01-9.9 26.352-9.9 26.352s-.121-.165-.33-.469l-.332.063c-6.256 1.17-10.417 7.247-9.245 13.503 1.17 6.256 7.247 10.417 13.503 9.246l.763-.144c1.368 6 4.45 11.196 8.652 15.143v25.621c0 9.082 7.431 16.513 16.513 16.513 9.083 0 16.513-7.431 16.513-16.513V196.33c6.578-3.027 11.728-8.315 14.668-14.709a29.527 29.527 0 003.703-20.665l-4.828-25.782z" fill="#FFC39E"/><path d="M102.305 195.551c-14.812 2.773-29.111-5.989-33.643-19.948-.15-.46-2.76.14-2.692.421a29.765 29.765 0 008.702 14.992c.775 8.375 7.867 14.992 16.435 14.992 6.338 0 11.862-3.625 14.627-8.898 7.49-2.84 13.36-8.516 16.573-15.517-4.207 7.048-11.3 12.329-20.002 13.958" fill="#FF897C"/><path d="M59.712 168.352a.54.54 0 01-.332-.967l3.591-2.787-4.584-4.325a.54.54 0 01.741-.787l5.043 4.76a.542.542 0 01-.04.819l-4.089 3.173a.535.535 0 01-.33.114" fill="#FF8F77"/><path d="M88.476 148.661c.481-.014.977-.305 1.473-.56.492-.267.995-.522 1.44-.73.444-.207.963-.427 1.485-.633.513-.216 1.058-.41 1.373-.767.306-.34.246-.875-.471-1.233-.683-.355-2.074-.44-3.547.243-1.47.69-2.282 1.8-2.43 2.544-.17.771.214 1.155.677 1.136m28.652-4.983c-.467.12-1.024-.024-1.57-.132a27.751 27.751 0 00-1.585-.302 27.7 27.7 0 00-1.604-.199c-.553-.065-1.13-.1-1.532-.358-.388-.24-.478-.77.112-1.313.558-.531 1.871-.997 3.477-.748 1.602.257 2.689 1.1 3.039 1.772.376.695.112 1.17-.337 1.28" fill="#141420"/><path d="M100.941 171.008c-4.432 0-7.387-3.477-7.425-3.522a.54.54 0 01.831-.691c.172.205 4.27 4.992 9.995 2.35a.54.54 0 01.453.98c-1.372.634-2.666.883-3.854.883m3.224-7.538a.54.54 0 01-.104-1.07l3.798-.748a4.368 4.368 0 003.44-5.123 1.58 1.58 0 00-1.851-1.242 3.694 3.694 0 01-4.332-2.907l-.916-4.658a.54.54 0 111.06-.209l.916 4.659a2.611 2.611 0 003.062 2.055 2.639 2.639 0 011.993.4c.59.396.99.997 1.127 1.693a5.45 5.45 0 01-4.29 6.393l-3.798.747a.582.582 0 01-.105.01" fill="#FF8F77"/><path d="M93.405 157.775a1.34 1.34 0 01-1.56-1.068l-.298-1.594a1.34 1.34 0 011.069-1.56 1.34 1.34 0 011.558 1.069l.3 1.593a1.34 1.34 0 01-1.069 1.56m22.65-3.681a1.34 1.34 0 01-1.56-1.067l-.298-1.594a1.341 1.341 0 011.068-1.56 1.34 1.34 0 011.559 1.068l.3 1.593a1.34 1.34 0 01-1.07 1.56" fill="#141420"/><path d="M92.462 163.795l-4.56.513a1.661 1.661 0 01-1.831-1.459 1.662 1.662 0 011.46-1.83l4.561-.513a1.66 1.66 0 011.83 1.46 1.66 1.66 0 01-1.46 1.83m30.667-4.832l-4.56.513a1.661 1.661 0 01-1.831-1.46 1.662 1.662 0 011.46-1.83l4.562-.512a1.66 1.66 0 011.83 1.46 1.66 1.66 0 01-1.461 1.83" fill="#FF897C"/><path d="M109.622 182.763a.534.534 0 01-.318-.104c-2.127-1.555-4.332-.057-4.425.007a.542.542 0 01-.752-.134.539.539 0 01.132-.75c.999-.705 3.474-1.609 5.681.005a.54.54 0 01-.318.976" fill="#FF8F77"/><path d="M393.817 393.093c1.99.153 3.617.529 4.88 1.128 1.263.6 2.258 1.32 2.986 2.161.727.842 1.224 1.747 1.492 2.716.268.969.402 1.9.402 2.792h-9.76c0-.969-.14-1.67-.42-2.103-.281-.434-.792-.65-1.532-.65-.434 0-.823.114-1.167.344-.345.229-.517.599-.517 1.109 0 .484.262.924.785 1.32.523.395 1.46.834 2.813 1.319 1.225.434 2.43.88 3.617 1.339a13.511 13.511 0 013.177 1.721 8.627 8.627 0 012.277 2.486c.587.97.88 2.18.88 3.634 0 2.55-.835 4.59-2.507 6.12-1.67 1.53-4.14 2.435-7.406 2.716v4.092h-3.904v-4.092c-3.19-.28-5.639-1.256-7.349-2.926-1.71-1.67-2.564-3.972-2.564-6.905h9.76c0 .919.217 1.639.65 2.162.435.522 1.034.784 1.8.784.587 0 1.027-.134 1.32-.402.294-.268.44-.618.44-1.052 0-.23-.05-.44-.153-.63-.102-.192-.3-.383-.593-.575a10.633 10.633 0 00-1.206-.65 33.477 33.477 0 00-2.028-.86 80.703 80.703 0 01-3.598-1.492c-1.148-.51-2.163-1.103-3.043-1.779a7.97 7.97 0 01-2.124-2.448c-.536-.956-.804-2.123-.804-3.5 0-1.3.262-2.422.785-3.366a7.028 7.028 0 012.105-2.352c.88-.625 1.888-1.103 3.023-1.435a19.977 19.977 0 013.58-.688V389h3.903v4.093zm12.172 5.89c1.454 0 2.653-.12 3.597-.363.945-.242 1.685-.587 2.22-1.033a3.454 3.454 0 001.11-1.625c.205-.638.307-1.365.307-2.18h8.037v26.774h-9.76v-15.453h-5.511v-6.12zm18.716 3.978c0-1.351.268-2.626.804-3.825a9.32 9.32 0 012.315-3.155c1.008-.906 2.246-1.626 3.713-2.161 1.467-.536 3.132-.804 4.995-.804 1.812 0 3.445.268 4.9.803 1.454.536 2.698 1.256 3.73 2.162a9.323 9.323 0 012.374 3.155 9.081 9.081 0 01.823 3.825v8.415a9.081 9.081 0 01-.823 3.825 9.323 9.323 0 01-2.373 3.156c-1.033.905-2.277 1.625-3.732 2.161-1.454.536-3.087.803-4.899.803-1.863 0-3.528-.267-4.995-.803s-2.705-1.256-3.713-2.161a9.32 9.32 0 01-2.315-3.156 9.265 9.265 0 01-.804-3.825v-8.415zm13.894 0c0-.586-.185-1.096-.555-1.53-.37-.433-.874-.65-1.512-.65-.663 0-1.174.217-1.531.65a2.332 2.332 0 00-.536 1.53v8.415c0 .587.179 1.097.536 1.53.357.434.868.65 1.531.65.638 0 1.142-.216 1.512-.65a2.28 2.28 0 00.555-1.53v-8.415zm12.44 0c0-1.351.267-2.626.803-3.825a9.32 9.32 0 012.316-3.155c1.007-.906 2.245-1.626 3.712-2.161 1.467-.536 3.132-.804 4.995-.804 1.812 0 3.445.268 4.9.803 1.454.536 2.698 1.256 3.731 2.162a9.323 9.323 0 012.373 3.155 9.081 9.081 0 01.823 3.825v8.415a9.081 9.081 0 01-.823 3.825 9.323 9.323 0 01-2.373 3.156c-1.033.905-2.277 1.625-3.732 2.161-1.454.536-3.087.803-4.899.803-1.863 0-3.528-.267-4.995-.803s-2.705-1.256-3.712-2.161a9.32 9.32 0 01-2.316-3.156 9.265 9.265 0 01-.804-3.825v-8.415zm13.893 0c0-.586-.185-1.096-.555-1.53-.37-.433-.874-.65-1.512-.65-.663 0-1.174.217-1.53.65a2.332 2.332 0 00-.537 1.53v8.415c0 .587.179 1.097.536 1.53.357.434.868.65 1.531.65.638 0 1.142-.216 1.512-.65a2.28 2.28 0 00.555-1.53v-8.415zm22.965 7.115v10.48h-9.76v-26.775h9.76V404.3l6.124-10.519h11.29l-9.109 13.388 9.11 13.387H494.02l-6.124-10.48zm-440.08-16.983c1.99.153 3.617.529 4.88 1.128 1.263.6 2.258 1.32 2.986 2.161.727.842 1.224 1.747 1.492 2.716.268.969.402 1.9.402 2.792h-9.76c0-.969-.14-1.67-.42-2.103-.281-.434-.792-.65-1.532-.65-.434 0-.823.114-1.167.344-.345.229-.517.599-.517 1.109 0 .484.262.924.785 1.32.523.395 1.46.834 2.813 1.319 1.225.434 2.43.88 3.617 1.339a13.511 13.511 0 013.177 1.721 8.627 8.627 0 012.277 2.486c.587.97.88 2.18.88 3.634 0 2.55-.835 4.59-2.507 6.12-1.67 1.53-4.14 2.435-7.406 2.716v4.092h-3.904v-4.092c-3.19-.28-5.639-1.256-7.349-2.926-1.71-1.67-2.564-3.972-2.564-6.905h9.76c0 .919.217 1.639.65 2.162.435.522 1.034.784 1.8.784.587 0 1.027-.134 1.32-.402.294-.268.44-.618.44-1.052 0-.23-.05-.44-.153-.63-.102-.192-.3-.383-.593-.575a10.633 10.633 0 00-1.206-.65 33.477 33.477 0 00-2.028-.86 80.704 80.704 0 01-3.598-1.492c-1.148-.51-2.163-1.103-3.043-1.779a7.97 7.97 0 01-2.124-2.448c-.536-.956-.804-2.123-.804-3.5 0-1.3.262-2.422.785-3.366a7.028 7.028 0 012.105-2.352c.88-.625 1.888-1.103 3.023-1.435a19.977 19.977 0 013.58-.688V389h3.903v4.093zm12.172 5.89c1.454 0 2.653-.12 3.597-.363.945-.242 1.685-.587 2.22-1.033a3.454 3.454 0 001.11-1.625c.205-.638.307-1.365.307-2.18h8.037v26.774H65.5v-15.453h-5.51v-6.12zm18.716 3.978c0-1.351.268-2.626.804-3.825a9.32 9.32 0 012.315-3.155c1.008-.906 2.246-1.626 3.713-2.161 1.467-.536 3.132-.804 4.995-.804 1.812 0 3.445.268 4.9.803 1.454.536 2.698 1.256 3.73 2.162a9.323 9.323 0 012.374 3.155 9.081 9.081 0 01.823 3.825v8.415a9.081 9.081 0 01-.823 3.825 9.323 9.323 0 01-2.373 3.156c-1.033.905-2.277 1.625-3.732 2.161-1.454.536-3.087.803-4.899.803-1.863 0-3.528-.267-4.995-.803s-2.705-1.256-3.713-2.161a9.32 9.32 0 01-2.315-3.156 9.265 9.265 0 01-.804-3.825v-8.415zm13.894 0c0-.586-.185-1.096-.555-1.53-.37-.433-.874-.65-1.512-.65-.663 0-1.174.217-1.531.65a2.332 2.332 0 00-.536 1.53v8.415c0 .587.179 1.097.536 1.53.357.434.868.65 1.531.65.638 0 1.142-.216 1.512-.65a2.28 2.28 0 00.555-1.53v-8.415zm22.965 7.115v10.48h-9.76v-26.775h9.76V404.3l6.124-10.519h11.29l-9.109 13.388 9.11 13.387h-11.291l-6.124-10.48z" fill="#618CFA" fill-rule="nonzero"/></g></svg>