<?xml version="1.0" encoding="UTF-8"?>
<svg width="1356px" height="472px" viewBox="0 0 1356 472" version="1.1" xmlns="http://www.w3.org/2000/svg" xmlns:xlink="http://www.w3.org/1999/xlink">
    <!-- Generator: Sketch 57.1 (83088) - https://sketch.com -->
    <title>Group 6</title>
    <desc>Created with Sketch.</desc>
    <g id="Page-1" stroke="none" stroke-width="1" fill="none" fill-rule="evenodd">
        <g id="Sign-up" transform="translate(-42.000000, -187.000000)">
            <g id="Group" transform="translate(42.000000, 43.000000)">
                <g id="Group-6" transform="translate(0.000000, 144.000000)">
                    <g id="Group-Copy-2" transform="translate(107.500000, 236.000000) scale(-1, 1) translate(-107.500000, -236.000000) ">
                        <g id="Group-27-Copy" transform="translate(136.500000, 156.000000) scale(-1, 1) translate(-136.500000, -156.000000) translate(58.000000, 0.000000)" fill="#B1C0FA">
                            <path d="M1.57623556,-4.7566882e-07 C87.4182954,0.839641941 156.745298,70.1897602 156.745298,155.616228 C156.745298,241.564953 86.5680379,311.240162 -1.17950094e-12,311.240162 L1.575,311.227 Z" id="Combined-Shape"></path>
                        </g>
                        <g id="Group-27-Copy" transform="translate(94.500000, 316.000000) scale(-1, 1) translate(-94.500000, -316.000000) translate(16.000000, 160.000000)" fill="#FFFFFF">
                            <path d="M2.3574567,0.433497537 C87.9082803,1.27426924 157,70.6970049 157,156.212887 C157,242.251732 87.060653,311.999996 0.786096257,311.999996 L2.35609626,311.986498 Z" id="Combined-Shape-Copy-7" transform="translate(78.893048, 156.216747) scale(-1, -1) translate(-78.893048, -156.216747) "></path>
                        </g>
                        <ellipse id="Oval-Copy-11" fill="#FFBA27" cx="16.5" cy="379" rx="16.5" ry="16"></ellipse>
                    </g>
                    <g id="Group-Copy-3" transform="translate(1141.000000, 0.000000)">
                        <g id="Group-27-Copy" transform="translate(136.500000, 156.000000) scale(-1, 1) translate(-136.500000, -156.000000) translate(58.000000, 0.000000)" fill="#B1C0FA">
                            <path d="M1.57623556,-4.7566882e-07 C87.4182954,0.839641941 156.745298,70.1897602 156.745298,155.616228 C156.745298,241.564953 86.5680379,311.240162 -1.17950094e-12,311.240162 L1.575,311.227 Z" id="Combined-Shape"></path>
                        </g>
                        <g id="Group-27-Copy" transform="translate(94.500000, 316.000000) scale(-1, 1) translate(-94.500000, -316.000000) translate(16.000000, 160.000000)" fill="#FFFFFF">
                            <path d="M2.3574567,0.433497537 C87.9082803,1.27426924 157,70.6970049 157,156.212887 C157,242.251732 87.060653,311.999996 0.786096257,311.999996 L2.35609626,311.986498 Z" id="Combined-Shape-Copy-7" transform="translate(78.893048, 156.216747) scale(-1, -1) translate(-78.893048, -156.216747) "></path>
                        </g>
                        <ellipse id="Oval-Copy-11" fill="#FFBA27" cx="16.5" cy="379" rx="16.5" ry="16"></ellipse>
                    </g>
                </g>
            </g>
        </g>
    </g>
</svg>