<svg xmlns="http://www.w3.org/2000/svg" xmlns:xlink="http://www.w3.org/1999/xlink" width="523" height="321"><defs><filter id="a" width="118.6%" height="132.3%" x="-9.3%" y="-15.4%" filterUnits="objectBoundingBox"><feOffset dy="2" in="SourceAlpha" result="shadowOffsetOuter1"/><feGaussianBlur in="shadowOffsetOuter1" result="shadowBlurOuter1" stdDeviation="14"/><feColorMatrix in="shadowBlurOuter1" values="0 0 0 0 0 0 0 0 0 0 0 0 0 0 0 0 0 0 0.150076486 0"/></filter><path id="b" d="M452.824 266.963H10.463a10.13 10.13 0 01-10.176-10.17V10.712A10.13 10.13 0 0110.463.544h442.361A10.13 10.13 0 01463 10.714v246.08a10.13 10.13 0 01-10.176 10.17z"/></defs><g fill="none" fill-rule="evenodd"><g transform="translate(27 25)"><use fill="#000" filter="url(#a)" xlink:href="#b"/><use fill="#FFF" xlink:href="#b"/></g><g fill-rule="nonzero"><g transform="translate(55.706 36.301)"><ellipse cx="6.632" cy="6.476" fill="#09F" rx="5.653" ry="5.65"/><ellipse cx="25.287" cy="6.476" fill="#E1723E" rx="5.653" ry="5.65"/><path fill="#D6B1B1" d="M43.943 12.409c-3.392 0-5.936-2.826-5.936-5.933 0-3.108 2.827-5.933 5.936-5.933s5.936 2.825 5.936 5.933c0 3.107-2.544 5.933-5.936 5.933zm0-11.019a5.065 5.065 0 00-5.088 5.086 5.065 5.065 0 005.088 5.085 5.066 5.066 0 005.088-5.085 5.066 5.066 0 00-5.088-5.086z"/></g><path fill="#D6B1B1" d="M187.555 113.126H71.665c-9.61 0-17.525-7.911-17.525-17.517s7.915-17.516 17.525-17.516h115.89c9.61 0 17.525 7.91 17.525 17.516 0 9.606-7.914 17.517-17.525 17.517zM71.665 79.223c-9.045 0-16.394 7.345-16.394 16.386 0 9.04 7.349 16.387 16.394 16.387h115.89c9.045 0 16.395-7.346 16.395-16.387 0-9.04-7.35-16.386-16.395-16.386H71.665z"/><path fill="#FFF" d="M93.995 101.542c-3.392 0-5.936-2.543-5.936-5.933 0-3.39 2.544-5.933 5.936-5.933s5.936 2.543 5.936 5.933c0 3.108-2.544 5.933-5.936 5.933zm0-10.736c-2.544 0-4.805 1.978-4.805 4.52 0 2.543 1.979 4.521 4.805 4.521 2.544 0 4.523-1.978 4.523-4.52 0-2.543-1.979-4.52-4.523-4.52zm36.464 10.736c-3.393 0-5.937-2.543-5.937-5.933 0-3.39 2.544-5.933 5.936-5.933s5.936 2.543 5.936 5.933c0 3.108-2.544 5.933-5.936 5.933zm0-10.736c-2.545 0-4.523 1.978-4.523 4.52 0 2.543 1.978 4.521 4.522 4.521 2.544 0 4.523-1.978 4.523-4.52 0-2.543-1.979-4.52-4.523-4.52zm33.636 10.736c-3.392 0-5.936-2.543-5.936-5.933 0-3.39 2.544-5.933 5.936-5.933s5.935 2.543 5.935 5.933c0 3.108-2.543 5.933-5.935 5.933zm0-10.736c-2.544 0-4.523 1.978-4.523 4.52 0 2.543 1.979 4.521 4.523 4.521 2.544 0 4.805-1.978 4.805-4.52 0-2.543-2.261-4.52-4.805-4.52z"/><path fill="#D6B1B1" d="M450.711 255.518H249.458c-3.11 0-5.653-2.543-5.653-5.651V65.661c0-3.108 2.544-5.65 5.653-5.65h201.253c3.11 0 5.653 2.542 5.653 5.65v184.206c0 3.108-2.543 5.65-5.653 5.65zM249.458 61.14c-2.261 0-4.24 1.977-4.24 4.237v184.206c0 2.26 1.979 4.238 4.24 4.238h201.253c2.262 0 4.24-1.977 4.24-4.238V65.661c0-2.26-1.978-4.238-4.24-4.238H249.458v-.282z"/><path fill="#FFF" d="M428.947 230.655H271.788c-3.11 0-5.653-2.543-5.653-5.65V145.05c0-3.107 2.544-5.65 5.653-5.65h157.159c3.109 0 5.653 2.543 5.653 5.65v79.672c0 3.39-2.544 5.933-5.653 5.933zM271.788 140.53c-2.544 0-4.522 1.978-4.522 4.52v79.672c0 2.543 1.978 4.52 4.522 4.52h157.159c2.543 0 4.522-1.977 4.522-4.52V145.05c0-2.542-1.979-4.52-4.522-4.52H271.788z"/><path fill="#618CFA" d="M96.822 226.135c-20.352 0-37.029-16.669-37.029-37.01 0-20.342 16.677-37.011 37.029-37.011 20.351 0 37.028 16.669 37.028 37.01 0 20.342-16.394 37.011-37.028 37.011zm0-72.891c-19.786 0-35.898 16.104-35.898 35.88 0 19.777 16.112 35.88 35.898 35.88 19.786 0 35.897-16.103 35.897-35.88 0-19.776-16.111-35.88-35.897-35.88z"/></g><g transform="translate(263 180)"><rect width="176" height="48" fill="#618CFA" rx="10"/><text transform="translate(64 12)" fill="#FFF" font-family="GTWalsheimProBold, GT Walsheim Pro" font-size="16" font-weight="bold" letter-spacing=".1"><tspan x=".134" y="17">APPLY</tspan></text></g><g fill-rule="nonzero"><path fill="#F5B325" d="M515.076 151.75H353.382c-4.048 0-7.382-3.346-7.382-7.41V61.409c0-4.063 3.334-7.409 7.382-7.409h161.694c4.048 0 7.382 3.346 7.382 7.409v82.931c0 4.063-3.334 7.409-7.382 7.409z"/><g fill="#FFF"><path d="M374.576 135.259l-1.19-1.673 48.341-38.718 17.384 19.12 46.912-35.611 1.191 1.673-48.341 36.806-17.384-19.359z"/><path d="M487.452 88.893l-1.905-.239 1.191-9.321-9.287-2.151.238-1.912 11.43 2.629z"/></g></g></g></svg>