<svg xmlns="http://www.w3.org/2000/svg" xmlns:xlink="http://www.w3.org/1999/xlink" width="1354" height="690"><defs><rect id="a" width="1354" height="690" x="0" y="0" rx="20"/></defs><g fill="none" fill-rule="evenodd"><mask id="b" fill="#fff"><use xlink:href="#a"/></mask><use fill="#DDE6FC" xlink:href="#a"/><g mask="url(#b)"><path fill="#618CFA" d="M312 431.5c0 70.968-57.307 128.5-128 128.5-70.692 0-128-57.532-128-128.5S113.308 303 184 303c70.693 0 128 57.532 128 128.5"/><path fill="#FFF" d="M153.722 411H-187v-15.63h340.722c22.448 0 40.71-18.335 40.71-40.87 0-22.536-18.262-40.87-40.71-40.87H-187V298h340.722C184.753 298 210 323.346 210 354.5S184.753 411 153.722 411M311 515.5c0 25.682-20.595 46.5-46 46.5-25.404 0-46-20.818-46-46.5 0-25.68 20.596-46.5 46-46.5 25.405 0 46 20.82 46 46.5"/><path fill="#FFBA27" d="M207 136v111.832C207 311.435 155.51 363 92 363V251.168c0-47.164 28.313-87.7 68.845-105.513C174.968 139.447 190.585 136 207 136"/><path fill="#5D635F" d="M75.5 577a4.5 4.5 0 100 9 4.5 4.5 0 000-9m24 0a4.5 4.5 0 100 9 4.5 4.5 0 000-9m24 0a4.5 4.5 0 100 9 4.5 4.5 0 000-9m24 9a4.5 4.5 0 100-9 4.5 4.5 0 000 9m-72 12a4.5 4.5 0 100 9 4.5 4.5 0 000-9m24 0a4.5 4.5 0 100 9 4.5 4.5 0 000-9m24 0a4.5 4.5 0 100 9 4.5 4.5 0 000-9m24 0a4.5 4.5 0 100 9 4.5 4.5 0 000-9m-72 22a4.5 4.5 0 100 9 4.5 4.5 0 000-9m24 0a4.5 4.5 0 100 9 4.5 4.5 0 000-9m24 0a4.5 4.5 0 100 9 4.5 4.5 0 000-9m24 0a4.5 4.5 0 100 9 4.5 4.5 0 000-9m-72 21a4.5 4.5 0 100 9 4.5 4.5 0 000-9m24 0a4.5 4.5 0 100 9 4.5 4.5 0 000-9m24 0a4.5 4.5 0 100 9 4.5 4.5 0 000-9m24 0a4.5 4.5 0 100 9 4.5 4.5 0 000-9"/><path fill="#FFBA27" d="M239 584v106H131c1.549-58.807 49.305-106 108-106"/><path fill="#FFF" d="M-51.73 606.35L31.54 690H-135 84V470z"/><path fill="#618CFA" d="M1042 431.5c0 70.968 57.307 128.5 128 128.5 70.692 0 128-57.532 128-128.5S1240.692 303 1170 303c-70.693 0-128 57.532-128 128.5"/><path fill="#FFF" d="M1200.278 411H1541v-15.63h-340.722c-22.448 0-40.71-18.335-40.71-40.87 0-22.536 18.262-40.87 40.71-40.87H1541V298h-340.722c-31.031 0-56.278 25.346-56.278 56.5s25.247 56.5 56.278 56.5M1043 515.5c0 25.682 20.595 46.5 46 46.5 25.404 0 46-20.818 46-46.5 0-25.68-20.596-46.5-46-46.5-25.405 0-46 20.82-46 46.5"/><path fill="#FFBA27" d="M1147 136v111.832C1147 311.435 1198.49 363 1262 363V251.168c0-47.164-28.313-87.7-68.845-105.513-14.123-6.208-29.74-9.655-46.155-9.655"/><path fill="#5D635F" d="M1278.5 577a4.5 4.5 0 110 9 4.5 4.5 0 010-9m-24 0a4.5 4.5 0 110 9 4.5 4.5 0 010-9m-24 0a4.5 4.5 0 110 9 4.5 4.5 0 010-9m-24 9a4.5 4.5 0 110-9 4.5 4.5 0 010 9m72 12a4.5 4.5 0 110 9 4.5 4.5 0 010-9m-24 0a4.5 4.5 0 110 9 4.5 4.5 0 010-9m-24 0a4.5 4.5 0 110 9 4.5 4.5 0 010-9m-24 0a4.5 4.5 0 110 9 4.5 4.5 0 010-9m72 22a4.5 4.5 0 110 9 4.5 4.5 0 010-9m-24 0a4.5 4.5 0 110 9 4.5 4.5 0 010-9m-24 0a4.5 4.5 0 110 9 4.5 4.5 0 010-9m-24 0a4.5 4.5 0 110 9 4.5 4.5 0 010-9m72 21a4.5 4.5 0 110 9 4.5 4.5 0 010-9m-24 0a4.5 4.5 0 110 9 4.5 4.5 0 010-9m-24 0a4.5 4.5 0 110 9 4.5 4.5 0 010-9m-24 0a4.5 4.5 0 110 9 4.5 4.5 0 010-9"/><path fill="#FFBA27" d="M1115 584v106h108c-1.549-58.807-49.305-106-108-106"/><path fill="#FFF" d="M1405.73 606.35L1322.46 690H1489h-219V470z"/></g></g></svg>