<svg xmlns="http://www.w3.org/2000/svg" width="330" height="426"><g fill="none" fill-rule="evenodd" opacity=".3"><path fill="#618CFA" d="M.51 227.226c0 54.57 44.041 98.81 98.37 98.81 54.327 0 98.37-44.24 98.37-98.81 0-54.571-44.043-98.81-98.37-98.81-54.329 0-98.37 44.239-98.37 98.81"/><path fill="#FFF" d="M122.149 211.462H384v-12.019H122.149c-17.252 0-31.287-14.098-31.287-31.427s14.035-31.427 31.287-31.427H384V124.57H122.149c-23.848 0-43.25 19.49-43.25 43.446 0 23.957 19.402 43.446 43.25 43.446M1.278 291.818c0 19.748 15.827 35.756 35.351 35.756s35.352-16.008 35.352-35.756c0-19.747-15.828-35.757-35.352-35.757-19.524 0-35.351 16.01-35.351 35.757"/><path fill="#FFBA27" d="M81.204 0v85.993c0 48.908 39.57 88.56 88.38 88.56V88.558c0-36.267-21.76-67.438-52.91-81.135C105.822 2.651 93.819 0 81.205 0"/><path fill="#5D635F" d="M182.263 339.108a3.461 3.461 0 010 6.92 3.458 3.458 0 01-3.457-3.46 3.46 3.46 0 013.457-3.46m-18.443 0a3.46 3.46 0 110 6.919 3.46 3.46 0 01-.001-6.919m-18.444 0a3.46 3.46 0 010 6.92 3.46 3.46 0 010-6.92m-18.445 6.921a3.46 3.46 0 110-6.919 3.46 3.46 0 01.001 6.919m55.332 9.227a3.461 3.461 0 010 6.92 3.458 3.458 0 01-3.457-3.46 3.46 3.46 0 013.457-3.46m-18.443 0a3.46 3.46 0 110 6.919 3.46 3.46 0 01-.001-6.919m-18.444 0a3.46 3.46 0 010 6.92 3.46 3.46 0 010-6.92m-18.445 0a3.46 3.46 0 01.001 6.92 3.46 3.46 0 010-6.92m55.332 16.917a3.461 3.461 0 010 6.92 3.458 3.458 0 01-3.457-3.46 3.46 3.46 0 013.457-3.46m-18.443 0a3.46 3.46 0 110 6.919 3.46 3.46 0 01-.001-6.919m-18.444 0a3.46 3.46 0 010 6.92 3.46 3.46 0 010-6.92m-18.445 0a3.46 3.46 0 01.001 6.92 3.46 3.46 0 010-6.92m55.332 16.148a3.461 3.461 0 010 6.92 3.458 3.458 0 01-3.457-3.46 3.46 3.46 0 013.457-3.46m-18.443 0a3.46 3.46 0 110 6.919 3.46 3.46 0 01-.001-6.919m-18.444 0a3.46 3.46 0 010 6.92 3.46 3.46 0 010-6.92m-18.445 0a3.46 3.46 0 01.001 6.92 3.46 3.46 0 010-6.92"/><path fill="#FFBA27" d="M56.611 344.491V426h83c-1.19-45.22-37.892-81.509-83-81.509"/><path fill="#FFF" d="M280.042 361.677L216.048 426h127.989-168.306V256.83z"/></g></svg>