<svg version="1.1" id="Слой_1" xmlns="http://www.w3.org/2000/svg" x="0" y="0" width="523.6" height="521.6" xml:space="preserve"><style>.st3{fill:#fff}.st5{fill:#618cfa}</style><g id="Page-1"><g id="The-Million-Dollar-Fund" transform="translate(-136 -3839)"><g id="Group-70" transform="translate(155 3837)"><g id="Group-50"><g id="Group-2-Copy"><ellipse id="Oval-6-Copy-2" cx="242.8" cy="262.8" rx="252.3" ry="251.3" fill="#618cfa" stroke="#fff" stroke-width="19"/><g id="Oval-6-Copy-2_1_"><path id="path-1_1_" d="M242.8 504.6c134.1 0 242.8-108.3 242.8-241.8S376.9 21 242.8 21c-2.7 0-2.6 483.6 0 483.6z" fill="#b1c0fa"/></g><path id="Path-3-Copy-4" d="M240.5 270.4L191.8 20.1c17.4-3.2 34.9-4.7 52.7-4.5 17.8.2 35.6 2 53.4 5.6l-57.4 249.2z" fill="#f5b325"/><path id="_x31_0_x25_" class="st3" d="M206.2 48.9c1.4 0 2.6-.1 3.5-.4.9-.2 1.7-.6 2.2-1 .5-.4.9-1 1.1-1.6.2-.6.3-1.3.3-2.1h7.9v26h-9.6v-15h-5.4v-5.9zm18 3.4c0-1.3.3-2.5.8-3.6s1.3-2.1 2.3-3c1-.9 2.2-1.6 3.6-2.1s3-.8 4.9-.8c1.8 0 3.3.3 4.8.8s2.6 1.2 3.6 2.1c1 .9 1.8 1.9 2.3 3 .5 1.1.8 2.4.8 3.6v8c0 1.3-.3 2.5-.8 3.6s-1.3 2.1-2.3 3c-1 .9-2.2 1.6-3.6 2.1s-3 .8-4.8.8c-1.8 0-3.4-.3-4.9-.8-1.4-.5-2.6-1.2-3.6-2.1-1-.9-1.7-1.9-2.3-3s-.8-2.4-.8-3.6v-8zm14 .6c0-.6-.2-1-.5-1.4-.4-.4-.8-.6-1.5-.6-.6 0-1.1.2-1.5.6-.3.4-.5.9-.5 1.4v7.9c0 .6.2 1 .5 1.4.3.4.8.6 1.5.6.6 0 1.1-.2 1.5-.6.4-.4.5-.9.5-1.4v-7.9zm44 11.7c0 .7-.2 1.4-.5 2-.3.6-.7 1.2-1.3 1.7-.6.5-1.3.9-2.1 1.1-.8.3-1.7.4-2.7.4-1 0-2-.1-2.8-.4-.8-.3-1.5-.7-2-1.1s-1-1-1.3-1.7-.4-1.3-.4-2v-4.5c0-.7.1-1.4.4-2s.7-1.2 1.3-1.7c.6-.5 1.2-.9 2-1.1.8-.3 1.7-.4 2.8-.4 1 0 1.9.1 2.7.4.8.3 1.5.7 2.1 1.1.6.5 1 1 1.3 1.7.3.6.5 1.3.5 2v4.5zm-7 .1c0 .3.1.5.3.8.2.2.4.4.7.4s.6-.1.7-.4c.2-.2.3-.5.3-.8V60c0-.3-.1-.5-.3-.8s-.4-.4-.7-.4-.6.1-.7.4c-.2.2-.3.5-.3.8v4.7zm-24-12.1v-4.5c0-.7.1-1.4.4-2 .3-.6.7-1.2 1.3-1.7.6-.5 1.2-.9 2-1.1.8-.3 1.7-.4 2.8-.4 1 0 1.9.1 2.7.4.8.3 1.5.7 2.1 1.1.6.5 1 1 1.3 1.7.3.6.5 1.3.5 2v4.5c0 .7-.2 1.4-.5 2-.3.6-.7 1.2-1.3 1.7-.6.5-1.3.9-2.1 1.1-.8.3-1.7.4-2.7.4-1 0-2-.1-2.8-.4-.8-.3-1.5-.7-2-1.1-.6-.5-1-1-1.3-1.7-.3-.7-.4-1.3-.4-2zm7-4.6c0-.3-.1-.5-.3-.8s-.4-.4-.7-.4-.6.1-.7.4c-.2.2-.3.5-.3.8v4.7c0 .3.1.5.3.8.2.2.4.4.7.4s.6-.1.7-.4.3-.5.3-.8V48zm11.8-6.2l5.2 2.2-11.8 27.8-5.2-2.2L270 41.8z"/></g></g><path id="_x34_5_x25_" class="st3" d="M90.3 269.1H74.2v-26.4h12.6v16.5h3.6v-7.8H103v7.8h3.1v9.9H103v7.8H90.3v-7.8zm19.7-26.4h28.1v8.5h-16.2v3.9c.6-.6 1.4-1.1 2.4-1.5 1-.4 2.3-.7 3.8-.7 2 0 3.8.4 5.2 1.1 1.4.7 2.6 1.7 3.5 2.8.9 1.1 1.6 2.4 2 3.8.4 1.4.6 2.7.6 4 0 1.9-.3 3.6-1 5.2s-1.6 3-2.9 4.2c-1.3 1.2-2.9 2.1-4.8 2.8-1.9.7-4.1 1.1-6.6 1.1s-4.7-.3-6.6-1c-1.9-.7-3.5-1.6-4.8-2.8s-2.2-2.6-2.9-4.2c-.7-1.6-1-3.3-1-5.1h11.8c0 1 .3 1.8.9 2.5.6.7 1.5 1.1 2.6 1.1s1.9-.4 2.6-1.1c.6-.7.9-1.6.9-2.7 0-.9-.3-1.7-.9-2.5-.6-.8-1.4-1.1-2.5-1.1s-1.8.2-2.3.6-.8.8-1.1 1.3H110v-20.2zm76.2 27.8c0 .9-.2 1.8-.6 2.7-.4.8-1 1.6-1.7 2.2-.7.6-1.6 1.1-2.7 1.5s-2.2.6-3.5.6c-1.3 0-2.5-.2-3.6-.6s-1.9-.9-2.7-1.5c-.7-.6-1.3-1.4-1.6-2.2-.4-.8-.6-1.7-.6-2.7v-5.9c0-.9.2-1.8.6-2.7s.9-1.6 1.6-2.2 1.6-1.1 2.7-1.5c1.1-.4 2.2-.6 3.6-.6 1.3 0 2.4.2 3.5.6 1.1.4 1.9.9 2.7 1.5s1.3 1.4 1.7 2.2c.4.8.6 1.7.6 2.7v5.9zm-9.8 0c0 .4.1.7.3 1 .2.3.6.4 1 .4s.8-.1 1-.4c.2-.3.3-.6.3-1v-5.9c0-.4-.1-.7-.3-1s-.6-.4-1-.4-.8.1-1 .4c-.2.3-.3.6-.3 1v5.9zm-32.3-15.4v-5.9c0-.9.2-1.8.6-2.7.4-.8.9-1.6 1.6-2.2.7-.6 1.6-1.1 2.7-1.5 1.1-.4 2.2-.6 3.6-.6 1.3 0 2.4.2 3.5.6 1.1.4 1.9.9 2.7 1.5s1.3 1.4 1.7 2.2.6 1.7.6 2.7v5.9c0 .9-.2 1.8-.6 2.7s-1 1.6-1.7 2.2-1.6 1.1-2.7 1.5-2.2.6-3.5.6c-1.3 0-2.5-.2-3.6-.6-1.1-.4-1.9-.9-2.7-1.5-.7-.6-1.3-1.4-1.6-2.2-.5-.9-.6-1.8-.6-2.7zm9.7-5.9c0-.4-.1-.7-.3-1-.2-.3-.6-.4-1-.4s-.8.1-1 .4c-.2.3-.3.6-.3 1v5.9c0 .4.1.7.3 1 .2.3.6.4 1 .4s.8-.1 1-.4c.2-.3.3-.6.3-1v-5.9zm15.7-9.4l7 3-16 37-7-3 16-37z"/><path id="_x34_5_x25__1_" class="st3" d="M326.3 269.1h-16.1v-26.4h12.6v16.5h3.6v-7.8H339v7.8h3.1v9.9H339v7.8h-12.6v-7.8zm19.7-26.4h28.1v8.5h-16.2v3.9c.6-.6 1.4-1.1 2.4-1.5 1-.4 2.3-.7 3.8-.7 2 0 3.8.4 5.2 1.1 1.4.7 2.6 1.7 3.5 2.8.9 1.1 1.6 2.4 2 3.8.4 1.4.6 2.7.6 4 0 1.9-.3 3.6-1 5.2s-1.6 3-2.9 4.2c-1.3 1.2-2.9 2.1-4.8 2.8-1.9.7-4.1 1.1-6.6 1.1s-4.7-.3-6.6-1c-1.9-.7-3.5-1.6-4.8-2.8-1.3-1.2-2.2-2.6-2.9-4.2-.7-1.6-1-3.3-1-5.1h11.8c0 1 .3 1.8.9 2.5.6.7 1.5 1.1 2.6 1.1s1.9-.4 2.6-1.1.9-1.6.9-2.7c0-.9-.3-1.7-.9-2.5-.6-.8-1.4-1.1-2.5-1.1s-1.8.2-2.3.6-.8.8-1.1 1.3H346v-20.2zm76.2 27.8c0 .9-.2 1.8-.6 2.7-.4.8-1 1.6-1.7 2.2-.7.6-1.6 1.1-2.7 1.5-1.1.4-2.2.6-3.5.6-1.3 0-2.5-.2-3.6-.6-1.1-.4-1.9-.9-2.7-1.5-.7-.6-1.3-1.4-1.6-2.2-.4-.8-.6-1.7-.6-2.7v-5.9c0-.9.2-1.8.6-2.7s.9-1.6 1.6-2.2 1.6-1.1 2.7-1.5c1.1-.4 2.2-.6 3.6-.6 1.3 0 2.4.2 3.5.6 1.1.4 1.9.9 2.7 1.5s1.3 1.4 1.7 2.2c.4.8.6 1.7.6 2.7v5.9zm-9.8 0c0 .4.1.7.3 1 .2.3.6.4 1 .4s.8-.1 1-.4c.2-.3.3-.6.3-1v-5.9c0-.4-.1-.7-.3-1s-.6-.4-1-.4-.8.1-1 .4-.3.6-.3 1v5.9zm-32.3-15.4v-5.9c0-.9.2-1.8.6-2.7s.9-1.6 1.6-2.2c.7-.6 1.6-1.1 2.7-1.5 1.1-.4 2.2-.6 3.6-.6 1.3 0 2.4.2 3.5.6 1.1.4 1.9.9 2.7 1.5s1.3 1.4 1.7 2.2.6 1.7.6 2.7v5.9c0 .9-.2 1.8-.6 2.7s-1 1.6-1.7 2.2-1.6 1.1-2.7 1.5c-1.1.4-2.2.6-3.5.6-1.3 0-2.5-.2-3.6-.6-1.1-.4-1.9-.9-2.7-1.5-.7-.6-1.3-1.4-1.6-2.2s-.6-1.8-.6-2.7zm9.7-5.9c0-.4-.1-.7-.3-1-.2-.3-.6-.4-1-.4s-.8.1-1 .4c-.2.3-.3.6-.3 1v5.9c0 .4.1.7.3 1 .2.3.6.4 1 .4s.8-.1 1-.4c.2-.3.3-.6.3-1v-5.9zm15.7-9.4l7 3-16 37-7-3 16-37z"/><g id="Rectangle-Copy-14"><path id="path-3" d="M187.2 85.8h112c8.3 0 15 6.7 15 15v22c0 8.3-6.7 15-15 15h-112c-8.3 0-15-6.7-15-15v-22c0-8.3 6.7-15 15-15z"/><path id="path-3_1_" class="st3" d="M187.2 85.8h112c8.3 0 15 6.7 15 15v22c0 8.3-6.7 15-15 15h-112c-8.3 0-15-6.7-15-15v-22c0-8.3 6.7-15 15-15z"/></g><g id="Rectangle-Copy-15"><path id="path-5" d="M88.2 297.8h76c8.3 0 15 6.7 15 15v22c0 8.3-6.7 15-15 15h-76c-8.3 0-15-6.7-15-15v-22c0-8.3 6.7-15 15-15z"/><path id="path-5_1_" class="st3" d="M88.2 297.8h76c8.3 0 15 6.7 15 15v22c0 8.3-6.7 15-15 15h-76c-8.3 0-15-6.7-15-15v-22c0-8.3 6.7-15 15-15z"/></g><g id="Rectangle-Copy-16"><path id="path-7" d="M313.2 297.8h92c8.3 0 15 6.7 15 15v38c0 8.3-6.7 15-15 15h-92c-8.3 0-15-6.7-15-15v-38c0-8.3 6.7-15 15-15z"/><path id="path-7_1_" class="st3" d="M313.2 297.8h92c8.3 0 15 6.7 15 15v38c0 8.3-6.7 15-15 15h-92c-8.3 0-15-6.7-15-15v-38c0-8.3 6.7-15 15-15z"/></g><path id="Entrepreneur" d="M189.2 116.5v-11.6h8.4v2.5h-5.2v2h4.8v2.5h-4.8v2h5.2v2.5h-8.4zm13.1-5v4.9h-3.1v-8.7h3v1.7h.1c.2-.6.5-1 1-1.3.5-.3 1-.5 1.7-.5.6 0 1.2.1 1.6.4s.8.7 1.1 1.2c.3.5.4 1.1.4 1.7v5.6H205v-4.9c0-.4-.1-.8-.3-1-.2-.2-.5-.4-.9-.4s-.7.1-.9.4-.6.5-.6.9zm12.4-3.8v2.3h-1.5v3.6c0 .4.2.5.6.5h.3c.1 0 .2 0 .3-.1l.5 2.2-.3.1c-.1 0-.2 0-.3.1-.3.1-.6.1-.9.1-1.1.1-1.9-.1-2.5-.6-.6-.5-.8-1.1-.8-2V110H209v-2.3h1.1v-2.1h3.1v2.1h1.5zm1.3 8.8v-8.7h3v1.7h.1c.2-.6.4-1.1.8-1.3.3-.3.8-.4 1.2-.4.2 0 .4 0 .7.1.2.1.4.1.6.2l-.9 2.6c-.1-.1-.3-.1-.4-.2s-.3-.1-.5-.1c-.4 0-.7.1-1 .4-.3.3-.4.7-.4 1.2v4.5H216zm11.5.1c-1.4 0-2.5-.4-3.3-1.2-.8-.8-1.2-1.9-1.2-3.3 0-.9.2-1.7.5-2.4.4-.7.9-1.2 1.5-1.6.7-.4 1.4-.6 2.3-.6.9 0 1.6.2 2.3.5s1.2.9 1.5 1.5.5 1.5.5 2.4v.7h-5.7v.1c0 .4.1.8.4 1 .3.3.6.4 1.1.4.3 0 .6-.1.8-.2.2-.1.4-.3.5-.6h2.9c-.1.9-.6 1.6-1.3 2.2-.6.8-1.6 1.1-2.8 1.1zm-1.4-5.5h2.8c0-.4-.1-.7-.4-.9-.3-.2-.6-.4-1-.4s-.7.1-1 .4c-.2.2-.4.5-.4.9zm7 8.6v-12h3.1v1.5h.1c.2-.4.5-.8.9-1.2s.9-.5 1.6-.5c.6 0 1.1.2 1.6.5s.9.8 1.3 1.4.5 1.5.5 2.6c0 1-.2 1.8-.5 2.5s-.7 1.2-1.3 1.5c-.5.3-1.1.5-1.7.5-.6 0-1.1-.1-1.5-.4-.4-.3-.7-.7-.9-1.1v4.7h-3.2zm3-7.6c0 .6.1 1.1.4 1.5.2.4.6.6 1 .6s.8-.2 1-.5c.2-.4.4-.9.4-1.5s-.1-1.2-.4-1.5c-.2-.4-.6-.5-1-.5s-.8.2-1 .5-.4.7-.4 1.4zm7.3 4.4v-8.7h3v1.7h.1c.2-.6.4-1.1.8-1.3.3-.3.8-.4 1.2-.4.2 0 .4 0 .7.1.2.1.4.1.6.2l-.9 2.6c-.1-.1-.3-.1-.4-.2s-.3-.1-.5-.1c-.4 0-.7.1-1 .4-.3.3-.4.7-.4 1.2v4.5h-3.2zm11.6.1c-1.4 0-2.5-.4-3.3-1.2-.8-.8-1.2-1.9-1.2-3.3 0-.9.2-1.7.5-2.4.4-.7.9-1.2 1.5-1.6s1.4-.6 2.3-.6c.9 0 1.6.2 2.3.5.6.4 1.2.9 1.5 1.5.4.7.5 1.5.5 2.4v.7h-5.7v.1c0 .4.1.8.4 1s.6.4 1.1.4c.3 0 .6-.1.8-.2.2-.1.4-.3.5-.6h2.9c-.1.9-.6 1.6-1.3 2.2-.6.8-1.6 1.1-2.8 1.1zm-1.4-5.5h2.8c0-.4-.1-.7-.4-.9-.3-.2-.6-.4-1-.4s-.7.1-1 .4c-.3.2-.4.5-.4.9zm10 .4v4.9h-3.1v-8.7h3v1.7h.1c.2-.6.5-1 1-1.3.5-.3 1-.5 1.7-.5.6 0 1.2.1 1.6.4s.8.7 1.1 1.2c.3.5.4 1.1.4 1.7v5.6h-3.1v-4.9c0-.4-.1-.8-.3-1-.2-.2-.5-.4-.9-.4s-.7.1-.9.4c-.4.2-.6.5-.6.9zm11.4 5.1c-1.4 0-2.5-.4-3.3-1.2-.8-.8-1.2-1.9-1.2-3.3 0-.9.2-1.7.5-2.4s.9-1.2 1.5-1.6c.7-.4 1.4-.6 2.3-.6.9 0 1.6.2 2.3.5.6.4 1.2.9 1.5 1.5.4.7.5 1.5.5 2.4v.7h-5.7v.1c0 .4.1.8.4 1 .3.3.6.4 1.1.4.3 0 .6-.1.8-.2.2-.1.4-.3.5-.6h2.9c-.1.9-.6 1.6-1.3 2.2-.6.8-1.6 1.1-2.8 1.1zm-1.4-5.5h2.8c0-.4-.1-.7-.4-.9-.3-.2-.6-.4-1-.4s-.7.1-1 .4-.4.5-.4.9zm12.6 1.5v-4.9h3.1v8.7h-3v-1.7h-.1c-.2.6-.5 1-1 1.3-.5.3-1 .5-1.7.5-.6 0-1.1-.1-1.6-.4-.5-.3-.8-.7-1.1-1.2-.3-.5-.4-1.1-.4-1.7v-5.6h3.1v4.9c0 .4.1.8.3 1 .2.2.5.4.9.4s.7-.1.9-.4.6-.4.6-.9zm4.8 3.9v-8.7h3v1.7h.1c.2-.6.4-1.1.8-1.3.3-.3.8-.4 1.2-.4.2 0 .4 0 .7.1.2.1.4.1.6.2l-.9 2.6c-.1-.1-.3-.1-.4-.2s-.3-.1-.5-.1c-.4 0-.7.1-1 .4-.3.3-.4.7-.4 1.2v4.5H291z" fill="#5d87f1"/><path id="Angel" class="st5" d="M106.6 328.5h-3.4l3.8-11.6h4.3l3.8 11.6h-3.4l-.7-2.2h-3.8l-.6 2.2zm1.4-4.6h2.4l-1.2-3.8h-.1l-1.1 3.8zm11.5-.4v4.9h-3.1v-8.7h3v1.7h.1c.2-.6.5-1 1-1.3.5-.3 1-.5 1.7-.5.6 0 1.2.1 1.6.4.5.3.8.7 1.1 1.2.3.5.4 1.1.4 1.7v5.6H122v-4.9c0-.4-.1-.8-.3-1-.2-.2-.5-.4-.9-.4s-.7.1-.9.4-.4.5-.4.9zm11.4 8.3c-.9 0-1.6-.1-2.2-.4s-1.1-.6-1.4-1c-.3-.4-.5-.9-.6-1.4h3c0 .2.2.4.4.5s.5.2.9.2.7-.1 1-.3c.3-.2.4-.5.4-1V327h-.1c-.2.4-.5.8-.9 1s-1 .4-1.5.4c-.6 0-1.2-.1-1.7-.4-.5-.3-.9-.7-1.3-1.4-.3-.6-.5-1.4-.5-2.4 0-1.1.2-1.9.5-2.6.3-.7.8-1.1 1.3-1.4.5-.3 1.1-.5 1.6-.5.6 0 1.2.2 1.6.5.4.3.7.7.9 1.2h.1v-1.5h3.1v8.7c0 .7-.2 1.3-.6 1.8-.4.5-.9.9-1.6 1.2-.7.1-1.5.2-2.4.2zm.1-5.7c.4 0 .8-.2 1-.5.2-.4.4-.9.4-1.5s-.1-1.2-.4-1.5c-.2-.4-.6-.5-1-.5s-.8.2-1 .5-.4.9-.4 1.5.1 1.1.4 1.5c.2.3.6.5 1 .5zm10.3 2.5c-1.4 0-2.5-.4-3.3-1.2-.8-.8-1.2-1.9-1.2-3.3 0-.9.2-1.7.5-2.4.4-.7.9-1.2 1.5-1.6.7-.4 1.4-.6 2.3-.6.9 0 1.6.2 2.3.5.6.4 1.2.9 1.5 1.5.4.7.5 1.5.5 2.4v.7h-5.7v.1c0 .4.1.8.4 1s.6.4 1.1.4c.3 0 .6-.1.8-.2.2-.1.4-.3.5-.6h2.9c-.1.9-.6 1.6-1.3 2.2-.6.8-1.6 1.1-2.8 1.1zm-1.4-5.5h2.8c0-.4-.1-.7-.4-.9-.3-.2-.6-.4-1-.4s-.7.1-1 .4c-.3.2-.4.5-.4.9zm10-6.3v11.6h-3.1v-11.6h3.1z"/><path id="TheMillionDollarFund" class="st5" d="M315.4 319.7v-2.5h10.1v2.5H322v9.1h-3.1v-9.1h-3.5zm14.5 4.2v4.9h-3.1v-11.6h3v4.6h.1c.2-.6.5-1 1-1.3.5-.3 1-.5 1.7-.5.6 0 1.2.1 1.6.4.5.3.8.7 1.1 1.2.3.5.4 1.1.4 1.7v5.6h-3.1V324c0-.4-.1-.8-.3-1-.2-.2-.5-.4-.9-.4s-.7.1-.9.4-.6.5-.6.9zm11.4 5.1c-1.4 0-2.5-.4-3.3-1.2s-1.2-1.9-1.2-3.3c0-.9.2-1.7.5-2.4.4-.7.9-1.2 1.5-1.6.7-.4 1.4-.6 2.3-.6.9 0 1.6.2 2.3.5.6.4 1.2.9 1.5 1.5.4.7.5 1.5.5 2.4v.7h-5.7v.1c0 .4.1.8.4 1 .3.3.6.4 1.1.4.3 0 .6-.1.8-.2.2-.1.4-.3.5-.6h2.9c-.1.9-.6 1.6-1.3 2.2-.6.8-1.6 1.1-2.8 1.1zm-1.4-5.5h2.8c0-.4-.1-.7-.4-.9-.3-.2-.6-.4-1-.4s-.7.1-1 .4c-.3.2-.4.5-.4.9zm10.1-6.3h3.9l2.7 6.6h.1l2.7-6.6h3.9v11.6h-3.1v-6.7h-.1l-2.6 6.6h-1.9L353 322h-.1v6.8H350v-11.6zm14.9 11.6v-8.7h3.1v8.7h-3.1zm1.6-9.6c-.4 0-.8-.1-1.1-.4s-.5-.6-.5-1 .2-.7.5-1 .7-.4 1.1-.4c.4 0 .8.1 1.1.4s.5.6.5 1-.2.7-.5 1-.7.4-1.1.4zm6.3-2v11.6h-3.1v-11.6h3.1zm4.7 0v11.6h-3.1v-11.6h3.1zm1.6 11.6v-8.7h3.1v8.7h-3.1zm1.6-9.6c-.4 0-.8-.1-1.1-.4s-.5-.6-.5-1 .2-.7.5-1 .7-.4 1.1-.4c.4 0 .8.1 1.1.4.3.3.5.6.5 1s-.2.7-.5 1c-.3.2-.7.4-1.1.4zm7.3 9.8c-.9 0-1.8-.2-2.4-.6-.7-.4-1.2-.9-1.6-1.6-.4-.7-.5-1.5-.5-2.4s.2-1.7.5-2.4c.4-.7.9-1.2 1.6-1.6.7-.4 1.5-.6 2.4-.6.9 0 1.8.2 2.4.6s1.2.9 1.6 1.6c.4.7.5 1.5.5 2.4s-.2 1.7-.5 2.4c-.4.7-.9 1.2-1.6 1.6s-1.4.6-2.4.6zm.1-2.3c.4 0 .7-.2.9-.6.2-.4.3-.9.3-1.6s-.1-1.2-.3-1.6c-.2-.4-.5-.6-.9-.6s-.7.2-1 .6c-.2.4-.4.9-.4 1.6s.1 1.2.4 1.6c.2.4.5.6 1 .6zm8.9-2.8v4.9h-3.1v-8.7h3v1.7h.1c.2-.6.5-1 1-1.3.5-.3 1-.5 1.7-.5.6 0 1.2.1 1.6.4.5.3.8.7 1.1 1.2s.4 1.1.4 1.7v5.6h-3.1V324c0-.4-.1-.8-.3-1s-.5-.4-.9-.4-.7.1-.9.4-.6.5-.6.9zm-78.4 23.9h-4.5v-11.6h4.4c1.2 0 2.2.2 3.1.7.9.5 1.5 1.1 2 2 .5.9.7 1.9.7 3.1s-.2 2.3-.7 3.1c-.5.9-1.1 1.5-2 2s-1.8.7-3 .7zm-1.3-2.7h1.2c.6 0 1.1-.1 1.5-.3.4-.2.7-.5.9-1 .2-.5.3-1.1.3-1.9s-.1-1.4-.3-1.9c-.2-.5-.5-.8-1-1s-.9-.3-1.5-.3h-1.1v6.4zm12.8 2.9c-.9 0-1.8-.2-2.4-.6s-1.2-.9-1.6-1.6c-.4-.7-.5-1.5-.5-2.4s.2-1.7.5-2.4c.4-.7.9-1.2 1.6-1.6s1.5-.6 2.4-.6 1.8.2 2.4.6 1.2.9 1.6 1.6c.4.7.5 1.5.5 2.4s-.2 1.7-.5 2.4c-.4.7-.9 1.2-1.6 1.6s-1.4.6-2.4.6zm.1-2.3c.4 0 .7-.2.9-.6s.3-.9.3-1.6-.1-1.2-.3-1.6c-.2-.4-.5-.6-.9-.6s-.7.2-1 .6c-.2.4-.4.9-.4 1.6s.1 1.2.4 1.6.5.6 1 .6zm8.9-9.5v11.6H336v-11.6h3.1zm4.7 0v11.6h-3.1v-11.6h3.1zm4 11.8c-.8 0-1.5-.2-2-.6-.5-.4-.8-1.1-.8-1.9 0-.6.1-1.2.4-1.5.3-.4.7-.7 1.2-.9.4-.2.8-.3 1.3-.3l.8-.1c.5-.1.9-.1 1.1-.2.3-.1.4-.2.5-.4v-.1c0-.2-.1-.4-.3-.5s-.4-.2-.7-.2c-.3 0-.5.1-.7.2-.2.1-.3.3-.3.6h-2.9c0-.5.2-1 .5-1.5.3-.4.7-.8 1.3-1.1.6-.3 1.3-.4 2.2-.4.8 0 1.6.1 2.2.4s1.1.6 1.4 1 .5.9.5 1.5v6h-2.9v-1.2h-.1c-.3.5-.6.8-1 1s-1.1.2-1.7.2zm1.1-2c.4 0 .7-.1 1-.3.3-.2.4-.5.4-.9v-.8c-.3.1-.6.2-1 .3h-.3c-.4.1-.6.2-.8.3-.2.2-.3.4-.3.6 0 .2.1.4.3.6s.4.2.7.2zm6 1.8v-8.7h3v1.7h.1c.2-.6.4-1.1.8-1.3.3-.3.8-.4 1.2-.4.2 0 .4 0 .7.1.2.1.4.1.6.2l-.9 2.6c-.1-.1-.3-.1-.4-.2-.1 0-.3-.1-.5-.1-.4 0-.7.1-1 .4-.3.3-.4.7-.4 1.2v4.5h-3.2zm10.4 0v-11.6h8.2v2.5h-5v2h4.5v2.5h-4.5v4.5h-3.2zm15.1-3.8v-4.9h3.1v8.7h-3v-1.7h-.1c-.2.6-.5 1-1 1.3-.5.3-1 .5-1.7.5-.6 0-1.1-.1-1.6-.4-.5-.3-.8-.7-1.1-1.2s-.4-1.1-.4-1.7V339h3.1v4.9c0 .4.1.8.3 1 .2.2.5.4.9.4s.7-.1.9-.4.6-.5.6-.9zm23.8-7.8v11.6h-3.1v-1.4h-.1c-.2.4-.5.8-.9 1.1-.4.3-.9.4-1.5.4s-1.2-.2-1.7-.5-.9-.8-1.3-1.5c-.3-.7-.5-1.5-.5-2.5 0-1.1.2-1.9.5-2.6.3-.7.8-1.1 1.3-1.4s1.1-.5 1.6-.5c.6 0 1.2.2 1.6.5.4.3.7.7.9 1.2v-4.4h3.2zm-13.3 2.8c.6 0 1.2.1 1.6.4.5.3.8.7 1.1 1.2s.4 1.1.4 1.7v5.6h-3.1V343c0-.4-.1-.8-.3-1-.2-.2-.5-.4-.9-.4s-.7.1-.9.4-.3.6-.3 1v4.9h-3.1v-8.7h3v1.7h.1c.2-.6.5-1 1-1.3s.7-.6 1.4-.6zm8.9 2.4c-.4 0-.8.2-1 .5-.2.4-.4.9-.4 1.5s.1 1.2.4 1.5.6.5 1 .5.8-.2 1-.6.4-.9.4-1.5-.1-1.2-.4-1.5c-.3-.2-.6-.4-1-.4z"/></g></g></g></svg>