<svg xmlns="http://www.w3.org/2000/svg" xmlns:xlink="http://www.w3.org/1999/xlink" width="409" height="69"><defs><path id="a" d="M.63.17h135.888v67.757H.63z"/><path id="c" d="M.283.254h135.889v68.354H.283z"/></defs><g fill="none" fill-rule="evenodd"><g transform="translate(272)"><mask id="b" fill="#fff"><use xlink:href="#a"/></mask><path fill="#242424" d="M136.519.17H.63c0 37.422 30.42 67.757 67.944 67.757 37.525 0 67.945-30.335 67.945-67.757" mask="url(#b)"/></g><g transform="translate(136)"><mask id="d" fill="#fff"><use xlink:href="#c"/></mask><path fill="#F5B325" d="M136.172.255V.254h-36.101c0 17.693-14.257 32.036-31.844 32.036-17.586 0-31.842-14.343-31.842-32.036H.283v.001c0 37.75 30.42 68.354 67.944 68.354 37.526 0 67.945-30.604 67.945-68.354" mask="url(#d)"/></g><path fill="#B1C0FA" d="M136 .001V0H99.869c0 17.601-14.268 31.87-31.87 31.87-17.6 0-31.868-14.269-31.868-31.87H0v.001C0 37.555 30.444 68 68 68s68-30.445 68-67.999"/></g></svg>