<svg xmlns="http://www.w3.org/2000/svg" width="50" height="41"><g fill="none"><path fill="#FFF" d="M8.001 20.268l3.461-3.488 2.56-4.256C12.885 10.822 11.084 9.4 8.24 9.4H1.067a.97.97 0 00-.943 1.196c.292 1.246 1.078 3.12 3.18 3.872 0 0-.649 4.177 3.885 4.317 0 0 .15.751.812 1.484z"/><path fill="#FFF" d="M14.022 12.524a29.773 29.773 0 00-1.876 1.874 27.996 27.996 0 00-3.822 5.27c-.11.199-.218.4-.323.6.353.39.85.775 1.549 1.039l3.889-3.063 1.484-4.035c-.24-.565-.537-1.14-.901-1.685z"/><path fill="#618CFA" d="M33.304 2.067l-2.449 6.458H19.242l-2.449-6.458A1.51 1.51 0 0118.204.023h13.689a1.509 1.509 0 011.411 2.044z"/><path fill="#618CFA" d="M31.893.023H18.204a1.508 1.508 0 00-1.41 2.044l1.761 4.647 6.494.877 6.493-.877 1.762-4.647A1.508 1.508 0 0031.893.023z"/><path fill="#FFF" d="M42.096 20.268l-3.46-3.488-2.56-4.256c1.137-1.702 2.938-3.125 5.78-3.125h7.174a.971.971 0 01.944 1.196c-.293 1.246-1.079 3.12-3.18 3.872 0 0 .648 4.177-3.886 4.317 0 0-.15.751-.812 1.484z"/><path fill="#FFF" d="M37.951 14.398a28.046 28.046 0 013.823 5.27c.11.199.217.4.322.6-.352.39-.85.775-1.548 1.039l-3.89-3.063-1.484-4.035c.24-.565.537-1.14.902-1.685a30.044 30.044 0 011.875 1.874z"/><path fill="#618CFA" d="M25.049 40.174c10.006 0 17.827-2.662 17.827-10.793a17.396 17.396 0 00-.271-2.093c-1.941-10.236-10.573-15.603-10.573-15.603l-6.983-.878-6.984.878S9.433 17.052 7.493 27.288c-.14.733-.228 1.43-.271 2.093 0 8.627 7.82 10.793 17.827 10.793z"/><path fill="#FFF" d="M18.032 10.75h14.034c.535 0 1.293-.651 1.293-1.551a1.576 1.576 0 00-1.293-.674H18.032c-.536 0-1.008.267-1.294.674 0 .926.758 1.552 1.294 1.552z"/><path fill="#FFF" d="M32.066 9.873H18.032a1.578 1.578 0 01-1.294-.674 1.58 1.58 0 001.294 2.485h14.034a1.58 1.58 0 001.293-2.485 1.575 1.575 0 01-1.293.674z"/><path fill="#EEF3F9" d="M22.84 29.403a.756.756 0 10-.826 1.265c.865.567 1.463.746 2.217.796v.676a.756.756 0 001.512 0v-.74c1.537-.327 2.435-1.606 2.636-2.801.263-1.56-.553-2.915-2.076-3.454a35.436 35.436 0 01-.56-.203v-3.105c.44.124.701.344.726.366a.756.756 0 001.019-1.117c-.04-.036-.686-.618-1.745-.795v-.604a.757.757 0 00-1.512 0v.66c-.086.02-.173.042-.26.068-1.007.304-1.76 1.164-1.963 2.246-.186.99.132 1.944.83 2.492.356.279.796.535 1.393.803v3.992c-.5-.046-.834-.181-1.39-.545zm.932-5.44c-.25-.195-.358-.596-.278-1.022.069-.365.298-.8.737-1.01v2.334a3.858 3.858 0 01-.46-.302zm2.027 2.608c1.216.43 1.141 1.469 1.09 1.777-.098.58-.487 1.193-1.146 1.47V26.55l.056.02z"/></g></svg>