<svg xmlns="http://www.w3.org/2000/svg" width="35" height="40"><g fill="none"><path fill="#FFF" d="M22.005 30.583c.5-1.666 1.5-3.166 2.834-4.333a11.383 11.383 0 004.083-8.75c0-6.5-5.417-11.833-12.083-11.5-5.917.25-10.75 5.25-10.917 11.167-.083 3.666 1.5 6.916 4.083 9.083 1.417 1.167 2.417 2.667 2.917 4.333h9.083z"/><path fill="#618CFA" d="M16.339 30.75h.75l-3.334-12.417h.25c.417 0 .834-.166 1.167-.5a.757.757 0 01.583-.25.76.76 0 01.584.25 1.422 1.422 0 002.166 0 .76.76 0 01.584-.25c.166 0 .416.084.583.25.333.334.667.5 1.167.5h.25l-3.25 12.417h.75l3.416-13c0-.167 0-.333-.166-.417-.167-.083-.334 0-.417.084-.167.166-.333.25-.5.25-.25 0-.417-.084-.667-.25-.333-.334-.666-.5-1.083-.5-.417 0-.75.166-1.083.5a.807.807 0 01-1.167 0c-.25-.334-.667-.5-1.083-.5-.417 0-.834.166-1.084.5-.166.166-.416.25-.666.25-.167 0-.417-.084-.5-.25-.084-.084-.25-.167-.417-.084-.167.084-.25.25-.167.417l3.334 13z"/><g fill="#618CFA"><path d="M14.838 38.25c.417 1 1.417 1.75 2.583 1.75 1.167 0 2.167-.75 2.584-1.75h-5.167z"/><path d="M20.505 38.334H14.42c-.833 0-1.5-.667-1.5-1.5v-6.335h9.084v6.334c0 .833-.667 1.5-1.5 1.5z"/></g><path d="M21.922 33.667h-9c-.5 0-.917-.417-.917-.917s.418-.917.918-.917h9c.5 0 .916.417.916.917s-.416.917-.916.917zm0 2.916h-9c-.5 0-.917-.416-.917-.916s.417-.917.917-.917h9c.5 0 .916.417.916.917s-.416.916-.916.916z" fill="#FFF"/><path d="M17.422 0a.834.834 0 00-.833.833v2.834c0 .416.333.833.833.833.5 0 .833-.333.833-.833V.833c0-.5-.416-.833-.833-.833zM6.255 5.083a.805.805 0 00-1.166 0 .805.805 0 000 1.167l2 2a.805.805 0 001.166 0 .805.805 0 000-1.167l-2-2zm-2.583 11.5H.839a.836.836 0 00-.834.834c0 .416.334.833.834.833h2.833a.834.834 0 00.833-.833c0-.417-.416-.834-.833-.834zm3.417 10l-2 2a.805.805 0 000 1.167.805.805 0 001.166 0l2-2a.805.805 0 000-1.167.805.805 0 00-1.166 0zm20.666 0a.805.805 0 00-1.166 0 .805.805 0 000 1.167l2 2a.805.805 0 001.166 0 .806.806 0 000-1.167l-2-2zm6.25-10h-2.833a.835.835 0 00-.833.834c0 .416.333.833.833.833h2.833a.835.835 0 00.834-.833.836.836 0 00-.834-.834zm-5.416-11.5l-2 2a.805.805 0 000 1.167.805.805 0 001.166 0l2-2a.805.805 0 000-1.167.805.805 0 00-1.166 0z" fill="#618CFA"/></g></svg>