<svg xmlns="http://www.w3.org/2000/svg" xmlns:xlink="http://www.w3.org/1999/xlink" width="64" height="47" viewBox="0 0 64 47">
    <defs>
        <path id="dcm8ucju6a" d="M0 0L69.073 0 69.073 31.559 0 31.559z"/>
    </defs>
    <g fill="none" fill-rule="evenodd">
        <g>
            <g transform="translate(-807 -443) rotate(-50 917.814 -620.52)">
                <mask id="mooxqqw5ab" fill="#fff">
                    <use xlink:href="#dcm8ucju6a"/>
                </mask>
                <path fill="#618CFA" d="M67.652 27.657c-9.5-1.605-19.108-2.088-28.586-4.054-8.908-1.847-17.5-4.538-26.228-7.007-.712-1.545-1.563-3.05-2.496-4.492 2.163.245 4.334.254 6.466-.201C23.5 14.83 31.038 16.52 38.01 18.14c8.376 1.946 17.053 3.575 25.648 4.112 2.514.156 2.41-3.592 0-3.867-8.626-.986-17.195-1.824-25.729-3.513-5.824-1.153-11.545-2.935-17.314-4.367 2.801-1.403 5.32-3.377 8.19-4.73 3.272-1.541.912-6.498-2.389-5.687-3.411.839-5.664 3.369-8.755 4.839-4.426 2.105-9.383.723-13.892-.43C.777 3.735-1.201 7.353.825 9.574c4.886 5.355 7.093 11.78 11.18 17.548.91 1.284 2.832.823 2.939-.798.151-2.336-.248-4.674-1.004-6.954 7.772 3.276 16.067 5.625 24.21 7.573 9.288 2.223 19.38 4.618 28.976 4.617 2.156-.001 2.786-3.52.526-3.902" mask="url(#mooxqqw5ab)"/>
            </g>
        </g>
    </g>
</svg>
