<svg width="140" height="140" viewBox="0 0 140 140" fill="none" xmlns="http://www.w3.org/2000/svg">
<path d="M70 140C108.66 140 140 108.66 140 70C140 31.3401 108.66 0 70 0C31.3401 0 0 31.3401 0 70C0 108.66 31.3401 140 70 140Z" fill="white"/>
<path d="M43.478 97.559H103.817C106.197 97.559 108.127 95.619 108.127 93.225V71.557H43.477V97.56L43.478 97.559Z" fill="#303539"/>
<path d="M92.324 52.779C91.53 52.779 90.887 52.132 90.887 51.334V41.223C90.887 38.829 88.957 36.889 86.577 36.889H72.211C69.831 36.889 67.901 38.829 67.901 41.223V51.334C67.901 52.132 67.257 52.779 66.464 52.779C65.671 52.779 65.027 52.132 65.027 51.334V41.223C65.032 37.236 68.245 34.005 72.211 34H86.577C90.542 34.005 93.755 37.236 93.76 41.223V51.334C93.76 52.132 93.117 52.779 92.324 52.779V52.779Z" fill="#95A5A5"/>
<path d="M47.788 48.445H108.127C109.712 48.45 110.995 49.741 111 51.335V71.557C110.995 73.151 109.712 74.442 108.127 74.447H46.35L47.787 48.445H47.788Z" fill="#3A3F42"/>
<path d="M88.014 74.446H99.507V78.78C99.507 80.376 98.22 81.669 96.634 81.669H90.887C89.3 81.669 88.014 80.376 88.014 78.779V74.446V74.446Z" fill="#F6B324"/>
<path d="M102.38 67.224V74.446H88.014V67.224C88.018 65.63 89.302 64.34 90.887 64.334H99.507C101.092 64.34 102.375 65.63 102.38 67.224V67.224Z" fill="#F0C419"/>
<path d="M67.9 81.67H62.153C60.567 81.67 59.28 80.376 59.28 78.78V74.447H70.774V78.781C70.774 80.376 69.488 81.67 67.901 81.67H67.9Z" fill="#F6B324"/>
<path d="M70.774 67.224V74.446H56.407V67.224C56.412 65.63 57.696 64.34 59.281 64.334H67.901C69.486 64.34 70.769 65.63 70.774 67.224V67.224Z" fill="#F0C419"/>
<path d="M96.634 70.113V74.446H93.76V70.113C93.76 69.315 94.403 68.668 95.197 68.668C95.99 68.668 96.634 69.315 96.634 70.113ZM65.027 70.113V74.446H62.154V70.113C62.154 69.315 62.797 68.668 63.591 68.668C64.384 68.668 65.027 69.315 65.027 70.113Z" fill="#F29C1F"/>
<path d="M102.38 93.225H98.07C97.277 93.225 96.634 92.578 96.634 91.781C96.634 90.983 97.277 90.336 98.07 90.336H100.943V87.447C100.943 86.649 101.587 86.003 102.38 86.003C103.174 86.003 103.817 86.649 103.817 87.447V91.781C103.817 92.578 103.174 93.225 102.38 93.225V93.225Z" fill="white"/>
<path d="M49.813 55.075L58.662 89.381C59.045 90.867 58.618 92.447 57.538 93.533L46.525 104.606C44.842 106.298 42.114 106.298 40.43 104.606L29.348 93.463C28.305 92.416 27.868 90.905 28.188 89.458L36.036 53.963L49.813 55.075V55.075Z" fill="#07375F"/>
<path d="M57.542 93.528L46.523 104.608C44.841 106.298 42.115 106.298 40.432 104.608L37.73 101.892L56.91 82.608L58.662 89.383C59.048 90.866 58.622 92.445 57.542 93.528V93.528ZM54.554 73.421L31.984 96.114L29.341 93.456C28.3 92.409 27.866 90.898 28.191 89.455L28.493 88.068L52.183 64.248L54.554 73.421ZM49.813 55.075L31.783 73.204L36.036 53.963L49.813 55.075Z" fill="#B5C1FB"/>
<path d="M55.804 43.202L55.1 48.907C55.014 49.547 54.721 50.141 54.267 50.597L43.477 61.446L32.689 50.597C32.235 50.141 31.942 49.547 31.856 48.907L31.152 43.202C31.129 43.024 31.119 42.846 31.123 42.667C31.123 40.274 33.053 38.334 35.433 38.334H51.523C52.76 38.332 53.938 38.865 54.757 39.796C55.576 40.728 55.957 41.968 55.805 43.202H55.804Z" fill="#628CFA"/>
</svg>
