<svg width="140" height="140" viewBox="0 0 140 140" fill="none" xmlns="http://www.w3.org/2000/svg">
<path d="M70 140C108.66 140 140 108.66 140 70C140 31.3401 108.66 0 70 0C31.3401 0 0 31.3401 0 70C0 108.66 31.3401 140 70 140Z" fill="white"/>
<path d="M107.217 43.47H36.617C34.687 43.47 33.119 45.036 33.119 46.964V95.387H61.125C61.125 96.277 61.835 96.985 62.725 96.985H81.093C81.984 96.985 82.693 96.276 82.693 95.387H110.716V46.964C110.716 45.036 109.148 43.471 107.217 43.471V43.47Z" fill="#B2C1FA"/>
<path d="M38.697 49.056H105.121V89.818H38.697V49.056Z" fill="white"/>
<path d="M82.71 95.387C82.71 96.277 81.984 96.985 81.11 96.985H62.742C61.851 96.985 61.142 96.26 61.142 95.387H30V98.731C30 101.565 32.294 103.855 35.132 103.855H108.72C111.559 103.855 113.852 101.565 113.852 98.731V95.387H82.712H82.71Z" fill="#628CFB"/>
<path d="M71.811 32.008C62.959 32.272 55.691 39.834 55.744 48.718C55.78 53.054 57.469 57.002 60.214 59.946C63.206 63.136 65.054 67.226 65.054 71.596V72.531H79.606V71.597C79.606 67.367 81.208 63.277 84.164 60.245C87.103 57.249 88.915 53.159 88.915 48.629C88.898 39.27 81.208 31.726 71.811 32.008Z" fill="#F5B324"/>
<path d="M79.445 79.78H65.379C65.256 79.78 65.151 79.674 65.151 79.55V72.366H79.674V79.551C79.656 79.674 79.568 79.781 79.445 79.781V79.78Z" fill="#608BFE"/>
<path d="M68.781 79.945C68.781 80.066 68.799 80.171 68.799 80.275C68.978 81.94 70.422 83.24 72.169 83.24H72.508C73.453 83.24 74.291 82.876 74.898 82.27C75.414 81.749 75.788 81.055 75.86 80.275C75.878 80.171 75.878 80.066 75.878 79.945H68.781Z" fill="#F5B324"/>
<path d="M79.381 57.004C78.994 56.617 78.361 56.617 77.974 57.004L72.329 62.649L66.683 57.004C66.296 56.617 65.663 56.617 65.276 57.004C64.889 57.391 64.889 58.024 65.276 58.411L71.344 64.477V72.531H73.331V64.477L79.399 58.411C79.768 58.006 79.768 57.391 79.381 57.004V57.004Z" fill="white"/>
</svg>
