<svg width="140" height="140" viewBox="0 0 140 140" fill="none" xmlns="http://www.w3.org/2000/svg">
<path d="M70 140C108.66 140 140 108.66 140 70C140 31.3401 108.66 0 70 0C31.3401 0 0 31.3401 0 70C0 108.66 31.3401 140 70 140Z" fill="white"/>
<path fill-rule="evenodd" clip-rule="evenodd" d="M92.835 52.618C92.929 52.994 92.975 53.379 92.975 53.766C92.975 56.096 91.291 58.092 88.98 58.502V58.532C88.98 68.967 80.46 77.426 69.95 77.426C59.44 77.426 50.92 68.967 50.92 58.532V58.504C48.606 58.097 46.918 56.1 46.917 53.766C46.916 53.379 46.963 52.994 47.057 52.618C47.427 51.094 48.744 49.98 50.318 49.858L50.342 49.854C50.446 50.299 50.742 50.674 51.152 50.882C51.152 50.882 53.977 52.006 53.998 51.732L54.669 43.412C54.702 42.987 55.075 42.669 55.503 42.701L55.53 42.703L58.655 43.036C65.272 43.743 71.757 40.846 75.614 35.461L77.474 35.541C80.517 35.675 83.212 37.531 84.404 40.314L87.377 52.487L88.98 51C89.306 50.7 89.517 50.297 89.578 49.86H89.585C91.155 49.986 92.465 51.098 92.835 52.617" fill="#F2F5F7"/>
<mask id="mask0" mask-type="alpha" maskUnits="userSpaceOnUse" x="72" y="84" width="24" height="27">
<path d="M72.217 84.664H96V110.15H72.217V84.664Z" fill="white"/>
</mask>
<g mask="url(#mask0)">
<path fill-rule="evenodd" clip-rule="evenodd" d="M90.424 87.783L90.396 87.773L81.719 84.664H81.709V84.694L75.855 92.446L72.217 90.038L75.975 110.15H96V95.959C95.705 92.454 93.592 89.355 90.424 87.783" fill="#618CFA"/>
</g>
<path fill-rule="evenodd" clip-rule="evenodd" d="M69.953 22C81.07 22 90.084 30.95 90.084 41.988C90.084 42.448 90.068 42.907 90.036 43.365L89.594 49.72C89.593 49.767 89.587 49.814 89.578 49.86C89.517 50.298 89.306 50.7 88.98 51.001L87.377 52.487L84.404 40.314C83.211 37.532 80.516 35.675 77.474 35.541L75.614 35.461C71.757 40.846 65.271 43.743 58.654 43.037L55.53 42.703C55.103 42.656 54.72 42.961 54.672 43.385L54.669 43.412L53.999 51.732C53.977 52.006 51.152 50.882 51.152 50.882C50.742 50.675 50.446 50.298 50.342 49.854C50.321 49.771 50.308 49.686 50.302 49.6L49.866 43.365C49.833 42.895 49.816 42.431 49.816 41.966C49.833 30.936 58.843 22 69.954 22" fill="#242424"/>
<path fill-rule="evenodd" clip-rule="evenodd" d="M76.415 84.323L81.709 80.82V84.664V84.694L75.855 92.445L72.217 90.038V90.035L70 88.569L76.415 84.323Z" fill="#B1C0FA"/>
<path fill-rule="evenodd" clip-rule="evenodd" d="M81.709 80.82L76.415 84.323V78.654L81.709 80.82Z" fill="#618CFA"/>
<path fill-rule="evenodd" clip-rule="evenodd" d="M76.415 78.653V84.323L70 88.57L63.602 84.336V76.42L63.622 76.357C67.766 77.8 72.282 77.783 76.415 76.31V78.654V78.653Z" fill="#F2F5F7"/>
<mask id="mask1" mask-type="alpha" maskUnits="userSpaceOnUse" x="64" y="88" width="13" height="31">
<path d="M64.305 88.568H76.014V118.121H64.305V88.568Z" fill="white"/>
</mask>
<g mask="url(#mask1)">
<path fill-rule="evenodd" clip-rule="evenodd" d="M75.974 110.149L76.014 110.37L70.16 118.122L64.305 110.37L64.345 110.149H64.348L68.158 89.789V89.786L69.999 88.568L72.216 90.035V90.037L75.974 110.149Z" fill="#F5B325"/>
</g>
<path fill-rule="evenodd" clip-rule="evenodd" d="M63.602 84.335L70 88.569L68.159 89.787V89.789L64.145 92.446L58.291 84.694V84.666V80.82L63.602 84.335Z" fill="#B1C0FA"/>
<path fill-rule="evenodd" clip-rule="evenodd" d="M63.602 78.628V84.335L58.291 80.82V80.801L63.602 78.628ZM64.145 92.446L58.291 84.694V84.666H58.274L49.649 87.756L49.576 87.782C46.408 89.355 44.295 92.454 44 95.96V110.15H64.349L68.159 89.79L64.145 92.447V92.446Z" fill="#618CFA"/>
</svg>
