<svg version="1.1" id="Слой_1" xmlns="http://www.w3.org/2000/svg" x="0" y="0" viewBox="0 0 116 116" xml:space="preserve" enable-background="new 0 0 116 116"><style>.st3{fill:#ffba27}.st6{fill:#eedc9a}</style><filter filterUnits="objectBoundingBox" height="203.8%" id="nmczbtwxja" width="196.2%" x="-48.1%" y="-28.3%"><feMorphology in="SourceAlpha" operator="dilate" radius="5" result="shadowSpreadOuter1"/><feOffset dy="29" in="shadowSpreadOuter1" result="shadowOffsetOuter1"/><feGaussianBlur in="shadowOffsetOuter1" result="shadowBlurOuter1" stdDeviation="10.5"/><feComposite in="shadowBlurOuter1" in2="SourceAlpha" operator="out" result="shadowBlurOuter1"/><feColorMatrix in="shadowBlurOuter1" values="0 0 0 0 0 0 0 0 0 0 0 0 0 0 0 0 0 0 0.0662423514 0"/></filter><circle cx="32" cy="53" r="55.5" fill="#dde6fc" stroke="#fff" stroke-width="5" transform="translate(26 5)"/><path class="st3" d="M80.1 46.9l-.6-.6-2.6-2.3-5.5 5.9 1.8 2.7.6.6c1.7 1.7 4.5 1.7 6.2 0l.2-.2c1.6-1.7 1.6-4.4-.1-6.1z"/><path d="M50.7 62.6V49.7c0-.9.4-1.7 1-2.3.6-.6 1.4-1 2.4-1 1.8 0 3.2 1.5 3.2 3.4V67c0 .6.5 1.1 1.1 1.1h1.8c2 0 3.6 1.6 3.6 3.6v9.5c0 .5-.2 1-.5 1.4l-4 5.5v2.6c0 .8-.7 1.5-1.5 1.5H35.1c-.8 0-1.5-.7-1.5-1.5v-4.4L31.8 84c-.5-.7-.8-1.6-.8-2.4V64.1c0-1.5 1.2-2.8 2.8-2.8h1c1.5 0 2.8 1.2 2.8 2.8v-1c0-1.5 1.2-2.8 2.8-2.8h1c1.3 0 2.5 1 2.7 2.2h.1c0-1.5 1.2-2.8 2.8-2.8h1c1.5.1 2.7 1.3 2.7 2.9z" fill="#b1c0fa"/><path d="M39.2 90.7v-4.4L37.4 84c-.5-.7-.8-1.6-.8-2.4V64.1c0-.6.2-1.1.5-1.6-.5-.7-1.3-1.2-2.3-1.2h-1c-1.5 0-2.8 1.2-2.8 2.8v17.5c0 .9.3 1.7.8 2.4l1.8 2.2v4.4c0 .8.7 1.5 1.5 1.5h5.6c-.9 0-1.5-.6-1.5-1.4z" fill="#618cfa"/><path class="st3" d="M50.1 29.2l-1.6-1.6c-1.1-1.1-1.1-2.8 0-3.9s2.8-1.1 3.9 0l1.6 1.6 3.2 3.1-3.6 3.9-3.5-3.1zm28.7 5.9l-5.7-1.9-4.8.3-10.5 10.6.2 4.4 1.9 5.7c.4 1.2 2 1.6 2.9.7L79.5 38c.9-.9.6-2.4-.7-2.9z"/><path class="st3" d="M67.2 27.3l5.9 5.9-.1.2-15 15-6-5.9c-4.2-4.2-4.2-11 0-15.2 2.1-2.1 4.9-3.2 7.6-3.2 2.8 0 5.5 1.1 7.6 3.2z"/><path class="st6" d="M65.2 50.7L63.3 45l-3.2-3.3-2.3 2.3.2 4.4 1.9 5.7c.4 1.2 2 1.6 2.9.7l3.2-3.2c-.4-.2-.6-.5-.8-.9z"/><path class="st6" d="M62.3 44.1l-5-5c-4-4-4.2-10.4-.6-14.6-1.7.5-3.3 1.4-4.7 2.8-4.2 4.2-4.2 11 0 15.2l5.9 5.9c.1.1 4.4-4.3 4.4-4.3z"/><path class="st3" d="M40.4 44.1c-.3 0-.5-.1-.7-.3-1.6-1.5-2.5-3.6-2.5-5.8 0-2.2.9-4.3 2.5-5.8.4-.4 1.1-.4 1.5 0 .4.4.4 1.1 0 1.5-1.2 1.2-1.8 2.7-1.8 4.3 0 1.6.7 3.2 1.8 4.3.4.4.4 1.1 0 1.5-.3.2-.5.3-.8.3z"/><path class="st3" d="M43.5 41.2c-.2 0-.5-.1-.7-.2-.9-.8-1.4-1.9-1.4-3s.5-2.3 1.4-3c.4-.4 1.1-.3 1.5.1.4.4.3 1.1-.1 1.5-.4.4-.7.9-.7 1.4 0 .6.2 1.1.7 1.4.4.4.5 1 .1 1.5-.2.2-.5.3-.8.3zm43.7 2.9c-.3 0-.5-.1-.7-.3-.4-.4-.4-1.1 0-1.5 1.2-1.1 1.8-2.7 1.8-4.3 0-1.6-.7-3.2-1.8-4.3-.4-.4-.4-1.1 0-1.5.4-.4 1.1-.4 1.5 0 1.6 1.5 2.5 3.6 2.5 5.8s-.9 4.3-2.5 5.8c-.3.2-.5.3-.8.3z"/><path class="st3" d="M84.2 41.2c-.3 0-.6-.1-.8-.4-.4-.4-.3-1.1.1-1.5.4-.4.7-.9.7-1.4 0-.6-.2-1.1-.7-1.4-.4-.4-.5-1-.1-1.5.4-.4 1-.5 1.5-.1.9.8 1.4 1.9 1.4 3 0 1.2-.5 2.3-1.4 3-.3.2-.5.3-.7.3z"/></svg>