<svg version="1.1" id="Слой_1" xmlns="http://www.w3.org/2000/svg" x="0" y="0" viewBox="0 0 116 116" xml:space="preserve"><style>.st1{fill:#b1c0fa}.st2{fill:#618cfa}.st3{fill:#fff}.st5{fill:#f4fbff}.st6{fill:#e4f6ff}</style><g transform="translate(26 5)"><circle id="_x36_vh0jcgfrb" cx="32" cy="53" r="53"/><circle cx="32" cy="53" r="55.5" fill="#dde6fc" stroke="#fff" stroke-width="5"/></g><g transform="translate(44 31)"><path class="st1" d="M8.4.7L3 0H-7.9c-7.2 0-13 5.8-13 12.9 0 7.1 5.8 12.9 13 12.9H8.4V.7z"/><path class="st2" d="M-2.4 0v13.2c0 4.1-3.3 7.5-7.5 7.5h-8.7c2.3 3.2 6.1 5.2 10.3 5.2H7.8V.7L2.5 0h-4.9z"/><path class="st3" d="M-2.1 17.9l-2.1-2.1c1.7-2.4 1.4-5.7-.7-7.8-2.4-2.4-6.2-2.4-8.6 0-2.4 2.4-2.4 6.2 0 8.6 1.2 1.2 2.8 1.8 4.3 1.8 1.2 0 2.4-.4 3.5-1.1l2.1 2.1c.2.2.5.3.8.3s.5-.1.8-.3c.4-.4.4-1.1-.1-1.5zm-9.8-2.8c-1.5-1.5-1.5-4.1 0-5.6.8-.8 1.8-1.2 2.8-1.2 1 0 2 .4 2.8 1.2 1.5 1.5 1.5 4.1 0 5.6-1.6 1.5-4.1 1.5-5.6 0z"/><path d="M-3.7 19.4c.2.2.5.3.8.3.3 0 .6-.1.8-.3.4-.4.4-1.1 0-1.5l-1.1-1c-.3.6-.8 1.1-1.4 1.6l.9.9z" fill="#61a2f9"/><path class="st1" d="M42.4 54H4.8c-1.1 0-2-.9-2-2V0h29.1c6.9 0 12.5 5.6 12.5 12.5V52c0 1.1-.9 2-2 2z"/><path class="st2" d="M37.8 1.7c.9 1.7 1.5 3.7 1.5 5.9v39.3c0 1.1-.9 2-2 2H2.8V52c0 1.1.9 2 2 2h37.6c1.1 0 2-.9 2-2V12.7c0-4.8-2.7-8.9-6.6-11z"/><path class="st3" d="M36.8 11.8H25.5c-.8 0-1.4-.5-1.4-1.1 0-.6.6-1.1 1.4-1.1h11.2c.8 0 1.4.5 1.4 1.1.1.6-.5 1.1-1.3 1.1zm0 16.9H25.5c-.8 0-1.4-.5-1.4-1.1 0-.6.6-1.1 1.4-1.1h11.2c.8 0 1.4.5 1.4 1.1.1.6-.5 1.1-1.3 1.1z"/><circle class="st3" cx="13.4" cy="10.7" r="5.6"/><circle class="st3" cx="13.4" cy="28.1" r="5.6"/><circle class="st3" cx="13.4" cy="43.9" r="5.6"/><path class="st3" d="M36.8 45H25.5c-.8 0-1.4-.5-1.4-1.1s.6-1.1 1.4-1.1h11.2c.8 0 1.4.5 1.4 1.1s-.5 1.1-1.3 1.1z"/><path class="st5" d="M48.7 35.6l-5.8-5.8-3.6 3.6 5.8 5.8c.3.3.8.3 1.1 0l2.5-2.5c.3-.3.3-.8 0-1.1z"/><path class="st6" d="M48.7 35.6l-5.8-5.8-1.3 1.2 4.6 4.5c.3.3.3.8 0 1.1l-1.8 1.8.7.7c.3.3.8.3 1.1 0l2.5-2.5c.3-.2.3-.7 0-1z"/><path class="st5" d="M27.9 17.5l20.7 7.7c.4.1.5.6.2.9L44 30.8l-1.1.2-.2 1.1-7.1 7.1c-.3.3-.8.2-.9-.2L27 18.4c-.2-.6.3-1.1.9-.9z"/><path class="st6" d="M48.5 25.2l-20.7-7.7c-.5-.2-1.1.3-.9.9l.8 2 15.5 5.8c.4.1.5.6.2.9l-9.7 9.7.9 2.3c.1.4.6.5.9.2l13.1-13.1c.4-.4.3-.9-.1-1z"/></g></svg>