<svg version="1.1" id="Слой_1" xmlns="http://www.w3.org/2000/svg" x="0" y="0" viewBox="0 0 116 116" xml:space="preserve"><style>.st1{fill:#618cfa}.st2{fill:#ff7452}.st3{fill:#fb9d46}.st4{fill:#fdba4c}.st5{fill:#ffd652}.st6{fill:#fbe287}</style><circle cx="32" cy="53" r="55.5" fill="#dde6fc" stroke="#fff" stroke-width="5" transform="translate(26 5)"/><path class="st1" d="M58.1 44.4l-1.3 14.4H60V43.1l-1.9 1.3z"/><path class="st1" d="M56.1 43.1v15.7H58V44.4l-1.9-1.3zm2 1.2c10.7 0 19.3-8.7 19.3-19.3-10.7 0-19.3 8.7-19.3 19.3z"/><path class="st1" d="M38.7 25c0 10.7 8.7 19.3 19.3 19.3.1-10.6-8.6-19.3-19.3-19.3z"/><path class="st2" d="M77.4 82.3l-1.3 4.4 1.3 4.4h3.9v-8.7h-3.9z"/><path class="st3" d="M73.5 82.3l-1.3 4.4 1.3 4.4h3.9v-8.7h-3.9z"/><path class="st2" d="M69.7 79.7l-1.3 6.9 1.3 4.4h3.9V79.7h-3.9z"/><path class="st3" d="M65.8 79.7l-1.3 6.9 1.3 4.4h3.9V79.7h-3.9z"/><path class="st2" d="M61.9 79.7l-1.3 6.9 1.3 4.4h3.9V79.7h-3.9z"/><path class="st3" d="M58.1 79.7l-1.3 6.9 1.3 4.4H62V79.7h-3.9z"/><path class="st4" d="M54.2 79.7l-1.3 6.9 1.3 4.4h3.9V79.7h-3.9z"/><path class="st3" d="M50.3 79.7L49 86.6l1.3 4.4h3.9V79.7h-3.9z"/><path class="st4" d="M46.5 79.7l-1.3 6.9 1.3 4.4h3.9V79.7h-3.9z"/><path class="st3" d="M42.6 79.7l-1.3 6.9 1.3 4.4h3.9V79.7h-3.9z"/><path class="st4" d="M38.7 79.7h3.9V91h-3.9V79.7z"/><path class="st3" d="M81.3 64.9L80 69.2l1.3 4.4h3.9v-8.7h-3.9z"/><path class="st2" d="M77.4 62.3l-1.3 6.9 1.3 4.4h3.9v-8.7l-3.9-2.6z"/><path class="st3" d="M73.5 62.3l-1.3 6.9 1.3 4.4h3.9V62.3h-3.9z"/><path class="st2" d="M69.7 62.3l-1.3 6.9 1.3 6.9h3.9V62.3h-3.9z"/><path class="st3" d="M65.8 62.3l-1.3 6.9 1.3 6.9h3.9V62.3h-3.9z"/><path class="st2" d="M61.9 62.3l-1.3 6.9 1.3 6.9h3.9V62.3h-3.9z"/><path class="st3" d="M58.1 62.3l-1.3 6.9 1.3 6.9H62V62.3h-3.9z"/><path class="st4" d="M54.2 62.3l-1.3 6.9 1.3 6.9h3.9V62.3h-3.9z"/><path class="st5" d="M50.3 62.3L49 69.2l1.3 6.9h3.9V62.3h-3.9z"/><path class="st4" d="M46.5 62.3l-1.3 6.9 1.3 6.9h3.9V62.3h-3.9z"/><path class="st5" d="M42.6 62.3h3.9v13.9h-3.9V62.3z"/><path class="st3" d="M77.4 56.2l-1.3 4.4 1.3 4.3h3.9v-8.7h-3.9z"/><path class="st4" d="M73.5 56.2l-1.3 4.4 1.3 4.3h3.9v-8.7h-3.9z"/><path class="st3" d="M69.7 56.2l-1.3 4.4 1.3 4.3h3.9v-8.7h-3.9z"/><path class="st4" d="M65.8 56.2l-1.3 4.4 1.3 4.3h3.9v-8.7h-3.9z"/><path class="st3" d="M61.9 56.2l-1.3 4.4 1.3 4.3h3.9v-8.7h-3.9z"/><path class="st4" d="M58.1 56.2l-1.3 4.4 1.3 4.3H62v-8.7h-3.9z"/><path class="st5" d="M54.2 56.2l-1.3 4.4 1.3 4.3h3.9v-8.7h-3.9z"/><path class="st6" d="M50.3 56.2L49 60.5l1.3 4.3h3.9v-8.7h-3.9z"/><path class="st5" d="M46.5 56.2l-1.3 4.4 1.3 4.3h3.9v-8.7h-3.9z"/><path class="st6" d="M42.6 56.2l-1.3 4.4 1.3 4.3h3.9v-8.7h-3.9z"/><path class="st5" d="M38.7 56.2h3.9v8.7h-3.9v-8.7z"/><path class="st3" d="M69.7 73.6l-1.3 4.3 1.3 4.4h3.9v-8.7h-3.9z"/><path class="st4" d="M65.8 73.6l-1.3 4.3 1.3 4.4h3.9v-8.7h-3.9z"/><path class="st3" d="M61.9 73.6l-1.3 4.3 1.3 4.4h3.9v-8.7h-3.9z"/><path class="st4" d="M58.1 73.6l-1.3 4.3 1.3 4.4H62v-8.7h-3.9z"/><path class="st5" d="M54.2 73.6l-1.3 4.3 1.3 4.4h3.9v-8.7h-3.9z"/><path class="st6" d="M50.3 73.6L49 77.9l1.3 4.4h3.9v-8.7h-3.9z"/><path class="st5" d="M46.5 73.6l-1.3 4.3 1.3 4.4h3.9v-8.7h-3.9z"/><path class="st6" d="M42.6 73.6l-1.3 4.3 1.3 4.4h3.9v-8.7h-3.9z"/><path class="st5" d="M38.7 73.6l-1.3 4.3 1.3 4.4h3.9v-8.7h-3.9z"/><path class="st6" d="M34.9 73.6l-1.3 4.3 1.3 4.4h3.9v-8.7h-3.9z"/><path class="st5" d="M31 73.6h3.9v8.7H31v-8.7z"/></svg>