<svg version="1.1" id="Слой_1" xmlns="http://www.w3.org/2000/svg" x="0" y="0" viewBox="0 0 84 84" xml:space="preserve"><style>.st0{fill:#f5b325}.st1{fill:#fff}</style><g transform="translate(22 20)"><path id="igxow6rozb" d="M-22-20h69c8.3 0 15 6.7 15 15v54c0 8.3-6.7 15-15 15H-7c-8.3 0-15-6.7-15-15v-69z"/></g><g transform="translate(22 20)"><path id="igxow6rozb_1_" class="st0" d="M-22-20h69c8.3 0 15 6.7 15 15v54c0 8.3-6.7 15-15 15H-7c-8.3 0-15-6.7-15-15v-69z"/></g><g transform="translate(39 37)"><circle class="st1" cx="3.5" cy="5.5" r="25.5"/><circle class="st0" cx="3.5" cy="5.5" r="20.1"/><circle class="st1" cx="3.5" cy="5.5" r="14.8"/><circle class="st0" cx="3.5" cy="5.5" r="9.4"/><circle class="st1" cx="3.5" cy="5.5" r="4"/></g></svg>