<svg xmlns="http://www.w3.org/2000/svg" xmlns:xlink="http://www.w3.org/1999/xlink" width="1354" height="690"><defs><rect id="a" width="1354" height="690" x="0" y="0" rx="20"/><path id="b" d="M.459.42h219.999v109.938H.459z"/></defs><g fill="none" fill-rule="evenodd"><use fill="#618CFA" opacity=".2" xlink:href="#a"/><g transform="translate(1063)"><mask id="c" fill="#fff"><use xlink:href="#b"/></mask><path fill="#F5B325" d="M220.458.422V.42H162.01c0 28.456-23.08 51.526-51.554 51.526-28.47 0-51.551-23.07-51.551-51.526H.459v.002c0 60.715 49.248 109.938 109.998 109.938 60.753 0 110-49.223 110-109.938" mask="url(#c)"/></g><path fill="#B1C0FA" d="M1064 .002V0h-58.447c0 28.472-23.08 51.554-51.554 51.554-28.471 0-51.552-23.082-51.552-51.554H844v.002C844 60.751 893.248 110 953.999 110 1014.752 110 1064 60.75 1064 .002"/><text fill="#242424" font-family="Inter-Black, Inter" font-size="40" font-weight="700" letter-spacing=".75"><tspan x="125" y="174">Contact us</tspan></text><g transform="translate(1056 564)"><rect width="176" height="48" fill="#618CFA" rx="10"/><text transform="translate(64 12)" fill="#FFF" font-family="GTWalsheimProBold, GT Walsheim Pro" font-size="16" font-weight="bold" letter-spacing=".1"><tspan x=".134" y="17">APPLY</tspan></text></g><path stroke="#242424" stroke-linecap="square" stroke-width="3" d="M738 507.5h494"/><text fill="#242424" font-family="GTWalsheimProRegular, GT Walsheim Pro" font-size="16" transform="translate(738 471)"><tspan x="9.5" y="17">Message</tspan></text><path stroke="#242424" stroke-linecap="square" stroke-width="3" d="M738 327.833h494"/><text fill="#242424" font-family="Inter-Regular, Inter" font-size="16" transform="translate(738 292.333)"><tspan x="9.5" y="16">Email Address</tspan></text><g fill="#242424"><path d="M128.23 591.035v3.58h-2.576v4.377h2.576V612h5.29v-13.007h3.55s.333-2.1.495-4.394h-4.025v-2.993c0-.447.577-1.049 1.147-1.049h2.883V586h-3.92c-5.551 0-5.42 4.381-5.42 5.035zm52.447 20.93c-6.365 0-11.543-5.042-11.543-11.24s5.178-11.24 11.543-11.24c2.055 0 4.074.533 5.837 1.542l.682.39-2.522 4.815-.778-.48a6.145 6.145 0 00-3.22-.904c-3.327 0-6.035 2.636-6.035 5.877 0 3.24 2.708 5.877 6.036 5.877 1.257 0 2.491-.378 3.474-1.065a5.059 5.059 0 001.52-1.662h-5.274v-5.128h11.672l.08.731c.045.415.07.858.07 1.247 0 6.198-5.178 11.24-11.542 11.24zm14.753-16.831h-4.498v-2.361h-2.425v-4.379h2.425v-2.361h4.498v2.361h2.424v4.379h-2.424zm62.404-3.77a11.97 11.97 0 01-3.415.929 5.937 5.937 0 002.614-3.262 12.046 12.046 0 01-3.78 1.432 5.946 5.946 0 00-4.339-1.863c-3.284 0-5.947 2.642-5.947 5.898 0 .461.053.912.154 1.344a16.929 16.929 0 01-12.257-6.164 5.816 5.816 0 00-.805 2.965 5.886 5.886 0 002.645 4.91 5.992 5.992 0 01-2.693-.741v.074c0 2.857 2.05 5.241 4.77 5.784a6.078 6.078 0 01-1.568.207c-.384 0-.755-.038-1.12-.11a5.947 5.947 0 005.555 4.097 11.99 11.99 0 01-7.386 2.521c-.48 0-.952-.028-1.418-.08a16.913 16.913 0 009.115 2.654c10.94 0 16.92-8.989 16.92-16.784l-.02-.764a11.817 11.817 0 002.974-3.047z"/><path fill-rule="nonzero" d="M309.362 587.733h-16.52a3.43 3.43 0 00-3.422 3.428v16.544a3.43 3.43 0 003.423 3.428h16.52a3.43 3.43 0 003.422-3.428v-16.544a3.43 3.43 0 00-3.423-3.428zm-8.214 17.824c-3.397 0-6.16-2.767-6.16-6.17 0-3.402 2.763-6.17 6.16-6.17 3.397 0 6.16 2.768 6.16 6.17 0 3.403-2.763 6.17-6.16 6.17zm6.845-10.969a2.057 2.057 0 010-4.113 2.058 2.058 0 010 4.113z"/><path d="M307.993 591.846a.686.686 0 000 1.371.685.685 0 000-1.371zm-6.845 2.742a4.802 4.802 0 00-4.792 4.8c0 2.645 2.15 4.798 4.792 4.798s4.792-2.153 4.792-4.799a4.802 4.802 0 00-4.792-4.799z"/></g><g fill="#242424"><text font-family="Inter-SemiBold, Inter" font-size="18" font-weight="500" transform="translate(125 383)"><tspan x="0" y="17">Call us</tspan></text><text font-family="Inter-Bold, Inter" font-size="22" font-weight="bold" transform="translate(125 383)"><tspan x="0" y="53">(617) 671-9292</tspan></text></g><g fill="#242424"><text font-family="Inter-SemiBold, Inter" font-size="18" font-weight="500" transform="translate(125 259)"><tspan x="0" y="17">Address</tspan></text><text font-family="Inter-Bold, Inter" font-size="22" font-weight="bold" transform="translate(125 259)"><tspan x="0" y="49">200 Portland Street,</tspan> <tspan x="0" y="80">Boston MA, 02114</tspan></text></g><text fill="#242424" font-family="Inter-SemiBold, Inter" font-size="18" font-weight="500" transform="translate(125 475)"><tspan x="0" y="17">Write </tspan> <tspan x="0" y="40">us</tspan></text><text fill="#618CFA" font-family="Inter-Bold, Inter" font-size="22" font-weight="bold" transform="translate(125 475)"><tspan x="0" y="53">hello@milliondollarfund.com</tspan></text><path stroke="#242424" stroke-linecap="square" stroke-width="3" d="M738 417.167h494"/><text fill="#242424" font-family="Inter-Regular, Inter" font-size="16" transform="translate(738 381.667)"><tspan x="9.5" y="16">Your Company</tspan></text><path stroke="#242424" stroke-linecap="square" stroke-width="3" d="M738.5 238.5h494"/><text fill="#242424" font-family="Inter-Regular, Inter" font-size="16" transform="translate(738 203)"><tspan x="10" y="16">Your Name</tspan></text><text fill="#232323" font-family="Inter-Medium, Inter" font-size="22" font-weight="400"><tspan x="125" y="212">Have a question? Reach out today!</tspan></text></g></svg>