<svg xmlns="http://www.w3.org/2000/svg" xmlns:xlink="http://www.w3.org/1999/xlink" width="440" height="111"><defs><path id="a" d="M.459.42h219.999v109.938H.459z"/></defs><g fill="none" fill-rule="evenodd"><g transform="translate(219)"><mask id="b" fill="#fff"><use xlink:href="#a"/></mask><path fill="#F5B325" d="M220.458.422V.42H162.01c0 28.456-23.08 51.526-51.554 51.526-28.47 0-51.551-23.07-51.551-51.526H.459v.002c0 60.715 49.248 109.938 109.998 109.938 60.753 0 110-49.223 110-109.938" mask="url(#b)"/></g><path fill="#B1C0FA" d="M220 .002V0h-58.447c0 28.472-23.08 51.554-51.554 51.554-28.471 0-51.552-23.082-51.552-51.554H0v.002C0 60.751 49.248 110 109.999 110 170.752 110 220 60.75 220 .002"/></g></svg>