<svg width="526" height="587" fill="none" xmlns="http://www.w3.org/2000/svg"><path d="M22.047 413h10.812v-2.789h-7.43v-3.82h6.844v-2.789H25.43v-3.813h7.398V397H22.047v16zm16.736-6.937c.008-1.547.93-2.454 2.274-2.454 1.336 0 2.14.875 2.133 2.344V413h3.328v-7.641c0-2.797-1.641-4.515-4.141-4.515-1.781 0-3.07.875-3.61 2.273h-.14V401h-3.172v12h3.328v-6.937zM55.523 401h-2.257v-2.875h-3.328V401h-1.641v2.5h1.64v6.25c-.015 2.352 1.586 3.516 4 3.414a6.483 6.483 0 001.805-.312l-.523-2.477c-.164.031-.516.109-.828.109-.664 0-1.125-.25-1.125-1.172V403.5h2.257V401zm2.168 12h3.328v-6.789c0-1.477 1.079-2.492 2.547-2.492.461 0 1.094.078 1.407.179v-2.953a5.017 5.017 0 00-1.047-.117c-1.344 0-2.446.781-2.883 2.266h-.125V401h-3.227v12zm13.912.234c2.97 0 4.97-1.445 5.438-3.672l-3.078-.203c-.336.914-1.195 1.391-2.305 1.391-1.664 0-2.719-1.102-2.719-2.891v-.007h8.172v-.915c0-4.078-2.468-6.093-5.64-6.093-3.532 0-5.82 2.508-5.82 6.211 0 3.804 2.257 6.179 5.953 6.179zm-2.663-7.445c.07-1.367 1.109-2.461 2.585-2.461 1.446 0 2.446 1.031 2.453 2.461H68.94zM79.282 417.5h3.328v-6.422h.102c.46 1 1.469 2.117 3.406 2.117 2.734 0 4.867-2.164 4.867-6.179 0-4.125-2.226-6.172-4.859-6.172-2.008 0-2.969 1.195-3.414 2.172h-.148V401h-3.282v16.5zM82.54 407c0-2.141.906-3.508 2.523-3.508 1.649 0 2.524 1.43 2.524 3.508 0 2.094-.89 3.547-2.523 3.547-1.602 0-2.524-1.406-2.524-3.547zm10.664 6h3.328v-6.789c0-1.477 1.078-2.492 2.547-2.492.461 0 1.094.078 1.406.179v-2.953a5.014 5.014 0 00-1.047-.117c-1.343 0-2.445.781-2.882 2.266h-.125V401h-3.227v12zm13.912.234c2.969 0 4.969-1.445 5.438-3.672l-3.078-.203c-.336.914-1.196 1.391-2.305 1.391-1.664 0-2.719-1.102-2.719-2.891v-.007h8.172v-.915c0-4.078-2.469-6.093-5.641-6.093-3.531 0-5.82 2.508-5.82 6.211 0 3.804 2.258 6.179 5.953 6.179zm-2.664-7.445c.07-1.367 1.109-2.461 2.586-2.461 1.445 0 2.445 1.031 2.453 2.461h-5.039zm13.672.274c.008-1.547.93-2.454 2.273-2.454 1.336 0 2.141.875 2.133 2.344V413h3.328v-7.641c0-2.797-1.64-4.515-4.14-4.515-1.781 0-3.071.875-3.61 2.273h-.14V401h-3.172v12h3.328v-6.937zm15.826 7.171c2.969 0 4.969-1.445 5.438-3.672l-3.078-.203c-.336.914-1.196 1.391-2.305 1.391-1.664 0-2.719-1.102-2.719-2.891v-.007h8.172v-.915c0-4.078-2.469-6.093-5.641-6.093-3.531 0-5.82 2.508-5.82 6.211 0 3.804 2.258 6.179 5.953 6.179zm-2.664-7.445c.07-1.367 1.109-2.461 2.586-2.461 1.445 0 2.445 1.031 2.453 2.461h-5.039zm18.039 2.102c.008 1.609-1.094 2.453-2.289 2.453-1.258 0-2.07-.883-2.078-2.297V401h-3.328v7.641c.008 2.804 1.648 4.515 4.062 4.515 1.805 0 3.102-.929 3.641-2.336h.125V413h3.195v-12h-3.328v6.891zm5.99 5.109h3.329v-6.789c0-1.477 1.078-2.492 2.546-2.492.461 0 1.094.078 1.407.179v-2.953a5.018 5.018 0 00-1.047-.117c-1.344 0-2.446.781-2.883 2.266h-.125V401h-3.227v12zm18.987-8.578c-.297-2.211-2.078-3.578-5.11-3.578-3.07 0-5.093 1.422-5.086 3.734-.007 1.797 1.125 2.961 3.469 3.43l2.078.414c1.047.211 1.524.594 1.539 1.195-.015.711-.789 1.219-1.953 1.219-1.187 0-1.976-.508-2.179-1.484l-3.274.171c.313 2.297 2.266 3.711 5.445 3.711 3.11 0 5.336-1.586 5.344-3.953-.008-1.734-1.14-2.773-3.469-3.25l-2.171-.437c-1.118-.242-1.532-.625-1.524-1.203-.008-.719.805-1.188 1.836-1.188 1.156 0 1.844.633 2.008 1.406l3.047-.187zM219.436 558h-3.383v16h3.383v-16zm6.048 9.063c.008-1.547.93-2.454 2.274-2.454 1.336 0 2.14.875 2.133 2.344V574h3.328v-7.641c0-2.797-1.641-4.515-4.141-4.515-1.781 0-3.07.875-3.609 2.273h-.141V562h-3.172v12h3.328v-6.937zM246.6 562h-3.524l-2.484 8.586h-.125L237.975 562h-3.516l4.195 12h3.75l4.196-12zm6.763 12.234c2.969 0 4.969-1.445 5.438-3.672l-3.078-.203c-.336.914-1.196 1.391-2.305 1.391-1.664 0-2.719-1.102-2.719-2.891v-.007h8.172v-.915c0-4.078-2.469-6.093-5.641-6.093-3.531 0-5.82 2.508-5.82 6.211 0 3.804 2.258 6.179 5.953 6.179zm-2.664-7.445c.071-1.367 1.11-2.461 2.586-2.461 1.445 0 2.445 1.031 2.453 2.461h-5.039zm20.328-1.367c-.297-2.211-2.078-3.578-5.109-3.578-3.07 0-5.094 1.422-5.086 3.734-.008 1.797 1.125 2.961 3.469 3.43l2.078.414c1.047.211 1.523.594 1.539 1.195-.016.711-.789 1.219-1.953 1.219-1.188 0-1.977-.508-2.18-1.484l-3.273.171c.312 2.297 2.265 3.711 5.445 3.711 3.109 0 5.336-1.586 5.344-3.953-.008-1.734-1.141-2.773-3.469-3.25l-2.172-.437c-1.117-.242-1.531-.625-1.523-1.203-.008-.719.804-1.188 1.836-1.188 1.156 0 1.843.633 2.007 1.406l3.047-.187zm8.752-3.422h-2.258v-2.875h-3.328V562h-1.64v2.5h1.64v6.25c-.015 2.352 1.586 3.516 4 3.414a6.481 6.481 0 001.805-.312l-.523-2.477c-.164.031-.516.109-.829.109-.664 0-1.125-.25-1.125-1.172V564.5h2.258V562zm7.461 12.234c3.641 0 5.906-2.492 5.906-6.187 0-3.719-2.265-6.203-5.906-6.203-3.64 0-5.906 2.484-5.906 6.203 0 3.695 2.266 6.187 5.906 6.187zm.016-2.578c-1.68 0-2.539-1.539-2.539-3.633 0-2.093.859-3.64 2.539-3.64 1.648 0 2.508 1.547 2.508 3.64 0 2.094-.86 3.633-2.508 3.633zm8.055 2.344h3.328v-6.789c0-1.477 1.078-2.492 2.547-2.492.46 0 1.093.078 1.406.179v-2.953a5.018 5.018 0 00-1.047-.117c-1.344 0-2.445.781-2.883 2.266h-.125V562h-3.226v12zm18.986-8.578c-.297-2.211-2.078-3.578-5.109-3.578-3.071 0-5.094 1.422-5.086 3.734-.008 1.797 1.125 2.961 3.468 3.43l2.078.414c1.047.211 1.524.594 1.54 1.195-.016.711-.79 1.219-1.954 1.219-1.187 0-1.976-.508-2.179-1.484l-3.274.171c.313 2.297 2.266 3.711 5.446 3.711 3.109 0 5.336-1.586 5.343-3.953-.007-1.734-1.14-2.773-3.468-3.25l-2.172-.437c-1.117-.242-1.532-.625-1.524-1.203-.008-.719.805-1.188 1.836-1.188 1.156 0 1.844.633 2.008 1.406l3.047-.187zM390.733 413h3.383v-5.188h2.844c3.68 0 5.82-2.195 5.82-5.39 0-3.18-2.101-5.422-5.734-5.422h-6.313v16zm3.383-7.898v-5.336h2.281c1.954 0 2.899 1.062 2.899 2.656 0 1.586-.945 2.68-2.883 2.68h-2.297zM404.915 413h3.328v-6.789c0-1.477 1.078-2.492 2.547-2.492.461 0 1.094.078 1.406.179v-2.953a5.018 5.018 0 00-1.047-.117c-1.343 0-2.445.781-2.882 2.266h-.125V401h-3.227v12zm13.865.234c3.641 0 5.907-2.492 5.907-6.187 0-3.719-2.266-6.203-5.907-6.203-3.64 0-5.906 2.484-5.906 6.203 0 3.695 2.266 6.187 5.906 6.187zm.016-2.578c-1.68 0-2.539-1.539-2.539-3.633 0-2.093.859-3.64 2.539-3.64 1.648 0 2.508 1.547 2.508 3.64 0 2.094-.86 3.633-2.508 3.633zm12.476 2.539c1.938 0 2.946-1.117 3.407-2.117h.14V413h3.282v-16h-3.321v6.016h-.101c-.446-.977-1.407-2.172-3.414-2.172-2.633 0-4.86 2.047-4.86 6.172 0 4.015 2.133 6.179 4.867 6.179zm1.055-2.648c-1.633 0-2.523-1.453-2.523-3.547 0-2.078.875-3.508 2.523-3.508 1.617 0 2.524 1.367 2.524 3.508s-.922 3.547-2.524 3.547zm16.205-2.656c.008 1.609-1.094 2.453-2.289 2.453-1.258 0-2.07-.883-2.078-2.297V401h-3.328v7.641c.008 2.804 1.648 4.515 4.062 4.515 1.805 0 3.102-.929 3.641-2.336h.125V413h3.195v-12h-3.328v6.891zm11.412 5.343c3.196 0 5.203-1.875 5.36-4.632h-3.141c-.195 1.281-1.039 2-2.18 2-1.554 0-2.562-1.305-2.562-3.602 0-2.266 1.016-3.563 2.562-3.563 1.219 0 2 .805 2.18 2.001h3.141c-.141-2.774-2.242-4.594-5.375-4.594-3.641 0-5.891 2.523-5.891 6.203 0 3.648 2.211 6.187 5.906 6.187zM473.817 401h-2.257v-2.875h-3.329V401h-1.64v2.5h1.64v6.25c-.015 2.352 1.586 3.516 4 3.414a6.481 6.481 0 001.805-.312l-.523-2.477c-.164.031-.516.109-.828.109-.664 0-1.125-.25-1.125-1.172V403.5h2.257V401zm-106.405 36c4.875 0 7.828-3.016 7.828-8.016 0-4.984-2.953-7.984-7.781-7.984h-5.719v16h5.672zm-2.289-2.898v-10.204h2.156c3 0 4.586 1.532 4.586 5.086 0 3.571-1.586 5.118-4.594 5.118h-2.148zm18.029 3.132c2.969 0 4.969-1.445 5.438-3.672l-3.078-.203c-.336.914-1.196 1.391-2.305 1.391-1.664 0-2.719-1.102-2.719-2.891v-.007h8.172v-.915c0-4.078-2.469-6.093-5.64-6.093-3.532 0-5.821 2.508-5.821 6.211 0 3.804 2.258 6.179 5.953 6.179zm-2.664-7.445c.071-1.367 1.11-2.461 2.586-2.461 1.446 0 2.446 1.031 2.453 2.461h-5.039zM401.676 425h-3.524l-2.484 8.586h-.125L393.051 425h-3.516l4.195 12h3.75l4.196-12zm6.763 12.234c2.969 0 4.969-1.445 5.438-3.672l-3.078-.203c-.336.914-1.195 1.391-2.305 1.391-1.664 0-2.719-1.102-2.719-2.891v-.007h8.172v-.915c0-4.078-2.468-6.093-5.64-6.093-3.532 0-5.821 2.508-5.821 6.211 0 3.804 2.258 6.179 5.953 6.179zm-2.664-7.445c.071-1.367 1.11-2.461 2.586-2.461 1.446 0 2.446 1.031 2.453 2.461h-5.039zM419.447 421h-3.328v16h3.328v-16zm8.088 16.234c3.641 0 5.906-2.492 5.906-6.187 0-3.719-2.265-6.203-5.906-6.203-3.64 0-5.906 2.484-5.906 6.203 0 3.695 2.266 6.187 5.906 6.187zm.016-2.578c-1.68 0-2.539-1.539-2.539-3.633 0-2.093.859-3.64 2.539-3.64 1.648 0 2.508 1.547 2.508 3.64 0 2.094-.86 3.633-2.508 3.633zm8.054 6.844h3.329v-6.422h.101c.461 1 1.469 2.117 3.406 2.117 2.735 0 4.868-2.164 4.868-6.179 0-4.125-2.227-6.172-4.86-6.172-2.008 0-2.969 1.195-3.414 2.172h-.148V425h-3.282v16.5zm3.258-10.5c0-2.141.907-3.508 2.524-3.508 1.648 0 2.523 1.43 2.523 3.508 0 2.094-.89 3.547-2.523 3.547-1.602 0-2.524-1.406-2.524-3.547zm10.664 6h3.328v-7.203c0-1.328.844-2.211 1.954-2.211 1.093 0 1.828.75 1.828 1.93V437h3.226v-7.328c0-1.242.711-2.086 1.922-2.086 1.063 0 1.86.664 1.86 2V437h3.32v-8.07c0-2.602-1.547-4.086-3.781-4.086-1.758 0-3.125.898-3.618 2.273h-.125c-.382-1.39-1.609-2.273-3.257-2.273-1.618 0-2.844.859-3.344 2.273h-.141V425h-3.172v12zm25.536.234c2.968 0 4.968-1.445 5.437-3.672l-3.078-.203c-.336.914-1.195 1.391-2.305 1.391-1.664 0-2.719-1.102-2.719-2.891v-.007h8.172v-.915c0-4.078-2.468-6.093-5.64-6.093-3.532 0-5.821 2.508-5.821 6.211 0 3.804 2.258 6.179 5.954 6.179zm-2.665-7.445c.071-1.367 1.11-2.461 2.586-2.461 1.446 0 2.446 1.031 2.454 2.461h-5.04zm13.672.274c.008-1.547.93-2.454 2.274-2.454 1.336 0 2.14.875 2.133 2.344V437h3.328v-7.641c0-2.797-1.641-4.515-4.141-4.515-1.781 0-3.07.875-3.609 2.273h-.141V425h-3.172v12h3.328v-6.937zM502.811 425h-2.258v-2.875h-3.328V425h-1.641v2.5h1.641v6.25c-.016 2.352 1.586 3.516 4 3.414a6.48 6.48 0 001.804-.312l-.523-2.477c-.164.031-.516.109-.828.109-.664 0-1.125-.25-1.125-1.172V427.5h2.258V425z" fill="#232323"/><g filter="url(#filter0_d)"><rect x="135" y="14" width="260" height="146" rx="15" fill="#618CFA"/><rect x="128" y="7" width="274" height="160" rx="22" stroke="#fff" stroke-width="14"/></g><path fill-rule="evenodd" clip-rule="evenodd" d="M178.174 64.992h-5.506v-3.244h14.7v3.244h-5.537v18.794h-3.657V64.992zm11.881-3.072h3.426v9.389a4.519 4.519 0 011.918-1.806c.82-.408 1.773-.612 2.862-.612 1.069 0 1.966.178 2.689.534.725.356 1.295.838 1.714 1.446a5.17 5.17 0 01.74 1.82c.136.67.203 1.508.203 2.511V83.9h-3.426v-7.566a9.38 9.38 0 00-.157-1.76c-.106-.543-.279-1.009-.521-1.397a2.664 2.664 0 00-.973-.926c-.409-.23-.918-.346-1.527-.346-1.195 0-2.08.424-2.656 1.272-.577.848-.866 1.9-.866 3.157V83.9h-3.426V61.92zm24.433 9.546c-1.069 0-1.961.304-2.673.911-.713.607-1.069 1.506-1.069 2.699h7.296c0-1.13-.33-2.014-.991-2.652-.66-.638-1.515-.958-2.563-.958zm-3.742 6.155c.041.523.137 1.014.283 1.475.147.46.372.862.676 1.208.305.347.696.618 1.18.818.481.198 1.079.298 1.792.298.985 0 1.698-.188 2.139-.565.44-.378.764-.828.974-1.35h3.458a5.097 5.097 0 01-.674 1.804 5.543 5.543 0 01-1.368 1.524 6.855 6.855 0 01-1.982 1.05c-.754.263-1.603.394-2.547.394-1.236 0-2.311-.2-3.223-.596-.912-.398-1.673-.944-2.28-1.633a6.81 6.81 0 01-1.368-2.45 9.712 9.712 0 01-.456-3.013c0-1.09.161-2.106.487-3.046a7.232 7.232 0 011.4-2.45 6.25 6.25 0 012.264-1.617c.9-.388 1.928-.582 3.082-.582a7.01 7.01 0 012.657.504c.828.334 1.551.8 2.17 1.396a6.47 6.47 0 011.447 2.088c.346.796.519 1.664.519 2.606 0 .251-.006.55-.016.895a8.73 8.73 0 01-.142 1.242h-10.472zm50.003 6.279h-7.704V70.242l-3.24 13.658h-5.88l-3.648-13.658V83.9h-7.705V61.92h10.755l3.491 13.126 3.491-13.125h10.44V83.9zm3.741 0h7.548V67.793h-7.548V83.9zm-.439-20.787c0-.564.105-1.082.313-1.553.21-.471.505-.875.882-1.209a4.184 4.184 0 011.32-.785 4.692 4.692 0 011.666-.283 4.96 4.96 0 011.7.283 4.11 4.11 0 011.351.785c.379.334.672.738.88 1.209.211.47.316.989.316 1.553 0 1.277-.398 2.23-1.196 2.857-.795.63-1.813.944-3.051.944a4.692 4.692 0 01-1.666-.285 4.128 4.128 0 01-1.32-.783 3.551 3.551 0 01-.882-1.193 3.7 3.7 0 01-.313-1.54zM275.623 83.9h7.547V61.922h-7.547v21.98zm11.132 0h7.548V61.922h-7.548v21.98zm11.133 0h7.548V67.793h-7.548V83.9zm-.44-20.787c0-.564.104-1.082.314-1.553.209-.471.503-.875.881-1.209a4.178 4.178 0 011.321-.785 4.68 4.68 0 011.666-.283 4.95 4.95 0 011.699.283c.523.188.974.451 1.352.785.377.334.67.738.88 1.209.209.47.315.989.315 1.553 0 1.277-.399 2.23-1.195 2.857-.796.63-1.814.944-3.051.944a4.68 4.68 0 01-1.666-.285 4.122 4.122 0 01-1.321-.783 3.522 3.522 0 01-.881-1.193 3.669 3.669 0 01-.314-1.54zm20.41 15.041c.67 0 1.211-.214 1.62-.644.408-.428.613-.979.613-1.647 0-.67-.205-1.22-.613-1.65-.409-.43-.95-.643-1.62-.643-.672 0-1.212.214-1.62.643-.408.43-.613.98-.613 1.65 0 .668.205 1.219.613 1.647.408.43.948.644 1.62.644m0 6.217c-1.594 0-2.999-.225-4.214-.675-1.216-.45-2.239-1.056-3.066-1.821a7.389 7.389 0 01-1.871-2.7 8.747 8.747 0 01-.629-3.312c0-1.193.21-2.31.629-3.345a7.387 7.387 0 011.871-2.7c.827-.764 1.85-1.372 3.066-1.822 1.215-.45 2.62-.675 4.214-.675 1.592 0 2.998.226 4.214.675 1.215.45 2.239 1.058 3.066 1.821a7.409 7.409 0 011.87 2.7 8.83 8.83 0 01.63 3.346c0 1.172-.21 2.275-.63 3.311a7.41 7.41 0 01-1.87 2.7c-.827.766-1.851 1.372-3.066 1.822-1.216.45-2.622.675-4.214.675m12.421-16.579h7.548v2.45c.377-.86 1.022-1.543 1.935-2.059.911-.51 2.047-.767 3.411-.767.819 0 1.572.11 2.264.33.694.22 1.248.517 1.667.894.692.65 1.142 1.454 1.354 2.418.209.963.314 2.072.314 3.328V83.9h-7.549v-8.1c0-1.467-.546-2.199-1.634-2.199-.567 0-1.002.194-1.305.581-.304.387-.457 1.073-.457 2.057V83.9h-7.548V67.792zm-148.37 30.789v8.602h1.195c.628 0 1.196-.114 1.697-.345.505-.23.934-.544 1.291-.941.356-.396.628-.859.818-1.383a4.781 4.781 0 00.281-1.631c0-.567-.093-1.11-.281-1.634a4.217 4.217 0 00-.818-1.382 3.893 3.893 0 00-1.291-.942c-.501-.23-1.069-.344-1.697-.344h-1.195zm1.919-6.69c1.824 0 3.448.305 4.874.911 1.425.608 2.636 1.413 3.633 2.42a10.088 10.088 0 012.264 3.5 11.46 11.46 0 01.77 4.161c0 1.443-.257 2.83-.77 4.16a10.28 10.28 0 01-2.234 3.501c-.974 1.005-2.18 1.81-3.616 2.417-1.436.608-3.077.912-4.921.912h-9.938V91.892h9.938zm23.02 16.235c.671 0 1.211-.214 1.62-.644.409-.428.613-.979.613-1.647 0-.671-.204-1.22-.613-1.65-.409-.429-.949-.643-1.62-.643-.672 0-1.212.214-1.619.643-.409.43-.614.979-.614 1.65 0 .668.205 1.219.614 1.647.407.43.947.644 1.619.644m0 6.217c-1.594 0-2.999-.225-4.214-.675-1.216-.45-2.238-1.056-3.066-1.821a7.4 7.4 0 01-1.871-2.701 8.744 8.744 0 01-.629-3.311c0-1.193.21-2.309.629-3.345a7.402 7.402 0 011.871-2.7c.828-.764 1.85-1.372 3.066-1.822 1.215-.45 2.62-.675 4.214-.675 1.593 0 2.998.226 4.214.675 1.215.45 2.239 1.058 3.067 1.822a7.42 7.42 0 011.869 2.7 8.803 8.803 0 01.631 3.345c0 1.172-.21 2.275-.631 3.311a7.418 7.418 0 01-1.869 2.701c-.828.765-1.852 1.371-3.067 1.821-1.216.45-2.621.675-4.214.675m12.421-.47h7.548v-21.98h-7.548v21.98zm11.132 0h7.548v-21.98h-7.548v21.98zm20.222-5.747c.649 0 1.183-.224 1.604-.675.418-.45.629-.989.629-1.616 0-.629-.211-1.167-.629-1.618-.421-.45-.955-.675-1.604-.675-.651 0-1.185.225-1.604.675-.42.451-.629.989-.629 1.618 0 .627.209 1.166.629 1.616.419.451.953.675 1.604.675zm9.78-10.362v16.108h-7.547v-2.48c-.106.294-.299.612-.582.957-.283.346-.641.66-1.07.942-.43.283-.916.518-1.462.707a5.369 5.369 0 01-1.761.282c-1.049 0-2.008-.192-2.877-.581a6.379 6.379 0 01-2.249-1.664c-.629-.722-1.122-1.607-1.478-2.653-.357-1.048-.535-2.229-.535-3.547 0-1.32.178-2.502.535-3.549.356-1.046.849-1.931 1.478-2.654a6.387 6.387 0 012.249-1.664c.869-.386 1.828-.58 2.877-.58.629 0 1.215.094 1.761.282a6.516 6.516 0 011.462.706c.429.283.787.597 1.07.942.283.346.476.666.582.958v-2.512h7.547zm17.612 6.72a13.073 13.073 0 00-1.227-.267 8.052 8.052 0 00-1.226-.078c-.525 0-1.028.062-1.51.188a3.014 3.014 0 00-1.289.706c-.378.346-.676.817-.896 1.413-.221.597-.331 1.378-.331 2.34v5.086h-7.549V97.764h7.549v2.575c.189-.377.431-.738.724-1.083s.639-.66 1.037-.942a5.111 5.111 0 013.019-.926c.378 0 .681.015.912.047.231.031.492.1.787.204v6.845zm13.96-9.357v6.971h9.089v3.233h-9.089v8.542h-3.615V91.892h12.704v3.235h-9.089zm27.047 4.113v14.633h-3.427v-2.043a4.491 4.491 0 01-1.919 1.807c-.817.408-1.771.612-2.862.612-1.069 0-1.965-.178-2.688-.533-.724-.356-1.295-.837-1.714-1.445a5.167 5.167 0 01-.739-1.821c-.138-.669-.205-1.507-.205-2.512V99.24h3.428v7.568c0 .628.052 1.213.157 1.758.105.544.278 1.009.519 1.397.242.387.566.697.975.927.408.229.916.344 1.525.344 1.195 0 2.082-.424 2.658-1.271.576-.847.865-1.899.865-3.155V99.24h3.427zm5.032 0h3.426v2.042a4.499 4.499 0 011.918-1.806c.82-.408 1.773-.614 2.862-.614 1.07 0 1.966.179 2.689.534.725.357 1.295.838 1.714 1.446.356.544.603 1.152.74 1.82.136.67.203 1.508.203 2.512v8.699h-3.426v-7.568a9.37 9.37 0 00-.157-1.758c-.106-.544-.279-1.009-.521-1.399a2.666 2.666 0 00-.973-.924c-.409-.23-.918-.346-1.527-.346-1.195 0-2.08.424-2.656 1.27-.577.85-.866 1.9-.866 3.157v7.568h-3.426V99.241zm24.937 11.963a4.13 4.13 0 001.777-.376 4.267 4.267 0 001.368-1.005c.379-.42.672-.911.88-1.476.21-.565.315-1.162.315-1.79 0-.628-.105-1.224-.315-1.789a4.461 4.461 0 00-.88-1.476 4.252 4.252 0 00-1.368-1.005 4.131 4.131 0 00-1.777-.377 4.02 4.02 0 00-1.76.377 4.29 4.29 0 00-1.353 1.005c-.376.418-.667.91-.864 1.476a5.32 5.32 0 00-.299 1.789c0 .628.099 1.225.299 1.79.197.565.488 1.056.864 1.476.377.418.827.753 1.353 1.005.523.251 1.111.376 1.76.376zm4.34.69c-.46.733-1.115 1.309-1.966 1.728-.849.418-1.702.628-2.563.628-1.11 0-2.127-.204-3.05-.612a7.16 7.16 0 01-2.375-1.68 7.864 7.864 0 01-1.541-2.449 7.896 7.896 0 01-.55-2.952 7.938 7.938 0 012.091-5.4 7.164 7.164 0 012.375-1.68c.923-.408 1.94-.612 3.05-.612.861 0 1.714.21 2.563.627.851.42 1.506.994 1.966 1.727v-9.325h3.429v21.979h-3.429v-1.979z" fill="#fff"/><mask id="a" maskUnits="userSpaceOnUse" x="393" y="176" width="61" height="92"><path fill-rule="evenodd" clip-rule="evenodd" d="M393.452 186.75l23.204 80.922 36.972-10.602-23.204-80.922-36.972 10.602z" fill="#fff"/></mask><g mask="url(#a)"><path fill-rule="evenodd" clip-rule="evenodd" d="M448.579 256.716c-5.071-10.59-8.865-21.684-14.352-32.128-5.156-9.816-11.195-18.978-17.02-28.373-2.049-.315-4.097-.807-6.101-1.415 1.014 2.451 1.754 4.991 1.937 7.642 5.677 6.858 10.191 15.121 14.43 22.744 5.094 9.159 9.917 18.777 13.434 28.667 1.027 2.892-3.399 4.029-4.53 1.299-4.053-9.775-7.914-19.533-12.759-28.963-3.307-6.435-7.317-12.539-10.933-18.817-.702 3.753-2.169 7.367-2.79 11.184-.706 4.35-7.306 3.251-7.465-.888-.163-4.279 2.044-7.768 2.728-11.884.979-5.892-2.305-11.234-5.169-16.13-1.902-3.249 1.673-6.78 4.955-5.153 7.915 3.924 16.184 4.352 24.314 7.203 1.81.634 1.915 3.041.052 3.71-2.686.962-5.559 1.281-8.484 1.161 6.449 8.004 11.988 16.933 17.005 25.818 5.725 10.135 11.921 21.153 15.143 32.396.723 2.526-3.188 4.447-4.395 1.927" fill="#618CFA"/></g><mask id="b" maskUnits="userSpaceOnUse" x="75" y="176" width="61" height="92"><path fill-rule="evenodd" clip-rule="evenodd" d="M135.918 186.75l-23.203 80.922-36.973-10.602 23.204-80.922 36.972 10.602z" fill="#fff"/></mask><g mask="url(#b)"><path fill-rule="evenodd" clip-rule="evenodd" d="M80.79 256.716c5.072-10.59 8.866-21.684 14.353-32.128 5.156-9.816 11.195-18.978 17.02-28.373 2.049-.315 4.097-.807 6.101-1.415-1.014 2.451-1.754 4.991-1.937 7.642-5.677 6.858-10.19 15.121-14.43 22.744-5.094 9.159-9.917 18.777-13.434 28.667-1.027 2.892 3.399 4.029 4.53 1.299 4.053-9.775 7.914-19.533 12.759-28.963 3.308-6.435 7.317-12.539 10.933-18.817.702 3.753 2.169 7.367 2.79 11.184.706 4.35 7.306 3.251 7.465-.888.163-4.279-2.044-7.768-2.728-11.884-.979-5.892 2.305-11.234 5.17-16.13 1.901-3.249-1.674-6.78-4.956-5.153-7.915 3.924-16.184 4.352-24.314 7.203-1.81.634-1.915 3.041-.052 3.71 2.686.962 5.559 1.281 8.484 1.161-6.449 8.004-11.987 16.933-17.005 25.818-5.725 10.135-11.92 21.153-15.143 32.396-.723 2.526 3.188 4.447 4.395 1.927" fill="#618CFA"/></g><g filter="url(#filter1_d)"><circle cx="98" cy="307" r="70" fill="#fff"/></g><g filter="url(#filter2_d)"><circle cx="432" cy="307" r="70" fill="#fff"/></g><g filter="url(#filter3_d)"><circle cx="265" cy="468" r="70" fill="#fff"/></g><path fill-rule="evenodd" clip-rule="evenodd" d="M120.835 291.618c.093.376.14.761.139 1.148 0 2.331-1.683 4.326-3.994 4.736v.03c0 10.435-8.52 18.894-19.03 18.894-10.51 0-19.03-8.459-19.03-18.894v-.028c-2.314-.407-4.002-2.404-4.004-4.738 0-.387.046-.772.14-1.148a3.638 3.638 0 013.262-2.759l.023-.005c.105.445.402.821.811 1.028 0 0 2.825 1.124 2.846.849l.671-8.319a.775.775 0 01.86-.709l3.125.333c6.617.707 13.103-2.19 16.959-7.575l1.861.08a7.914 7.914 0 016.93 4.773l2.973 12.173 1.603-1.486c.325-.3.537-.703.598-1.14h.007a3.639 3.639 0 013.25 2.757" fill="#F2F5F7"/><mask id="c" maskUnits="userSpaceOnUse" x="100" y="323" width="25" height="27"><path fill-rule="evenodd" clip-rule="evenodd" d="M100.217 323.664H124v25.486h-23.783v-25.486z" fill="#fff"/></mask><g mask="url(#c)"><path fill-rule="evenodd" clip-rule="evenodd" d="M118.424 326.782l-.028-.009-8.677-3.109h-.009v.03l-5.855 7.752-3.638-2.409 3.758 20.113H124v-14.191a10.076 10.076 0 00-5.576-8.177" fill="#618CFA"/></g><path fill-rule="evenodd" clip-rule="evenodd" d="M97.953 261c11.118 0 20.132 8.949 20.131 19.988 0 .46-.016.919-.047 1.377l-.442 6.355a.969.969 0 01-.017.141c-.061.437-.272.84-.598 1.14l-1.603 1.486-2.973-12.173a7.911 7.911 0 00-6.93-4.773l-1.86-.08c-3.857 5.385-10.343 8.282-16.96 7.576l-3.124-.334a.775.775 0 00-.858.682l-.003.027-.67 8.319c-.022.275-2.847-.849-2.847-.849a1.55 1.55 0 01-.85-1.282l-.436-6.235a19.9 19.9 0 01-.05-1.399C77.833 269.935 86.843 261 97.954 261" fill="#242424"/><path fill-rule="evenodd" clip-rule="evenodd" d="M104.415 323.323l5.294-3.503v3.874l-5.854 7.751-3.638-2.407v-.003L98 327.569l6.415-4.246z" fill="#B1C0FA"/><path fill-rule="evenodd" clip-rule="evenodd" d="M109.71 319.82l-5.295 3.503v-5.669l5.295 2.166z" fill="#618CFA"/><path fill-rule="evenodd" clip-rule="evenodd" d="M104.415 317.653v5.67L98 327.569l-6.398-4.234v-7.916l.02-.063a19.253 19.253 0 0012.793-.047v2.344z" fill="#F2F5F7"/><mask id="d" maskUnits="userSpaceOnUse" x="92" y="327" width="13" height="31"><path fill-rule="evenodd" clip-rule="evenodd" d="M92.306 327.569h11.71v29.553h-11.71v-29.553z" fill="#fff"/></mask><g mask="url(#d)"><path fill-rule="evenodd" clip-rule="evenodd" d="M103.975 349.149l.041.221-5.855 7.752-5.855-7.752.04-.221h.003l3.81-20.36v-.002L98 327.569l2.217 1.466v.003l3.758 20.111z" fill="#F5B325"/></g><path fill-rule="evenodd" clip-rule="evenodd" d="M91.602 323.335L98 327.569l-1.841 1.217v.003l-4.014 2.657-5.855-7.752v-3.874l5.312 3.515z" fill="#B1C0FA"/><path fill-rule="evenodd" clip-rule="evenodd" d="M91.602 317.628v5.707l-5.312-3.515v-.019l5.312-2.173zm.543 13.818l-5.855-7.752v-.028h-.016l-8.625 3.091-.073.026A10.076 10.076 0 0072 334.959v14.19h20.349l3.81-20.36-4.014 2.657z" fill="#618CFA"/><path d="M238.478 495.559h60.339c2.38 0 4.31-1.941 4.31-4.334v-21.668h-64.649v26.002z" fill="#303539"/><path d="M287.324 450.779a1.44 1.44 0 01-1.437-1.445v-10.111c0-2.394-1.93-4.334-4.31-4.334h-14.366c-2.381 0-4.31 1.94-4.31 4.334v10.111c0 .798-.644 1.445-1.437 1.445a1.441 1.441 0 01-1.437-1.445v-10.111c.005-3.987 3.218-7.218 7.184-7.223h14.366c3.965.005 7.179 3.236 7.183 7.223v10.111a1.44 1.44 0 01-1.436 1.445z" fill="#95A5A5"/><path d="M242.787 446.445h60.339a2.891 2.891 0 012.874 2.889v20.223a2.89 2.89 0 01-2.874 2.889h-61.775l1.436-26.001z" fill="#3A3F42"/><path d="M283.014 472.446h11.493v4.334a2.881 2.881 0 01-2.873 2.889h-5.747a2.88 2.88 0 01-2.873-2.889v-4.334z" fill="#F6B324"/><path d="M297.38 465.224v7.222h-14.366v-7.222a2.889 2.889 0 012.873-2.889h8.62a2.89 2.89 0 012.873 2.889z" fill="#F0C419"/><path d="M262.901 479.669h-5.747a2.88 2.88 0 01-2.873-2.889v-4.334h11.493v4.334a2.88 2.88 0 01-2.873 2.889z" fill="#F6B324"/><path d="M265.774 465.224v7.222h-14.367v-7.222a2.89 2.89 0 012.874-2.889h8.619a2.89 2.89 0 012.874 2.889z" fill="#F0C419"/><path d="M291.634 468.113v4.333h-2.874v-4.333a1.44 1.44 0 011.437-1.445c.793 0 1.437.647 1.437 1.445zm-31.607 0v4.333h-2.873v-4.333a1.44 1.44 0 011.436-1.445 1.44 1.44 0 011.437 1.445z" fill="#F29C1F"/><path d="M297.38 491.225h-4.31a1.441 1.441 0 01-1.437-1.444c0-.798.644-1.445 1.437-1.445h2.873v-2.889a1.44 1.44 0 011.437-1.444 1.44 1.44 0 011.437 1.444v4.334c0 .797-.644 1.444-1.437 1.444z" fill="#fff"/><path d="M244.813 453.075l8.848 34.306a4.35 4.35 0 01-1.123 4.152l-11.013 11.073a4.294 4.294 0 01-6.095 0l-11.082-11.143a4.347 4.347 0 01-1.161-4.005l7.849-35.495 13.777 1.112z" fill="#07375F"/><path d="M252.542 491.528l-11.019 11.08a4.293 4.293 0 01-6.091 0l-2.701-2.716 19.179-19.284 1.753 6.775a4.329 4.329 0 01-1.121 4.145zm-2.988-20.107l-22.57 22.693-2.643-2.658a4.325 4.325 0 01-1.149-4.001l.301-1.387 23.691-23.82 2.37 9.173zm-4.741-18.346l-18.03 18.129 4.253-19.241 13.777 1.112z" fill="#B5C1FB"/><path d="M250.804 441.202l-.704 5.705a2.949 2.949 0 01-.834 1.69l-10.789 10.849-10.789-10.849a2.953 2.953 0 01-.833-1.69l-.704-5.705a3.421 3.421 0 01-.029-.535c0-2.393 1.93-4.333 4.31-4.333h16.091a4.296 4.296 0 013.232 1.462 4.354 4.354 0 011.049 3.406z" fill="#628CFA"/><path d="M467.217 279.471h-70.599a3.498 3.498 0 00-3.499 3.493v48.423h28.006a1.59 1.59 0 001.6 1.598h18.368c.891 0 1.601-.709 1.601-1.598h28.022v-48.423a3.498 3.498 0 00-3.499-3.493z" fill="#B2C1FA"/><path fill="#fff" d="M398.697 285.056h66.424v40.762h-66.424z"/><path d="M442.71 331.387c0 .889-.726 1.598-1.6 1.598h-18.368a1.601 1.601 0 01-1.601-1.598H390v3.344a5.123 5.123 0 005.132 5.124h73.587a5.122 5.122 0 005.132-5.124v-3.344H442.71z" fill="#628CFB"/><path d="M431.811 268.008c-8.851.264-16.119 7.826-16.066 16.71a16.612 16.612 0 004.47 11.228c2.991 3.19 4.839 7.279 4.839 11.651v.934h14.553v-.934c0-4.231 1.601-8.32 4.557-11.352a16.52 16.52 0 004.752-11.616c-.018-9.359-7.708-16.903-17.105-16.621z" fill="#F5B324"/><path d="M439.446 315.78H425.38a.234.234 0 01-.229-.229v-7.185h14.523v7.185c-.018.123-.105.229-.228.229z" fill="#608BFE"/><path d="M428.782 315.945c0 .121.018.226.018.33.178 1.665 1.622 2.965 3.369 2.965h.339a3.34 3.34 0 002.389-.971c.517-.52.892-1.214.963-1.994.018-.104.018-.209.018-.33h-7.096z" fill="#F5B324"/><path d="M439.382 293.004a.998.998 0 00-1.407 0l-5.646 5.645-5.645-5.645a.998.998 0 00-1.407 0 .998.998 0 000 1.407l6.067 6.066v8.054h1.987v-8.054l6.068-6.066a1.016 1.016 0 00-.017-1.407z" fill="#fff"/><mask id="e" maskUnits="userSpaceOnUse" x="222" y="242" width="84" height="137"><path fill-rule="evenodd" clip-rule="evenodd" d="M248.753 242.154l-26.404 124.225 56.732 12.059 26.405-124.225-56.733-12.059z" fill="#fff"/></mask><g mask="url(#e)"><path fill-rule="evenodd" clip-rule="evenodd" d="M272.61 374.391c.746-17.697 3.551-35.162 3.64-52.959.085-16.727-1.468-33.208-2.57-49.847-2.505-1.871-4.884-3.976-7.121-6.205-.386 3.982-1.2 7.89-2.833 11.551 2.703 13.156 2.861 27.358 3.109 40.514.296 15.808-.093 32.036-2.413 47.699-.681 4.581-7.378 2.96-6.952-1.477 1.525-15.891 3.295-31.623 3.521-47.616.153-10.914-.863-21.883-1.232-32.807-3.593 4.502-8.104 8.278-11.634 12.923-4.021 5.294-12.03-.843-9.31-6.47 2.812-5.814 8.222-8.899 12.046-13.898 5.476-7.155 4.886-16.597 4.539-25.147-.231-5.674 7.029-7.846 10.247-3.355 7.759 10.832 18.465 17.258 27.272 26.812 1.96 2.127.397 5.407-2.558 4.979-4.257-.62-8.308-2.23-12.118-4.461 2.919 15.228 3.97 31.045 4.36 46.432.445 17.555.893 36.62-2.777 53.877-.826 3.877-7.393 3.667-7.216-.545" fill="#618CFA"/></g><defs><filter id="filter0_d" x="100" y="0" width="330" height="224" filterUnits="userSpaceOnUse" color-interpolation-filters="sRGB"><feFlood flood-opacity="0" result="BackgroundImageFix"/><feColorMatrix in="SourceAlpha" values="0 0 0 0 0 0 0 0 0 0 0 0 0 0 0 0 0 0 127 0"/><feOffset dy="29"/><feGaussianBlur stdDeviation="10.5"/><feColorMatrix values="0 0 0 0 0 0 0 0 0 0 0 0 0 0 0 0 0 0 0.0662424 0"/><feBlend in2="BackgroundImageFix" result="effect1_dropShadow"/><feBlend in="SourceGraphic" in2="effect1_dropShadow" result="shape"/></filter><filter id="filter1_d" x="7" y="237" width="182" height="190" filterUnits="userSpaceOnUse" color-interpolation-filters="sRGB"><feFlood flood-opacity="0" result="BackgroundImageFix"/><feColorMatrix in="SourceAlpha" values="0 0 0 0 0 0 0 0 0 0 0 0 0 0 0 0 0 0 127 0"/><feOffset dy="29"/><feGaussianBlur stdDeviation="10.5"/><feColorMatrix values="0 0 0 0 0 0 0 0 0 0 0 0 0 0 0 0 0 0 0.0662424 0"/><feBlend in2="BackgroundImageFix" result="effect1_dropShadow"/><feBlend in="SourceGraphic" in2="effect1_dropShadow" result="shape"/></filter><filter id="filter2_d" x="341" y="237" width="182" height="190" filterUnits="userSpaceOnUse" color-interpolation-filters="sRGB"><feFlood flood-opacity="0" result="BackgroundImageFix"/><feColorMatrix in="SourceAlpha" values="0 0 0 0 0 0 0 0 0 0 0 0 0 0 0 0 0 0 127 0"/><feOffset dy="29"/><feGaussianBlur stdDeviation="10.5"/><feColorMatrix values="0 0 0 0 0 0 0 0 0 0 0 0 0 0 0 0 0 0 0.0662424 0"/><feBlend in2="BackgroundImageFix" result="effect1_dropShadow"/><feBlend in="SourceGraphic" in2="effect1_dropShadow" result="shape"/></filter><filter id="filter3_d" x="174" y="398" width="182" height="190" filterUnits="userSpaceOnUse" color-interpolation-filters="sRGB"><feFlood flood-opacity="0" result="BackgroundImageFix"/><feColorMatrix in="SourceAlpha" values="0 0 0 0 0 0 0 0 0 0 0 0 0 0 0 0 0 0 127 0"/><feOffset dy="29"/><feGaussianBlur stdDeviation="10.5"/><feColorMatrix values="0 0 0 0 0 0 0 0 0 0 0 0 0 0 0 0 0 0 0.0662424 0"/><feBlend in2="BackgroundImageFix" result="effect1_dropShadow"/><feBlend in="SourceGraphic" in2="effect1_dropShadow" result="shape"/></filter></defs></svg>