<svg version="1.1" id="Слой_1" xmlns="http://www.w3.org/2000/svg" x="0" y="0" viewBox="0 0 116 116" xml:space="preserve" enable-background="new 0 0 116 116"><style>.st3{fill:#f2f5f7}.st5{fill:#fff}.st8{fill:#b1c0fa}.st9{fill:#618cfa}</style><filter filterUnits="objectBoundingBox" height="203.8%" id="uukz7n91za" width="196.2%" x="-48.1%" y="-28.3%"><feMorphology in="SourceAlpha" operator="dilate" radius="5" result="shadowSpreadOuter1"/><feOffset dy="29" in="shadowSpreadOuter1" result="shadowOffsetOuter1"/><feGaussianBlur in="shadowOffsetOuter1" result="shadowBlurOuter1" stdDeviation="10.5"/><feComposite in="shadowBlurOuter1" in2="SourceAlpha" operator="out" result="shadowBlurOuter1"/><feColorMatrix in="shadowBlurOuter1" values="0 0 0 0 0 0 0 0 0 0 0 0 0 0 0 0 0 0 0.0662423514 0"/></filter><circle cx="32" cy="53" r="55.5" fill="#dde6fc" stroke="#fff" stroke-width="5" transform="translate(26 5)"/><path class="st3" d="M78.3 42.5c.1.3.1.7.1 1 0 2-1.5 3.7-3.5 4.1 0 9-7.4 16.4-16.5 16.4S42 56.7 42 47.6c-2-.4-3.5-2.1-3.5-4.1 0-.3 0-.7.1-1 .3-1.3 1.5-2.3 2.8-2.4.1.4.3.7.7.9 0 0 2.4 1 2.5.7l.6-7.2c0-.4.4-.6.7-.6l2.7.3c5.7.6 11.3-1.9 14.7-6.6l1.6.1c2.6.1 5 1.7 6 4.1l2.6 10.5 1.4-1.3c.3-.3.5-.6.5-1 1.4.2 2.5 1.2 2.9 2.5"/><g transform="translate(81.34 70.178)"><defs><filter id="Adobe_OpacityMaskFilter" filterUnits="userSpaceOnUse" x="-20.9" y=".1" width="20.6" height="22.1"><feColorMatrix values="1 0 0 0 0 0 1 0 0 0 0 0 1 0 0 0 0 0 1 0"/></filter></defs><mask maskUnits="userSpaceOnUse" x="-20.9" y=".1" width="20.6" height="22.1" id="_x38_szx744lxd_1_"><g filter="url(#Adobe_OpacityMaskFilter)"><path id="oemb9klzec_1_" class="st5" d="M-20.9.1H-.3v22.1h-20.6V.1z"/></g></mask><path d="M-5.2 2.8L-12.7.1l-5.1 6.7-3.1-2.1 3.3 17.4H-.3V9.9c-.3-3.1-2.1-5.7-4.9-7.1" mask="url(#_x38_szx744lxd_1_)" fill="#618cfa"/></g><path d="M58.5 16c9.6 0 17.4 7.8 17.4 17.3v1.2l-.4 5.5v.1c-.1.4-.2.7-.5 1l-1.4 1.3L71 31.9c-1-2.4-3.4-4-6-4.1l-1.6-.1c-3.3 4.7-9 7.2-14.7 6.6l-2.7-.4c-.4 0-.7.2-.7.6l-.6 7.2c0 .2-2.5-.7-2.5-.7-.4-.2-.6-.5-.7-.9v-.2l-.4-5.4v-1.2C41 23.7 48.8 16 58.5 16" fill="#242424"/><path class="st8" d="M64.1 70l4.6-3v3.3L63.6 77l-3.1-2.1-1.9-1.3 5.5-3.6z"/><path class="st9" d="M68.6 66.9l-4.6 3V65l4.6 1.9z"/><path class="st3" d="M64.1 65.1V70l-5.6 3.7L53 70v-7c3.6 1.3 7.5 1.2 11.1 0v2.1z"/><g transform="translate(74.386 73.633)"><defs><filter id="Adobe_OpacityMaskFilter_1_" filterUnits="userSpaceOnUse" x="-20.8" y="0" width="10.1" height="25.6"><feColorMatrix values="1 0 0 0 0 0 1 0 0 0 0 0 1 0 0 0 0 0 1 0"/></filter></defs><mask maskUnits="userSpaceOnUse" x="-20.8" y="0" width="10.1" height="25.6" id="hugselz0qf_1_"><g filter="url(#Adobe_OpacityMaskFilter_1_)"><path id="_x37_ybg1wvf6e_1_" class="st5" d="M-20.8 0h10.1v25.6h-10.1V0z"/></g></mask><path d="M-10.7 18.7v.2l-5.1 6.7-5.1-6.7v-.2l3.3-17.6L-16 0l1.9 1.3 3.4 17.4z" mask="url(#hugselz0qf_1_)" fill="#f5b325"/></g><path class="st8" d="M53 70l5.5 3.7-1.6 1.1-3.5 2.2-5.1-6.7V67l4.7 3z"/><path class="st9" d="M53 65v5l-4.6-3 4.6-2zm.4 12l-5.1-6.7-7.5 2.7h-.1c-2.7 1.4-4.6 4-4.8 7.1v12.3h17.6l3.3-17.6c.1-.1-3.4 2.2-3.4 2.2z"/></svg>