<svg version="1.1" id="Слой_1" xmlns="http://www.w3.org/2000/svg" x="0" y="0" viewBox="0 0 116 116" xml:space="preserve" enable-background="new 0 0 116 116"><style>.st3{fill:#618cfa}.st4{fill:#f5b325}.st6{fill:#e88604}</style><filter filterUnits="objectBoundingBox" height="203.8%" id="xgpe3igaca" width="196.2%" x="-48.1%" y="-28.3%"><feMorphology in="SourceAlpha" operator="dilate" radius="5" result="shadowSpreadOuter1"/><feOffset dy="29" in="shadowSpreadOuter1" result="shadowOffsetOuter1"/><feGaussianBlur in="shadowOffsetOuter1" result="shadowBlurOuter1" stdDeviation="10.5"/><feComposite in="shadowBlurOuter1" in2="SourceAlpha" operator="out" result="shadowBlurOuter1"/><feColorMatrix in="shadowBlurOuter1" values="0 0 0 0 0 0 0 0 0 0 0 0 0 0 0 0 0 0 0.0662423514 0"/></filter><circle cx="32" cy="53" r="55.5" fill="#dde6fc" stroke="#fff" stroke-width="5" transform="translate(26 5)"/><g transform="translate(48 15)"><path class="st3" d="M28.5 29.5H25c-6.4 0-11.7 4.8-12.3 11.1l-.2 2.2H16c6.4 0 11.7-4.8 12.3-11.1l.2-2.2z"/><path class="st4" d="M9.8 49.5L13.1 21h1.3l3.3 28.5H9.8z"/><path class="st3" d="M-3.6 26.8h3.5c6.4 0 11.7 4.8 12.3 11.1l.2 2.2H8.9C2.6 40.2-2.8 35.3-3.4 29l-.2-2.2z"/><path d="M27.1 13.4c0 .5 0 .9-.1 1.3-.2 2.3-1.1 4.6-2.5 6.5-.8 1.2-1.9 2.2-3 3-1.9 1.4-4.1 2.2-6.5 2.5-.4 0-.9.1-1.3.1-.5 0-.9 0-1.3-.1-2.3-.2-4.6-1.1-6.5-2.5-1.2-.8-2.2-1.9-3-3C1.5 19.3.7 17.1.4 14.7c0-.4-.1-.9-.1-1.3 0-.5 0-.9.1-1.3.2-2.3 1.1-4.6 2.5-6.5.8-1.2 1.9-2.2 3-3C7.8 1.2 10 .4 12.4.1c.5-.1.9-.1 1.4-.1.5 0 .9 0 1.3.1 2.3.2 4.6 1.1 6.5 2.5 1.2.8 2.2 1.9 3 3 1.4 1.9 2.2 4.1 2.5 6.5v1.3z" fill="#eebe33"/><path class="st6" d="M15.1 19.5v7.2c-.4 0-.9.1-1.3.1-.5 0-.9 0-1.3-.1v-7.2h2.6zm6.5 4.8c-.7.5-1.5 1-2.3 1.3l-3.6-6.3L18 18l3.6 6.3zm4.4-5.4c-.4.8-.8 1.6-1.3 2.3l-6.3-3.6 1.3-2.3 6.3 3.6zm1.1-5.5c0 .5 0 .9-.1 1.3h-7.2V12H27c.1.5.1.9.1 1.4zM26 7.9l-6.3 3.6-1.3-2.3 6.3-3.6c.5.7.9 1.5 1.3 2.3zm-4.4-5.4L18 8.8l-2.3-1.3 3.6-6.3c.8.3 1.6.8 2.3 1.3zM15.1.1v7.2h-2.7V.1c.5-.1.9-.1 1.4-.1s.9 0 1.3.1zm-3.2 7.3L9.6 8.8 6 2.5c.7-.5 1.5-1 2.3-1.3l3.6 6.2zM9.2 9.2l-1.3 2.3-6.3-3.6c.4-.8.8-1.6 1.3-2.3l6.3 3.6zm-1.5 2.9v2.7H.5c0-.4-.1-.9-.1-1.3 0-.5 0-.9.1-1.3l7.2-.1zm1.5 5.5l-6.3 3.6c-.5-.7-1-1.5-1.3-2.3l6.3-3.6 1.3 2.3zm2.7 1.7l-3.6 6.3c-.8-.4-1.6-.8-2.3-1.3L9.6 18l2.3 1.3z"/><circle cx="13.8" cy="13.4" fill="#eedc9a" r="9.4"/><path class="st6" d="M17.8 12.1v-1c0-1.5-1.2-2.8-2.7-3V6.7h-2.7v1.4c-1.3.1-2.4 1.1-2.6 2.4-.2 1.3.4 2.6 1.6 3.2l3.5 1.8c.1.1.2.2.2.4 0 .1-.2.2-.3.2h-2c-.2 0-.3-.1-.3-.3v-1H9.8v1c0 1.5 1.2 2.8 2.7 3v1.4h2.7v-1.4c1.3-.1 2.4-1.1 2.6-2.4.2-1.3-.4-2.6-1.6-3.2l-3.5-1.8c-.1-.1-.2-.2-.2-.4 0-.1.2-.2.3-.2h2c.2 0 .3.1.3.3v1h2.7z"/><path class="st4" d="M27.1 60.3v1.3H.4v-1.3l.4-1.6c1.4-6.1 6.8-10.5 13-10.5 6.3 0 11.7 4.3 13 10.5l.3 1.6z"/><path d="M40.5 54.9L27.1 68.3h-16L4.4 75-5 65.6l4.9-4.9c2-2 4.7-3.1 7.6-3.1h2.3l1.3-1.3c3-3 7.7-3 10.7 0l-4 4h6.7l5.3-5.4c3-3 7.8-3 10.7 0z" fill="#f2f5f7"/><path d="M21.6 60.3l-6.3 6.3c-.3.3-.6.4-.9.4H9.8v-2.7h4l4-4h3.8z" fill="#b1c0fa"/><path class="st3" d="M3.1 79l4-4L-5 62.9-21 79H3.1z"/><circle class="st4" cx=".4" cy="75" r="1.3"/></g></svg>