<svg version="1.1" id="Слой_1" xmlns="http://www.w3.org/2000/svg" x="0" y="0" viewBox="0 0 116 116" xml:space="preserve"><style>.st2{fill:#b1c0fa}.st3{fill:#618cfa}</style><g transform="translate(26 5)"><circle id="gkxgtjznfb" cx="32" cy="53" r="53"/><circle cx="32" cy="53" r="55.5" fill="#dde6fc" stroke="#fff" stroke-width="5"/></g><g transform="translate(49 28)"><path d="M10 32h2v21h-2V32zM31.1 6.1l1.6 1.6L15.5 25l-1.6-1.6L31.1 6.1zm-23 23l1.6 1.6-23 23-1.6-1.6 23-23zM-5.2 9.5L7.4 22.2l-1.6 1.6-12.7-12.6 1.7-1.7zm19.5 19.6l17.3 17.3L30 48 12.7 30.7l1.6-1.6z" fill="#242424"/><circle class="st2" cx="34" cy="6" r="6"/><circle class="st3" cx="11" cy="55" r="6"/><circle class="st2" cx="-15" cy="53" r="6"/><circle class="st3" cx="-7.5" cy="9.5" r="3.5"/><circle class="st3" cx="29.5" cy="46.5" r="3.5"/><circle cx="11" cy="28" r="8" fill="#f5b325"/></g></svg>