<svg xmlns="http://www.w3.org/2000/svg" xmlns:xlink="http://www.w3.org/1999/xlink" width="1354" height="690"><defs><rect id="a" width="1354" height="690" x="0" y="0" rx="20"/></defs><g fill="none" fill-rule="evenodd"><mask id="b" fill="#fff"><use xlink:href="#a"/></mask><use fill="#F2F5F7" xlink:href="#a"/><g mask="url(#b)"><path fill="#FFF" d="M1040 353v179h20.845V373.838H1394V353z"/><path fill="#FFBA27" d="M1228.534 320H1191c0-110.832 90.169-201 201-201v37.535c-90.134 0-163.466 73.33-163.466 163.465M1078 498h314V386h-314z"/><path fill="#618CFA" d="M1280 386.5c0 61.58 50.144 111.5 112 111.5V275c-61.856 0-112 49.92-112 111.5m-142 228.815C1123.563 561.017 1074.028 521 1015.13 521h-.001C944.919 521 888 577.86 888 648v127h174.277v-79.899c0-42.7 33.53-77.574 75.723-79.786"/><path fill="#FFF" d="M1142.246 616c-1.424 0-2.84.04-4.246.114a126.114 126.114 0 014.246 32.522V775H1222v-79.5c0-43.906-35.707-79.5-79.754-79.5"/><path fill="#747D78" d="M1137.741 616c-42.203 2.202-75.741 36.926-75.741 79.444V775h80V648.545c0-11.253-1.485-22.16-4.259-32.545"/><path fill="#FFBA27" d="M1137.741 616c-42.203 2.202-75.741 36.926-75.741 79.444V775h80V648.545c0-11.253-1.485-22.16-4.259-32.545"/><path fill="#618CFA" d="M1178 162.79c-49.745 0-90.216 40.535-90.216 90.36v330.7c0 49.824 40.471 90.36 90.215 90.36 49.746 0 90.217-40.536 90.217-90.36v-330.7c0-49.825-40.471-90.36-90.217-90.36M1178 678c-51.83 0-94-42.236-94-94.15v-330.7c0-51.912 42.169-94.15 94-94.15s94 42.237 94 94.15v330.7c0 51.914-42.169 94.15-94 94.15"/><path fill="#618CFA" d="M1259 255.5c0 45.565-36.936 82.5-82.5 82.5s-82.5-36.935-82.5-82.5c0-45.563 36.936-82.5 82.5-82.5s82.5 36.937 82.5 82.5"/><path fill="#FFF" d="M1211 235.5c0 26.786-21.714 48.5-48.5 48.5s-48.5-21.714-48.5-48.5 21.714-48.5 48.5-48.5 48.5 21.714 48.5 48.5M314 353v179h-20.845V373.838H-40V353z"/><path fill="#FFBA27" d="M125.466 320H163c0-110.832-90.169-201-201-201v37.535c90.134 0 163.466 73.33 163.466 163.465M276 498H-38V386h314z"/><path fill="#618CFA" d="M74 386.5C74 448.08 23.856 498-38 498V275c61.856 0 112 49.92 112 111.5m142 228.815C230.437 561.017 279.972 521 338.87 521h.001C409.081 521 466 577.86 466 648v127H291.723v-79.899c0-42.7-33.53-77.574-75.723-79.786"/><path fill="#FFF" d="M211.754 616c1.424 0 2.84.04 4.246.114a126.114 126.114 0 00-4.246 32.522V775H132v-79.5c0-43.906 35.707-79.5 79.754-79.5"/><path fill="#747D78" d="M216.259 616C258.462 618.202 292 652.926 292 695.444V775h-80V648.545c0-11.253 1.485-22.16 4.259-32.545"/><path fill="#FFBA27" d="M216.259 616C258.462 618.202 292 652.926 292 695.444V775h-80V648.545c0-11.253 1.485-22.16 4.259-32.545"/><path fill="#618CFA" d="M176 162.79c49.745 0 90.216 40.535 90.216 90.36v330.7c0 49.824-40.471 90.36-90.215 90.36-49.746 0-90.217-40.536-90.217-90.36v-330.7c0-49.825 40.471-90.36 90.217-90.36M176 678c51.83 0 94-42.236 94-94.15v-330.7c0-51.912-42.169-94.15-94-94.15s-94 42.237-94 94.15v330.7c0 51.914 42.169 94.15 94 94.15"/><path fill="#618CFA" d="M95 255.5c0 45.565 36.936 82.5 82.5 82.5s82.5-36.935 82.5-82.5c0-45.563-36.936-82.5-82.5-82.5S95 209.937 95 255.5"/><path fill="#FFF" d="M143 235.5c0 26.786 21.714 48.5 48.5 48.5s48.5-21.714 48.5-48.5-21.714-48.5-48.5-48.5-48.5 21.714-48.5 48.5"/></g></g></svg>