<svg xmlns="http://www.w3.org/2000/svg" xmlns:xlink="http://www.w3.org/1999/xlink" width="66" height="123"><defs><path id="a" d="M.114.129H30.3v32.58H.114z"/><path id="c" d="M.273.021h14.862V37.8H.273z"/></defs><g fill="none" fill-rule="evenodd"><path fill="#F2F5F7" d="M61.983 39.14a6.15 6.15 0 01-4.893 7.522v.039c0 13.34-10.814 24.153-24.153 24.153-13.34 0-24.153-10.814-24.153-24.153v-.036a6.155 6.155 0 01-4.905-7.524 4.627 4.627 0 014.14-3.528l.03-.006c.132.568.51 1.05 1.029 1.314 0 0 3.585 1.437 3.612 1.086l.852-10.635a.987.987 0 011.057-.91l.035.004 3.966.426a23.35 23.35 0 0021.525-9.684l2.361.102a10.045 10.045 0 018.796 6.102l3.774 15.56 2.034-1.898c.413-.384.681-.9.759-1.458h.009a4.628 4.628 0 014.125 3.525"/><g transform="translate(35.7 79.977)"><mask id="b" fill="#fff"><use xlink:href="#a"/></mask><path fill="#618CFA" d="M23.223 4.116l-.036-.012L12.174.13h-.012v.04l-7.43 9.908L.113 7l4.77 25.71H30.3V14.57a12.883 12.883 0 00-7.077-10.453" mask="url(#b)"/></g><path fill="#242424" d="M32.94 0c14.112 0 25.552 11.44 25.552 25.552 0 .587-.02 1.174-.061 1.76l-.561 8.124c-.002.06-.01.12-.021.18a2.45 2.45 0 01-.76 1.458l-2.033 1.899-3.774-15.561a10.045 10.045 0 00-8.796-6.102l-2.361-.102A23.35 23.35 0 0118.6 26.892l-3.966-.426a.986.986 0 00-1.089.872l-.003.034-.852 10.635c-.027.351-3.612-1.086-3.612-1.086a1.983 1.983 0 01-1.08-1.638l-.552-7.971c-.042-.6-.063-1.194-.063-1.788C7.402 11.422 18.838 0 32.94 0"/><path fill="#B1C0FA" d="M41.142 79.671l6.72-4.479v4.953l-7.431 9.909-4.617-3.078v-.003L33 85.098z"/><path fill="#618CFA" d="M47.862 75.192l-6.72 4.479v-7.248z"/><path fill="#F2F5F7" d="M41.142 72.423v7.248L33 85.098l-8.121-5.412v-10.12l.027-.08a24.275 24.275 0 0016.236-.06v2.997z"/><g transform="translate(25.5 85.077)"><mask id="d" fill="#fff"><use xlink:href="#c"/></mask><path fill="#F5B325" d="M15.084 27.609l.051.282L7.704 37.8.273 27.891l.051-.282h.003L5.163 1.581v-.003L7.5.021l2.814 1.875v.003z" mask="url(#d)"/></g><path fill="#B1C0FA" d="M24.879 79.686L33 85.098l-2.337 1.557v.003l-5.094 3.396-7.431-9.909v-4.953z"/><path fill="#618CFA" d="M24.879 72.39v7.296l-6.741-4.494v-.024zm.69 17.664l-7.431-9.909v-.036h-.021L7.17 84.06l-.093.033A12.883 12.883 0 000 94.545v18.14h25.827l4.836-26.027-5.094 3.396z"/></g></svg>