<svg xmlns="http://www.w3.org/2000/svg" xmlns:xlink="http://www.w3.org/1999/xlink" width="116" height="112"><defs><path id="a" d="M0 112h115.862V0H0z"/></defs><g fill="none" fill-rule="evenodd"><path fill="#242424" d="M77.241 57.931V54.07h16.414c4.888 0 9.491-1.911 12.963-5.382 3.47-3.47 5.382-8.074 5.382-12.963 0-10.115-8.23-18.345-18.345-18.345H77.241v-3.862h16.414c12.245 0 22.207 9.962 22.207 22.207 0 5.921-2.314 11.495-6.513 15.693-4.202 4.201-9.774 6.514-15.694 6.514H77.241zM38.62 98.483H22.208c-5.92 0-11.492-2.313-15.694-6.514C2.313 87.771 0 82.197 0 76.276 0 64.03 9.962 54.069 22.207 54.069H38.62v3.862H22.207c-10.115 0-18.345 8.23-18.345 18.345 0 4.889 1.912 9.493 5.382 12.963 3.472 3.47 8.075 5.382 12.963 5.382H38.62v3.862z"/><mask id="b" fill="#fff"><use xlink:href="#a"/></mask><path fill="#02385B" d="M77.241 98.483h13.518v-3.862H77.241z" mask="url(#b)"/><path fill="#618CFA" d="M36.69 30.897h42.482V0H36.69z" mask="url(#b)"/><path fill="#F5B325" d="M73.379 71.448H30.897l11.586-30.896h42.483z" mask="url(#b)"/><path fill="#B1C0FA" d="M36.69 112h42.482V81.103H36.69z" mask="url(#b)"/><path fill="#F5B325" d="M100.414 83.035c7.465 0 13.517 6.051 13.517 13.517 0 7.465-6.052 13.517-13.517 13.517-7.466 0-13.517-6.052-13.517-13.517 0-7.466 6.051-13.517 13.517-13.517" mask="url(#b)"/><path fill="#242424" d="M42.483 9.655h30.896V5.793H42.483zm0 7.724h30.896v-3.862H42.483zm0 7.724h30.896v-3.862H42.483zm5.793 25.104H75.31v-3.862H48.276zm-3.862 7.724h27.034v-3.862H44.414zm-3.862 7.724h27.034v-3.862H40.552zm1.931 25.104h30.896v-3.862H42.483zm0 7.724h30.896v-3.862H42.483zm0 7.724h30.896v-3.862H42.483zm56-3.063l-5.228-5.227 2.731-2.731 2.497 2.497 6.359-6.359 2.73 2.731z" mask="url(#b)"/></g></svg>