<svg xmlns="http://www.w3.org/2000/svg" xmlns:xlink="http://www.w3.org/1999/xlink" width="103" height="112"><defs><path id="a" d="M.007 0h34.027v46.345H.007z"/></defs><g fill="none" fill-rule="evenodd"><path fill="#F5B325" d="M24.138 48.276V74.4c-4.768-4.267-12.093-3.861-16.36.907-4.268 4.768-3.861 12.093.907 16.36a11.585 11.585 0 0015.453 0v18.401h18.4c-4.267-4.768-3.86-12.093.908-16.36 4.768-4.268 12.093-3.861 16.36.907a11.585 11.585 0 010 15.453h18.4V48.276H24.139z"/><g transform="translate(68.31 65.655)"><mask id="b" fill="#fff"><use xlink:href="#a"/></mask><path fill="#F2F5F7" d="M34.034 33.793l-10.62-10.62V5.792A5.793 5.793 0 0017.62 0H9.897v7.724L7 4.828a4.096 4.096 0 10-5.793 5.793l6.759 6.758c-4.266 4.266-4.266 11.182 0 15.449l13.517 13.517 12.551-12.552z" mask="url(#b)"/></g><path fill="#618CFA" d="M24.138 56h18.4c-4.267 4.768-3.86 12.093.908 16.36 4.768 4.268 12.093 3.861 16.36-.907a11.585 11.585 0 000-15.453h18.4V37.6c4.77 4.266 12.094 3.86 16.361-.908 4.267-4.768 3.861-12.093-.907-16.36a11.585 11.585 0 00-15.453 0v-18.4h-18.4c4.266 4.767 3.86 12.092-.908 16.36-4.768 4.267-12.093 3.86-16.36-.908a11.585 11.585 0 010-15.453H24.138V56z"/><path fill="#DCE1E3" d="M78.189 73.38a1.931 1.931 0 012.73 0l1.131 1.131a1.93 1.93 0 11-2.73 2.73l-1.131-1.13a1.93 1.93 0 010-2.73"/><path fill="#F2F5F7" d="M0 12.552l10.62 10.62v17.38a5.794 5.794 0 005.794 5.793h7.724V38.62l4.828 4.827a4.096 4.096 0 105.793-5.793l-8.69-8.69c4.266-4.265 4.266-11.182 0-15.448L12.552 0 0 12.552z"/><path fill="#DCE1E3" d="M20.268 34.758a1.93 1.93 0 012.73 0l1.131 1.13a1.93 1.93 0 11-2.73 2.732l-1.13-1.131a1.93 1.93 0 010-2.731"/></g></svg>