<svg xmlns="http://www.w3.org/2000/svg" xmlns:xlink="http://www.w3.org/1999/xlink" width="89" height="123"><defs><path id="a" d="M0 123h87.928V0H0z"/></defs><g transform="translate(.667)" fill="none" fill-rule="evenodd"><path fill="#618CFA" d="M56.751 87.48H31.177l-6.63-44.369a36.974 36.974 0 017.775-28.66L43.964 0l11.642 14.45a36.98 36.98 0 017.775 28.661l-6.63 44.368z"/><path fill="#242424" d="M0 72.832L26.313 54.93l4.864 32.549H0z"/><path fill="#618CFA" d="M27.509 62.934L8.046 76.172a1.727 1.727 0 00-.757 1.429v9.88h3.458v-8.962L28.076 66.73l-.567-3.796z"/><path fill="#242424" d="M87.928 72.832L61.615 54.93l-4.864 32.549h31.177z"/><path fill="#618CFA" d="M60.42 62.936l-.568 3.796 17.329 11.79v8.96h3.458v-9.88c0-.571-.284-1.106-.757-1.427L60.419 62.936z"/><mask id="b" fill="#fff"><use xlink:href="#a"/></mask><path fill="#B1C0FA" d="M31.177 96.864h25.575v-9.385H31.177z" mask="url(#b)"/><path fill="#F5B325" d="M35.875 100.338v-3.474h16.177v3.474A35.789 35.789 0 0143.964 123a35.789 35.789 0 01-8.09-22.662z" mask="url(#b)"/><path fill="#FFF" d="M42.235 96.864v9.097a1.729 1.729 0 103.458-.001v-9.096h-3.458z" mask="url(#b)"/><path fill="#FDF9F0" d="M43.964 21.738c4.468 0 8.09 5.142 8.09 11.485 0 6.343-3.622 11.485-8.09 11.485s-8.09-5.142-8.09-11.485c0-6.343 3.622-11.485 8.09-11.485" mask="url(#b)"/></g></svg>