<svg width="440" height="111" fill="none" xmlns="http://www.w3.org/2000/svg"><mask id="a" maskUnits="userSpaceOnUse" x="219" y="0" width="221" height="111"><path fill-rule="evenodd" clip-rule="evenodd" d="M219.459.42h219.999v109.938H219.459V.419z" fill="#fff"/></mask><g mask="url(#a)"><path fill-rule="evenodd" clip-rule="evenodd" d="M439.458.422V.419h-58.447c0 28.457-23.081 51.527-51.554 51.527-28.471 0-51.551-23.07-51.551-51.527h-58.447v.003c0 60.715 49.248 109.937 109.998 109.937 60.753 0 110.001-49.222 110.001-109.937z" fill="#F5B325"/></g><path fill-rule="evenodd" clip-rule="evenodd" d="M220 .002V0h-58.447c0 28.472-23.081 51.554-51.554 51.554-28.471 0-51.552-23.082-51.552-51.554H0v.002C0 60.751 49.248 110 109.999 110 170.752 110 220 60.75 220 .002z" fill="#B1C0FA"/></svg>