<svg xmlns="http://www.w3.org/2000/svg" width="159" height="159"><g fill="none"><path fill="#FAA037" d="M29.15 92.75a2.65 2.65 0 01-2.65-2.65V79.045c0-4.126-1.607-8.004-4.524-10.921a2.65 2.65 0 113.748-3.748 20.61 20.61 0 016.076 14.67V90.1a2.65 2.65 0 01-2.65 2.65z"/><path fill="#FFD241" d="M15.9 53h-5.3v-7.95a2.65 2.65 0 015.3 0V53zm-2.65 15.9a2.65 2.65 0 01-2.65-2.65V58.3h5.3v7.95a2.65 2.65 0 01-2.65 2.65zm2.65-10.6V53h7.95a2.65 2.65 0 010 5.3H15.9zM0 55.65A2.65 2.65 0 012.65 53h7.95v5.3H2.65A2.65 2.65 0 010 55.65z"/><path fill="#FAA037" d="M129.85 92.75a2.65 2.65 0 01-2.65-2.65V79.045c0-5.541 2.158-10.75 6.076-14.669a2.651 2.651 0 013.748 3.748 15.343 15.343 0 00-4.524 10.921V90.1a2.65 2.65 0 01-2.65 2.65z"/><path fill="#555A6E" d="M92.75 87.45h-26.5a2.65 2.65 0 01-2.65-2.65v-5.3h31.8v5.3a2.65 2.65 0 01-2.65 2.65z"/><path fill="#463C4B" d="M63.6 79.5h31.8v2.65H63.6z"/><path fill="#463C4B" d="M95.4 82.15H79.5v5.3h13.25a2.65 2.65 0 002.65-2.65v-2.65z"/><path fill="#C8733C" d="M132.5 159h-106c-5.854 0-10.6-4.746-10.6-10.6V90.1h127.2v58.3c0 5.854-4.746 10.6-10.6 10.6z"/><path fill="#F0915A" d="M68.9 159H26.5c-5.854 0-10.6-4.746-10.6-10.6V90.1h63.6v58.3c0 5.854-4.746 10.6-10.6 10.6z"/><path fill="#FAB991" d="M79.5 90.1c-5.854 0-10.6 4.746-10.6 10.6v10.6a2.65 2.65 0 01-2.65 2.65H7.95a2.65 2.65 0 01-2.65-2.65v-10.6c0-5.854 4.746-10.6 10.6-10.6h63.6z"/><path fill="#F0915A" d="M79.5 90.1c5.854 0 10.6 4.746 10.6 10.6v10.6a2.65 2.65 0 002.65 2.65h58.3a2.65 2.65 0 002.65-2.65v-10.6c0-5.854-4.746-10.6-10.6-10.6H79.5z"/><path fill="#A5C3DC" d="M95.4 79.5H79.5V0c3.394 0 6.648 1.348 9.048 3.748A41.492 41.492 0 01100.7 33.086V74.2a5.3 5.3 0 01-5.3 5.3z"/><path fill="#D7E6F0" d="M63.6 79.5h15.9V0a12.795 12.795 0 00-9.048 3.748A41.492 41.492 0 0058.3 33.086V74.2a5.3 5.3 0 005.3 5.3z"/><circle cx="79.5" cy="34.45" r="13.25" fill="#618CFA"/><path fill="#618CFA" d="M92.75 34.45c0-7.318-5.932-13.25-13.25-13.25v26.5c7.318 0 13.25-5.932 13.25-13.25z"/><circle cx="79.5" cy="34.45" r="7.95" fill="#FFF"/><path fill="#618CFA" d="M79.5 53a2.65 2.65 0 00-2.65 2.65v26.5a2.65 2.65 0 005.3 0v-26.5A2.65 2.65 0 0079.5 53zm21.2 21.2l9.502 9.502a3.747 3.747 0 006.398-2.65v-8.859c0-2.108-.838-4.13-2.328-5.622L100.7 53v21.2zm-42.4 0l-9.502 9.502a3.747 3.747 0 01-6.398-2.65v-8.859c0-2.108.838-4.13 2.328-5.622L58.3 53v21.2zM79.5 0v10.6H64.922a41.341 41.341 0 015.532-6.854A12.808 12.808 0 0179.5 0zm14.578 10.6H79.5V0a12.808 12.808 0 019.046 3.746 41.35 41.35 0 015.532 6.854z"/><path fill="#FFF" d="M66.25 87.45h26.5v2.65h-26.5z"/><path fill="#FFD241" d="M143.1 53h5.3v-7.95a2.65 2.65 0 00-5.3 0V53zm2.65 15.9a2.65 2.65 0 002.65-2.65V58.3h-5.3v7.95a2.65 2.65 0 002.65 2.65zm-2.65-10.6V53h-7.95a2.65 2.65 0 000 5.3h7.95zm15.9-2.65a2.65 2.65 0 00-2.65-2.65h-7.95v5.3h7.95a2.65 2.65 0 002.65-2.65zM113.95 10.6h5.3V5.3a2.65 2.65 0 00-5.3 0v5.3zm2.65 13.25a2.65 2.65 0 002.65-2.65v-5.3h-5.3v5.3a2.65 2.65 0 002.65 2.65zm-2.65-7.95v-5.3h-5.3a2.65 2.65 0 000 5.3h5.3zm13.25-2.65a2.65 2.65 0 00-2.65-2.65h-5.3v5.3h5.3a2.65 2.65 0 002.65-2.65z"/><path fill="#FAA037" d="M116.6 50.35a2.65 2.65 0 01-2.65-2.65V31.8a2.65 2.65 0 015.3 0v15.9a2.65 2.65 0 01-2.65 2.65zm0 10.6a2.65 2.65 0 01-2.65-2.65v-2.65a2.65 2.65 0 015.3 0v2.65a2.65 2.65 0 01-2.65 2.65z"/><path fill="#FFD241" d="M39.75 10.6h5.3V5.3a2.65 2.65 0 00-5.3 0v5.3zm2.65 13.25a2.65 2.65 0 002.65-2.65v-5.3h-5.3v5.3a2.65 2.65 0 002.65 2.65zm-2.65-7.95v-5.3h-5.3a2.65 2.65 0 000 5.3h5.3zM53 13.25a2.65 2.65 0 00-2.65-2.65h-5.3v5.3h5.3A2.65 2.65 0 0053 13.25z"/><path fill="#FAA037" d="M42.4 50.35a2.65 2.65 0 01-2.65-2.65V31.8a2.65 2.65 0 015.3 0v15.9a2.65 2.65 0 01-2.65 2.65zm0 10.6a2.65 2.65 0 01-2.65-2.65v-2.65a2.65 2.65 0 015.3 0v2.65a2.65 2.65 0 01-2.65 2.65z"/><circle cx="143.1" cy="26.5" r="5.3" fill="#FAA037"/><circle cx="15.9" cy="26.5" r="5.3" fill="#FAA037"/></g></svg>