<svg version="1.1" id="Слой_1" xmlns="http://www.w3.org/2000/svg" x="0" y="0" viewBox="0 0 1197 581" xml:space="preserve"><style>.st0{fill:#dbdae2}.st1{fill:#ffba27}.st2{fill:#fff}.st3{fill:#43434c}.st5{fill:#32acb0}</style><path class="st0" d="M870.5 491.1c-.9-3.4-4.1-4.6-7.3-4.1-23.4 3.5-46.8 6-70.4 8.2-23.4 2.2-46.8 3.7-70.3 3.8-23.8.1-47.6-.6-71.3-2.3-23.3-1.6-46.4-4.9-69.8-2.8-25.7 2.3-51.2 8-77 3.5-.4-.1-.6.5-.2.6 21.9 7.1 45.1 3.5 67.5 1.7 11.6-1 23-1.5 34.6-.7 12 .8 23.9 2.4 35.8 3.6 47.5 4.6 95.4 5.6 143.1 3.7 27.2-1.1 54.1-4 81-7.9 3.3-.4 5-4.5 4.3-7.3"/><path class="st1" d="M959.4 148.4c0 16.2-11.7 29.4-11.7 48.8 0 8.9 5.4 19.6 5.4 32.5 0 53.3-81.3 59.5-81.3 79.8 0 .3.2.7.5.8l-40.3-8.5c-.2-.3-.2-.5-.2-.7 0-1.1 1.1-2.5 1.1-3.6 0-.3 3.6-3.1 3.6-7 0-.7-.1-1.4-.5-2.1-2.2-3.8-20.9-15.7-25.6-36-1.9-8-3.8-15.5-3.8-23.5 0-20.2 13.8-31.6 13.8-48.6 0-9.8-4.3-13.1-4.3-22.7 0-30.5 32.3-40.6 32.3-69.5 0-1.6-.1-3.3-.4-5-3.2-20.2-20.5-31.9-20.5-53v-.3C827.6 13.2 841.4 0 857.9 0h75.6c10.3 0 19.9 5.2 25.5 13.8 3.4 5.3 6.8 10.7 6.7 18.6 0 32.7-24.2 39.9-24.2 63.2-.1 19.5 17.9 31.6 17.9 52.8z"/><path class="st2" d="M833.6 546.8c-1-4.5-2.5-10-5.2-16.6-.2-.4-.4-.9-.6-1.4 1.8 2.7 10.4 4.1 17.8 4.1 9.6 0 16.5-3 17-5.4h.2c-.9 4.8-4.8 18.7-6.3 32.2-.4 3.5-4.2 4.8-7.2 5.3-1.3.2-2.7.2-4.1.2-10.4.2-8.7-5-11.6-18.4"/><path class="st3" d="M862.6 527.3v.3c-.5 2.4-7.5 5.4-17 5.4-7.4 0-15.9-1.5-17.8-4.1-.1-.3-.2-.5-.3-.8v-.3c0-2.7 6.4-5.4 15.4-5.4 8 0 16.9.9 19.3 3.6.3.4.4.8.4 1.3"/><path d="M830.1 530.5c3.5 1.6 9.8 2.5 15.5 2.5 6.1 0 11.2-1.2 14.2-2.7-3.8-1.5-10.6-2.1-16.9-2.1-5.6-.1-10.1.9-12.8 2.3" fill="#ffd727"/><path class="st0" d="M870.9 308.4l.1-.1c.5.4.7.9.7 1.4 0 2.4-2.1 4.8-3.9 6.5-.6.6-1.2.7-1.8.8-.6 0-1.1.1-1.7.1-1.4-.7-2.4-1.8-2.4-3.5 0-3.9 2.8-6.5 5.2-6.5 1.3-.1 2.7.5 3.8 1.3"/><path class="st2" d="M846.1 314.6c-7.5-1.5-14.4-3.7-14.4-6.6 0-3.4 1.4-5.9 5.2-5.9.5 0 29.2 1.4 34.1 6.2l-.1.1c-1.1-.8-2.5-1.4-3.8-1.4-2.3 0-5.2 2.6-5.2 6.5 0 1.8 1 2.9 2.4 3.5h-.7c-1.2 0-9.6-.8-17.5-2.4"/><path class="st0" d="M797.8 403.2c3 4.1 4.8 9 5.4 14.1-4.3 2.6-8.7 5-12.8 7-2.5 7.1-3.9 13.9-3.9 21.4 0 4 .3 8 .3 12 0 .9 0 1.6-.1 2.3-1.4.4-2.8.8-4.3.8-5.2 0-14.9-11.6-16.7-22.7v-.5c0-1.3-.2-3.6-.3-3.6l-.1-.5c.1-.2.2-.4.3-.7 1.7-4.1 7.8-15.8 15.8-25.4 1.5-.2 2.9-.4 4.3-.7 4.4-.8 8.3-2 12.1-3.5z"/><path class="st3" d="M767.1 481l-.2.1c.3 1.4.4 2.1.4 12.2 0 7.1-.1 14.2-.1 21.3 0 33 4 54 4 54v.9c-.5.1-.9.2-1.4.2-.6.1-1.2.1-1.8.1-3.9 0-6.8-.4-8.8-1.4-2.7-1.4-4-3.9-4-8.2 0-2.8.6-10.1.6-16.2 0-19-6.4-29-6.4-58.5 0-8.5.5-19.5.6-26h.1c6.5 0 15.5-9 15.7-21.4 1.8 11.1 11.5 22.7 16.7 22.7 1.5 0 2.9-.4 4.3-.8l1.2-.3c.4 48.7 9.1 103.8 9.1 103.8 0 1.2-.1 2.2-.4 2.9-.6 1.7-2 2.4-4.8 2.4-1.4 0-2.7-.5-3.8-1.5-10.2-8.6-7.6-54.5-21-86.3"/><path class="st0" d="M781.6 407.5c-8 9.6-14.1 21.2-15.8 25.4l-.5-.2c-4.3-7.1-5.9-15.5-6.4-23.8l-.9-.5c1.5-.2 3.1-.2 4.9-.3h.7c2.4 0 4.8.1 7.2.1h.1c3.7 0 7.3-.3 10.7-.7"/><path class="st3" d="M777 379.8c1.4 0 2.5 1 2.5 2.4 0 1.5-3.1 6-4.4 7.5-.7-3.2-2.6-5.8-4.8-7.2 2-1.5 4.3-2.7 6.7-2.7"/><path class="st3" d="M775.1 389.8c-1.9 3.2-4.6 5.5-10.1 5.5-2.2 0-3.7-.3-4.8-.8-.2-1-.3-2-.3-3.1 0-.6 0-1.2.1-1.8.4-3.6 2.7-7.4 6.5-8 .2 0 .4-.1.6-.1 1 0 2.1.4 3.2 1.1 2.1 1.4 4.1 4 4.8 7.2"/><path class="st0" d="M747.9 443.5c-.5 0-1.2.1-2 .1-1.3 0-2.6-.1-4-.1-3.1 0-6.5-1.1-8.8-2.4.7-3.1 1.7-6.1 2.9-9 4.8-12.2 5.4-22 21.9-23.7l.9.5c.5 8.3 2.1 16.7 6.4 23.8l.5.2c-.1.3-.2.5-.3.7l.1.5v.6c0 1.2.1 2.3.3 3.5-.2 12.4-9.2 21.4-15.7 21.4h-.1v-2.8c0-3.4-.3-5.6-.8-7.6-.3-1.9-.8-3.5-1.3-5.7"/><path class="st1" d="M919.3 560.9c.1-1.6-3.1-2.8-5.4-2.8-2.5-.1-5.1.5-7.5.6-4.3.3-4.9 1.8-11.4 1.6-4-.2-7.9-.6-11.8-.7-3.9-.2-15.2 0-15.4 3.8-.1 1.5 2.5 1.9 3.9 1.9 1.5.1 3.1-.1 4.6-.1 2.1.1 4.1 1 4.1 1.5s-1.3 1.2-3.3 1.1c-1 0-2-.2-3-.2-2.4-.1-2.7.6-2.7 1.5 0 .7.9.8 3.2.9 2.6.1 5.2-.1 7.7 0 1.3 0 6.1.4 6 1.7-.1 1.5-3.5.7-3.6 2.6-.1 2.2 2.9 2.2 6.1 2.3.7 0 19.1.5 19.2-4 .1-3.3-7-3-6.8-6.3.1-4.3 15.8.8 16.1-5.4"/><path class="st0" d="M806.2 564.7c-4-2.3-9-.4-13.4.1-4.2.5-8.3-.5-12.6-.1-3.9.4-8.8.6-13 1.5-1.9.4-3.7.9-5.6 1.4-2.1.5-4.4.7-5.9 2.4-1 1.1-1.3 2.7-.5 3.9 1.9 3.3 7.6 4.5 11.1 5.5 4.3 1.3 9.9 1.6 14.4 1.5 4.8-.1 9.2-1.9 13.9-2.8 2.1-.4 4.3-.8 6.4-1.3 3.1-.7 5.2-1.5 7.2-4.2 1.9-2.5.5-6.4-2-7.9M859 558c-1.2-1.3-2.8.2-2.4 1.6-.8.2-1.6.6-2.7 1.1-1.4.6-3.1.6-4.7.7-3.7.4-7.5.3-11.1.7-2 .2-3.4 2.1-2.3 4 3.3 5.7 12.4 6 18.2 5 3.3-.6 7.2-2.3 8-5.9.6-2.7-1.3-5.3-3-7.2"/><path class="st0" d="M819.4 393.4c-.5-5.3-1-10.6-1.4-15.9l-.8-8.5c-.2-2.5-.1-5.3-1-7.7-.4-1-2-1.2-2.3 0-.5 2.5-.1 5.2 0 7.7l.3 8.5.6 15.9c.1 2.2.7 5.2.1 7.4-.5 2.1-3.6 3.8-5.2 5-1.8 1.3-3.8 2.5-5.7 3.6-.3-.3-.5-.7-.8-1-.9-1.2-1.8-2.2-3.2-2.9-.2-.1-.4 0-.4.2.1 1.3.6 2.5 1.2 3.8.2.4.3.8.5 1.3-1.2.6-2.5 1.2-3.8 1.7-3.6 1.5-7.3 2.7-10.3 5.2-3.1 2.6-4.9 6.2-5.5 10.1-.8 4.5-.6 9.2-.6 13.8-.1 4.7-.3 9.7.6 14.3-4.6-2.4-8.4-7.6-10.6-11.9-1.4-2.8-2.4-5.9-2.5-9-.1-1.3 0-2.7.2-4 2.2-3.2 3.8-6.9 6-10.1 2.9-4.4 6.1-8.6 9.5-12.5.9-1.1-.6-2.6-1.6-1.6-3.5 3.8-6.6 7.9-9.3 12.3-1.6 2.7-3.5 5.6-4.8 8.6-.9 1.2-1.5 2.8-1.9 4.3-.1 0-.2 0-.3.1-.7.7-1.1 1.8-1.2 2.7-.1.6.2 1.1.8 1.2h.2c0 2.9.7 5.7 1.8 8.3 2.7 6.1 8 14 14.8 15.9 1.4.4 2.2-.9 2.1-1.9 0-.1.1-.1.1-.2 1.5-5.1 1.4-11 1.5-16.4.1-4.6-.4-9.5.7-14 .4-1.7 1.1-3.1 2.1-4.3 2.1-.4 4.3-1.6 6.2-2.5 1.8-.9 4.4-1.9 5.1-3.9 2.2-.9 4.3-1.9 6.4-3.1 3.7-2.1 7.8-4.7 10.7-7.8 3.4-3.6 2.2-8.4 1.7-12.7m-56.2 39.4c-1.8 4.9-2.5 10-4.9 14.7-.9 1.9-2.1 3.8-3.7 5.3-1.4 1.4-3.2 2.1-4.7 3.3-.6.5 0 1.3.6 1.4 4.3.5 8.6-4.3 10.4-7.6 2.7-5 3.3-11.3 3.7-16.9.1-.9-1.1-1-1.4-.2m3.4-3.3c-1.2-3.6-2.5-7-3.5-10.7-.8-3.1-1.1-7.3-3-9.9-.2-.2-.5-.2-.6.1-1 3.1.5 7.4 1.3 10.4.9 3.7 2 7.5 3.5 11 .5 1.5 2.7.5 2.3-.9M747 445c-.2-.6-.6-1-1.1-1.1 0-1.6-.1-3.2-.1-4.3.2-3.7 1-8.4-.3-11.9-.1-.3-.5-.4-.7-.1-1.9 3.2-2 7.9-2.6 11.5-.3 2-.6 4.1-.9 6.1-.2 1.1-.3 2-.1 2.8-2.4 2.7-5.5 5-8.4 6.9h-.1c-.1 0-.1.1-.2.1-1 1-.3 2.7.9 2.8.2.1.5.2.8.3 2 .3 4.4-1.9 5.9-3 3.5-2.4 8.5-5.2 6.9-10.1m25-51.8c-.7 2.8-3.6 4-4.5 6.7-.6 1.9-.8 4.9.4 6.6.1.2.4.2.6 0 .6-.8.7-1.5.7-2.5.1-2 .2-3.6 1.7-5.2 1.7-1.6 3.5-2.8 3.6-5.4 0-1.3-2.2-1.6-2.5-.2m90.2-87.7c-2.4 1.5-4.9 3.2-5.7 5.9l-6.6-.6c-3.2-.3-7-.9-10.1.3-.2.1-.3.3-.1.5 2.6 1.7 6.1 1.9 9.1 2.3 2.6.3 5.2.7 7.8.9.7.9 2.2 1 2.9.2h.4c1.1 0 1.6-1 1.5-2-.3-2 .6-3.8 2.2-5 1.6-1 .2-3.5-1.4-2.5m8.7 4c-.2-.3-.6-.5-.9-.5-1.6.1-2.7 1.9-3.8 2.9-.6.6-1.3 1.1-2 1.5-.6.4-1.3.7-1.7 1.3-.2.3 0 .7.2.8 1.5 1 4.2-.2 5.5-1 1.5-1 3.7-3.1 2.7-5M858 531.8c-1.8 2.3-2.3 4.8-3 7.5-.9 3.6-1.7 7.2-2.6 10.8-.4 1.7-.8 3.4-1.1 5.1-.2.9-.4 1.7-.5 2.6 0 .1-.1.5-.1 1l-.2.2c-.4-.3-.9-.4-1.5-.1-2.9 1.3-6.1 2.2-9.3 2.1-1.6-.1-2 2.5-.4 2.9.9.2 1.8.3 2.7.5 1 .3 2.1.4 3.2.3 1.6.1 3.3 0 4.9-.2 2.9-.4 3.6-2 4-4.3.3-.5.6-1.1.9-1.8 1.3-3.7 1.8-7.8 2.6-11.7.9-4.5 1.7-9.1 2.4-13.7.2-1-1.1-2.2-2-1.2"/><path class="st0" d="M851.8 536.2c-1.5 1-2.3 2.5-3.4 3.8l-.1.1c-1.8.9-3.4 2.2-5.1 3.3-1.6 1.1-3.6 1.8-5.2 3-.1.1-.1.2-.1.3-1.3.3-2.6.5-4 .7-.1 0-.2.2-.1.2 3.4 2 7.6 1 10.9-.7 3.3-1.7 8.2-5.5 8.9-9.3.4-.9-.7-2-1.8-1.4m124.9-40.3c-5.7-1.5-11.7-1.8-17.6-2.4-5.9-.6-11.8-1.2-17.7-1.7-11.8-1-23.6-2.1-35.5-3.1-12-1-24-2.4-36-3.5-11.7-1.1-23.8-.3-35.5.2-13.6.7-27.1 1.7-40.6 3.3-5.1.6-5.4 8.2 0 8.2 23.7.2 47.3.4 71 .5 6.1 0 12.2-.7 18.3-1.1 5.8-.3 11.5-.6 17.2-.6 11.8 0 23.7 0 35.5.7 6.7.4 13.5.8 20.2 1.4 6.7.5 13.5 1.5 20.2 1.3 1.9-.1 2.3-2.7.5-3.2"/><path class="st3" d="M771 409.9c-.7 0-1.2-.5-1.3-1.2 0-.8-.1-1.5-.1-2.2l-.3-5.1c0-.5.3-1 .7-1.2 2.5-1.3 4.1-4.2 4.1-7.5 0-.7-.1-1.5-.2-2.2-.6-2.6-2.2-5.1-4.2-6.4-.9-.6-1.7-.9-2.5-.9h-.3c-3.4.6-5.2 4-5.5 6.9-.1.6-.1 1.1-.1 1.7 0 1 .1 1.9.3 2.8.4 2 1.1 3.6 2.2 4.7.2.2.4.6.4.9 0 2.6 0 5.5.1 8.3 0 .7-.5 1.3-1.2 1.3s-1.3-.5-1.3-1.2c-.1-2.6-.1-5.3-.1-7.8-1.2-1.4-2.1-3.3-2.5-5.6-.2-1.1-.3-2.2-.3-3.3 0-.6 0-1.2.1-1.9.4-3.8 2.9-8.4 7.6-9.2.3 0 .5-.1.8-.1 1.3 0 2.6.4 3.9 1.3 2.6 1.7 4.6 4.7 5.3 8 .2.9.3 1.8.3 2.8 0 3.9-1.8 7.4-4.8 9.3.1 1.4.2 2.8.2 4.2 0 .8.1 1.5.1 2.3-.1.6-.6 1.2-1.4 1.3"/><path class="st3" d="M765.1 396.9c-2.2 0-4-.3-5.4-.9-.6-.3-.9-1-.6-1.7.3-.6 1-.9 1.7-.6 1 .5 2.5.7 4.3.7 4.3 0 7-1.4 9-4.8.4-.6 1.2-.8 1.8-.4s.8 1.1.4 1.8c-2.5 4-6.1 5.9-11.2 5.9"/><path class="st3" d="M775 391.7c-.3 0-.6-.1-.9-.3-.5-.5-.6-1.3-.1-1.8l.2-.2c1.6-1.9 4.1-5.8 4.1-6.7 0-.8-.6-1.1-1.2-1.1-1.8 0-3.8.8-5.9 2.5-.6.4-1.4.3-1.8-.2-.4-.6-.3-1.4.2-1.8 2.5-2 5.1-3.1 7.5-3.1 2.2 0 3.8 1.6 3.8 3.7 0 2.5-4.7 8.3-4.7 8.4-.1.1-.2.2-.2.3-.4.1-.7.3-1 .3m28.4 27.3c-.6 0-1.2-.5-1.3-1.1-.7-5.1-2.5-9.8-5.2-13.5-.4-.6-.3-1.4.3-1.8s1.4-.3 1.8.3c3 4 4.9 9.1 5.7 14.7.1.7-.4 1.3-1.1 1.4h-.2m-20.8 43.6c-4.9 0-12.7-8.2-16.3-17.7-.9 3.6-2.6 7-4.9 9.9-3.3 4.1-7.5 6.5-11.2 6.5h-.2c-.7 0-1.3-.6-1.3-1.3 0-.7.6-1.3 1.3-1.3h.1c5.6 0 14.1-8.4 14.4-20.1-.2-1.2-.3-2.5-.3-3.6 0-1.9 1-1.9 1.3-1.9 1.3 0 1.3 1.1 1.4 2.5.1.9.1 1.8.1 2.4v.4c1.8 10.7 11.2 21.5 15.5 21.5 1.3 0 2.6-.4 3.9-.7l.5-.1c.2-.1.4-.1.7-.2h.2c.7-.1 1.4.3 1.5 1s-.3 1.4-1 1.5h-.1c-.2 0-.4.1-.6.2l-.5.1c-1.2.4-2.8.9-4.5.9"/><path class="st3" d="M765.5 435.3c-.1 0-.3 0-.4-.1-.7-.2-1-1-.8-1.6.1-.2.2-.5.3-.8 1.4-3.4 7.4-15.4 16.1-25.7.5-.5 1.3-.6 1.8-.2.5.5.6 1.3.2 1.8-7.8 9.4-14 21-15.7 25.1-.1.3-.2.5-.3.7-.2.5-.6.8-1.2.8"/><path class="st3" d="M765.3 434.4c-.4 0-.9-.2-1.1-.6-3.9-6.4-6-14.4-6.6-24.5 0-.7.5-1.3 1.2-1.4.7 0 1.3.5 1.3 1.2.5 9.7 2.6 17.3 6.2 23.3.4.6.2 1.4-.4 1.8-.1.2-.4.2-.6.2m2.8 137.4c-4.4 0-7.3-.5-9.4-1.6-3.2-1.6-4.7-4.6-4.7-9.4 0-1.2.1-3.1.2-5.4.2-3.2.4-7.3.4-10.8 0-8.4-1.2-14.8-2.7-22.3-1.8-9.2-3.8-19.7-3.8-36.2 0-5.6.2-12.3.4-18.2.1-2.9.2-5.7.2-7.9v-2.8c0-3.6-.4-5.7-.7-7.3-.2-.8-.4-1.6-.6-2.5-.3-1-.5-2-.8-3.1-.5-2.5-1.2-6.3-1.2-13.4v-3.6c0-.7.6-1.3 1.3-1.3s1.3.6 1.3 1.3v3.6c0 6.8.6 10.5 1.1 12.9.2 1.1.5 2.1.7 3s.4 1.7.6 2.6c.6 2.5.8 4.9.8 7.9v2.8c0 2.2-.1 5-.2 7.9-.2 5.9-.4 12.5-.4 18.1 0 16.3 2 26.6 3.7 35.8 1.4 7.3 2.7 14.2 2.7 22.8 0 3.6-.2 7.7-.4 11-.1 2.2-.2 4.1-.2 5.2 0 3.8 1 5.9 3.3 7.1 1.7.9 4.4 1.3 8.3 1.3.6 0 1.1 0 1.6-.1h.2c-.5-3-4-23.5-4-53.9v-21.4c0-9.9 0-10.7-.3-11.9-.2-.7.2-1.4.9-1.6s1.4.2 1.6.9c.4 1.6.4 2.4.4 12.5v21.4c0 32.6 4 53.6 4 53.8v1.2c0 .6-.4 1.1-1 1.2l-1.5.3c-.5 0-1.1.1-1.8.1"/><path class="st3" d="M792 570.8c-1.7 0-3.3-.6-4.7-1.8-5.5-4.7-7.4-18.3-9.8-35.5-2.3-16.8-5-35.8-11.6-51.6-.7-1.6-1.4-3.2-2.2-4.7-.1-.1-.1-.2-.2-.3-.3-.4-.6-1.1-.6-1.9 0-.2 0-.4.1-.6.1-.7.8-1.1 1.5-1s1.1.8 1 1.5v.1c0 .1.1.4.3.6.1.2.2.3.3.5.8 1.6 1.5 3.2 2.2 4.9 6.7 16 9.4 35.3 11.8 52.2 2.2 16 4.2 29.9 8.9 33.9.9.8 1.9 1.1 3 1.1 2.9 0 3.4-.8 3.6-1.6.2-.6.3-1.4.3-2.4-.4-2.7-8.7-56.8-9.2-104.1 0-.7.6-1.3 1.3-1.3.7 0 1.3.6 1.3 1.3.4 48.1 9.1 103.3 9.1 103.8v.2c0 1.4-.1 2.5-.4 3.4-.9 3-3.7 3.3-6 3.3"/><path class="st3" d="M786.9 461.8c-.7 0-1.3-.6-1.3-1.3v-.1c0-.6.1-1.4.1-2.2 0-2-.1-4-.1-6-.1-2-.1-4.1-.1-6.1 0-7.2 1.3-14.1 3.9-21.9.1-.3.3-.6.6-.7 4.5-2.3 8.8-4.6 12.7-7 6.7-4.1 12.3-8.1 16.5-12.1.1-1.6.1-3.2.1-4.8 0-7.3-2.3-33.3-3.9-39.2-.1 0-.3-.1-.4-.1-1.5 0-4.7 3.7-4.8 4.9 0 .3.6.9 1.2 1.3.2.2.5.4.7.6.6.5 1.4 1.4 1.4 2.6 0 .3 0 .6-.1.8-.2.6-.3 1.2-.5 1.9-1.3 4.6-3.4 11.6-3.4 22.4 0 1.2 0 2.3.1 3.6 0 .5-.2 1-.6 1.2-3.4 2-7 3.7-10.5 5-3.9 1.5-8 2.7-12.2 3.6-1.4.3-2.9.5-4.4.7-3.5.5-7.1.7-10.8.7h-8c-1.7 0-3.3.1-4.8.3-13.3 1.4-15.6 7.8-19 17.6-.6 1.7-1.2 3.5-1.9 5.3-1.3 3.3-2.2 6.2-2.8 8.9-.7 3-1.1 5.9-1.1 8.6 0 6 1.2 8.2 2.2 8.2.8 0 3.8-1 12.9-9.9.5-.5 1.3-.5 1.8 0s.5 1.3 0 1.8c-9.7 9.5-13.1 10.6-14.7 10.6-3.2 0-4.8-3.6-4.8-10.7 0-2.8.4-5.9 1.1-9.1.7-2.8 1.6-5.9 2.9-9.2.7-1.8 1.3-3.5 1.9-5.2 3.5-9.9 6.2-17.8 21.1-19.3 1.6-.2 3.3-.3 5.1-.3h8.2c3.6 0 7.1-.2 10.5-.7 1.5-.2 2.9-.4 4.3-.7 4-.8 7.9-2 11.7-3.4 3.2-1.2 6.3-2.7 9.4-4.5-.1-1.1-.1-2-.1-3 0-11.2 2.1-18.3 3.5-23.1.2-.7.4-1.3.5-1.9v-.2c0-.1-.1-.3-.5-.7-.2-.2-.4-.3-.6-.5-.9-.8-2.1-1.7-2.1-3.3 0-2.3 4.3-7.5 7.4-7.5.8 0 1.5.2 2.2.6.2.2.4.4.5.7 0 .1.1.3.1.5 1.7 6.1 4 33.1 4 40.1 0 1.8 0 3.6-.1 5.4 0 .3-.2.6-.4.9-4.4 4.2-10.2 8.5-17.3 12.8-3.8 2.3-8 4.6-12.5 6.8-2.5 7.2-3.6 13.8-3.6 20.5 0 2 .1 4 .1 6 .1 2 .1 4.1.1 6.1 0 .9 0 1.6-.1 2.3 0 .8-.6 1.4-1.3 1.4"/><path class="st3" d="M745.9 445.3h-4c-3.6 0-7.2-1.3-9.4-2.6-.4-.2-.7-.6-.7-1.1 0-.7.6-1.3 1.3-1.3.2 0 .4.1.6.2 2.4 1.4 5.6 2.3 8.2 2.3.7 0 1.4 0 2.1.1h1.9c.7 0 1.3 0 1.9-.1.7-.1 1.3.5 1.4 1.2.1.7-.5 1.3-1.2 1.4-.6-.1-1.3-.1-2.1-.1m40.1-37.6c-.2 0-.5-.1-.7-.2-.6-.4-.8-1.2-.4-1.8l25.2-38.3c.4-.6 1.2-.8 1.8-.4s.8 1.2.4 1.8L787 407.2c-.2.3-.6.5-1 .5m30.6-46.5c-.2 0-.5-.1-.7-.2-.6-.4-.8-1.2-.4-1.8l31.4-47.6c.4-.6 1.2-.8 1.8-.4s.8 1.2.4 1.8l-31.4 47.6c-.2.4-.7.6-1.1.6"/><path class="st3" d="M837.1 303.6c-1.7 0-3.9.5-3.9 4.6 0 .1.2 2.6 13.5 5.3 8 1.6 16.3 2.4 17.4 2.4h.6c.5 0 1 0 1.6-.1.5 0 .7-.1 1-.4 1.6-1.6 3.5-3.8 3.5-5.6 0-.1-.1-.3-.3-.5-4.3-4-30.6-5.6-33.4-5.7m26.9 14.9c-1.4 0-10-.9-17.9-2.5-7.2-1.5-15.5-3.7-15.5-7.8 0-4.6 2.4-7.2 6.5-7.2.3 0 29.7 1.3 35.1 6.5.7.7 1.1 1.5 1.1 2.4 0 2.8-2.1 5.3-4.2 7.4-.9.9-1.9 1.1-2.6 1.1-.7 0-1.2.1-1.7.1h-.8"/><path class="st3" d="M864.7 318.5c-.1 0-.3 0-.4-.1-.1 0-.1 0-.2-.1-2-1-3.1-2.6-3.1-4.7 0-4.6 3.4-7.8 6.5-7.8 2 0 3.7 1 4.5 1.6.6.4.8 1.2.4 1.8-.4.6-1.2.8-1.8.4h-.1c-1.1-.8-2.2-1.2-3.1-1.2-1.6 0-3.9 2-3.9 5.2 0 .7.2 1.7 1.6 2.4.5.2.8.7.8 1.2.1.8-.5 1.3-1.2 1.3m-13.8-5.6c-.7 0-1.3-.6-1.3-1.3 0-.7-.6-1-1.1-1-.4 0-1 .2-1.2.7-.3.7-1 1-1.7.7s-1-1-.7-1.7c.6-1.4 2-2.3 3.6-2.3 2.1 0 3.7 1.6 3.7 3.6 0 .7-.6 1.3-1.3 1.3m-87.7 261.7c-2 0-3.9-1.7-5.3-4.8-.3-.6 0-1.4.7-1.7.6-.3 1.4 0 1.7.7.9 2 2 3.3 2.9 3.3s4.8-.8 5.7-2c.4-.6 1.2-.7 1.8-.3s.7 1.2.3 1.8c-1.9 2.5-7.7 3-7.8 3m28.8-1.1c-3.5 0-4.2-1.2-4.7-2.8-.1-.4-.3-.8-.6-1.2-.4-.6-.3-1.4.3-1.8.6-.4 1.4-.3 1.8.3.5.7.7 1.3.9 1.8.3.8.4 1.1 2.3 1.1 2.2 0 4.5-.9 5.7-1.4-.2-.3-.5-.6-.8-1.1l-.3-.3c-.4-.6-.4-1.4.2-1.8.6-.4 1.4-.4 1.8.2 0 .1.1.2.2.3 1.3 1.5 1.9 2.4 1.9 3.1 0 .5 0 1.2-3.1 2.4-1.4.6-3.4 1.2-5.6 1.2m51.1-49.3c-9.3 0-14.1 2.9-14.1 4.1v.1c0 .1.1.2.1.3 1.4 2 8.9 3.6 16.8 3.6 9.8 0 15.6-3.1 15.8-4.4 0-.1-.1-.3-.2-.4-1.7-2-9-3.3-18.4-3.3m2.8 10.6c-3.9 0-8-.4-11.3-1.1-4-.8-6.5-2.1-7.6-3.6-.3-.4-.5-.8-.5-1.3v-.5c0-3.8 7.2-6.6 16.7-6.6 6.2 0 17.1.5 20.3 4 .7.8.9 1.6.9 2.1 0 .2 0 .4-.1.6-.9 3.6-9.1 6.4-18.4 6.4"/><path class="st3" d="M845.4 567.3c-9.3 0-10.1-4.5-11.5-12.6-.4-2-.8-4.3-1.3-7-1.2-5.6-2.9-10.9-5.1-16.4-.2-.4-.4-.9-.6-1.3-.1-.3-.2-.5-.3-.8-.1-.2-.1-.3-.2-.4-.3-.6 0-1.4.7-1.7.6-.3 1.4 0 1.7.7.1.2.1.3.2.5s.2.5.3.8c.2.4.4.9.6 1.4 2.3 5.6 4 11.1 5.3 16.8.6 2.7 1 5 1.3 7.1 1.4 8.3 1.8 10.5 9 10.5 1.2 0 2.6 0 3.9-.2 2.2-.3 5.9-1.3 6.2-4.1 1.1-9.8 3.5-19.8 5-26.4.6-2.6 1.1-4.6 1.3-6 .1-.7.8-1.2 1.5-1 .7.1 1.2.8 1 1.5-.3 1.4-.7 3.5-1.4 6.1-1.6 6.6-3.9 16.5-5 26.1-.4 3.3-3.3 5.6-8.3 6.4-1.4-.1-3 0-4.3 0"/><path class="st3" d="M832.6 548.8c-6.5 0-9.8-2.8-9.8-8.2 0-3.6 1.9-7.1 3.7-10 .4-.6 1.2-.8 1.8-.4.6.4.8 1.2.4 1.8-1.6 2.7-3.3 5.8-3.3 8.7 0 4 2.1 5.6 7.2 5.6.3 0 .7 0 1.1-.1 6.1-.8 15.9-7.1 18.3-10.4.4-.6 1.2-.7 1.8-.3s.7 1.2.3 1.8c-2.7 3.7-13.2 10.6-20.1 11.5-.5-.1-1 0-1.4 0m225-48.2c-7.8 0-26.5-1.3-40.1-2.2-5.4-.4-10-.7-13.1-.9-11.5-.7-19.4-1.4-26.5-2-11.9-1-21.3-1.9-40.9-1.9-22.4 0-39.4 1.1-54.4 2.2-12.9.9-25.1 1.7-38.9 1.7-.4 0-.8-.3-.8-.8 0-.4.3-.8.8-.8 13.7 0 25.9-.8 38.8-1.7 15-1 32-2.2 54.5-2.2 19.7 0 29.1.8 41.1 1.9 7 .6 14.9 1.3 26.4 2 3.1.2 7.7.5 13.1.9 13.6.9 32.2 2.2 40 2.2.4 0 .8.3.8.8s-.3.8-.8.8m31.9.5c-1.3 0-2.5-.1-3.8-.5-.4-.1-.7-.5-.6-.9s.5-.7.9-.6c1.1.3 2.2.4 3.4.4 2.2 0 4.2-.5 6.3-.9 2.3-.5 4.6-1 7.2-1 .4 0 .8.3.8.8 0 .4-.3.8-.8.8-2.4 0-4.7.5-6.9 1-2 .4-4.1.9-6.5.9m-378.1 1.1c-.4 0-.8-.3-.8-.8 0-.4.3-.8.8-.8 13.2 0 25.7 0 38.5-.9.4 0 .8.3.8.7 0 .4-.3.8-.7.8-12.9 1-25.3 1-38.6 1m78.5-1.7c-.4 0-.8-.3-.8-.8 0-.4.3-.8.8-.8 15.6 0 28.8-.2 42.6-.9.4 0 .8.3.8.7 0 .4-.3.8-.7.8-13.8.8-27 1-42.7 1zm-260.8-128c-.8 0-1.7-.2-2.7-.6-2.3-1-3.7-3-4.9-4.6-.6-.9-1.2-1.7-1.7-1.9-1.8-.8-3.2.5-5.1 2.6-2 2.2-4.2 4.6-7.7 3.1-1.5-.6-2.7-1.8-3.8-3-1-1-2-2-3-2.5-1.5-.7-3.7-.4-5 2.6-.1.3-.2.6-.4.8-.1.3-.2.5-.3.7-.1.3-.5.5-.8.3-.3-.1-.5-.5-.3-.8.1-.2.2-.4.3-.7.1-.3.2-.6.4-.9 1.6-3.6 4.5-4.2 6.7-3.2 1.3.6 2.4 1.7 3.4 2.7 1.1 1.1 2.1 2.1 3.4 2.7 2.6 1.1 4.3-.8 6.2-2.8 1.8-2 3.8-4.2 6.6-2.9.8.3 1.4 1.2 2.2 2.4 1.1 1.5 2.4 3.3 4.4 4.2 3.4 1.5 5.1-.5 7.1-3 2.2-2.8 4.7-5.9 10.1-3.5 2.7 1.2 3.2 2.7 3.6 4 .3.9.5 1.5 1.5 2 .9.4 2.3.4 3.5-.1.3-.1.7 0 .8.4.1.3 0 .7-.4.8-1.5.6-3.2.6-4.4.1-1.5-.6-1.8-1.7-2.2-2.7-.4-1.2-.8-2.3-2.9-3.2-4.4-1.9-6.3.4-8.5 3.2-1.8 1.7-3.5 3.8-6.1 3.8m173.8-7.9c-.2 0-.4-.1-.5-.2-.2-.3-.2-.7.1-.9l21.7-18.3c.3-.2.7-.2.9.1.2.3.2.7-.1.9l-21.7 18.3c-.1 0-.3.1-.4.1m-72.5.3c-1.6 0-2.9 1.3-2.9 2.9s1.3 2.9 2.9 2.9c1.6 0 2.9-1.3 2.9-2.9s-1.2-2.9-2.9-2.9m0 9.5c-3.6 0-6.5-2.9-6.5-6.5s2.9-6.5 6.5-6.5 6.5 2.9 6.5 6.5c.1 3.6-2.9 6.5-6.5 6.5m283.4 21.8c-.3 0-.5-.1-.6-.4l-9.4-22.2c-.1-.3 0-.7.3-.8s.7 0 .8.3l9.4 22.2c.1.3 0 .7-.3.8 0 .1-.1.1-.2.1m24.5-52.2c-2.2 0-4 1.8-4 4s1.8 4 4 4 4-1.8 4-4-1.8-4-4-4M732.5 131.3c-.1 0-.3 0-.4-.1l-19.4-15.8c-.3-.2-.3-.6-.1-.9s.6-.3.9-.1l19.4 15.8c.3.2.3.6.1.9-.1.1-.3.2-.5.2m35.7-45.2c2.3 0 4.2 1.9 4.2 4.2 0 2.3-1.9 4.2-4.2 4.2s-4.2-1.9-4.2-4.2 1.9-4.2 4.2-4.2m250.3 311.6c2 .5 4.1.9 6.1 1.4 1.5.4 3.1.7 4.6 1.1-1-2.9-2.2-5.9-3.7-9.4-2.1 2.1-4.4 4.4-7 6.9m11.7 4c-2-.4-4-.9-5.9-1.4-2.4-.6-4.8-1.2-7.3-1.7-.2 0-.4-.2-.5-.5s0-.5.2-.6c3.3-3.1 6.1-5.8 8.6-8.4.1-.2.4-.2.6-.2s.4.2.5.4c1.9 4.3 3.3 8 4.5 11.4.1.2 0 .5-.1.6-.2.3-.4.4-.6.4M645.9 105.1c-4.6 1.1-7.8 5-7.8 9.7 0 4.3 4 8.7 10.7 8.7 4.6 0 9.4-5.4 9.4-10.4 0-6.2-5.4-8.4-10.5-8.4-.5 0-.8.1-1.2.2-.1.1-.3.2-.6.2m2.9 19.7c-7.5 0-12-5.1-12-10 0-5.2 3.6-9.7 8.8-10.9.2-.1.4-.1.6-.2.5-.1.9-.3 1.5-.3 7.2 0 11.8 3.8 11.8 9.7 0 5.8-5.4 11.7-10.7 11.7m347.2 3.4c-.2 0-.4-.1-.5-.3-.2-.3-.1-.7.2-.9 5.8-3.6 11.3-8.1 16.5-12.5.3-.2.7-.2.9.1.2.3.2.7-.1.9-5.3 4.4-10.8 9-16.7 12.6-.1.1-.2.1-.3.1"/><path class="st3" d="M1011.2 129.5c-.2 0-.4-.1-.5-.3-2-2.7-4.2-5.2-6.3-7.6s-4.3-5-6.3-7.7c-.2-.3-.2-.7.1-.9.3-.2.7-.2.9.1 2 2.7 4.2 5.2 6.3 7.6s4.3 5 6.3 7.7c.2.3.2.7-.1.9-.1.2-.2.2-.4.2"/><path class="st5" d="M208 282l32-101 23 1 16 40 15-41h22l36 99-33 2-14-41-3 2-11 37h-26l-8-39-17 41h-32z"/><linearGradient id="SVGID_1_" gradientUnits="userSpaceOnUse" x1="529.302" y1="587.277" x2="529.886" y2="588.018" gradientTransform="matrix(108 0 0 -111 -57044 65453.59)"><stop offset="0" stop-color="#ffba27"/><stop offset="1" stop-color="#f9a380"/></linearGradient><path d="M148 176l16 3 16 6 10 10 7 10 5 17v24l-10 18-12 12-16 8-12 3h-16l-13-5-13-9-13-17-3-16v-25l10-18 4-6 11-8 12-5 17-2zm0 26l-13 3-12 12-2 14 4 10 8 7 11 5 8 1 9-3 7-5 6-9 3-10v-6l-1-4-6-7-10-7-12-1z" fill="url(#SVGID_1_)"/><linearGradient id="SVGID_2_" gradientUnits="userSpaceOnUse" x1="529.354" y1="587.279" x2="529.918" y2="588.02" gradientTransform="matrix(108.9999 0 0 -113.9999 -56707.941 67213.383)"><stop offset="0" stop-color="#ffba27"/><stop offset="1" stop-color="#f9a380"/></linearGradient><path d="M1018.5 171l16.1 3.1 16.1 6.2 10.1 10.3 7.1 10.3 5 17.5V243l-10.1 18.5-12.1 12.3-16.1 8.2-12.1 3.1h-16.1l-13.1-5.1-13.1-9.2-13.2-17.6-3-16.4v-25.7l10.1-18.5 4-6.2 11.1-8.2 12.1-5.1 17.2-2.1zm0 27l-13.2 3.1-12.3 12.2-2 14.3 4.1 10.2 8.1 7.1 11.2 5.1 8.1 1 9.2-3.1 7.1-5.1 6.1-9.2 3.1-10.2v-6.1l-1-4.1-6.1-7.1-10.2-7.1-12.2-1z" fill="url(#SVGID_2_)"/><linearGradient id="SVGID_3_" gradientUnits="userSpaceOnUse" x1="529.228" y1="587.289" x2="529.846" y2="588.03" gradientTransform="matrix(107 0 0 -107 -56169 63102.488)"><stop offset="0" stop-color="#ffba27"/><stop offset="1" stop-color="#f9a380"/></linearGradient><path d="M435 285V178h34l40 58v-58l33 1-3 22-4 36 2 44-32 2-8-7-31-48-1 1-2 56h-28z" fill="url(#SVGID_3_)"/><linearGradient id="SVGID_4_" gradientUnits="userSpaceOnUse" x1="527.485" y1="587.581" x2="528.493" y2="587.581" gradientTransform="matrix(82 0 0 -108 -43252 63689.766)"><stop offset="0" stop-color="#618cfa"/><stop offset="1" stop-color="#62afe4"/></linearGradient><path d="M79 200l5-19-18-4H53l-16 4-12 8-10 8-7 11-4 11-2 13 2 13 4 11 7 9 10 10 12 7 11 3h18l18-3-3-21H68l-17-3-14-9-4-11v-16l7-12 11-8 11-2h17z" fill="url(#SVGID_4_)"/><linearGradient id="SVGID_5_" gradientUnits="userSpaceOnUse" x1="520.304" y1="587.583" x2="521.313" y2="587.583" gradientTransform="matrix(39 0 0 -109 -19922 64277.04)"><stop offset="0" stop-color="#618cfa"/><stop offset="1" stop-color="#62afe4"/></linearGradient><path d="M370 179l14-3 20 2 5 106-35 1-2-27 2-45-4-34z" fill="url(#SVGID_5_)"/><path class="st5" d="M636 182l-7 19-10-2-16 4-12 8-6 10-2 14 4 12 6 8 10 4h11l11-4 4-5h-15l-3-5 3-17 45-2 2 12-2 14-7 14-11 10-12 6-18 4h-14l-18-7-17-17-8-18-2-15 2-13 8-15 10-11 13-8 12-4 12-2 16 2 11 4z"/><linearGradient id="SVGID_6_" gradientUnits="userSpaceOnUse" x1="527.714" y1="587.607" x2="528.723" y2="587.607" gradientTransform="matrix(85 0 0 -125 -44141 73679.445)"><stop offset="0" stop-color="#618cfa"/><stop offset="1" stop-color="#62afe4"/></linearGradient><path d="M793 197l7-15-7-8-15-6-11-2-13 2-8 4-10 10-6 9-2 9 2 9 2 9 6 6 8 8 11 6 10 9 3 7-3 6-7 4-8-1-8-3-8-6-6-4-6 2-3 8-4 10-2 7 4 5 11 3 10 3 12 3h12l11-1 13-5 9-8 3-11v-14l-3-11-6-9-8-4-8-6-8-6-5-5-5-7 3-7 7-6h8l10 3 8 3z" fill="url(#SVGID_6_)"/><path class="st5" d="M1085 280V174h35l39 58v-60l31 4-1 19-3 16v66l-31 3-15-18-9-18-11-17-4-3-2 19v39l-29-2z"/><path class="st0" d="M90 269.4c-.1-1.2-.2-2.4-.4-3.5-.5-4.4-.6-9.9-5.1-12.2-1.7-.9-4-.9-5.9-1-2.4-.2-4.9-.2-7.3-.3-4.7-.2-9.5-.3-14.1-1.3-8.1-1.7-15.8-6.6-16.2-15.7-.3-7.3 3.5-15.2 9-19.8 3.1-2.6 7.1-4.2 11.1-4.8 2-.3 4.2-.3 6.2 0 2.7.4 5.2 1.6 8 1.5 6.2-.2 8.5-6.6 10.3-11.6 1.7-5 3.1-10.5 2.9-15.8-.2-4-5.6-4.7-6.9-.9-1.4 4.1-2.4 8.3-4.4 12.2-.8 1.6-2.3 3.3-2.9 4.9-.8-.3-2.3-.6-2.8-.7-8.2-1.9-17.4-.7-24.6 3.8-6.7 4.1-12.4 11-14.1 18.8-1.7 7.8-.7 16.7 3.9 23.4 4.4 6.4 12 10.1 19.5 11.5 4.3.8 8.7 1 13.1 1.2 2.3.1 4.7.2 7 .5.7.1 1.8.1 2.5.4.8.3.5.4.7 1.1 1.2 4.1 1.1 9 1.1 13.3 0 1.1-.2 2.5-.1 3.6h-.1c-2.1.5-4.3.9-6.4 1.1-9 .9-18.2.2-27.2-.5-4.5-.3-9.1-1-13.1-3.3-3.8-2.2-7.1-5.1-10.4-8.1-3.4-3.1-6.7-6.4-10.2-9.4-3.6-3.2-6.7-7.1-9.4-11.1-.7-1-2.4-.4-2 .9.7 2.6 1.6 5.1 2.6 7.6 1 7.2 3.7 14.5 6.9 20.9 3.9 7.9 9.2 14.4 17.1 18.4 7.9 4.1 17.1 5.3 25.9 5.1 9.1-.2 19-1.4 27.4-5.2 4.7-2.1 8.8-5.7 10.9-10.4 2.2-4.6 2.6-11.9-2.5-14.6m122.4-41.9c-.4-2.3-.8-4.6-1.3-7 0-7.1-2.7-14.1-7.2-19.7-3-3.7-6.8-6.5-10.6-9.2-.2-.1-.4-.3-.5-.4-1.1-1-2.2-2-3.4-2.9-1-.7-2.1-1.4-3.2-2-2-1.3-4.1-2.4-6.2-2.9-.1 0-.2.1-.1.2 0 .1.1.2.1.3-.3-.1-.7-.2-1-.4-1.9-.8-3.8 1.3-2.2 2.9 4.5 4.8 8.2 10.4 10.6 16.5 2.3 5.9 4.3 12.1 4.8 18.5.5 6.6.2 13.1-1.6 19.5-1.9 6.7-5.5 12.7-7.6 19.2-.2.7-.2 1.4.1 2-6 6.8-13.8 12-21.7 14.7-11.3 3.8-21.8 3.7-33.2-.1-6.2-2.1-11.8-4.6-16.7-9.1-5.6-5.2-9.4-11.9-13.5-18.2-.2-.3-.8-.2-.7.2.6 4.9 1.8 9.6 3.6 14-.4 0-.7.3-.6.7.8 5.7 4.8 11.5 8.2 16 3.6 4.8 7.7 9.2 12.7 12.4 11.6 7.5 26 7.6 39.1 4.5 23-5.6 47.2-21.8 52.5-46.2 1.3-7.8.9-15.5-.4-23.5"/><path class="st0" d="M159 202.8c-4-1-7.9-1.2-11.9-.6-5.4.8-11.1 3-15.6 6.5-4.1 2.3-7.2 7-8.9 11-2.2 5.3-1.9 11.2 1.1 16.1.5.7 1 1.5 1.5 2.2.4 1.1.8 2.1 1.2 3.1 1.9 4 4.4 7.3 8.5 9.2 1.8.8 3.6 1.1 5.4 1.6 1.8.5 3.6.8 5.4.9 1.5.3 3 .4 4.5.2 1.8-.2 2.6-3 .5-3.4-4.8-.9-8.3-3.8-11.7-7-1.1-1.1-2.3-2.2-3.4-3.3-.2-.4-.4-.7-.6-1.1-1.5-2.7-2.2-5.8-2.8-8.7-.6-3.1-1.1-6.7.1-9.7 2-5.1 8.4-8.4 13.3-9.9 3-.9 6.1-1.4 9.3-1.6 1.4-.1 2.9 0 4.3.1.9.1 3.3-.2 4.4.2.2.4.8.6 1.3.5l.3-.1c.4-.1.8-.5.9-.9.3-3.3-4.6-4.6-7.1-5.3m100.6 44.5c-.1-.8-.4-1.6-.9-2.1.4-1.2.8-2.3 1.2-3.5 1-3.1-3.7-5.1-5.3-2.2-1.5 2.7-2.6 5.3-5.1 7-2.8 1.9-3.9 5.3-5.2 8.3-2.7 6-5.1 12-7.4 18.2l-1.5 3.9c-.3.7-.8 2.7-1.3 3.5.1-.4-1.1-.1-1.5-.1-1.5 0-3.1.1-4.6.1-6.3.1-12.6-.1-18.8.6-1.8.2-2.9 2.2-2.5 3.7-.2.5-.3 1 0 1.5 1.7 2.7 6 3.5 8.9 4.1 3.8.8 7.7 1.3 11.5 1.5 3.7.2 7.4.1 11.1-.1 3.6-.2 7.3-.7 10.4-2.6 6.2-3.9 8.4-12.4 9.8-19.1 1.6-7.6 2.2-15.1 1.2-22.7m43.4-7.9c-1.6 2-3.1 4.1-4.6 6.1-1.6 2.1-3.6 3.9-4.9 6.2-2.6 4.5-4.2 10.2-5 15.4-.3 2-1.2 5.1-.6 7.3-.1 0-.2.1-.4.1-1.3.3-2.7.5-4 .8-5 1-10.7 1.5-15.1 4.2-.6.4-.6 1.1-.3 1.6-.7.1-1.5.3-2.2.5-1.4.4-1.6 2.3-.4 3 5.1 3.4 12.7 3.8 18.7 4.2 6.1.4 13.6 1.1 18-4 3.9-4.5 3.9-10.6 4.1-16.2.3-6.8-.2-13.6.2-20.4 0-.2 0-.5-.1-.7.2-1.8.5-3.7.9-5.5.4-2.3-2.5-4.8-4.3-2.6m54.4 32.8c-.3-1.4-.7-2.8-1.2-4.1l-.1-.5c-1.4-9.1-3.9-18-7.3-26.5-1.7-4.2-3.6-8.3-5.8-12.3-1.1-2.1-2.4-4.1-3.6-6.2-2.5-5.9-5.2-11.8-7.8-17.7-1.7-3.9-3.5-7.9-5.3-11.8-1.8-3.9-3.4-7.9-6.4-11-.9-1-2.6-.2-2.6 1.1-.1 4.3 1.5 8.5 2.8 12.6 1.3 4 2.5 7.9 3.8 11.9 2.6 8.3 4.9 16.6 7.5 24.9 2.6 8.3 4.9 16.7 7.7 24.9 1.3 4 2.7 7.9 4 11.9.3 1 .6 2 .9 3.1-.5.1-.9.2-1.4.3-2.9.7-5.9 1.4-8.8 2-2.7.6-5.4 1.2-8.2 1.6-2.7.5-5.8.7-8.2 2-1.1.6-1.1 2-.4 2.9.9 1 2.2 1.8 3.5 2.3-1.7.8-1.3 3.4.5 4 4.8 1.7 10.3 2 15.3 2.1 4 .1 8.5.5 12.3-.8 3.6-1.2 7-3.6 8.1-7.4.4-1.2.5-2.4.6-3.7.6-1.8.6-3.4.1-5.6M281 199.5c-4-6.7-8-13.5-13.3-19.4-1.4-1.5-4.1-.2-3.9 1.7-.8.4-1.4 1.2-1.5 2.5-.3 3 .7 5.8 1.7 8.5 1.3 3.4 2.5 6.8 3.8 10.1l3.6 9.7c1.1 2.8 1.8 6.4 3.8 8.7.9 1 2.8 1.3 3.9.5 1.2-.8 1.8-1.6 1.8-3.1 0-.3-.1-.7-.2-.9.3-.2.6-.4.8-.7 5-5.3 2.8-12-.5-17.6M420.2 266c-.2-9.2-1-18.3-2.2-27.4-.7-5.1-1.3-10.1-1.9-15.2l-.9-8.1c-.3-2.2-.2-4.6-2-6.1-.2-.2-.4-.3-.6-.3-.4-4.6-1-9.2-1.7-13.8-.8-5.2-1.1-11.1-3.1-16-.8-1.9-2.2-3.3-4.4-3.3-1.9 0-4 1.4-4.4 3.3-1.1 5.5-.4 11.5-.5 17.1 0 5.7.1 11.3.4 17 .5 11.2.7 22.3 1.1 33.5.2 5.5.3 11 .6 16.5.2 2.8.3 5.7.5 8.5.1 1.4.2 2.8.4 4.3v2.4c-1 .1-2.1.4-2.9.4-2.8.2-5.6.5-8.3.8-5.4.6-10.9 1.1-16.2 2.6-1.8.5-1.8 2.5-.7 3.5-.6.1-1.1.2-1.7.4-1.1.4-1.7 1.9-.7 2.8 2.8 2.6 8 3.1 11.7 3.7 4.6.8 9.2 1.3 13.9 1.3 7.7.1 15.2-1 19.9-7.9 3.8-5.8 3.9-13.3 3.7-20m51.1-32.6c0-.1-.1-.3-.1-.4-.2-1.6-.5-3.2-1-4.7-1.4-3.7-6.4-3.9-7.7 0-1.1 3.3-1.1 7.5-1.3 11-.2 3.7-.4 7.3-.4 11-.1 7.1-.4 14.3-.8 21.4-.1 1.7-.2 3.5-.3 5.2-.1.9-.2 1.7-.3 2.6v.3c-.1 0-.2.1-.4.2l-.9.3c-.9.3-1.9.5-2.8.7-1.4.3-2.8.6-4.3.8-3.2.4-6.4.8-9.6 1-2.9.2-7 .2-9.3 2-.8.6-.8 2-.4 2.8.9 1.6 3 2.7 5.1 3.4.9.7 2 1 3.2 1.5 1.8.7 3.7 1.2 5.6 1.6 4 .8 8 1.5 12 1.6 3.6.1 7.7.3 11-1.5 3.7-2.1 5-5.8 5.4-9.8 1.6-17.1.6-34.2-2.7-51m39.3-1.9c-3.2-10.9-9.2-20.9-16-29.8-3.4-4.4-7-8.7-10.6-13-1.3-1.5-2.6-3.1-4-4.7-1.5-2.1-3.1-4.3-4.5-6.5-1.8-2.7-6.6-1.9-6.5 1.8.2 5.2 3 9.4 5.7 13.6l9.6 15.3c6.3 10.1 12.8 20 19.4 29.9 2.2 3.3 7.2.7 5.9-2.7 1-1 1.5-2.3 1-3.9"/><path class="st0" d="M545.4 218.2c0-.4-.2-.7-.4-1-.1-3.7-.1-7.4-.2-11-.1-3.9-.1-7.8-.1-11.7v-5.9c0-1.9-.3-4.1 0-5.9 1.2-6.6-6.5-9.6-10.4-4.4-3 4-3.8 9.8-4.2 14.7-.5 4.9-.5 9.8-.6 14.7-.3 10.9-.3 21.7-.4 32.6-.1 10.7 1.1 21.4.7 32.1-.1 2.9-.7 5.1-3.7 6.1-4.2 1.3-8.9 1.7-13.3 2.1-1.6.2-3.1.3-4.7.4-.5 0-2.3.3-2.6.2-.8-.3-1.3-1.9-1.8-2.5-.9-1.3-1.9-2.4-2.8-3.6-1.8-2.3-3.6-4.5-5.4-6.8s-3.3-4.4-5.8-5.9c-.4-.3-1.1.1-1.1.6.5 5.3 3.7 10.3 5.9 15 2 4.4 4.1 10.4 9.4 11.5.3.1.6.1.9.2 1.3.9 2.7 1.6 4.2 2.2 7.9 3.3 16.8 2.1 25 .7 3.4-.6 6.8-1.7 9.1-4.4 2.7-3.2 2.8-7.4 3-11.4.3-9.1.5-18.3.6-27.4 0-10.6-.2-20.9-1.3-31.2m118.2 30.5c0-1.2-.9-2.1-1.9-2.3.1-1 .2-2 .2-3 .1-2.8-.1-5.6-.5-8.3-.4-2.8-.7-5.5-3.4-7.1-.9-.5-2.3-.4-3 .4-2.7 3-1.8 8-2.6 11.8s-2.2 7.5-4 11c-.9 1.8-2 3.5-3.1 5.2l-.9 1.2-.2.3c.1-.2.3-.5-.1.1-1.2 1.5-1.5 2-2.1 2.7-1.3 1.5-2.7 3-4.2 4.4-.7.7-1.5 1.3-2.3 2-.4.3-.8.7-1.1 1l-.4.4c-.1.1-.3.2-.5.3-8.2 5.7-17.8 7.6-27.6 9.3-4.9.8-10.3 1.4-15.2 1-4.1-.4-8.1-2.1-11.6-4.2-4.3-2.6-8.2-6-11.7-9.6-1.7-1.8-3.3-3.6-4.9-5.5-1.6-1.8-2.9-4.1-5-5.3-.4-.2-.8.1-.8.5-.1 2.2 1 4.2 1.8 6.3 1 2.5 2.3 4.8 3.6 7.1 2.6 4.4 5.6 8.4 9.3 11.9 4.8 4.4 10.4 7.7 16.5 9.6 6.5 3.2 13.5 5.6 20.7 6.7 18 2.6 34.3-6 44.8-20.4 5.6-7.7 10.6-18 10.2-27.5"/><path class="st0" d="M643.2 184.5c-.1-1.1-.9-2.2-1.9-2.8-2.6-4-9.3-5.1-12.2 0-1.6 2.8-2.6 6.1-3.8 9.1-.6 1.5-1.1 3.1-1.8 4.6-.8.1-1.6.1-2.3.3-1.5.2-3.1.5-4.6.8-1.7.3-3.4.7-5.1 1.2-3.5.6-6.8 1.5-10 2.8-5.8 2.4-11.9 5.6-16.1 10.3-4 4.5-5.9 10.2-6.1 16.2-.1 3 .5 6.1 1.1 9.1.4 1.9.9 5.7 2.9 6.6.2.1.4.1.6-.1.8-.8.9-2 .9-3.2l.6 1.8c-.5 4 .7 9.9 4.1 12 .3.2.9.1 1.1-.3.5-1.1.6-2.3.6-3.6 1 1.6 2.1 3.1 3.2 4.6.3.4 1 0 .8-.5-3.4-8.3-5.9-17.9-3.3-26.8 2.4-8.3 9-13.2 17.2-14.9 3.8-.8 7.6-.9 11.5-.8 4.2.2 8.8 1.1 12.6-1.2 3.6-2.1 5.2-6.2 6.4-10 .8-2.5 1.5-5 2.1-7.6.6-2.4 1.8-5.1 1.5-7.6m-19.7 61.9c-1.2.1-2.7-.6-3.8-.9-1.5-.4-3-.8-4.6-.8-1.7-.1-4.6.2-4.8 2.3-.3 2.4 2.6 4.5 4.5 5.6 2.4 1.3 6 2.8 8.8 2.8 5.7 0 5.7-9.3-.1-9m182.6 6.7c-.7-3.2-1.5-6.2-2.8-9.1-.5-1.6-1.1-3.2-1.8-4.8-1.7-3.6-4.9-6.9-7.8-9.6-6-5.5-13.3-9-20.3-12.9-5.9-3.3-11.4-10.7-5.6-16.7 2.6-2.7 5.8-3.4 9.4-2.4 1.9.5 3.5 1.5 5.1 2.5 2 1.3 3.9 3.2 6.1 4.1 6.8 2.7 10.6-2.9 13-8.3 1.1-2.6 2.5-5.4 3.1-8.1 1-4-1.4-7.4-5.1-8.7-1.8-.6-4.6 0-5.8 1.5-.1.1-.2.2-.3.4-2 1.9-2.7 4.7-3.8 7.3l-.4 1c-1.5-.8-3.2-1.4-4.9-1.8-4-1-8.1-1.1-12.1-.3-6.6 1.4-12.5 5.8-14.6 12.4-2.2 7 1.1 13.7 6.5 18.1 5.5 4.5 12.6 6.7 17.7 11.6 5.1 4.9 8.1 10.7 10.2 17.5 2 6.3 1.9 12.6-.3 18.8-4.3 12.3-16 19.4-28.6 20.2-8 .5-15.9-.5-23.9-1.2-7.6-.7-14.5-2.3-21.1-6.4-.4-.3-.9.3-.7.7.8 1.4 1.8 2.8 2.8 4.1l-1.2-.6c-.5-.2-.9.2-.7.7 1.7 4 5.4 7 8.8 9.6 3.6 2.7 7.7 4.9 11.9 6.5 8.8 3.3 18.4 4.3 27.7 3.3 18.9-1.9 39.7-13.4 40.9-34.5.6-5-.3-10-1.4-14.9"/><path class="st0" d="M769.8 245.2c-3.8-4.5-9.7-6.9-14.6-9.9-4.6-2.8-9.3-5.8-13.3-9.5-4-3.8-7.1-8.3-10.5-12.6-.3-.4-1 0-1 .4-.7 10.1 5.8 20.1 12 27.5 3.4 4.1 8.1 7.2 12.7 9.9 1.1.6 2.2 1.2 3.1 2 .3.3.4.3.8.8.1.1.8.9.4.4.6.8 1.3 1.8 1.7 2.8 0 0 .1.4.1.5v1.1c.1 2.5 2.7 5 5.3 4 7.4-2.7 7.7-12 3.3-17.4m306.1-25.7c-.9-6.1-3.6-11.4-7.1-16.3-3.6-8.5-8.9-16.3-15.6-22.4-2.2-2-5.3.5-4 3.1 1.2 2.5 2.5 4.8 3.7 7.3 1.3 2.8 3 5.3 4.7 7.7.5.7 1.1 1.5 1.6 2.2 1.8 4.6 3 9.4 3.7 14.2 1.4 9.2.7 18.4-1.2 27.4-.9 1.8-1.7 3.6-2.6 5.3-2.8 5.4-5.6 10.1-9.6 14.2-3.6 3.7-8.1 6.5-12.8 8.6-1.8.8-4.8 1.8-7.1 2.4-1.4.4-2.8.7-4.1 1-.8.2-1.7.3-2.5.5-.2 0-1.5.2-1.6.2-6.1.7-12.4.7-18.3-.4-6.4-1.2-12.7-2.5-18.4-5.8-5.5-3.3-8.4-8.3-12.4-13.1-.5-.6-1.3-.1-1.4.6-.1 1.1-.1 2.2.1 3.3-.5-.8-1-1.6-1.5-2.3-.4-.5-1.3-.4-1.3.3.5 8.4 7 16.4 13.1 21.7 6.7 6 15.1 10.3 23.9 12.4 18.6 4.5 37.7-2.3 51.7-14.9.4-.4.8-.7 1.2-1.1 3.1-2.7 5.9-5.8 8.2-9.3.4-.5.8-1 1.1-1.6 2.5-3.6 5.5-8.7 6-13.4 1.1-3.3 1.9-6.8 2.3-10.3.9-7 1.3-14.5.2-21.5"/><path class="st0" d="M1033.9 198.8c-3.3-1.7-7.1-2.3-10.8-2.2-7.7.1-15.1 3-21.1 7.8-6.1 4.9-10.4 12.3-10.8 20.2-.3 7.1 2.7 17 10.5 18.7.5.1.9-.2.9-.7.1-3.3-1.4-5.7-2.1-8.8-.7-2.7-1-5.6-.6-8.3.8-5.7 3.4-10.7 8-14.4 4.1-3.3 9.5-5.4 14.8-5.5 2.7-.1 5.4.4 8 .9 2.6.5 5.2 1.8 7.9 1.5.8-.1 1.5-.6 1.5-1.5 0-3.6-3.2-6.2-6.2-7.7m162.8 3.7c0-4.1 0-8.2-.1-12.2-.2-4.3-.8-8.5-1.3-12.8-.7-6.6-10.1-6.9-10.4 0-.2 4.3-.6 8.5-.6 12.8 0 3.9.2 7.8.2 11.7.1 8.3.3 16.7.4 25 .2 14.5 0 28.9-1.4 43.3-7 .2-14 .6-20.9 1.1-3.1.2-7.4 1.3-10-.6-1.8-1.3-3.5-2.9-5.1-4.6-1-1.7-1.9-3.4-2.8-5.1-2.3-4.3-4.6-8.6-7.1-12.8-2.6-4.3-5.3-8.4-8.3-12.4-2.4-3.1-4.8-6.9-8-9.4-1.8-3.4-6.8-3.5-8.1.6-2.1 6.5-1.3 14.2-1.7 21-.4 6.8-1 13.6-1.8 20.3-.2 1.6-.4 3.1-.6 4.7-.1.6-.1 1-.1 1.3-1.7.7-5.6 2.3-6.1 2.5-3.2 1-6.5 1.9-9.8 2.6-3.2.6-6.5.9-9.7 1.8-1 .3-1.3 1.9-.3 2.4.4.2.9.4 1.4.6-.2 0-.3.1-.5.1-.3.1-.4.3-.3.6.5 2.6 3.9 4.1 6.1 5 2.8 1.2 5.7 1.8 8.8 1.9 7.1.3 13.5-2.5 19.4-6.2 5.8-3.5 8.9-9 10-15.6.6-3.3.9-6.6 1-10v-.4c2.7 4.3 5.5 8.5 8.6 12.6 2.6 3.4 5.2 7.1 8.6 9.7 4.2 3.2 8.8 3.3 13.9 3 9.7-.5 19.5-1 29.1-2.1 3.3-.4 6.4-2.6 6.3-6.3-.4-16.5.4-33 1-49.5.1-8.3.3-16.5.2-24.6"/><path class="st0" d="M1160.3 224.3c-.3-1.7-.8-3.4-1.3-5 .4-2.1.3-4.3.2-6.5l-.3-12.2-.4-8.4c.5-3.8.8-7.6.4-11.5-.1-1.2-1.2-2.1-2.2-2.2 0-.1-.1-.2-.1-.3-.1-.1-.2-.1-.3 0-.1.1-.1.2-.2.3-.5.1-1 .4-1.3 1-4.4 7.4-5.5 16.3-5.6 24.9v2.6c-1.9-2.3-3.9-4.6-5.9-7-6.5-7.5-11.7-16-17.5-24.1-.5-.7-1.6-.1-1.2.7 3.8 9.1 8.2 17.8 13.9 25.9 4.4 6.3 9.3 12.1 13.2 18.7.7 2 1.7 3.8 2.8 5.4v.1c.2.2.3.4.5.7 2.2 2.8 5.7-.2 5.3-3.1"/><path class="st2" d="M880.2 243.1c-12.7 0-26.1-11.5-25.7-26.1.3-13.6 12.3-23.2 23.7-24.6 12-1.4 25.3 6.2 28.1 18.4 3.4 15-10.4 32.3-26.1 32.3m49.4-31.2c-3.5-21.1-20.5-36.3-38.7-40.9-3.3-.8-21.6-5.1-39.4 6.2-14.7 9.3-23.4 25.6-23.7 41.9-.5 25.1 18.8 48.8 43.5 52.5 23.9 3.6 41.2-13.1 43.2-15.1 2.2-2.1 19.3-19.7 15.1-44.6"/><path class="st3" d="M59.9 3.8c-8.3 0-17.9 1.7-27.4 7-7.3 4-24.6 15.8-28.3 38.3-3.5 21.3 7 39 17.9 48.4 13.2 11.4 28.5 12.4 34.2 12.8 8.7.6 17.3-.6 25.7-3.5-.2-3.8-.5-7.7-.9-11.5-.3-2.7-.6-5.4-1-8-5.5.8-11 .9-16.5.2-8.8-1-18.9-2.2-26.2-10.5-6.1-6.8-7.2-15-7.3-19.2-.3-12.8 7.4-21.6 10.7-24.7 9.2-8.7 23.2-11.8 36.8-8 1.3-2.9 2.5-5.9 3.6-8.8.9-2.6 1.7-5.3 2.4-8-3.9-1.6-12.7-4.5-23.7-4.5m.8 110.2c-1.5 0-3-.1-4.5-.2-22.2-1.5-32.8-10.6-36.3-13.6C4.9 87.4-2.4 67.6.7 48.6 4.6 24.5 23 11.9 30.8 7.6 54.6-5.5 78.5 2.3 85.3 5c1.5.6 2.3 2.2 1.9 3.7-.7 2.9-1.6 5.8-2.6 8.7-1.1 3.3-2.5 6.5-3.9 9.6-.6 1.3-2.1 2-3.6 1.6-12.5-3.6-25.5-1-33.8 7-3 2.8-9.9 10.7-9.6 22 .1 3.7 1.1 10.9 6.4 16.9 6.5 7.3 15.8 8.4 24 9.3 5.4.6 10.8.5 16.2-.3.7-.1 1.5.1 2.1.5s1 1.1 1.1 1.9c.4 2.9.8 5.9 1.1 8.9.4 3.9.7 7.9 1 11.8.1 1.5-.9 3-2.3 3.5-7.4 2.6-15 3.9-22.6 3.9" transform="translate(0 173.745)"/><path class="st3" d="M148.9 252.3c7.9 0 15.8-4.1 21.3-11.1 4.9-6.3 6.9-13.6 5.3-20.1-2.6-11-15.8-19.1-28.7-17.6-14.8 1.7-23.9 13.4-24.2 23.7-.2 6 2.3 11.9 6.9 16.6 5.2 5.3 12.5 8.5 19.4 8.5m0 3.6c-7.9 0-16.1-3.6-22-9.6-5.3-5.4-8.1-12.2-7.9-19.2s3.4-13.6 9-18.7c5.1-4.6 11.8-7.7 18.4-8.4 6.8-.8 14.2.9 20.2 4.5 6.4 3.8 10.8 9.5 12.4 15.9 1.8 7.6-.4 16-6 23.2-6.1 7.6-15.1 12.3-24.1 12.3m-2-78.6c-8 0-18.4 1.7-28.5 8-15.1 9.5-24.6 26.4-24.9 44.2-.5 26.6 20.1 51.5 45.9 55.4 24.4 3.7 42.2-12.6 45.5-16 3.4-3.4 20.2-21.6 15.9-47.1-4-23.7-23.4-38.7-40.9-43.1-2.1-.5-6.9-1.4-13-1.4m-.3 111.7c-2.5 0-5.1-.2-7.7-.6-27.5-4.2-49.5-30.7-49-59 .3-18.9 10.5-37 26.6-47.1 19-12 38.7-8.4 44.3-7 10.4 2.6 20.3 8.3 28 16 8.3 8.4 13.7 18.7 15.6 30 4.5 27.2-13.3 46.6-16.9 50.2-3.2 3.1-18.8 17.5-40.9 17.5m873-90.3c-1 0-2 .1-3 .2-14.7 1.7-23.8 13.5-24 23.9-.2 6.1 2.3 12.1 7 16.9 5.1 5.3 12.3 8.4 19.1 8.4 7.7 0 15.5-4.1 21-10.9 5.1-6.4 7.1-13.9 5.5-20.6-2.6-10.1-13.9-17.9-25.6-17.9m-1 53.1c-7.8 0-15.9-3.6-21.7-9.5-5.3-5.5-8.2-12.4-8-19.5.2-7 3.3-13.7 8.9-18.9 5-4.7 11.7-7.8 18.3-8.5 6.8-.8 14.1.9 20.1 4.5 6.4 3.9 10.8 9.6 12.3 16 1.8 7.8-.4 16.4-6.2 23.6-6 7.7-14.9 12.3-23.7 12.3m-2-79.4c-8 0-18.2 1.7-28.3 8.1-15 9.6-24.5 26.7-24.8 44.6-.5 26.9 20 52.1 45.7 56 2.4.4 4.8.5 7.1.5 20.6 0 35.2-13.7 38.1-16.7 3.4-3.4 20.1-21.9 15.8-47.6-3.9-23.9-23.2-39.1-40.6-43.5-2.2-.4-6.9-1.4-13-1.4m-.3 112.9c-2.5 0-5-.2-7.7-.6-27.4-4.2-49.2-31-48.7-59.6.3-19.1 10.5-37.3 26.5-47.6 18.9-12.1 38.5-8.4 44.1-7 10.3 2.6 20.2 8.4 27.8 16.1 8.3 8.4 13.6 18.9 15.5 30.3 4.5 27.4-13.2 47-16.8 50.7-3.2 3.2-18.7 17.7-40.7 17.7M240.2 181.4c-4.8 17.8-9.9 35.7-15.3 53.4-4.8 15.6-9.9 31.4-15.1 46.9 4.7-.3 9.5-.6 14.2-.7 5.2-.2 10.5-.2 15.7-.2l14.1-39.9c.3-.9 1.1-1.5 2.1-1.5.9 0 1.8.6 2.1 1.5 2.6 7.3 4.6 14.9 5.9 22.6.9 5.2 1.6 10.5 2 15.8 4.3-.2 8.2-.3 12-.5 3.9-.2 7.7-.3 11.9-.5l9.5-31.1c1.2-3.8 1.6-5.3 1.9-6 .3-.8 1.1-1.4 2-1.4s1.7.5 2.1 1.3c2.1 4.9 5 12.9 7.1 18.8l.5 1.5c2.3 6.4 4.5 13 6.4 19.5 5.2-.5 10.5-.9 15.7-1.2 5.1-.3 10.2-.4 15.3-.5-4.5-11.9-8.9-23.9-13.1-35.5-2-5.5-3.6-10.2-5.2-14.8-2.4-6.8-4.9-13.9-8.5-23.9-2.8-7.7-5.6-15.4-8.5-23l-20.5.3c-2.7 6.2-4.9 13.7-7.1 20.9-2.1 7.1-4.1 13.9-6.4 19-.3.7-1 1.1-1.7 1.1s-1.4-.5-1.6-1.1c-1-2.5-2-5.1-3.1-7.9-4.1-10.3-8.8-22-11.3-31.6-.1-.2-.3-.4-.5-.4l-22.6-.9zm-31.6 103.9c-.8 0-1.6-.4-2.2-1.1-.6-.7-.7-1.7-.4-2.5 5.4-15.8 10.6-32 15.5-48 5.4-17.7 10.5-35.7 15.3-53.5.4-1.5 1.7-2.5 3.3-2.4l22.9 1c1.8.1 3.4 1.3 3.8 3.1 2.4 9.4 7.1 21 11.1 31.2.5 1.3 1 2.5 1.5 3.7 1.6-4.2 3.1-9.2 4.6-14.4 2.2-7.5 4.5-15.2 7.3-21.7.5-1.1 1.5-1.8 2.7-1.8l21.4-.3c1.2 0 2.3.7 2.7 1.8 2.9 7.7 5.8 15.6 8.7 23.5 3.6 10 6.1 17.1 8.5 23.9 1.6 4.6 3.3 9.3 5.2 14.8 4.2 11.8 8.7 23.9 13.3 36 .4 1 .2 2.1-.4 3s-1.6 1.4-2.6 1.4c-5.2.1-10.5.2-15.7.5-5.4.3-10.8.7-16.1 1.2-1.4.1-2.6-.7-3-2-2-6.7-4.2-13.4-6.5-19.9l-.5-1.5c-1.7-4.6-3.8-10.4-5.6-15.1L293.1 280c-.3 1.1-1.3 1.9-2.5 2-4.4.2-8.4.3-12.5.5-4.2.2-8.5.4-13.3.5-1.3 0-2.3-.9-2.4-2.2-.4-5.6-1-11.2-2-16.6-1.1-6.1-2.6-12.3-4.5-18.2L243 282.7c-.4 1.1-1.5 1.8-2.6 1.8-5.4 0-10.8 0-16.2.2-5.1.2-10.3.4-15.4.8-.1-.2-.2-.2-.2-.2zm163-105.3c.9 6.9 1.5 13.9 2 20.9.8 13.1.7 22.4.6 34.2 0 3.3-.1 6.7-.1 10.5-.1 12.4.1 25.2.4 38l32.8-.6c0-6.3-.2-12.7-.4-19-.4-13.1-1-22.2-1.6-31.8-.3-4.4-.6-9-.8-14-.7-12.9-1.1-26.2-1.3-39.5-3.8.2-7.6.3-11.4.2h-3.6c-4-.1-7.1-.1-11.4.4-1.7.1-3.5.4-5.2.7zm2.1 107.2c-1.5 0-2.8-1.2-2.8-2.7-.4-13.1-.5-26.2-.5-38.8 0-3.8.1-7.2.1-10.5.1-11.7.3-21-.6-33.9-.5-7-1.1-14.1-2-21-.2-1.6.9-3.2 2.5-3.5 2-.4 4-.7 6-1 4.5-.5 7.8-.5 11.9-.4h3.6c3.9 0 7.9-.1 11.9-.3.8 0 1.6.2 2.1.8.6.5.9 1.3.9 2.1.2 13.5.6 27 1.3 40.1.3 5 .6 9.6.8 14 .6 9.7 1.2 18.8 1.6 31.9.2 6.7.3 13.4.4 20.1 0 1.4-1.1 2.6-2.6 2.6l-34.6.5zm711-113.1c.4 21.8.8 43.9 1 65.7l.3 40.1 26.2-.7 1-55.8c0-1 .6-1.8 1.5-2.1s1.9 0 2.5.8c6.2 8 11.8 16.3 16.5 24.7.7 1.2 1.3 2.4 2 3.6 2.2 4 4.5 8.2 8.2 13.5 3.2 4.7 6.8 9.3 10.6 13.6l30.6-1.2c-.9-10.9-1.2-22-1.1-32.7.1-12.4 1-23.3 2.6-43.2.7-8.3 1.4-16.7 2.1-24.9l-29.8-1.6 2.7 58.7c0 1-.6 1.8-1.5 2.1s-1.9-.1-2.4-.9c-3.8-6.2-7.7-12.4-11.7-18.5-2.8-4.2-4.8-7.3-6.8-10.2-2.4-3.6-4.6-6.8-7.5-11.4-4-6.3-7.9-12.7-11.6-19.1l-35.4-.5zm.1 109.4c-.6 0-1.3-.3-1.7-.7-.5-.5-.8-1.1-.8-1.8 0-13.7-.1-27.5-.3-41.1-.2-22.2-.6-44.8-1-67 0-.6.2-1.2.7-1.7.4-.4 1-.7 1.6-.7l37.1.2c1 0 1.9.6 2.4 1.4 3.7 6.5 7.7 13 11.7 19.3 2.9 4.5 5 7.7 7.4 11.3 1.9 2.8 4 6 6.8 10.3 3 4.6 5.9 9.2 8.8 13.8l-2.5-54.4c0-.7.2-1.3.7-1.8s1.1-.7 1.8-.7l32.2 1.7c.7 0 1.4.4 1.8.9.5.5.7 1.2.6 1.9-.8 8.5-1.5 17.2-2.2 25.9-1.6 19.8-2.4 30.7-2.5 43-.1 10.9.3 22.1 1.2 33.3.1.7-.2 1.5-.7 2-.5.6-1.2.9-1.9.9l-31.8 1.2c-.9 0-1.8-.3-2.4-1-3.9-4.4-7.6-9.2-11-14.1-3.8-5.5-6.1-9.7-8.4-13.8-.7-1.2-1.3-2.3-2-3.5-4.1-7.1-8.7-14.3-13.9-21.2l-.9 53.1c0 1.3-1.1 2.4-2.4 2.4l-28.4.9c.1 0 0 0 0 0zM434.6 178.7c.4 21.8.8 43.9 1 65.7.1 13.2.2 26.7.3 40.1l26.2-.7 1-55.8c0-1 .6-1.8 1.5-2.1s1.9 0 2.5.8c6.2 8 11.8 16.3 16.5 24.7.7 1.2 1.3 2.4 2 3.6 2.2 4 4.5 8.2 8.2 13.5 3.2 4.7 6.8 9.3 10.6 13.6l30.6-1.2c-.9-10.9-1.2-21.9-1.1-32.7.1-12.4 1-23.3 2.5-43.2.7-8.3 1.4-16.7 2.1-24.9l-29.8-1.6 2.7 58.7c0 1-.6 1.8-1.5 2.1s-1.9-.1-2.4-.9c-3.8-6.2-7.7-12.4-11.7-18.5-2.8-4.2-4.8-7.3-6.8-10.2-2.4-3.6-4.6-6.8-7.5-11.4-4-6.2-7.9-12.7-11.6-19.1 0-.2-35.3-.5-35.3-.5zm.2 109.4c-.6 0-1.3-.3-1.7-.7-.5-.5-.8-1.1-.8-1.8 0-13.7-.1-27.5-.3-41.1-.2-22.2-.5-44.8-1-67 0-.6.2-1.2.7-1.7.4-.4 1-.7 1.6-.7l37.1.2c1 0 1.9.6 2.4 1.4 3.7 6.5 7.7 13 11.7 19.3 2.9 4.5 5 7.7 7.4 11.3 1.9 2.8 4 6 6.8 10.3 3 4.6 5.9 9.2 8.8 13.8L505 177c0-.7.2-1.3.7-1.8s1.1-.7 1.8-.7l32.2 1.7c.7 0 1.4.4 1.8.9.5.5.7 1.2.6 2-.8 8.6-1.5 17.3-2.2 25.9-1.7 21.3-2.4 31.2-2.5 43-.1 10.9.3 22.1 1.2 33.3.1.7-.2 1.5-.7 2-.5.6-1.2.9-1.9.9l-31.8 1.2c-.9 0-1.8-.3-2.4-1-3.9-4.4-7.6-9.2-11-14.1-3.8-5.5-6.1-9.7-8.4-13.8-.6-1.2-1.3-2.3-2-3.5-4.1-7.1-8.7-14.3-13.9-21.2l-.9 53.1c0 1.3-1.1 2.4-2.4 2.4l-28.4.8zm175.5-110.3c-8.3 0-17.9 1.7-27.4 7-7.3 4-24.6 15.8-28.3 38.4-3.5 21.3 7 39 17.9 48.4 12.6 10.8 26.8 12.7 34.1 12.8.4 0 9.2.1 19.6-3.2 13.1-4.2 22.5-11.6 27.8-22.2 6-11.8 4.9-23.9 3.6-30.4l-42.7.2-1.6 18.5 16.7.7c.9 0 1.6.6 1.9 1.4.3.8.2 1.7-.4 2.3-2.9 3.2-6.2 5.6-10 7.3-8.9 4-22.6 4.3-31.8-4.2-6.2-5.8-7.6-13.2-8.1-16-2.1-11.4 2.2-23.8 10.9-31.7 6.6-5.9 13.8-7.5 16.9-8.2 7.5-1.6 14.1-.8 18.5.3 1.4-2.9 2.6-5.9 3.6-8.9.9-2.6 1.7-5.3 2.4-8-3.8-1.6-12.6-4.5-23.6-4.5zm-3.4 110.1h-.3c-7.8-.1-23-2.1-36.4-13.6-14.9-12.8-22.2-32.6-19.1-51.7 3.9-24.1 22.3-36.6 30.1-40.9 23.8-13.2 47.7-5.3 54.5-2.6 1.5.6 2.3 2.2 1.9 3.7-.7 2.9-1.6 5.8-2.6 8.7-1.1 3.2-2.4 6.5-3.9 9.6l-.1.3c-.6 1.2-1.9 1.8-3.2 1.5-4-1.1-10.3-2-17.5-.4-2.8.6-9.4 2-15.3 7.4-7.8 7-11.6 18.2-9.7 28.4.5 2.7 1.7 9 7 14 8 7.4 20 7 27.9 3.5 2.4-1.1 4.6-2.5 6.6-4.2l-14.2-.6c-.8 0-1.5-.4-2-1s-.8-1.4-.7-2.1l1.7-20.1c.1-1.4 1.3-2.4 2.7-2.5l44.1-.2c1.3 0 2.5.9 2.8 2.2 1.5 6.8 2.9 20.2-3.8 33.4-5.7 11.3-16.1 19.6-30 24-10.1 3-18.8 3.2-20.5 3.2zM717 277.4c26.1 15.8 62.9 16.4 75.8 1.4 7-8.2 8.8-22.4 4.3-34.6-3.4-9.2-12.6-14.5-21.5-19.5-8.1-4.6-15.8-8.9-18.7-16.1-.5-1.3-2-5.1-.8-9.4 1.8-6.6 8.5-9.5 9.8-10.1 5.4-2.1 17.6.3 25.8 6.5l6.5-13.9c-11.9-11.2-30.3-16.6-43-12.5-2.6.8-15.9 5.7-21.9 19.8-4.8 11.3-4.4 20.8 1.3 29.2 5.1 7.4 13.5 13 20.9 17.9 10.4 6.8 20.2 13.3 15 22.7-1.9 3.4-4.6 5.6-8.1 6.5-10 2.5-23.6-6.4-30.9-11.2-1.4-.9-2.9-1.9-3.6-2.3-1.6.4-6.4 3.6-10.9 25.6zm44 15.8h-.8c-15.5-.2-32-4.8-45.2-12.8-1.3-.8-1.9-2.2-1.6-3.7 3.8-18.7 8.6-28.1 14.5-28.5 1-.1 1.9.5 5.6 2.9 6.4 4.2 19.6 12.9 28.1 10.7 2.5-.6 4.4-2.2 5.8-4.7 3.4-6.2-2.7-10.7-13.9-18-15-9.9-35.6-23.4-23.6-51.5 6.6-15.5 21.3-20.9 24.1-21.8 14-4.5 34.2 1.4 47 13.7.9.8 1.1 2.1.6 3.2l-7.1 15.2c-.4.8-1.1 1.4-2 1.6-.9.2-1.8 0-2.5-.6-6.2-5.1-18-8.5-22.9-6.5-1 .4-6.4 2.7-7.7 7.7-.9 3.2.3 6.1.7 7.1 2.4 6 9.5 10 17.1 14.3 9 5.1 19.3 10.9 23.1 21.4 4.9 13.3 2.8 29-5 38.1-6.5 7.8-19 12.2-34.3 12.2z"/><path class="st0" d="M59.6 273.3c-13.1 0-24.4-4.3-32.6-12.5-7.5-7.5-11.7-17.5-11.7-28.3 0-25.4 21.8-47.6 46.6-47.6.1 0 12.7.2 14.2 3.3.3.5 0 1.1-.5 1.4-.5.3-1.1 0-1.4-.5-.7-1.1-8.3-2.2-12.4-2.2-11.3 0-22.6 5-31.2 13.8-8.5 8.7-13.4 20.3-13.4 31.8 0 10.2 3.9 19.7 11.1 26.8 7.8 7.8 18.6 11.9 31.2 11.9 3.4 0 6.9-.2 11.2-.7.6-.1 1.1.3 1.1.9.1.6-.3 1.1-.9 1.1-4.2.6-7.8.8-11.3.8m86.9-86.7c-14.8 0-36.9 11.1-36.9 41.8 0 11.9 2.9 22 8.4 29.3 6.1 8.2 15 12.3 26.5 12.3 10 0 20.4-5 28.4-13.8 8.2-9 12.9-20.8 12.9-32.6 0-6.3-1.5-18.1-11.3-26.1-8.1-6.6-16.5-10.2-25.1-10.9h-2.9m-2 85.5c-27.2 0-36.9-22.6-36.9-43.7 0-32.2 23.3-43.9 38.9-43.9 1 0 1.9 0 2.9.1 9 .7 17.9 4.5 26.3 11.4 10.5 8.5 12.1 21 12.1 27.7-.1 25.3-20.7 48.4-43.3 48.4m106-81.1c-1 0-2 .5-2.8 1.3-1 1.2-1.6 3.1-1.6 5.4 0 1.5.5 3.2 1.3 5.1 2.4-6 4.1-10.2 4.6-11.3-.2-.2-.7-.5-1.5-.5m54.7 2.1c-.7.3-3 2.9-3 7.1 0 1.2.4 3 1.1 5.3 2.3-4.1 3.9-7.3 3.9-8.6-.1-2.7-1.4-3.8-2-3.8m-29 64.7c-.3 1.2-.5 2.2-.5 3.1 0 2.3.8 3.4 1.2 3.7.1-.2.2-.5.2-1.2-.1-.5-.5-3.3-.9-5.6m53.7 11.5c-.4 0-.7-.2-.9-.5-3.8-6.9-19.9-40.2-26.3-58.3-1.9 3.2-4.3 7-6.9 11.3-6.7 10.9-14.7 23.7-18.2 32.3.4 1.2 1.5 8.9 1.5 9.3 0 .9-.2 1.7-.5 2.3-.4.7-1 1.1-1.7 1.1-1.6 0-3.3-2.2-3.3-5.8 0-1.8.6-4.1 1.8-6.9-4.8-12.6-12.8-24.2-19.4-33.5-3.3-4.7-6.2-8.9-8.4-12.7-6.8 17.2-17.3 44.3-22.1 59.9-.2.5-.7.8-1.3.7-.5-.2-.8-.7-.7-1.3 5-16.1 16-44.6 22.8-61.7-1.4-2.9-2.3-5.4-2.3-7.7 0-2.9.7-5.2 2.1-6.8 1.1-1.3 2.7-2 4.3-2 2 0 3.5 1.1 3.5 2.7 0 .1 0 .3-.1.4-.1.2-2.2 5.4-5.4 13.3 2.1 4.1 5.5 8.8 9.1 14 6.3 8.9 13.9 19.9 18.8 32 3.9-8.6 11-20.1 17.5-30.6 2.7-4.4 5.5-8.9 7.8-12.8-1.1-3.4-1.7-6-1.7-7.6 0-5.1 3-9.2 5-9.2s4.1 2.2 4.1 5.9c0 1.8-1.8 5.6-5.1 11.2 5.6 16.7 22 50.9 26.8 59.7.3.5.1 1.1-.4 1.4 0-.2-.2-.1-.4-.1m58.9.5c-.6 0-1-.5-1-1 0-2.3.1-4.5.1-6.7.1-2.1.1-4.3.1-6.4 0-3.9-.5-9.2-.9-13.4-.3-2.9-.5-5.4-.5-6.8 0-1.4.1-2.8.2-4.2.1-1.3.2-2.7.2-4.1 0-1.2-1.4-31.8-3-39.6-.1-.6.2-1.1.8-1.2.6-.1 1.1.2 1.2.8 1.6 8.1 3 39.8 3 40 0 1.4-.1 2.8-.2 4.2-.1 1.3-.2 2.7-.2 4.1 0 1.2.2 3.7.5 6.6.4 4.3.9 9.6.9 13.6 0 2.2-.1 4.3-.1 6.5-.1 2.1-.1 4.4-.1 6.6 0 .6-.5 1-1 1m65.3-79c-.8 0-1 1.8-1 2.1 0 2.6 1.5 6 4.1 9.9.1-1.2.1-2.3.1-3.5 0-6.4-.4-8.5-3.2-8.5m57.2 75.9c0 1.3.6 1.9.9 2.1 0-.1.1-.2.1-.5 0-.6-.3-1.3-.7-2.2l-.3.6m-65.2 7c-.6 0-1-.4-1-1v-2.5c0-17.1 3.9-31.9 7.4-45 1.9-7.1 3.6-13.5 4.4-19.3-3.6-5.1-5.8-9.6-5.8-13.1 0-1.2.5-4.1 3.1-4.1 5.3 0 5.3 5.4 5.3 10.6 0 2-.1 4-.4 6.1 7.2 10.1 19.9 22.8 30.8 33.7 9.8 9.8 17.1 17.2 21.1 22.5 3-9.6 9.4-32.7 9.4-57.2 0-5.9-.2-10.6-.7-14.9-.1-.6.3-1.1.9-1.1.6-.1 1.1.4 1.1.9.5 4.3.7 9.1.7 15.1 0 26.2-7.2 50.7-10 59.3 1.3 1.9 1.9 3.5 1.9 4.7 0 .7-.2 1.3-.5 1.8-.4.5-.9.8-1.5.8-1.5 0-3-1.7-3-4.4 0-.1 0-.2.1-.4 0 0 .3-.8.8-2.2-4-5.6-13-14.6-21.8-23.4-10.8-10.8-22.4-22.5-29.8-32.3-.9 5.3-2.4 11.1-4.1 17.4-3.4 12.9-7.3 27.6-7.3 44.4v2.5c-.1.6-.5 1-1.1 1.1m198.8-36c-1.8 1-3.1 2.3-4.2 3.7 3-.9 4.8-2.6 5.2-3.7h-.2c-.2 0-.5-.1-.7-.1 0 .1-.1.1-.1.1m-41 33.3c-8.7 0-18.4-4.4-26-11.8-8.3-8.1-12.9-18.6-12.9-29.4 0-10.3 4.3-20.9 11.7-29.3 7.7-8.6 18-13.5 28.1-13.5 1.6 0 3.2.1 4.8.4.6.1.9.6.9 1.2s-.6.9-1.2.9c-1.5-.2-3-.3-4.5-.3-9.6 0-19.3 4.7-26.6 12.9-7.1 7.9-11.2 18.1-11.2 27.9 0 10.3 4.4 20.2 12.3 27.9 7.2 7 16.4 11.2 24.5 11.2 24.9 0 27.9-9.5 30.8-18.8.7-2.1 1.3-4.2 2.2-6.2h-.2c-5.2 0-7.9-1.2-10-2.2-1.4-.7-2.6-1.2-4.2-1.2-.6 0-1-.5-1-1 0-.6.5-1 1-1 2 0 3.5.7 5 1.3 2.1.9 4.4 2 9.2 2 .5 0 .9 0 1.3-.1 1.4-2.3 3.2-4.4 6-6 .3-.2.6-.2 1.1-.2.3 0 .6 0 .9.1h.4c.9 0 1.7.7 1.7 1.6 0 1.5-1.2 3.1-3.1 4.4-1.2.8-3.1 1.7-5.8 2.1-1.1 2.2-1.9 4.5-2.6 7-2.8 9.4-6.2 20.1-32.6 20.1m158.8 8.2c-6.8 0-13.3-2.4-19.7-4.7-3-1.1-6.1-2.2-9.1-3.1-.5-.2-.9-.7-.7-1.3.2-.5.7-.9 1.3-.7 3.1.9 6.2 2 9.2 3.1 6.5 2.4 12.6 4.6 19 4.6 5.3 0 10.9-1.8 15.2-4.8 3.5-2.5 7.7-7 7.7-14.3 0-13.3-11.4-20.8-22.4-28.2s-22.5-15-22.5-28.4c0-6.8 6.3-25.6 26.7-25.6 4.7 0 9.8 1 15 2.9.5.2.8.8.6 1.3s-.8.8-1.3.6c-5-1.8-9.8-2.8-14.3-2.8-18.8 0-24.7 17.3-24.7 23.6 0 12.3 10.5 19.3 21.6 26.6 11.5 7.6 23.3 15.5 23.3 29.9 0 8.2-4.7 13.2-8.6 16-4.5 3.4-10.6 5.3-16.3 5.3m242.9-96.2c-12 2.4-30.2 17.9-30.2 35.8 0 1-.2 2-.3 3-.2 1-.3 2-.3 3 0 9.5 4.7 20 12.7 28.1 8.3 8.5 19.2 13.4 29.8 13.4 9.3 0 19.1-3.5 26.2-9.5 6.1-5.1 13.4-14.5 13.4-30.4 0-7.5-2.4-18.9-9-28.3-5.2-7.4-15.2-16.1-32.6-16.1-3.4 0-6.6.3-9.7 1m11.6 85.3c-11.1 0-22.5-5.1-31.2-14-8.3-8.5-13.2-19.5-13.2-29.5 0-1.2.2-2.3.3-3.3.1-.9.3-1.8.3-2.7 0-8.4 3.8-17.2 10.8-24.8 6.2-6.8 14.1-11.7 21.1-13.1 3.2-.6 6.6-1 9.9-1 18.3 0 28.8 9.2 34.3 17 5.9 8.3 9.4 19.3 9.4 29.5 0 16.7-7.7 26.6-14.1 32-7.6 6.2-17.9 9.9-27.6 9.9m86.1-84.6c-.1.1-.5.7-.5 1.4 0 2.5 1.7 5.8 4.5 9.7.1-1.4.1-2.7.1-4.1 0-7 0-7-4.1-7m63.3 74.3c.1 2.1 1.1 3.7 1.7 4.1 0-.2.1-.4.1-.9-.1-.6-.7-1.7-1.8-3.2m-70.5 12.3c-.7-.1-1.1-.6-1-1.1.5-5 .7-10.1.8-15 .3-9 .6-18.3 3-27.8.4-1.6 1.1-3.5 2-5.8 2.1-5.6 5-13.4 6.1-22.7-3.9-5.1-6.3-9.5-6.3-12.8 0-1.4.8-3.5 2.5-3.5 5.8 0 6.2 1.4 6.2 9.1 0 2.3-.1 4.5-.3 6.6 8.2 10.5 22.8 24.2 35.4 35.9 9.2 8.6 16.2 15.2 20.6 20 .7-3.2 1.9-7.3 3.3-12 3.5-12 8.3-28.4 8.3-43.2 0-4.4-.4-8.2-.4-8.3v-.9c0-.3.1-.6.1-.9 0-.5-.1-.9-.3-1.1-.4-.4-.4-1.1 0-1.4s1-.4 1.4 0c.9.9.9 2.1.9 2.5s0 .7-.1 1.1v.6c.1.5.4 4.2.4 8.4 0 15.1-4.9 31.7-8.4 43.8-1.6 5.5-3 10.2-3.5 13.4 2.3 2.8 3.6 4.8 3.6 6.2 0 2.8-1.4 3.1-2 3.1-1.9 0-3.9-3.4-3.9-6.7 0-.6.1-1.2.1-1.9-4.7-5.3-13.2-13.3-21.5-21-12.5-11.7-26.1-24.3-34.4-34.6-1.3 8.6-4 15.9-5.9 21.2-.8 2.3-1.6 4.2-1.9 5.7-2.4 9.2-2.7 18.4-3 27.3-.2 4.9-.3 10-.8 15.1 0 .3-.5.7-1 .7"/><path id="_x3C_Фрагмент_x3E_" fill="none" d="M0 0h1198v580H0z"/></svg>