<svg xmlns="http://www.w3.org/2000/svg" xmlns:xlink="http://www.w3.org/1999/xlink" width="380" height="269"><defs><linearGradient id="a" x1="33.856%" x2="90.348%" y1="87.788%" y2="13.673%"><stop offset="0%" stop-color="#FFBA27"/><stop offset="100%" stop-color="#F9A380"/></linearGradient><linearGradient id="b" x1="-.339%" x2="100.511%" y1="50%" y2="50%"><stop offset="0%" stop-color="#618CFA"/><stop offset="100%" stop-color="#62AFE4"/></linearGradient><linearGradient id="c" x1="33.1%" x2="92.237%" y1="87.788%" y2="13.673%"><stop offset="0%" stop-color="#FFBA27"/><stop offset="100%" stop-color="#F9A380"/></linearGradient><linearGradient id="d" x1="32.341%" x2="94.135%" y1="87.788%" y2="13.673%"><stop offset="0%" stop-color="#FFBA27"/><stop offset="100%" stop-color="#F9A380"/></linearGradient><linearGradient id="e" x1="-.339%" x2="100.511%" y1="50%" y2="50%"><stop offset="0%" stop-color="#618CFA"/><stop offset="100%" stop-color="#62AFE4"/></linearGradient><linearGradient id="f" x1="-.339%" x2="100.511%" y1="50%" y2="50%"><stop offset="0%" stop-color="#618CFA"/><stop offset="100%" stop-color="#62AFE4"/></linearGradient><path id="g" d="M0 .111h42.325v54.814H0z"/></defs><g fill="none" fill-rule="evenodd"><path fill="#DBDAE2" d="M153.862 226.415c-.441-1.609-1.95-2.192-3.455-1.965-11.065 1.67-22.199 2.858-33.337 3.908-11.076 1.045-22.19 1.73-33.316 1.795a449.543 449.543 0 01-33.784-1.072c-11.042-.767-21.998-2.314-33.078-1.304-12.162 1.109-24.273 3.776-36.496 1.671-.184-.032-.262.226-.079.286 10.361 3.367 21.374 1.673 31.991.784 5.475-.46 10.921-.716 16.41-.345 5.674.382 11.32 1.144 16.98 1.691 22.5 2.175 45.223 2.641 67.807 1.735 12.872-.517 25.649-1.874 38.395-3.723 1.503-.218 2.328-2.127 1.962-3.46"/><path fill="#FFBA27" d="M143.229 33.131c-.126.8.184 1.593.184 2.373 0 13.674-15.324 18.498-15.324 32.95 0 4.567 2.06 6.117 2.06 10.765 0 8.044-6.52 13.476-6.52 23.032 0 3.773.913 7.334 1.796 11.148 2.226 9.615 11.106 15.238 12.153 17.062.183.318.259.657.259 1.004 0 1.857-1.697 3.191-1.697 3.294 0 .528-.536 1.178-.536 1.706 0 .109.022.213.078.31l19.12 4.012a.413.413 0 01-.25-.378c0-9.599 38.516-12.538 38.516-37.796 0-6.105-2.54-11.186-2.54-15.413 0-9.183 5.529-15.447 5.529-23.122 0-10.027-11.217-5.947-8.518-25.013 2.699-19.065-40.912-27.505-44.31-5.934z"/><path fill="#FFF" d="M136.369 252.785a47.403 47.403 0 00-2.454-7.865c-.086-.21-.174-.426-.265-.64.874 1.267 4.92 1.96 8.414 1.96 4.537 0 7.826-1.42 8.073-2.563l.094.023c-.412 2.265-2.295 8.86-3.007 15.279-.182 1.64-2.004 2.265-3.425 2.49-.619.096-1.27.117-1.952.117-4.867 0-4.084-2.42-5.478-8.8"/><path fill="#43434C" d="M150.155 243.538a.53.53 0 01-.018.139c-.247 1.144-3.537 2.564-8.073 2.564-3.494 0-7.54-.694-8.414-1.962-.05-.124-.103-.248-.159-.374a.91.91 0 01-.013-.14c0-1.268 3.017-2.538 7.284-2.538 3.791 0 7.985.428 9.128 1.703.182.203.265.408.265.608"/><path fill="#FFD727" d="M134.742 245.075c1.652.76 4.648 1.166 7.322 1.166 2.905 0 5.298-.583 6.708-1.302-1.8-.734-5.029-.998-8.01-.998-2.609 0-4.749.475-6.02 1.134"/><path fill="#DBDAE2" d="M154.045 139.837l.045-.066c.218.21.339.435.339.676 0 1.129-1.015 2.258-1.828 3.075-.27.273-.573.34-.858.36-.265.017-.528.03-.788.032-.669-.316-1.14-.845-1.14-1.678 0-1.845 1.335-3.064 2.443-3.064.618 0 1.27.29 1.787.665"/><path fill="#FFF" d="M142.314 142.748c-3.537-.727-6.846-1.774-6.846-3.116 0-1.597.664-2.786 2.461-2.786.23 0 13.826.68 16.162 2.925l-.046.066c-.517-.375-1.169-.665-1.787-.665-1.108 0-2.444 1.22-2.444 3.064 0 .833.472 1.362 1.141 1.678-.106.005-.212.005-.318.005-.596 0-4.587-.405-8.323-1.171"/><path fill="#DBDAE2" d="M119.44 184.773c1.419 1.928 2.255 4.272 2.57 6.677a83.845 83.845 0 01-6.066 3.312c-1.171 3.364-1.83 6.596-1.83 10.142 0 1.893.133 3.814.133 5.707 0 .418-.01.767-.027 1.068-.672.19-1.336.375-2.028.375-2.448 0-7.05-5.477-7.913-10.74.002-.075.002-.153.002-.232 0-.627-.088-1.72-.126-1.72l-.046-.216c.036-.099.081-.213.137-.344.817-1.962 3.698-7.476 7.505-12.027v-.003a30.63 30.63 0 002.05-.344 32.7 32.7 0 005.639-1.658v.003z"/><path fill="#43434C" d="M104.887 221.623l-.111.048c.164.653.171 1.005.171 5.763 0 3.366-.03 6.734-.03 10.1 0 15.636 1.911 25.57 1.911 25.57 0 .15-.005.296-.01.446-.232.05-.45.085-.659.11-.29.034-.565.046-.84.046-1.826 0-3.204-.18-4.184-.675-1.282-.648-1.875-1.843-1.875-3.89 0-1.34.285-4.806.285-7.661 0-9.005-3.04-13.725-3.04-27.703 0-4.022.223-9.218.286-12.328l.05.002c3.075 0 7.326-4.282 7.437-10.136.864 5.262 5.466 10.738 7.914 10.738.692 0 1.356-.185 2.028-.374.184-.048.366-.099.552-.147.213 23.06 4.325 49.203 4.325 49.203 0 .564-.048 1.023-.174 1.387-.278.802-.932 1.152-2.29 1.152-.684 0-1.282-.24-1.808-.689-4.826-4.128-3.617-25.893-9.938-40.962"/><path fill="#DBDAE2" d="M111.751 186.772v.003c-3.807 4.55-6.688 10.065-7.505 12.027l-.248-.071c-2.045-3.366-2.81-7.342-3.027-11.293l-.424-.238a25.222 25.222 0 012.33-.124c.116-.002.233-.002.351-.002 1.144 0 2.293.037 3.431.037h.045a37.176 37.176 0 005.047-.339"/><path fill="#43434C" d="M109.557 173.673c.684 0 1.194.47 1.194 1.151 0 .719-1.49 2.86-2.093 3.574-.328-1.514-1.247-2.759-2.26-3.412.96-.764 2.05-1.313 3.159-1.313"/><path fill="#43434C" d="M108.658 178.398c0 .005.003.01.003.012-.891 1.501-2.202 2.584-4.769 2.584-1.04 0-1.762-.144-2.282-.377a7.981 7.981 0 01-.129-1.45c0-.286.016-.57.04-.845.17-1.719 1.29-3.483 3.103-3.814.091-.018.182-.026.27-.026.485 0 1.008.18 1.505.504 1.012.653 1.931 1.898 2.26 3.412"/><path fill="#DBDAE2" d="M95.789 203.866c-.253.023-.56.038-.94.038-.623 0-1.244-.046-1.888-.046-1.451 0-3.062-.521-4.155-1.159.34-1.465.826-2.908 1.36-4.284 2.258-5.801 2.558-10.402 10.381-11.215l.424.238c.217 3.95.982 7.927 3.027 11.293l.248.07a7.126 7.126 0 00-.137.345l.046.215c-.01 0-.018.086-.018.286 0 .55.05 1.109.141 1.668-.11 5.854-4.362 10.136-7.436 10.136-.018 0-.036-.003-.051-.003.01-.498.015-.943.015-1.32 0-1.593-.151-2.658-.361-3.602-.194-.878-.44-1.655-.656-2.66"/><path fill="#FFBA27" d="M176.992 259.47c.03-.744-1.48-1.304-2.577-1.347-1.16-.046-2.403.24-3.536.283-2.03.123-2.309.857-5.41.735-1.89-.074-3.739-.28-5.606-.354-1.841-.072-7.216.022-7.286 1.815-.028.718 1.183.89 1.853.917.72.028 1.456-.065 2.16-.037.98.038 1.962.48 1.952.733-.01.253-.621.57-1.565.534-.47-.019-.957-.098-1.42-.116-1.147-.045-1.28.27-1.298.714-.012.333.417.392 1.497.434 1.209.047 2.451-.061 3.671-.014.598.024 2.872.21 2.849.808-.028.7-1.673.337-1.708 1.235-.04 1.027 1.358 1.02 2.868 1.079.337.013 9.036.254 9.12-1.899.061-1.577-3.3-1.408-3.24-2.973.08-2.035 7.561.396 7.676-2.546"/><path fill="#DBDAE2" d="M123.392 261.288c-1.896-1.1-4.27-.177-6.336.052-1.995.221-3.953-.223-5.955-.038-1.85.171-4.157.307-6.144.722-.889.185-1.77.436-2.656.641-1.012.235-2.075.312-2.806 1.123-.46.51-.598 1.256-.24 1.867.908 1.549 3.624 2.124 5.259 2.616 2.058.62 4.671.78 6.826.716 2.288-.067 4.35-.92 6.571-1.309 1.02-.178 2.034-.38 3.044-.605 1.492-.333 2.478-.694 3.424-2.009.869-1.206.204-3.085-.988-3.776m25.048-3.179c-.547-.613-1.323.09-1.154.746-.394.099-.742.296-1.274.527-.686.297-1.473.266-2.213.346-1.753.19-3.533.124-5.27.314-.927.102-1.603 1.003-1.09 1.904 1.55 2.722 5.895 2.842 8.616 2.372 1.567-.27 3.414-1.109 3.785-2.81.273-1.25-.597-2.5-1.4-3.4"/><g fill="#DBDAE2"><path d="M129.685 180.11c-.235-2.507-.455-5.017-.681-7.526l-.362-4.013c-.108-1.2-.065-2.524-.471-3.663-.174-.485-.959-.585-1.086 0-.258 1.185-.064 2.458-.017 3.663l.157 4.013c.098 2.51.203 5.018.292 7.527.038 1.039.32 2.483.065 3.498-.247.984-1.684 1.806-2.445 2.354a27.627 27.627 0 01-2.72 1.728c-.12-.164-.246-.325-.364-.484-.418-.564-.875-1.063-1.508-1.368-.073-.034-.188.006-.178.103.064.638.288 1.205.552 1.792.084.188.162.4.242.613-.589.29-1.187.562-1.795.81-1.695.69-3.452 1.285-4.888 2.461-1.484 1.215-2.303 2.926-2.616 4.795-.36 2.143-.267 4.357-.298 6.523-.033 2.208-.149 4.592.265 6.796-2.186-1.153-3.962-3.589-5.025-5.657-.673-1.308-1.13-2.8-1.189-4.275-.024-.624-.011-1.26.077-1.881 1.043-1.528 1.825-3.284 2.855-4.808a65.472 65.472 0 014.52-5.942c.433-.505-.28-1.24-.737-.739-1.646 1.803-3.14 3.72-4.41 5.81-.762 1.257-1.656 2.638-2.295 4.075-.418.584-.707 1.324-.882 2.03a.21.21 0 00-.142.062c-.312.34-.5.841-.564 1.292-.038.267.08.524.375.563a.349.349 0 00.102 0c.001 1.354.33 2.685.872 3.932 1.263 2.908 3.796 6.64 7.011 7.52.657.18 1.055-.404.981-.92a.632.632 0 00.041-.103c.735-2.44.657-5.221.69-7.755.026-2.164-.169-4.497.344-6.616a5.043 5.043 0 011.003-2.05c1.005-.192 2.03-.737 2.932-1.174.834-.404 2.079-.92 2.407-1.87 1.026-.435 2.043-.89 3.026-1.448 1.745-.993 3.693-2.204 5.078-3.685 1.559-1.668.978-3.927.786-5.982m-26.653 18.644c-.835 2.302-1.195 4.74-2.3 6.961-.447.901-1.011 1.803-1.729 2.512-.672.665-1.52.992-2.235 1.58-.296.241-.018.632.276.668 2.014.247 4.066-2.023 4.933-3.61 1.297-2.375 1.562-5.355 1.753-8.016.031-.424-.57-.45-.698-.095m1.601-1.519c-.548-1.69-1.18-3.337-1.651-5.053-.4-1.456-.53-3.449-1.427-4.673-.078-.106-.24-.098-.282.037-.464 1.472.237 3.502.6 4.942.443 1.76.94 3.543 1.655 5.213.27.63 1.316.181 1.105-.466m-9.292 7.325a.869.869 0 00-.526-.545c.01-.753-.05-1.507-.027-2.055.078-1.757.47-3.967-.12-5.65-.05-.14-.243-.18-.325-.042-.905 1.518-.959 3.745-1.227 5.465-.15.96-.305 1.92-.448 2.88-.079.529-.157.94-.025 1.32-1.145 1.286-2.597 2.388-3.963 3.276-.01.006-.017.014-.026.021a.327.327 0 00-.08.064c-.497.453-.142 1.273.42 1.324.115.057.24.099.372.119.954.144 2.07-.914 2.78-1.414 1.588-1.117 3.954-2.458 3.195-4.763M107.2 180c-.324 1.338-1.718 1.903-2.137 3.195-.295.91-.358 2.327.177 3.149.068.104.196.092.266 0 .296-.392.317-.724.331-1.2.028-.968.095-1.729.819-2.447.785-.78 1.64-1.348 1.685-2.541.025-.654-.986-.794-1.141-.155m42.757-41.521c-1.118.712-2.343 1.533-2.72 2.784-1.035-.11-2.075-.186-3.11-.28-1.536-.142-3.322-.405-4.796.16-.094.036-.119.158-.028.217 1.24.794 2.887.914 4.322 1.084 1.229.144 2.465.31 3.701.42.348.438 1.063.474 1.383.094l.182.008c.532.02.779-.487.715-.939-.136-.952.28-1.802 1.043-2.361.697-.511.068-1.67-.692-1.187m4.091 1.86a.505.505 0 00-.44-.253c-.773.025-1.268.891-1.781 1.374-.303.284-.593.51-.947.728-.298.182-.602.316-.807.604-.092.13-.016.31.103.39.703.47 1.98-.074 2.615-.47.72-.45 1.76-1.452 1.257-2.373m-6.081 105.37c-.832 1.068-1.114 2.268-1.439 3.566a225.566 225.566 0 00-2 8.768c-.014.065-.033.247-.06.452a2.615 2.615 0 01-.084.1c-.18-.136-.435-.185-.734-.055-1.371.596-2.905 1.035-4.41.986-.76-.024-.95 1.195-.182 1.35.43.087.865.162 1.3.222.46.145.99.176 1.514.137.779.034 1.559.01 2.335-.1 1.372-.193 1.713-.966 1.918-2.049a3.74 3.74 0 00.413-.83c.615-1.745.87-3.711 1.245-5.52.443-2.144.784-4.313 1.133-6.474.077-.484-.558-1.057-.95-.554"/><path d="M145.033 247.791c-.717.461-1.08 1.179-1.633 1.82l-.028.031c-.863.438-1.615 1.038-2.411 1.588-.774.535-1.703.868-2.441 1.434-.04.03-.056.091-.04.138a16.73 16.73 0 01-1.896.317c-.055.006-.086.078-.03.11 1.61.929 3.615.46 5.184-.336 1.556-.788 3.893-2.587 4.218-4.39.09-.503-.425-1.032-.923-.712m59.171-19.098c-2.724-.69-5.549-.859-8.34-1.143a574.28 574.28 0 00-8.387-.793c-5.602-.486-11.2-1.014-16.802-1.49-5.697-.484-11.373-1.124-17.065-1.67-5.554-.53-11.27-.157-16.831.116-6.437.316-12.823.82-19.223 1.57-2.423.283-2.573 3.877 0 3.899 11.216.094 22.432.193 33.65.247 2.877.013 5.78-.339 8.655-.511 2.726-.164 5.44-.3 8.171-.306 5.606-.014 11.21.017 16.807.343 3.198.187 6.394.402 9.588.645 3.179.242 6.387.717 9.574.596.838-.031 1.065-1.284.203-1.503"/></g><g fill="#43434C"><path d="M106.738 187.903a.606.606 0 01-.606-.571c-.021-.356-.044-.71-.067-1.065-.05-.784-.104-1.595-.134-2.401a.61.61 0 01.327-.563c1.192-.619 1.962-2.008 1.962-3.54 0-.348-.039-.704-.114-1.056l-.002-.011-.001-.009c-.274-1.248-1.04-2.407-2-3.026-.41-.267-.818-.407-1.18-.407a.79.79 0 00-.157.014c-1.61.294-2.486 1.908-2.622 3.283a8.644 8.644 0 00-.037.787c0 .463.04.915.118 1.342.174.94.534 1.706 1.04 2.213a.606.606 0 01.178.429c.003 1.253.012 2.594.063 3.914a.607.607 0 11-1.213.047c-.049-1.255-.06-2.524-.063-3.72-.587-.67-1-1.584-1.198-2.662a8.573 8.573 0 01-.14-1.563c0-.286.015-.59.043-.902.18-1.82 1.385-3.957 3.608-4.363.119-.023.248-.035.38-.035.597 0 1.233.208 1.84.602 1.239.8 2.185 2.22 2.528 3.798l.004.022c.092.433.139.872.139 1.304 0 1.864-.862 3.521-2.274 4.42.03.672.074 1.347.117 2.004.022.357.046.714.067 1.072a.607.607 0 01-.57.642l-.036.001"/><path d="M103.917 181.776c-1.058 0-1.888-.14-2.536-.43a.61.61 0 01.495-1.111c.482.216 1.17.326 2.041.326 2.032 0 3.307-.686 4.261-2.292a.608.608 0 011.044.622c-1.17 1.968-2.856 2.885-5.305 2.885"/><path d="M108.601 179.287a.607.607 0 01-.446-1.02c.022-.024.048-.054.075-.088.777-.917 1.94-2.753 1.96-3.193 0-.4-.305-.544-.59-.544-.865 0-1.803.399-2.79 1.184a.608.608 0 11-.756-.952c1.207-.96 2.4-1.447 3.545-1.447 1.029 0 1.805.757 1.805 1.76 0 1.184-2.22 3.947-2.243 3.973-.04.048-.08.094-.113.13a.607.607 0 01-.447.197m13.487 12.961c-.3 0-.56-.222-.6-.528-.32-2.437-1.173-4.653-2.465-6.406a.608.608 0 01.978-.722c1.413 1.919 2.343 4.329 2.69 6.97a.606.606 0 01-.603.686m-9.845 20.638c-2.312 0-6.007-3.878-7.738-8.38a12.332 12.332 0 01-2.344 4.675c-1.577 1.942-3.564 3.102-5.315 3.102-.025 0-.05-.002-.074-.003a.597.597 0 01-.595-.608.616.616 0 01.688-.604c2.658 0 6.701-3.988 6.832-9.504a10.932 10.932 0 01-.141-1.712c0-.895.47-.895.625-.895.592 0 .632.524.683 1.188.031.416.05.844.05 1.144v.19c.857 5.064 5.309 10.191 7.328 10.191.621 0 1.256-.179 1.869-.352l.249-.066.32-.085c.043-.011.066-.018.089-.022a.608.608 0 01.265 1.186l-.068.018c-.089.022-.19.05-.292.077l-.245.065c-.65.184-1.398.395-2.187.395"/><path d="M104.135 199.958a.608.608 0 01-.571-.815 6.77 6.77 0 01.15-.375c.668-1.603 3.507-7.29 7.62-12.2a.607.607 0 11.931.781c-3.718 4.438-6.613 9.927-7.433 11.89a7.047 7.047 0 00-.126.317.608.608 0 01-.57.402"/><path d="M104.024 199.542a.607.607 0 01-.519-.292c-1.839-3.023-2.86-6.815-3.123-11.594a.607.607 0 111.212-.067c.252 4.574 1.216 8.18 2.948 11.028a.609.609 0 01-.518.925m1.324 65.081c-2.076 0-3.455-.228-4.47-.742-1.51-.762-2.214-2.172-2.214-4.439 0-.56.049-1.478.104-2.54.082-1.537.182-3.452.182-5.133 0-3.959-.585-7.027-1.264-10.579-.836-4.38-1.784-9.345-1.784-17.17 0-2.675.097-5.831.182-8.616.042-1.386.083-2.694.104-3.744.01-.495.015-.937.015-1.31 0-1.686-.176-2.704-.348-3.476-.089-.401-.188-.78-.293-1.182-.122-.46-.247-.938-.366-1.486-.258-1.197-.555-3.002-.555-6.362 0-.28.001-.56.003-.838l.002-.833a.608.608 0 111.214 0l-.002.838c-.002.277-.003.555-.003.833 0 3.245.282 4.967.528 6.105.113.521.235.985.353 1.434.108.413.21.803.305 1.227.264 1.186.376 2.304.376 3.74 0 .38-.005.83-.015 1.335-.022 1.056-.062 2.368-.104 3.756-.085 2.776-.182 5.922-.182 8.58 0 7.709.937 12.614 1.763 16.94.66 3.464 1.286 6.734 1.286 10.808 0 1.713-.102 3.645-.184 5.198-.055 1.045-.103 1.947-.103 2.475 0 1.804.463 2.807 1.548 3.354.825.417 2.071.612 3.922.612.274 0 .527-.014.775-.042l.11-.014c-.252-1.407-1.895-11.132-1.895-25.551 0-1.687.008-3.374.015-5.062.008-1.685.016-3.37.016-5.055 0-4.685-.01-5.053-.154-5.624a.608.608 0 011.177-.298c.186.74.19 1.122.19 5.922 0 1.686-.007 3.373-.014 5.061-.008 1.685-.015 3.371-.015 5.056 0 15.425 1.886 25.397 1.905 25.496a.56.56 0 01.011.115c0 .157-.005.31-.01.468a.608.608 0 01-.478.572 7.774 7.774 0 01-.717.122c-.298.033-.596.05-.916.05"/><path d="M116.696 264.19c-.814 0-1.556-.28-2.206-.834-2.6-2.221-3.499-8.665-4.636-16.824-1.108-7.955-2.365-16.972-5.499-24.433a35.55 35.55 0 00-1.026-2.248c-.028-.056-.059-.108-.09-.16-.126-.213-.299-.505-.299-.898 0-.086.01-.173.027-.264a.61.61 0 01.713-.48.61.61 0 01.479.714c-.002.01-.004.02-.004.03 0 .06.062.166.129.279.046.078.092.157.132.238.378.757.735 1.538 1.06 2.32 3.194 7.605 4.462 16.705 5.58 24.734 1.059 7.59 1.972 14.145 4.221 16.066.43.366.894.544 1.42.544 1.35 0 1.592-.368 1.722-.744.092-.266.138-.64.141-1.144-.2-1.282-4.13-26.914-4.337-49.324a.608.608 0 01.601-.614h.006c.333 0 .604.269.607.602.21 22.789 4.289 48.933 4.33 49.195a.595.595 0 01.007.094c0 .675-.066 1.18-.208 1.59-.48 1.383-1.785 1.56-2.87 1.56"/><path d="M114.276 212.512a.605.605 0 01-.607-.606v-.039c.019-.304.027-.643.027-1.034a81.2 81.2 0 00-.066-2.837 80.496 80.496 0 01-.068-2.88c0-3.408.594-6.7 1.87-10.357a.607.607 0 01.304-.345 83.33 83.33 0 006.04-3.294c3.19-1.926 5.813-3.853 7.8-5.733.03-.771.046-1.536.046-2.277 0-3.478-1.095-15.802-1.833-18.595a.635.635 0 00-.2-.033c-.722 0-2.249 1.775-2.285 2.324 0 .156.307.408.553.61.116.095.23.19.336.287.277.251.646.655.646 1.239 0 .132-.02.266-.056.397-.073.27-.16.57-.254.894-.633 2.182-1.59 5.48-1.59 10.598 0 .551.005 1.097.057 1.716a.61.61 0 01-.303.579 37.56 37.56 0 01-4.96 2.39 33.62 33.62 0 01-5.76 1.691 31.24 31.24 0 01-2.093.351 38.2 38.2 0 01-5.141.345h-.047c-.573 0-1.15-.01-1.726-.019a98.055 98.055 0 00-1.714-.019c-.111.002-.227 0-.34.003-.81.007-1.577.048-2.287.121-6.302.653-7.373 3.71-8.994 8.337a78.099 78.099 0 01-.914 2.512c-.601 1.544-1.04 2.921-1.34 4.209-.338 1.437-.51 2.8-.51 4.052 0 2.861.56 3.877 1.041 3.877.396 0 1.785-.455 6.117-4.67a.605.605 0 01.858.012.609.609 0 01-.012.86c-4.619 4.494-6.186 5.013-6.963 5.013-1.496 0-2.255-1.713-2.255-5.092 0-1.347.182-2.804.543-4.33.313-1.343.767-2.774 1.39-4.373.33-.85.62-1.674.899-2.472 1.646-4.7 2.947-8.411 10.015-9.144a25.95 25.95 0 012.394-.128c.114-.002.234-.002.358-.002.577 0 1.156.01 1.734.019.57.01 1.14.019 1.706.019h.046a37.153 37.153 0 004.979-.334 31.135 31.135 0 002.017-.339 32.333 32.333 0 005.555-1.63 36.35 36.35 0 004.47-2.126 23.49 23.49 0 01-.034-1.428c0-5.291.986-8.689 1.638-10.937.092-.318.177-.61.25-.879a.256.256 0 00.011-.073c0-.052-.043-.153-.249-.341a6.194 6.194 0 00-.288-.245c-.444-.365-.997-.82-.997-1.554 0-1.08 2.033-3.535 3.499-3.535.357 0 .704.103 1.03.308a.602.602 0 01.251.313c.024.067.047.144.067.224.82 2.892 1.9 15.706 1.9 18.998 0 .837-.02 1.703-.06 2.575a.604.604 0 01-.185.411c-2.072 1.995-4.827 4.035-8.19 6.065a83.982 83.982 0 01-5.905 3.232c-1.173 3.432-1.72 6.528-1.72 9.724 0 .937.033 1.903.066 2.837.033.944.067 1.92.067 2.88 0 .413-.009.773-.028 1.1a.608.608 0 01-.606.578"/><path d="M94.848 204.723c-.321 0-.643-.011-.954-.023-.308-.01-.626-.022-.94-.022-1.716 0-3.424-.636-4.457-1.235a.608.608 0 01.287-1.142h.002a.61.61 0 01.306.082c1.124.655 2.64 1.079 3.862 1.079.336 0 .666.012.984.023.314.012.61.023.91.023.328 0 .626-.012.887-.036a.607.607 0 11.11 1.21c-.297.028-.632.041-.997.041m18.974-17.818a.61.61 0 01-.506-.943l11.96-18.146a.608.608 0 011.014.67l-11.96 18.145a.608.608 0 01-.508.273m14.526-22.036a.608.608 0 01-.506-.943l14.868-22.557a.605.605 0 01.84-.172c.28.185.357.562.173.842l-14.868 22.556a.608.608 0 01-.507.274"/><path d="M138.049 137.555c-.792 0-1.855.226-1.855 2.183 0 .05.073 1.231 6.382 2.525 3.777.775 7.737 1.162 8.226 1.162.096-.001.193 0 .29-.005h.023c.225-.002.465-.013.755-.032.23-.016.354-.064.47-.181.773-.776 1.658-1.777 1.658-2.652 0-.058-.056-.145-.154-.24-2.014-1.933-14.448-2.73-15.795-2.76m12.753 7.086c-.668 0-4.735-.421-8.47-1.186-3.423-.703-7.352-1.76-7.352-3.717 0-2.16 1.121-3.399 3.076-3.399.134 0 14.049.623 16.63 3.1.35.338.526.713.526 1.116 0 1.313-1.016 2.51-2.01 3.509-.428.432-.918.514-1.249.537-.311.02-.57.031-.815.034a7.53 7.53 0 01-.336.006"/><path d="M151.128 144.638a.616.616 0 01-.266-.061c-.963-.454-1.493-1.246-1.493-2.23 0-2.167 1.612-3.678 3.058-3.678.928 0 1.744.49 2.148.782a.608.608 0 01-.665 1.016l-.029-.019c-.502-.362-1.025-.563-1.454-.563-.77 0-1.844.936-1.844 2.462 0 .32.081.783.773 1.12a.608.608 0 01-.228 1.171m-6.527-2.695a.608.608 0 01-.607-.608c0-.32-.276-.467-.532-.467-.199 0-.464.084-.559.321a.607.607 0 11-1.126-.453c.264-.658.925-1.083 1.685-1.083.979 0 1.746.739 1.746 1.682a.608.608 0 01-.607.608m-41.555 124.014c-.967 0-1.827-.79-2.489-2.283a.608.608 0 111.109-.492c.427.961.956 1.56 1.38 1.56.418-.017 2.284-.398 2.683-.929a.606.606 0 11.97.729c-.88 1.176-3.627 1.415-3.653 1.415m13.655-.512c-1.647 0-1.979-.573-2.24-1.321-.07-.197-.134-.383-.267-.569a.607.607 0 11.988-.707c.233.327.34.63.425.874.14.4.177.507 1.094.507 1.055 0 2.131-.405 2.69-.674-.1-.132-.234-.299-.402-.499-.052-.062-.095-.113-.123-.149a.607.607 0 11.947-.759c.024.03.06.073.106.126.597.711.881 1.116.881 1.49 0 .243 0 .575-1.49 1.149-.63.243-1.594.532-2.609.532m24.196-23.338c-4.42 0-6.698 1.356-6.698 1.935a.328.328 0 00.062.166c.65.942 4.212 1.705 7.942 1.705 4.652 0 7.369-1.464 7.504-2.089l.004-.015c-.003-.051-.042-.12-.11-.197-.82-.914-4.237-1.505-8.704-1.505m1.306 5.022c-1.837 0-3.78-.19-5.331-.519-1.89-.402-3.103-.977-3.608-1.708a1.541 1.541 0 01-.279-.86c0-1.796 3.401-3.15 7.912-3.15 2.948 0 8.117.248 9.607 1.907.348.387.421.766.421 1.015 0 .097-.011.189-.034.28-.38 1.675-4.27 3.035-8.688 3.035"/><path d="M141.985 262.499c-4.427 0-4.794-2.125-5.459-5.982a72.189 72.189 0 00-.628-3.31 47.158 47.158 0 00-2.43-7.78c-.085-.206-.172-.42-.263-.633a12.658 12.658 0 00-.156-.367c-.032-.078-.06-.141-.088-.204a.608.608 0 011.11-.494c.033.074.065.148.096.223a77.206 77.206 0 01.425 1.016 48.284 48.284 0 012.492 7.98c.28 1.276.47 2.384.639 3.362.676 3.92.857 4.974 4.262 4.974.573 0 1.243-.014 1.865-.11 1.028-.163 2.778-.634 2.925-1.961.517-4.65 1.641-9.385 2.385-12.519.292-1.23.523-2.202.637-2.827a.608.608 0 111.195.218c-.12.657-.354 1.643-.65 2.89-.738 3.105-1.852 7.796-2.36 12.372-.175 1.578-1.576 2.653-3.945 3.028-.705.11-1.433.124-2.052.124"/><path d="M135.901 253.723c-3.082 0-4.645-1.307-4.645-3.886 0-1.685.88-3.348 1.743-4.752a.608.608 0 011.035.637c-.774 1.259-1.564 2.733-1.564 4.115 0 1.897.994 2.67 3.431 2.67.161 0 .335-.01.516-.033 2.89-.366 7.527-3.355 8.686-4.949a.607.607 0 11.981.716c-1.277 1.756-6.253 5.026-9.517 5.44a5.577 5.577 0 01-.666.042m106.643-22.814c-3.72 0-12.544-.612-18.987-1.058-2.55-.177-4.754-.33-6.208-.416-5.45-.321-9.212-.651-12.532-.942-5.633-.494-10.08-.884-19.39-.884-10.596 0-18.65.543-25.754 1.023-6.125.413-11.91.804-18.45.804a.365.365 0 01.001-.73c6.515 0 12.288-.39 18.4-.802 7.116-.48 15.182-1.025 25.803-1.025 9.34 0 13.804.391 19.453.887 3.315.291 7.072.62 12.512.94 1.458.087 3.663.24 6.216.417 6.432.446 15.241 1.057 18.936 1.057a.364.364 0 010 .729m15.114.208a7.232 7.232 0 01-1.778-.217.366.366 0 01-.265-.443.366.366 0 01.442-.265 6.482 6.482 0 001.601.196c1.02 0 1.975-.218 2.986-.448 1.07-.244 2.176-.496 3.419-.496a.366.366 0 010 .73c-1.161 0-2.227.242-3.257.477-1.006.229-2.046.466-3.148.466m-179.157.565a.365.365 0 010-.73c6.254 0 12.16 0 18.257-.41a.365.365 0 01.048.728c-6.12.412-12.038.412-18.305.412m37.194-.829a.364.364 0 01-.001-.729c7.396-.011 13.655-.085 20.164-.41a.364.364 0 11.037.728c-6.524.326-12.794.4-20.2.411z"/></g><path fill="url(#a)" d="M244.003 54.725l7.652 1.46 7.651 2.92 4.783 4.867 3.347 4.866 2.391 8.273v11.68l-4.782 8.76-5.739 5.84-7.651 3.892-5.739 1.46h-7.652l-6.217-2.433-6.216-4.38-6.217-8.273-1.435-7.786V73.705l4.782-8.76 1.913-2.92 5.26-3.893 5.74-2.433 8.13-.974zm-.008 12.794l-6.27 1.449-5.788 5.795-.964 6.762 1.929 4.83 3.858 3.38 5.305 2.415 3.859.483 4.34-1.45 3.377-2.414 2.894-4.347 1.446-4.83v-2.897l-.482-1.932-2.894-3.38-4.823-3.38-5.787-.484z" transform="translate(-20 20)"/><path fill="url(#b)" d="M137.152 67.045l3.317-7.107-3.317-3.791-7.107-2.843-5.213-.948-6.16.948-3.79 1.895-4.739 4.739-2.843 4.264-.947 4.265.947 4.264.948 4.265 2.843 2.843 3.791 3.791 5.212 2.843 4.738 4.264 1.422 3.317-1.422 2.843-3.317 1.896-3.79-.474-3.791-1.422-3.791-2.843-2.843-1.895-2.843.947-1.421 3.791-1.896 4.739-.947 3.317 1.895 2.369 5.212 1.421 4.739 1.422 5.686 1.421h5.686l5.212-.474 6.16-2.369 4.264-3.79 1.422-5.213v-6.634l-1.422-5.212-2.843-4.264-3.79-1.896-3.791-2.843-3.791-2.843-2.369-2.369-2.369-3.317 1.421-3.317 3.317-2.843h3.791l4.738 1.422z" transform="translate(-20 20)"/><path fill="#32ACB0" d="M255.514 126.374V76.147h16.584l18.48 27.483V75.199l14.689 1.896-.474 9.003-1.422 7.581v31.274l-14.689 1.421-7.107-8.529-4.265-8.529-5.212-8.056-1.895-1.421-.948 9.003v18.48z"/><path fill="#DBDAE2" d="M123.38 113.65c-.316-1.5-.701-2.955-1.309-4.32a18.568 18.568 0 00-.861-2.284c-.79-1.73-2.303-3.252-3.686-4.532-2.83-2.617-6.294-4.245-9.612-6.117-2.797-1.578-5.388-5.063-2.633-7.893 1.224-1.257 2.77-1.631 4.441-1.157.89.253 1.66.69 2.43 1.195.947.621 1.841 1.523 2.887 1.94 3.213 1.278 5.035-1.394 6.16-3.93.536-1.212 1.175-2.54 1.483-3.835.453-1.903-.673-3.496-2.416-4.134-.833-.305-2.168.005-2.726.722a6.178 6.178 0 00-.127.168c-.93.909-1.28 2.247-1.78 3.463l-.196.475a12.277 12.277 0 00-2.3-.845 12.528 12.528 0 00-5.744-.122c-3.126.65-5.922 2.756-6.917 5.87-1.054 3.3.541 6.477 3.086 8.567 2.585 2.123 5.958 3.187 8.375 5.519 2.43 2.343 3.844 5.077 4.851 8.275.937 2.975.897 5.969-.129 8.912-2.039 5.848-7.596 9.171-13.547 9.562-3.812.25-7.543-.237-11.322-.578-3.61-.325-6.887-1.084-10.007-3.02-.201-.125-.427.12-.317.317.384.687.833 1.331 1.33 1.939-.192-.1-.384-.199-.58-.291-.233-.11-.435.109-.337.337.82 1.902 2.544 3.327 4.158 4.545 1.72 1.296 3.636 2.305 5.648 3.065 4.16 1.571 8.704 2.025 13.117 1.572 8.977-.92 18.796-6.332 19.358-16.347.132-2.357-.294-4.742-.778-7.038" style="mix-blend-mode:multiply"/><path fill="#DBDAE2" d="M106.17 109.904c-1.783-2.147-4.596-3.267-6.926-4.701-2.188-1.347-4.4-2.736-6.28-4.5-1.917-1.796-3.367-3.933-4.966-5.994-.165-.211-.469-.016-.483.2-.314 4.77 2.767 9.517 5.703 13.015 1.631 1.944 3.833 3.423 6.005 4.693.502.294 1.028.574 1.487.931.162.127.182.142.381.356.029.03.369.448.185.203.29.387.637.871.828 1.331-.003.008.048.172.068.247-.022-.049-.001.518-.001.517.026 1.186 1.257 2.374 2.502 1.909 3.406-1.274 3.589-5.688 1.497-8.207"/><path fill="#DBDAE2" d="M251.19 97.693c-.45-2.885-1.72-5.394-3.345-7.726-1.687-4.028-4.211-7.704-7.389-10.609-1.032-.943-2.507.233-1.898 1.467.577 1.167 1.19 2.274 1.74 3.452.607 1.304 1.406 2.488 2.232 3.66l.75 1.058a31.658 31.658 0 011.773 6.74c.643 4.366.34 8.717-.578 12.988-.405.845-.797 1.697-1.223 2.535-1.308 2.57-2.64 4.771-4.527 6.705-1.705 1.748-3.832 3.098-6.076 4.074-.83.361-2.265.838-3.367 1.136-.65.176-1.305.33-1.965.464-.395.08-.792.153-1.19.22-.073.011-.718.098-.769.109-2.886.335-5.87.329-8.681-.192-3.032-.562-6.036-1.164-8.722-2.764-2.589-1.542-4.003-3.957-5.857-6.185-.237-.285-.628-.024-.658.273a6.586 6.586 0 00.04 1.58 27.053 27.053 0 00-.728-1.107c-.168-.24-.617-.182-.597.162.225 3.966 3.33 7.747 6.19 10.282 3.192 2.83 7.16 4.867 11.303 5.864 8.835 2.126 17.86-1.097 24.492-7.061.194-.175.384-.353.573-.533a23.173 23.173 0 003.894-4.412c.183-.247.364-.495.541-.747 1.201-1.702 2.626-4.117 2.845-6.332.514-1.58.888-3.205 1.1-4.89.424-3.346.618-6.87.097-10.211" style="mix-blend-mode:multiply"/><path fill="#DBDAE2" d="M231.32 87.88c-1.574-.825-3.377-1.069-5.141-1.042-3.645.054-7.169 1.418-10.003 3.683-2.882 2.302-4.95 5.84-5.11 9.572-.146 3.38 1.291 8.036 4.998 8.862a.34.34 0 00.424-.323c.062-1.54-.646-2.712-1.004-4.178-.313-1.281-.474-2.637-.29-3.951.384-2.72 1.628-5.074 3.773-6.805 1.955-1.576 4.512-2.539 7.018-2.623 1.3-.043 2.54.179 3.809.43 1.236.244 2.47.838 3.749.708.371-.038.696-.288.694-.695-.011-1.697-1.538-2.914-2.917-3.637"/><path fill="#DBDAE2" d="M308.45 89.637c-.01-1.932.009-3.872-.062-5.804-.074-2.018-.392-4.049-.618-6.055-.35-3.108-4.771-3.246-4.937 0-.102 2.013-.301 4.04-.304 6.055-.003 1.85.083 3.703.112 5.552.06 3.954.132 7.908.193 11.862.106 6.882.002 13.69-.673 20.518-3.308.091-6.623.286-9.917.5-1.49.096-3.51.632-4.76-.266-.85-.612-1.648-1.39-2.395-2.196-.451-.803-.908-1.604-1.338-2.422-1.078-2.05-2.164-4.091-3.36-6.077a66.915 66.915 0 00-3.956-5.872c-1.116-1.473-2.278-3.281-3.806-4.433-.835-1.634-3.243-1.663-3.861.263-.99 3.084-.626 6.729-.806 9.934-.18 3.216-.453 6.42-.83 9.619-.088.738-.194 1.476-.276 2.215-.03.28-.05.477-.06.612-.79.324-2.67 1.091-2.901 1.167-1.521.497-3.07.903-4.64 1.216-1.534.307-3.087.425-4.587.874-.48.144-.638.88-.147 1.13.21.105.426.204.645.298a1.82 1.82 0 00-.22.057c-.121.04-.178.15-.156.273.233 1.246 1.85 1.924 2.88 2.38 1.32.582 2.714.845 4.153.91 3.37.152 6.398-1.19 9.215-2.923 2.73-1.68 4.21-4.286 4.751-7.41.27-1.552.45-3.15.474-4.726 0-.07.003-.14.004-.209a79.448 79.448 0 004.073 5.976c1.222 1.626 2.464 3.351 4.088 4.598 1.994 1.53 4.18 1.545 6.583 1.422 4.6-.237 9.23-.482 13.81-.976 1.58-.17 3.027-1.233 2.99-2.992-.17-7.84.17-15.627.451-23.46.139-3.871.211-7.736.189-11.61" style="mix-blend-mode:multiply"/><path fill="#DBDAE2" d="M291.19 99.99c-.146-.81-.387-1.596-.622-2.385.18-.99.122-2.048.1-3.08-.04-1.928-.07-3.855-.161-5.78l-.19-3.996c.218-1.804.373-3.609.17-5.445-.064-.584-.549-.998-1.046-1.026l-.055-.127c-.025-.053-.108-.049-.134 0-.027.05-.048.1-.073.15-.233.056-.454.206-.617.481-2.082 3.522-2.593 7.736-2.654 11.776-.006.404-.003.823.008 1.252-.906-1.107-1.848-2.198-2.8-3.308-3.06-3.567-5.553-7.603-8.313-11.4-.256-.355-.743-.058-.576.337 1.818 4.31 3.905 8.414 6.6 12.252 2.1 2.988 4.41 5.738 6.235 8.857.346.94.787 1.813 1.34 2.577l.016.036c.003 0 .006-.002.008-.003.076.104.15.21.23.31 1.058 1.313 2.73-.104 2.498-1.462l.036-.015"/><path fill="#FFF" d="M158.492 108.89c-6.032-.008-12.35-5.434-12.182-12.354.156-6.422 5.819-11.015 11.208-11.658 5.7-.682 12.01 2.946 13.319 8.7 1.619 7.12-4.919 15.321-12.345 15.312m23.39-14.78c-1.668-9.997-9.702-17.195-18.354-19.357-1.54-.385-10.247-2.395-18.68 2.928-6.969 4.4-11.064 12.114-11.207 19.844-.22 11.892 8.929 23.113 20.628 24.886 11.308 1.714 19.533-6.226 20.466-7.157 1.025-1.022 9.112-9.37 7.147-21.145"/><path fill="#43434C" d="M224.505 87.874c-.478 0-.957.026-1.437.082-6.972.802-11.267 6.4-11.391 11.347-.073 2.904 1.103 5.754 3.313 8.026 2.432 2.5 5.81 3.995 9.038 3.999h.013c3.65 0 7.363-1.938 9.934-5.187 2.4-3.034 3.348-6.588 2.601-9.752-1.145-4.855-6.485-8.515-12.07-8.515m-.465 25.155h-.015c-3.676-.004-7.509-1.692-10.253-4.513-2.532-2.603-3.88-5.89-3.795-9.256.083-3.325 1.581-6.503 4.217-8.95 2.381-2.21 5.544-3.684 8.679-4.045 3.204-.369 6.68.411 9.537 2.14 3.03 1.833 5.096 4.529 5.819 7.593.866 3.673-.2 7.755-2.924 11.2-2.89 3.652-7.1 5.831-11.265 5.831m-.94-37.643c-3.772 0-8.641.792-13.4 3.844-7.094 4.551-11.598 12.654-11.752 21.146-.232 12.762 9.471 24.668 21.631 26.54 1.156.178 2.282.26 3.371.26 9.74 0 16.665-6.47 18.072-7.895 1.605-1.627 9.51-10.36 7.51-22.543-1.863-11.342-11.015-18.53-19.259-20.622-1.068-.272-3.303-.73-6.172-.73m-.153 53.49a23.76 23.76 0 01-3.627-.278c-12.969-1.997-23.319-14.672-23.072-28.253.165-9.054 4.968-17.693 12.535-22.547 8.953-5.742 18.266-4.002 20.907-3.331 4.888 1.24 9.569 3.957 13.18 7.649 3.916 4.004 6.453 8.964 7.337 14.346 2.134 12.997-6.271 22.284-7.978 24.014-1.498 1.518-8.869 8.4-19.282 8.4m32.421-52.664a2992.113 2992.113 0 01.584 50.097l12.432-.32.458-26.462a1.073 1.073 0 011.918-.638c2.94 3.81 5.57 7.742 7.814 11.688.323.569.632 1.127.943 1.687 1.056 1.904 2.147 3.872 3.89 6.413a68.086 68.086 0 005.001 6.431l14.515-.555c-.411-5.187-.59-10.4-.534-15.502.066-5.862.472-11.052 1.21-20.473.308-3.946.646-7.918 1.005-11.816l-14.106-.749 1.257 27.8a1.01 1.01 0 01-1.868.574 378.36 378.36 0 00-5.55-8.777c-1.31-2.01-2.278-3.453-3.212-4.848a248.363 248.363 0 01-3.537-5.384 234.453 234.453 0 01-5.484-9.054l-16.735-.112zm.067 51.811a1.183 1.183 0 01-1.18-1.179 2997.574 2997.574 0 00-.598-51.231 1.096 1.096 0 01.31-.782c.205-.207.485-.324.774-.324h.006l17.57.117c.478.003.921.263 1.159.677a232.466 232.466 0 005.544 9.162 247.402 247.402 0 003.515 5.35c.894 1.335 1.908 2.848 3.224 4.867a376.874 376.874 0 014.178 6.557l-1.165-25.796a1.112 1.112 0 011.168-1.161l15.235.81a1.237 1.237 0 011.165 1.349 862.12 862.12 0 00-1.048 12.272c-.734 9.385-1.139 14.554-1.204 20.36-.058 5.185.131 10.488.562 15.76a1.302 1.302 0 01-1.245 1.406l-15.058.576a1.43 1.43 0 01-1.128-.484 69.416 69.416 0 01-5.213-6.689c-1.788-2.608-2.9-4.612-3.974-6.55-.308-.555-.614-1.108-.935-1.671a97.877 97.877 0 00-6.588-10.048l-.435 25.158a1.165 1.165 0 01-1.137 1.148l-13.471.346h-.03zm-174.301-2.904c12.345 7.465 29.785 7.782 35.903.646 3.328-3.88 4.173-10.614 2.056-16.374-1.61-4.382-5.976-6.852-10.198-9.241-3.852-2.18-7.49-4.239-8.838-7.642-.237-.596-.956-2.412-.395-4.462.852-3.116 4.037-4.516 4.666-4.765 2.57-1.017 8.362.121 12.215 3.088l3.066-6.564c-5.659-5.312-14.366-7.862-20.365-5.939-1.236.397-7.546 2.712-10.39 9.374-2.274 5.332-2.067 9.855.636 13.828 2.398 3.524 6.39 6.15 9.912 8.466 4.92 3.236 9.568 6.292 7.128 10.763-.887 1.625-2.177 2.66-3.834 3.077-4.72 1.186-11.175-3.04-14.643-5.31-.659-.431-1.397-.914-1.703-1.066-.82.184-3.078 1.697-5.216 12.12zm20.873 7.513c-.125 0-.249 0-.374-.002-7.356-.073-15.159-2.286-21.407-6.073a1.659 1.659 0 01-.763-1.747c1.816-8.868 4.064-13.293 6.876-13.527.483-.042.914.225 2.644 1.357 3.018 1.977 9.3 6.09 13.3 5.084 1.195-.3 2.097-1.034 2.756-2.242 1.61-2.951-1.295-5.058-6.57-8.526-7.112-4.678-16.853-11.083-11.176-24.384 3.133-7.343 10.073-9.89 11.432-10.326 6.617-2.122 16.183.678 22.252 6.513.411.395.525 1.008.284 1.525l-3.357 7.187c-.177.38-.527.662-.937.755a1.354 1.354 0 01-1.167-.277c-2.943-2.42-8.519-4.006-10.847-3.086-.498.197-3.014 1.297-3.652 3.632-.411 1.502.131 2.87.335 3.386 1.126 2.844 4.511 4.76 8.095 6.788 4.28 2.421 9.131 5.167 10.957 10.135 2.32 6.312 1.348 13.742-2.362 18.07-3.145 3.668-9.08 5.758-16.32 5.758z"/><path fill="#DBDAE2" d="M102.792 125.988c-3.202 0-6.318-1.134-9.331-2.23-1.411-.513-2.87-1.044-4.313-1.449a.486.486 0 01.262-.935c1.478.414 2.954.951 4.382 1.47 3.07 1.117 5.97 2.172 9 2.172 2.494 0 5.18-.843 7.181-2.255 1.67-1.178 3.66-3.31 3.66-6.783 0-6.285-5.39-9.878-10.605-13.353-5.233-3.488-10.646-7.094-10.646-13.434 0-3.24 3-12.136 12.654-12.136 2.245 0 4.638.463 7.114 1.377a.487.487 0 01-.335.912c-2.368-.874-4.65-1.317-6.779-1.317-8.914 0-11.683 8.183-11.683 11.164 0 5.819 4.961 9.125 10.213 12.625 5.427 3.617 11.039 7.356 11.039 14.162 0 3.889-2.215 6.267-4.073 7.578-2.16 1.523-5.053 2.432-7.74 2.432M217.9 80.395c-5.706 1.143-14.33 8.5-14.33 16.986 0 .477-.074.95-.145 1.407-.071.463-.145.94-.145 1.43 0 4.493 2.24 9.465 5.994 13.3 3.948 4.034 9.092 6.348 14.112 6.348 4.395 0 9.029-1.676 12.396-4.482 2.894-2.412 6.343-6.87 6.343-14.408 0-3.57-1.125-8.963-4.285-13.39-2.486-3.483-7.185-7.635-15.456-7.635-1.504 0-3.013.15-4.485.444m5.487 40.443c-5.28 0-10.676-2.42-14.805-6.64-3.928-4.012-6.272-9.239-6.272-13.98 0-.565.08-1.08.157-1.58.068-.44.133-.855.133-1.257 0-3.961 1.821-8.13 5.129-11.74 2.952-3.221 6.683-5.539 9.98-6.2a23.901 23.901 0 014.676-.462c8.683 0 13.627 4.373 16.246 8.041 2.796 3.919 4.466 9.136 4.466 13.956 0 7.915-3.64 12.61-6.693 15.155-3.536 2.947-8.402 4.707-13.017 4.707m40.778-40.103c-.064.036-.22.347-.22.668 0 1.162.793 2.753 2.124 4.617.044-.643.068-1.299.068-1.966 0-3.32 0-3.32-1.972-3.32m30.01 35.225c.05.988.53 1.737.793 1.96.02-.081.038-.21.038-.411 0-.324-.3-.857-.832-1.55m-33.405 5.824a.486.486 0 01-.484-.535c.238-2.384.314-4.783.387-7.102.133-4.275.272-8.695 1.438-13.156.192-.734.543-1.678.949-2.771.982-2.643 2.365-6.37 2.877-10.767-1.839-2.42-2.962-4.509-2.962-6.048 0-.662.379-1.64 1.191-1.64 2.725 0 2.943.648 2.943 4.291 0 1.076-.06 2.121-.165 3.132 3.872 4.954 10.824 11.443 16.79 17.011 4.371 4.08 7.682 7.198 9.751 9.467.324-1.517.894-3.457 1.552-5.7 1.668-5.675 3.95-13.448 3.95-20.471 0-2.064-.205-3.899-.208-3.917a.493.493 0 01-.003-.055c0-.12.01-.256.022-.402.011-.144.023-.293.023-.433 0-.257-.04-.423-.123-.506a.486.486 0 01.686-.688c.408.408.408 1 .408 1.194 0 .18-.014.355-.026.51a5.14 5.14 0 00-.019.3c.028.256.211 1.999.211 3.997 0 7.163-2.305 15.013-3.99 20.745-.768 2.62-1.414 4.818-1.674 6.346 1.106 1.311 1.683 2.276 1.683 2.924 0 1.304-.647 1.445-.925 1.445-.917 0-1.852-1.597-1.852-3.164 0-.271.024-.578.07-.919-2.222-2.516-6.255-6.281-10.198-9.962-5.924-5.529-12.345-11.522-16.295-16.39-.597 4.09-1.878 7.539-2.807 10.039-.397 1.068-.74 1.991-.92 2.679-1.138 4.354-1.275 8.718-1.407 12.939-.073 2.336-.15 4.752-.39 7.169a.488.488 0 01-.483.438"/><path fill="#32ACB0" d="M132.231 51.923l15.384-48.461 11.058.479 7.692 19.193 7.212-19.672h10.577l17.308 47.501-15.866.96-6.731-19.672-1.442.959-5.288 17.753h-12.5l-3.847-18.712-8.173 19.672z"/><path fill="url(#c)" d="M70.962 1.154l7.692 1.434 7.692 2.87 4.808 4.781 3.365 4.782 2.404 8.129v11.476l-4.808 8.607-5.769 5.738-7.692 3.825-5.77 1.435h-7.692l-6.25-2.391-6.25-4.304-6.25-8.129L45 31.757V19.802l4.808-8.607 1.923-2.869 5.288-3.825 5.77-2.39 8.173-.957zm0 12.432l-6.25 1.435-5.77 5.738-.961 6.694 1.923 4.782 3.846 3.347 5.288 2.391 3.847.478 4.327-1.434 3.365-2.391 2.885-4.304 1.442-4.781v-2.87l-.48-1.912-2.886-3.347-4.807-3.348-5.77-.478z" transform="translate(33)"/><path fill="url(#d)" d="M208.846 53.077V2.308h16.132l18.98 27.519V2.308l15.657.474-1.423 10.439-1.898 17.081.949 20.877-15.183.949-3.796-3.321-14.709-22.775-.474.474-.949 26.571z" transform="translate(33)"/><path fill="url(#e)" d="M37.992 12.212l2.393-9.135-8.612-1.923h-6.22l-7.654 1.923-5.741 3.846-4.785 3.846-3.349 5.289-1.913 5.288-.957 6.25.957 6.25 1.913 5.289 3.349 4.327 4.785 4.807 5.741 3.366 5.262 1.442h8.612l8.612-1.442-1.436-10.097H32.73l-8.133-1.442-6.698-4.327-1.914-5.288v-7.693l3.349-5.769 5.263-3.846 5.262-.961z" transform="translate(33)"/><path fill="url(#f)" d="M177.692 2.583l6.628-1.429 9.467.953 2.367 50.494-16.568.476-.947-12.862.947-21.436z" transform="translate(33)"/><path fill="#32ACB0" d="M337.245 4.049l-3.335 9.168-4.763-.965-7.622 1.93-5.716 3.86-2.858 4.825-.953 6.755 1.905 5.791 2.858 3.86 4.764 1.93h5.24l5.24-1.93 1.905-2.413h-7.145l-1.429-2.412 1.429-8.203 21.436-.965.953 5.79-.953 6.755-3.334 6.755-5.24 4.826-5.717 2.895-8.574 1.93h-6.669l-8.575-3.378-8.098-8.203-3.811-8.685-.952-7.238.952-6.272 3.811-7.238 4.764-5.308 6.193-3.86 5.716-1.93 5.716-.965 7.622.965z"/><path fill="#DBDAE2" d="M76.084 45.569a86.528 86.528 0 00-.172-1.673c-.234-2.12-.29-4.722-2.429-5.83-.825-.427-1.889-.418-2.797-.5-1.16-.103-2.327-.088-3.49-.134-2.235-.089-4.506-.138-6.701-.61-3.838-.823-7.495-3.145-7.7-7.508-.165-3.483 1.66-7.284 4.297-9.498 1.47-1.234 3.365-2.034 5.253-2.314.958-.142 2.01-.137 2.967.003 1.292.189 2.48.783 3.803.733 2.966-.114 4.056-3.174 4.876-5.572.815-2.383 1.477-5.044 1.367-7.575-.082-1.905-2.66-2.25-3.258-.445-.655 1.98-1.14 3.97-2.085 5.841-.383.758-1.08 1.562-1.388 2.352-.357-.156-1.095-.271-1.318-.324-3.907-.915-8.26-.335-11.7 1.8-3.184 1.976-5.877 5.286-6.688 9.017-.808 3.715-.337 8.015 1.855 11.194 2.106 3.053 5.706 4.82 9.26 5.49 2.048.386 4.132.496 6.21.579 1.113.044 2.217.102 3.323.23.353.04.85.027 1.18.175.367.165.258.196.352.535.551 1.982.51 4.318.518 6.361.002.535-.106 1.18-.031 1.717a22.975 22.975 0 01-3.098.525c-4.28.43-8.64.097-12.919-.218-2.149-.158-4.307-.476-6.209-1.559-1.823-1.039-3.38-2.454-4.924-3.864-1.634-1.493-3.195-3.052-4.843-4.519-1.716-1.526-3.19-3.39-4.452-5.302-.32-.485-1.14-.195-.965.41a38.839 38.839 0 001.24 3.622c.466 3.47 1.75 6.941 3.27 10.036 1.85 3.762 4.385 6.876 8.133 8.813 3.764 1.945 8.142 2.521 12.329 2.435 4.316-.09 9.037-.693 13.005-2.49 2.23-1.008 4.176-2.716 5.181-4.994.952-2.155 1.151-5.631-1.252-6.94m57.889-19.856a79.072 79.072 0 00-.63-3.336c0-3.389-1.262-6.724-3.398-9.402-1.419-1.779-3.209-3.104-5.05-4.405l-.255-.184A15.392 15.392 0 00123.002 7c-.479-.35-.982-.666-1.503-.95-.95-.633-1.94-1.158-2.96-1.378-.045-.01-.074.033-.056.073.022.048.048.094.071.142a7.968 7.968 0 01-.472-.186c-.88-.385-1.798.611-1.068 1.394 2.132 2.29 3.878 4.962 5.022 7.89 1.108 2.833 2.044 5.802 2.274 8.852.238 3.165.075 6.237-.784 9.303-.898 3.207-2.61 6.053-3.608 9.198-.107.338-.084.675.028.977-2.843 3.27-6.573 5.743-10.323 7.024-5.366 1.834-10.347 1.746-15.776-.066-2.95-.985-5.606-2.198-7.923-4.359-2.658-2.48-4.454-5.703-6.433-8.72-.088-.136-.359-.102-.336.091a25.561 25.561 0 001.716 6.7c-.171-.021-.323.125-.293.336.39 2.728 2.295 5.496 3.898 7.669 1.693 2.293 3.645 4.388 6.042 5.945 5.524 3.588 12.346 3.637 18.562 2.127 10.924-2.655 22.435-10.4 24.927-22.076.809-3.786.61-7.48-.034-11.274" style="mix-blend-mode:multiply"/><path fill="#DBDAE2" d="M109.212 14.296c-1.94-.468-3.874-.582-5.85-.29-2.635.39-5.444 1.403-7.629 3.068-1.987 1.081-3.525 3.315-4.339 5.2-1.089 2.522-.917 5.288.56 7.636.222.353.469.697.731 1.033.18.508.383.996.604 1.455.908 1.894 2.167 3.472 4.14 4.365.871.395 1.745.504 2.65.77.87.258 1.754.388 2.658.408a7.507 7.507 0 002.211.094c.865-.095 1.256-1.436.227-1.618-2.337-.411-4.066-1.78-5.732-3.328-.55-.512-1.114-1.022-1.664-1.548a12.386 12.386 0 01-.31-.524c-.712-1.27-1.093-2.722-1.394-4.13-.316-1.478-.553-3.169.047-4.607.997-2.393 4.124-3.969 6.519-4.676 1.462-.433 3.01-.657 4.536-.739a16.562 16.562 0 012.09.03c.424.03 1.632-.077 2.148.087.12.189.378.298.614.255l.144-.027c.185-.034.401-.228.428-.414.224-1.57-2.157-2.202-3.389-2.5"/><path fill="#DBDAE2" d="M157.389 35.497c-.05-.388-.18-.74-.404-1.007.172-.552.378-1.099.556-1.635.482-1.463-1.755-2.398-2.49-1.047-.693 1.275-1.228 2.485-2.429 3.32-1.322.92-1.824 2.49-2.456 3.902-1.265 2.825-2.412 5.68-3.526 8.567l-.718 1.859c-.128.33-.369 1.25-.628 1.633.063-.166-.521-.037-.731-.03-.723.023-1.446.026-2.17.039-2.958.05-5.967-.052-8.905.3-.861.104-1.395 1.058-1.167 1.747a.71.71 0 00.005.703c.789 1.269 2.845 1.649 4.211 1.938 1.794.38 3.628.616 5.46.7a45.47 45.47 0 005.234-.05c1.683-.116 3.455-.308 4.919-1.223 2.935-1.835 3.976-5.85 4.663-9.018.768-3.55 1.038-7.09.576-10.698m21.164-3.918c-.768.956-1.489 1.947-2.253 2.905-.79.988-1.734 1.893-2.379 2.984-1.279 2.163-2.063 4.91-2.415 7.378-.137.957-.565 2.455-.31 3.5a4.835 4.835 0 01-.173.04c-.652.149-1.312.261-1.968.387-2.452.467-5.198.712-7.362 2.025-.3.183-.316.528-.138.76-.357.058-.71.13-1.054.224-.703.189-.76 1.09-.194 1.462 2.506 1.642 6.199 1.803 9.13 2 2.986.2 6.628.548 8.785-1.925 1.89-2.169 1.886-5.088 1.99-7.789.124-3.26-.088-6.509.084-9.775a1.084 1.084 0 00-.036-.327c.105-.88.264-1.756.416-2.631.186-1.075-1.246-2.31-2.123-1.218M203.61 46.96c-.136-.667-.348-1.33-.567-1.986l-.037-.239a56.133 56.133 0 00-3.479-12.728 59.453 59.453 0 00-2.757-5.92 58.146 58.146 0 00-1.718-2.962c-1.2-2.85-2.457-5.673-3.695-8.506a716.215 716.215 0 00-2.508-5.666c-.835-1.862-1.628-3.798-3.053-5.282-.442-.46-1.22-.106-1.23.517-.032 2.08.703 4.071 1.326 6.028.605 1.898 1.201 3.8 1.79 5.703 1.225 3.97 2.336 7.974 3.546 11.948 1.211 3.98 2.306 8 3.629 11.943a703.122 703.122 0 011.884 5.698c.151.465.292.966.44 1.474-.224.056-.449.112-.674.166-1.39.333-2.78.681-4.177.977-1.288.273-2.583.564-3.88.786-1.266.217-2.742.317-3.873.96-.514.293-.543.977-.177 1.393.435.494 1.021.853 1.663 1.118-.791.405-.611 1.633.23 1.935 2.275.817 4.873.952 7.272 1.008 1.886.044 4.007.224 5.83-.376 1.729-.569 3.31-1.71 3.854-3.55a7.29 7.29 0 00.266-1.776c.33-.801.314-1.59.095-2.662m-36.079-34.952c-1.875-3.27-3.726-6.566-6.204-9.384-.642-.73-1.902-.091-1.83.826-.367.206-.653.601-.706 1.197-.128 1.44.33 2.8.808 4.13l1.77 4.92c.563 1.561 1.124 3.123 1.686 4.684.497 1.38.834 3.117 1.79 4.234.428.501 1.304.609 1.844.248.557-.374.855-.792.845-1.504a1.228 1.228 0 00-.092-.46c.136-.079.265-.183.38-.315 2.28-2.615 1.26-5.872-.29-8.576M234.9 44.378c-.113-4.392-.481-8.76-1.063-13.115-.324-2.427-.653-4.85-.932-7.283a1282.1 1282.1 0 00-.452-3.883c-.124-1.037-.11-2.191-.964-2.92a.843.843 0 00-.315-.165 100.186 100.186 0 00-.842-6.617c-.397-2.473-.543-5.304-1.486-7.638-.367-.909-1.083-1.603-2.135-1.603-.918 0-1.952.671-2.135 1.603-.517 2.642-.212 5.5-.221 8.182-.01 2.716.051 5.406.17 8.12.233 5.335.348 10.674.518 16.01.083 2.632.156 5.256.301 7.885.075 1.356.124 2.715.229 4.07.052.678.115 1.356.17 2.034.011.143-.002.681.016 1.144-.476.046-1.015.177-1.384.208-1.355.114-2.701.253-4.053.397-2.637.28-5.31.537-7.87 1.246-.866.24-.888 1.183-.353 1.68-.282.038-.554.1-.808.2-.531.21-.843.886-.357 1.333 1.363 1.256 3.9 1.488 5.675 1.78 2.245.37 4.486.623 6.762.645 3.756.035 7.39-.497 9.665-3.76 1.916-2.745 1.946-6.346 1.863-9.553m23.777-15.194a1.616 1.616 0 00-.057-.203c-.094-.785-.243-1.546-.494-2.235-.65-1.784-3.069-1.846-3.699 0-.54 1.585-.53 3.568-.638 5.235a108.37 108.37 0 00-.207 5.223c-.056 3.397-.18 6.793-.376 10.186-.048.827-.091 1.655-.166 2.48-.038.413-.077.828-.126 1.24l-.018.143c-.05.023-.107.05-.171.084l-.443.128c-.443.123-.89.235-1.34.335-.675.151-1.36.282-2.047.37-1.53.194-3.055.37-4.596.46-1.374.08-3.34.092-4.439.965-.384.305-.398.954-.174 1.348.441.775 1.429 1.296 2.453 1.634.41.356.969.48 1.523.694.87.335 1.745.561 2.656.754 1.893.402 3.816.725 5.751.786 1.715.053 3.683.165 5.23-.715 1.772-1.01 2.395-2.76 2.595-4.684.843-8.099.384-16.254-1.217-24.228m18.857-1.88c-1.507-5.114-4.302-9.837-7.51-14.045a131.31 131.31 0 00-4.975-6.109c-.625-.725-1.24-1.473-1.882-2.194-.726-1.004-1.454-2.006-2.13-3.044-.84-1.287-3.103-.885-3.034.827.098 2.453 1.406 4.416 2.665 6.43l4.504 7.21a495.22 495.22 0 009.112 14.07c1.034 1.537 3.393.309 2.764-1.286.46-.448.708-1.104.486-1.859" style="mix-blend-mode:multiply"/><path fill="#DBDAE2" d="M294.348 21.536a1.185 1.185 0 00-.181-.498 842.265 842.265 0 00-.09-5.275 299.046 299.046 0 01-.061-5.603c-.002-.933-.005-1.867-.009-2.8-.004-.908-.15-1.947.011-2.84.568-3.133-3.122-4.598-4.981-2.105-1.428 1.915-1.792 4.701-2.023 7.01-.233 2.333-.226 4.693-.292 7.034-.146 5.186-.156 10.372-.181 15.56-.026 5.095.506 10.216.33 15.308-.049 1.393-.324 2.451-1.764 2.904-2.011.631-4.246.796-6.331 1.019-.747.08-1.496.158-2.246.212-.26.018-1.096.14-1.237.087-.358-.136-.638-.912-.851-1.214-.423-.599-.888-1.165-1.345-1.738l-2.58-3.227c-.868-1.083-1.588-2.078-2.779-2.808-.205-.126-.528.033-.506.291.216 2.508 1.78 4.915 2.82 7.177.957 2.083 1.935 4.983 4.468 5.515.138.03.278.053.419.075.63.413 1.302.765 1.999 1.056 3.784 1.578 8.002 1.02 11.927.321 1.605-.286 3.233-.835 4.32-2.12 1.302-1.54 1.354-3.545 1.419-5.465.146-4.364.229-8.725.295-13.09.074-4.931.002-9.882-.551-14.786m55.949 13.996a1.19 1.19 0 00-.892-1.122c.045-.478.08-.958.097-1.438a23.425 23.425 0 00-.226-4.013c-.186-1.362-.343-2.673-1.61-3.416-.437-.257-1.084-.206-1.437.189-1.274 1.427-.843 3.883-1.236 5.71a21.6 21.6 0 01-1.88 5.304 23.791 23.791 0 01-1.915 3.107l-.094.127c.056-.077.16-.22-.048.053-.558.733-.73.97-1 1.29-.628.742-1.272 1.46-1.979 2.126-.353.333-.72.646-1.085.964l-.545.477-.201.18a11.23 11.23 0 00-.221.154c-3.916 2.763-8.472 3.695-13.1 4.497-2.312.4-4.887.7-7.23.478-1.945-.184-3.84-1.028-5.505-2.033-2.054-1.24-3.889-2.89-5.546-4.631-.81-.851-1.559-1.758-2.325-2.65-.756-.88-1.386-1.96-2.389-2.553-.175-.104-.379.03-.388.226-.05 1.085.452 2.037.859 3.02a28.623 28.623 0 001.716 3.444c1.227 2.11 2.667 4.074 4.437 5.745a20.45 20.45 0 007.858 4.633c3.112 1.525 6.39 2.704 9.816 3.217 8.551 1.28 16.281-2.905 21.268-9.87 2.618-3.658 4.99-8.602 4.801-13.215" style="mix-blend-mode:multiply"/><path fill="#DBDAE2" d="M341.056 5.24c-.062-.542-.445-1.049-.93-1.312-1.256-1.872-4.553-2.426-5.931-.01-.765 1.341-1.263 2.867-1.85 4.293-.292.712-.534 1.483-.853 2.172-.374.05-.763.069-1.122.119-.749.103-1.495.22-2.237.364-.836.162-1.676.353-2.508.572h-.005c-1.69.27-3.306.713-4.89 1.343-2.807 1.115-5.776 2.627-7.833 4.843-1.969 2.122-2.881 4.826-2.97 7.656-.044 1.433.248 2.896.556 4.293.202.918.432 2.676 1.404 3.122.097.044.21.04.289-.037.381-.37.455-.95.45-1.526.086.294.183.583.293.867-.222 1.907.33 4.666 2.01 5.658.17.1.453.049.542-.138.255-.534.305-1.104.28-1.679a21.763 21.763 0 001.57 2.17c.138.17.465-.014.38-.215-1.644-3.921-2.85-8.47-1.612-12.66 1.16-3.928 4.375-6.219 8.358-7.062 1.834-.388 3.708-.432 5.579-.36 2.05.08 4.27.507 6.14-.57 1.763-1.015 2.53-2.91 3.133-4.71.397-1.187.725-2.384 1.045-3.591.302-1.143.847-2.416.712-3.602" style="mix-blend-mode:multiply"/><path fill="#DBDAE2" d="M331.01 35.365c-.55.028-1.24-.269-1.763-.402-.69-.175-1.385-.323-2.104-.345-.768-.023-2.091.092-2.21 1.008-.136 1.04 1.195 1.951 2.04 2.388 1.106.57 2.773 1.21 4.038 1.217 2.662.015 2.642-3.997 0-3.866"/><g transform="translate(33)"><mask id="h" fill="#fff"><use xlink:href="#g"/></mask><path fill="#43434C" d="M29.084 1.838c-4.045 0-8.684.813-13.308 3.354-3.53 1.94-11.934 7.624-13.717 18.47C.37 33.94 5.442 42.442 10.752 46.97c6.423 5.478 13.816 5.97 16.6 6.156 4.205.28 8.395-.289 12.454-1.692a110.502 110.502 0 00-.938-9.423c-2.656.38-5.339.419-7.983.112-4.29-.497-9.152-1.06-12.733-5.056-2.951-3.29-3.487-7.2-3.543-9.238-.172-6.153 3.574-10.377 5.193-11.907 4.448-4.206 11.271-5.667 17.857-3.84a45.198 45.198 0 002.891-8.11c-1.874-.733-6.158-2.134-11.466-2.134m.351 53.087c-.732 0-1.466-.025-2.2-.073-10.754-.717-15.919-5.122-17.616-6.57C2.387 42.115-1.168 32.574.342 23.384 2.248 11.79 11.182 5.741 14.934 3.68 26.48-2.666 38.08 1.119 41.36 2.432a1.536 1.536 0 01.921 1.787 47.056 47.056 0 01-3.151 8.817 1.453 1.453 0 01-1.726.772c-6.064-1.755-12.35-.465-16.403 3.367-1.45 1.37-4.806 5.148-4.654 10.606.05 1.802.52 5.255 3.103 8.136 3.142 3.504 7.655 4.027 11.637 4.488a29.27 29.27 0 007.869-.156c.362-.056.74.035 1.035.252.295.217.495.548.548.91a113.383 113.383 0 011.006 9.974 1.675 1.675 0 01-1.122 1.667 33.405 33.405 0 01-10.988 1.873" mask="url(#h)"/></g><path fill="#43434C" d="M104.026 37.762h.012c3.78 0 7.603-1.987 10.228-5.316 2.379-3.016 3.313-6.536 2.564-9.658-1.268-5.286-7.581-9.16-13.786-8.457-7.114.806-11.496 6.417-11.622 11.376-.073 2.872 1.099 5.7 3.3 7.964 2.49 2.557 5.967 4.087 9.304 4.09m.012 1.725h-.015c-3.79-.005-7.73-1.729-10.535-4.613-2.528-2.598-3.874-5.87-3.789-9.21.086-3.34 1.614-6.533 4.305-8.99 2.427-2.215 5.652-3.693 8.846-4.055 3.264-.37 6.807.412 9.718 2.144 3.09 1.84 5.2 4.547 5.938 7.623.873 3.64-.18 7.696-2.887 11.13-2.95 3.74-7.278 5.97-11.58 5.97m-.959-37.763c-3.85 0-8.82.795-13.676 3.859-7.235 4.564-11.827 12.689-11.984 21.203-.237 12.798 9.662 24.739 22.066 26.617 11.728 1.775 20.286-6.071 21.882-7.662 1.637-1.632 9.697-10.388 7.657-22.601-1.899-11.376-11.234-18.585-19.644-20.684-1.09-.273-3.372-.733-6.3-.733m-.157 53.664c-1.194 0-2.427-.088-3.696-.28-13.227-2.003-23.783-14.723-23.531-28.354.168-9.088 5.068-17.76 12.789-22.63 9.127-5.758 18.62-4.013 21.312-3.34 4.984 1.244 9.757 3.968 13.44 7.672 3.996 4.018 6.585 8.997 7.487 14.4 2.179 13.048-6.399 22.37-8.14 24.106-1.528 1.523-9.044 8.426-19.66 8.426m44.733-51.338a759.401 759.401 0 01-14.67 48.407 197.184 197.184 0 0114.454-.442l6.794-19.264c.15-.426.553-.713 1.005-.713h.002c.453 0 .857.29 1.005.718a72.41 72.41 0 012.866 10.891c.456 2.517.78 5.084.967 7.639 2.06-.08 3.944-.16 5.811-.237 1.877-.079 3.735-.157 5.735-.234l4.561-15.004c.557-1.83.778-2.557.899-2.879l-.019-.007a1.071 1.071 0 011.986-.036c1.002 2.361 2.409 6.245 3.435 9.08l.261.721a164.222 164.222 0 013.101 9.441 183.796 183.796 0 0114.954-.802 1005.993 1005.993 0 01-8.849-24.307c-1.161-3.3-2.362-6.714-4.116-11.548a1117.008 1117.008 0 00-4.09-11.091l-9.88.157c-1.282 3.003-2.361 6.611-3.405 10.102-1.029 3.441-2 6.692-3.104 9.168a.881.881 0 01-.81.514.868.868 0 01-.786-.552c-.466-1.198-.97-2.461-1.504-3.798-1.987-4.978-4.24-10.62-5.443-15.27a.253.253 0 00-.236-.191l-10.924-.463zm-15.269 50.184a1.314 1.314 0 01-1.241-1.742 755.987 755.987 0 0014.873-49.022 1.556 1.556 0 011.572-1.158l11.062.468a1.976 1.976 0 011.837 1.489c1.176 4.543 3.407 10.13 5.375 15.06l.714 1.789c.754-2.047 1.475-4.459 2.227-6.974 1.077-3.602 2.19-7.328 3.545-10.457.227-.524.742-.87 1.313-.878l10.32-.164c.57-.012 1.09.345 1.291.88 1.4 3.73 2.809 7.552 4.189 11.357 1.756 4.84 2.959 8.258 4.122 11.563a1003.778 1003.778 0 008.927 24.513 1.554 1.554 0 01-1.429 2.102 182.27 182.27 0 00-15.359.825 1.377 1.377 0 01-1.453-.985 162.395 162.395 0 00-3.15-9.618l-.261-.721c-.797-2.202-1.825-5.04-2.705-7.28l-4.957 16.306a1.31 1.31 0 01-1.217.95c-2.109.08-4.054.162-6.02.244-2.046.086-4.115.173-6.412.26a1.109 1.109 0 01-1.157-1.046 70.521 70.521 0 00-3.171-16.84l-6.247 17.714c-.187.532-.703.89-1.256.882a195.784 195.784 0 00-15.238.479.971.971 0 01-.094.004zm78.905-51.788c.414 3.32.734 6.714.953 10.091.41 6.314.355 10.828.286 16.543-.02 1.579-.04 3.245-.05 5.062-.039 5.993.031 12.164.207 18.35l15.88-.313c-.023-3.037-.08-6.126-.17-9.188-.188-6.322-.461-10.715-.75-15.366a740.197 740.197 0 01-.402-6.78 489.041 489.041 0 01-.642-19.09c-1.85.085-3.697.122-5.497.111-.625-.003-1.2-.012-1.743-.021-1.92-.031-3.436-.055-5.505.19-.86.103-1.722.24-2.567.41zm1.042 51.788c-.736 0-1.348-.59-1.37-1.325a535.076 535.076 0 01-.218-18.778c.011-1.82.031-3.49.05-5.072.07-5.677.124-10.162-.281-16.41a169.927 169.927 0 00-.967-10.168 1.552 1.552 0 011.22-1.7c.948-.196 1.92-.354 2.887-.469 2.183-.26 3.751-.235 5.737-.202.538.008 1.106.017 1.725.021 1.878.012 3.808-.031 5.738-.126a1.405 1.405 0 011.479 1.384c.088 6.528.305 13.043.644 19.364.13 2.428.268 4.632.4 6.764.29 4.665.565 9.072.753 15.422.096 3.235.155 6.498.175 9.7a1.267 1.267 0 01-1.238 1.267l-16.707.328h-.027zm28.927-52.28c.207 10.414.363 20.975.464 31.4.06 6.33.102 12.77.123 19.15l12.524-.323.461-26.701a1.077 1.077 0 011.933-.642c2.962 3.842 5.61 7.81 7.871 11.792.326.574.638 1.137.951 1.703 1.063 1.92 2.163 3.906 3.918 6.47a68.573 68.573 0 005.038 6.489l14.622-.56a174.232 174.232 0 01-.537-15.642c.066-5.919.475-11.154 1.217-20.658.31-3.97.651-7.979 1.013-11.923l-14.21-.755 1.266 28.05c.02.466-.274.884-.715 1.02a1.013 1.013 0 01-1.166-.44 383.609 383.609 0 00-8.828-13.749c-1.166-1.744-2.173-3.249-3.562-5.432-1.9-2.988-3.759-6.06-5.525-9.136l-16.858-.113zm.068 52.28c-.308 0-.61-.123-.83-.338a1.198 1.198 0 01-.36-.853 3049.659 3049.659 0 00-.602-51.693c-.006-.295.11-.583.315-.792.203-.207.488-.322.783-.325l17.7.119c.48.003.927.264 1.166.682a234.562 234.562 0 005.586 9.246 253.569 253.569 0 003.54 5.398 377.47 377.47 0 017.458 11.527l-1.175-26.029a1.126 1.126 0 01.33-.847 1.11 1.11 0 01.847-.324l15.348.816a1.246 1.246 0 011.173 1.362 878.585 878.585 0 00-1.055 12.383c-.796 10.18-1.15 14.919-1.213 20.543a172.83 172.83 0 00.566 15.904 1.312 1.312 0 01-1.254 1.418l-15.17.581a1.427 1.427 0 01-1.136-.487 70.238 70.238 0 01-5.251-6.75c-1.801-2.631-2.92-4.653-4.003-6.609a98.794 98.794 0 00-7.579-11.825l-.438 25.384a1.178 1.178 0 01-1.146 1.16l-13.57.349h-.03zM325.667 1.71c-3.954 0-8.49.806-13.013 3.325-3.45 1.92-11.665 7.544-13.41 18.296-1.652 10.18 3.307 18.602 8.499 23.089 5.974 5.162 12.705 6.036 16.186 6.097.176.002 4.357.058 9.283-1.51 6.228-1.98 10.671-5.54 13.21-10.577 2.839-5.636 2.32-11.402 1.697-14.512l-20.253.092-.738 8.827 7.858.337c.405.017.766.272.922.647.156.377.08.815-.193 1.117-1.36 1.506-2.95 2.675-4.724 3.472-4.205 1.89-10.712 2.075-15.063-1.984-2.959-2.762-3.611-6.302-3.857-7.635-1-5.441 1.021-11.376 5.152-15.12 3.13-2.838 6.551-3.59 8.012-3.911 3.572-.786 6.705-.38 8.795.14a45.11 45.11 0 002.845-8.074c-1.833-.727-6.02-2.116-11.208-2.116zm-1.63 52.52h-.138c-3.71-.066-10.885-.999-17.263-6.51-7.072-6.111-10.548-15.562-9.07-24.665 1.864-11.493 10.597-17.48 14.266-19.52C323.124-2.752 334.46 1 337.666 2.3c.692.28 1.08 1.041.9 1.771a46.58 46.58 0 01-1.214 4.13 47.41 47.41 0 01-1.864 4.603l-.06.127c-.271.572-.91.87-1.518.707-1.902-.51-4.888-.958-8.312-.205-1.33.293-4.442.977-7.238 3.511-3.7 3.354-5.512 8.667-4.617 13.534.238 1.292.795 4.316 3.34 6.69 3.786 3.533 9.504 3.346 13.216 1.678a12.244 12.244 0 003.116-2.025l-6.717-.287a1.359 1.359 0 01-.96-.463 1.38 1.38 0 01-.334-1.018l.8-9.583a1.267 1.267 0 011.26-1.171l20.94-.095h.006c.629 0 1.18.448 1.312 1.067.693 3.253 1.382 9.649-1.784 15.934-2.714 5.387-7.629 9.341-14.213 11.436-4.749 1.51-8.878 1.59-9.688 1.59z"/><path fill="#DBDAE2" d="M60.925 48.462c-6.23 0-11.577-2.082-15.46-6.02-3.574-3.624-5.542-8.477-5.542-13.667C39.923 16.52 50.234 5.77 61.99 5.77c.06 0 5.996.12 6.729 1.618a.501.501 0 01-.217.665.479.479 0 01-.65-.22c-.323-.542-3.942-1.071-5.862-1.071-5.346 0-10.727 2.423-14.761 6.647-4.025 4.215-6.334 9.816-6.334 15.367 0 4.924 1.866 9.527 5.254 12.963 3.699 3.75 8.808 5.732 14.777 5.732 1.59 0 3.283-.108 5.33-.34a.488.488 0 01.536.438.492.492 0 01-.43.547c-2.082.236-3.81.347-5.436.347m42.484-41.72c-7.04 0-17.514 5.281-17.514 19.832 0 5.632 1.373 10.441 3.969 13.907 2.91 3.883 7.14 5.852 12.573 5.852 4.768 0 9.68-2.38 13.476-6.53 3.885-4.248 6.113-9.885 6.113-15.466 0-2.99-.698-8.576-5.369-12.371-3.838-3.12-7.856-4.86-11.942-5.174-.436-.033-.876-.05-1.306-.05m-.972 40.565c-12.914 0-17.515-10.71-17.515-20.733 0-15.265 11.056-20.806 18.487-20.806.456 0 .92.018 1.38.054 4.287.33 8.487 2.142 12.482 5.388 4.984 4.05 5.728 9.963 5.728 13.127 0 12.022-9.8 22.97-20.562 22.97M153.335 9.05c-.498 0-.988.23-1.346.634-.497.56-.76 1.451-.76 2.576 0 .699.223 1.505.614 2.4a879 879 0 012.198-5.369c-.068-.105-.324-.242-.706-.242m26.428.99c-.323.123-1.448 1.37-1.448 3.379 0 .546.185 1.403.514 2.491 1.128-1.95 1.88-3.454 1.88-4.062 0-1.254-.648-1.78-.946-1.809M165.76 40.712c-.165.57-.254 1.063-.254 1.468 0 1.1.392 1.628.56 1.74.041-.075.1-.25.103-.57-.033-.245-.23-1.55-.409-2.638m25.975 5.442a.498.498 0 01-.436-.255c-1.815-3.29-9.634-19.049-12.718-27.647-.935 1.54-2.06 3.329-3.342 5.363-3.25 5.149-7.095 11.242-8.818 15.294.177.592.738 4.238.738 4.411 0 .444-.077.805-.228 1.074-.187.329-.49.518-.833.518-.777 0-1.582-1.022-1.582-2.732 0-.832.31-1.953.847-3.28-2.298-5.995-6.208-11.47-9.36-15.882-1.59-2.226-3.016-4.222-4.052-5.996-3.292 8.157-8.364 21.015-10.676 28.394a.497.497 0 01-.619.321.484.484 0 01-.327-.607c2.394-7.64 7.727-21.113 11.009-29.225-.694-1.357-1.1-2.57-1.1-3.645 0-1.382.337-2.464 1.003-3.214.546-.616 1.309-.97 2.093-.97.978 0 1.715.545 1.715 1.266a.484.484 0 01-.037.184c-.032.077-1.07 2.58-2.586 6.323 1.038 1.921 2.643 4.17 4.387 6.61 3.021 4.23 6.732 9.425 9.105 15.165 1.872-4.052 5.32-9.514 8.479-14.522 1.32-2.093 2.661-4.217 3.765-6.063-.529-1.601-.838-2.863-.838-3.621 0-2.403 1.46-4.353 2.414-4.353.942 0 1.96 1.064 1.96 2.782 0 .876-.887 2.657-2.464 5.317 2.717 7.93 10.65 24.128 12.936 28.272.13.236.04.531-.2.659a.496.496 0 01-.235.059m27.453 0c-.318 0-.576-.223-.576-.497 0-1.098.041-2.18.08-3.227.04-1.013.079-2.062.079-3.092 0-1.911-.278-4.451-.501-6.492-.155-1.415-.288-2.637-.288-3.287 0-.683.045-1.37.089-2.035.043-.652.088-1.325.088-1.98-.011-.593-.81-15.403-1.686-19.18-.063-.27.14-.531.452-.585.313-.055.615.12.678.39.907 3.91 1.708 19.255 1.708 19.374 0 .684-.046 1.372-.09 2.037a30.363 30.363 0 00-.087 1.98c0 .602.131 1.803.283 3.193.226 2.061.506 4.627.506 6.585 0 1.047-.04 2.103-.079 3.125-.039 1.038-.08 2.112-.08 3.194 0 .274-.258.497-.576.497m31.597-38.077c-.387 0-.483.867-.483.99 0 1.226.734 2.844 1.96 4.707.046-.557.07-1.102.07-1.636 0-3.047-.223-4.061-1.547-4.061m27.335 35.948c.023.61.291.914.422.992a.763.763 0 00.03-.235c0-.263-.125-.61-.354-1.03l-.098.273m-31.155 3.283a.488.488 0 01-.489-.474c-.01-.397-.014-.792-.014-1.187 0-8.111 1.878-15.108 3.536-21.282.9-3.35 1.71-6.373 2.097-9.118-1.716-2.426-2.772-4.556-2.772-6.18 0-.545.263-1.961 1.462-1.961 2.526 0 2.526 2.558 2.526 5.032 0 .927-.07 1.88-.196 2.865 3.46 4.76 9.519 10.777 14.727 15.95 4.658 4.628 8.16 8.15 10.07 10.631 1.444-4.524 4.494-15.457 4.494-27.076 0-2.786-.1-5.025-.315-7.048a.487.487 0 01.436-.534c.266-.03.51.165.538.432.218 2.057.32 4.33.32 7.15 0 12.377-3.42 23.979-4.764 28.06.609.916.929 1.653.929 2.214 0 .343-.076.625-.227.84a.895.895 0 01-.735.385c-.696 0-1.447-.789-1.447-2.064 0-.058.01-.115.03-.17.009-.022.146-.393.372-1.064-1.912-2.645-6.206-6.91-10.393-11.07-5.148-5.113-10.72-10.647-14.238-15.28-.431 2.53-1.165 5.264-1.969 8.256-1.642 6.116-3.503 13.048-3.503 21.032 0 .387.005.775.014 1.164a.487.487 0 01-.477.497h-.012m94.928-17.186a6.67 6.67 0 00-1.965 1.798c1.435-.412 2.259-1.228 2.447-1.762l-.109-.012c-.11-.013-.226-.027-.317-.027-.027 0-.045.002-.056.003m-19.371 16.032c-4.11 0-8.695-2.12-12.268-5.67-3.934-3.907-6.1-8.928-6.1-14.136 0-4.942 2.02-10.071 5.544-14.073 3.642-4.134 8.484-6.506 13.286-6.506.764 0 1.534.06 2.29.179a.49.49 0 01.404.562.486.486 0 01-.552.413 13.838 13.838 0 00-2.142-.167c-4.528 0-9.108 2.252-12.566 6.179-3.366 3.822-5.296 8.712-5.296 13.413 0 4.94 2.062 9.71 5.807 13.43 3.397 3.375 7.73 5.39 11.593 5.39 11.77 0 13.178-4.588 14.54-9.024.308-1.002.62-2.017 1.049-2.98H338c-2.475 0-3.732-.583-4.742-1.051-.676-.313-1.21-.56-1.964-.56a.49.49 0 01-.484-.494c0-.273.217-.493.484-.493.964 0 1.644.315 2.364.649.973.451 2.076.962 4.343.962.214 0 .42-.008.618-.024.64-1.115 1.51-2.12 2.814-2.9.137-.082.3-.12.515-.12.146 0 .295.017.427.033.08.009.151.019.206.019.442 0 .803.34.803.757 0 .699-.554 1.514-1.446 2.128-.56.385-1.446.828-2.715 1.01-.524 1.036-.876 2.182-1.238 3.359-1.399 4.554-2.983 9.715-15.464 9.715"/><path d="M.14 103a.362.362 0 01-.334-.217l-5.276-12.29a.352.352 0 01.192-.465.363.363 0 01.473.19L.47 102.505a.353.353 0 01-.192.466.343.343 0 01-.14.028M13.5 74a2 2 0 100 4 2 2 0 000-4m44.097 29.771c1.144.25 2.29.521 3.403.785.85.201 1.724.408 2.596.605a78.424 78.424 0 00-2.064-5.185 166.476 166.476 0 01-3.935 3.795M64.142 106a.394.394 0 01-.077-.008 224.375 224.375 0 01-3.232-.747 167.135 167.135 0 00-4.05-.924.35.35 0 01-.17-.604c1.818-1.692 3.382-3.2 4.782-4.611a.356.356 0 01.32-.1.354.354 0 01.262.207c1.057 2.401 1.853 4.41 2.504 6.32a.351.351 0 01-.073.35.359.359 0 01-.266.117m314.718-3a.362.362 0 00.334-.217l5.276-12.29a.352.352 0 00-.192-.465.363.363 0 00-.473.19l-5.275 12.287c-.078.18.008.39.192.466.045.02.093.028.14.028M365.5 74a2 2 0 110 4 2 2 0 010-4m-44.097 29.771c-1.144.25-2.29.521-3.403.785-.85.201-1.724.408-2.596.605a78.424 78.424 0 012.064-5.185 166.476 166.476 0 003.935 3.795M314.858 106a.394.394 0 00.077-.008c1.082-.239 2.175-.497 3.232-.747 1.324-.314 2.694-.638 4.05-.924a.35.35 0 00.17-.604 166.911 166.911 0 01-4.782-4.611.356.356 0 00-.32-.1.354.354 0 00-.262.207c-1.057 2.401-1.853 4.41-2.504 6.32a.351.351 0 00.073.35.359.359 0 00.266.117" fill="#43434C"/></g></svg>