<svg xmlns="http://www.w3.org/2000/svg" xmlns:xlink="http://www.w3.org/1999/xlink" width="653" height="56"><defs><path id="a" d="M.356.202h262.43v131.455H.356z"/><path id="c" d="M0 .199h131.214v131.276H0z"/></defs><g fill="none" fill-rule="evenodd"><path fill="#FFBA27" d="M66.86 132.261h69.719c0-33.98 27.532-61.525 61.496-61.525 33.961 0 61.496 27.545 61.496 61.525h69.719C329.29 59.76 270.545.985 198.075.985S66.86 59.76 66.86 132.261"/><path fill="#618CFA" d="M198.075.985v69.751c33.961 0 61.496 27.545 61.496 61.525s-27.535 61.524-61.496 61.524v69.751c72.467 0 131.215-58.772 131.215-131.275C329.29 59.76 270.542.985 198.075.985"/><path fill="#B1C0FA" d="M-27.644 66.753c0-17.013 13.767-30.806 30.75-30.806 16.979 0 30.746 13.793 30.746 30.806S20.085 97.556 3.105 97.556c-16.982 0-30.749-13.79-30.749-30.803m30.75 65.728c36.233 0 65.607-29.428 65.607-65.728S39.339 1.025 3.105 1.025c-36.236 0-65.607 29.428-65.607 65.728s29.371 65.728 65.607 65.728"/><g transform="translate(329.47 .823)"><mask id="b" fill="#fff"><use xlink:href="#a"/></mask><path fill="#FFBA27" d="M.356 131.657h69.721c0-34.026 27.53-61.608 61.494-61.608h.003c33.96 0 61.493 27.582 61.493 61.608h69.721C262.788 59.055 204.041.202 131.574.202h-.003C59.104.202.356 59.055.356 131.657" mask="url(#b)"/></g><g transform="translate(584.37 .823)"><mask id="d" fill="#fff"><use xlink:href="#c"/></mask><path fill="#618CFA" d="M65.606.2C29.373.2 0 29.586 0 65.836s29.374 65.638 65.607 65.638c36.237 0 65.608-29.388 65.608-65.638S101.843.199 65.606.199" mask="url(#d)"/></g></g></svg>