<svg version="1.1" id="Слой_1" xmlns="http://www.w3.org/2000/svg" x="0" y="0" viewBox="0 0 484.7 42" xml:space="preserve" enable-background="new 0 0 484.7 42"><style>.st0{fill:#ffba27}.st3{fill:#fff}</style><path class="st0" d="M257.6 131.4h69.7c0-34 27.5-61.5 61.5-61.5s61.5 27.5 61.5 61.5H520C520 58.9 461.3.2 388.8.2S257.6 58.9 257.6 131.4"/><path d="M388.8.2V70c34 0 61.5 27.5 61.5 61.5S422.8 193 388.8 193v69.8c72.5 0 131.2-58.8 131.2-131.3C520 58.9 461.3.2 388.8.2" fill="#618cfa"/><g transform="translate(-40.135)"><defs><filter id="Adobe_OpacityMaskFilter" filterUnits="userSpaceOnUse" x="-85.6" y="-114.5" width="245.9" height="246.1"><feColorMatrix values="1 0 0 0 0 0 1 0 0 0 0 0 1 0 0 0 0 0 1 0"/></filter></defs><mask maskUnits="userSpaceOnUse" x="-85.6" y="-114.5" width="245.9" height="246.1" id="shskturetb_1_"><g filter="url(#Adobe_OpacityMaskFilter)"><path id="ov7y02rnda_1_" class="st3" d="M-85.6.2H35.2v131.5H-85.6V.2z"/></g></mask><path d="M160.3 126.4L-80.4-114.5l-5.2 5.2 240.7 240.9 5.2-5.2z" mask="url(#shskturetb_1_)" fill="#fff"/></g><g transform="translate(-50.223)"><defs><filter id="Adobe_OpacityMaskFilter_1_" filterUnits="userSpaceOnUse" x="-85.9" y="-104.1" width="245.9" height="246.1"><feColorMatrix values="1 0 0 0 0 0 1 0 0 0 0 0 1 0 0 0 0 0 1 0"/></filter></defs><mask maskUnits="userSpaceOnUse" x="-85.9" y="-104.1" width="245.9" height="246.1" id="esfc6wcn4d_1_"><g filter="url(#Adobe_OpacityMaskFilter_1_)"><path id="yn2e0pcduc_1_" class="st3" d="M-85.9.2H45.3v131.5H-85.9V.2z"/></g></mask><path d="M160 136.8L-80.7-104.1l-5.2 5.2L154.8 142l5.2-5.2z" mask="url(#esfc6wcn4d_1_)" fill="#fff"/></g><g transform="translate(-50.223)"><defs><filter id="Adobe_OpacityMaskFilter_2_" filterUnits="userSpaceOnUse" x="-96.3" y="-93.7" width="245.9" height="246.1"><feColorMatrix values="1 0 0 0 0 0 1 0 0 0 0 0 1 0 0 0 0 0 1 0"/></filter></defs><mask maskUnits="userSpaceOnUse" x="-96.3" y="-93.7" width="245.9" height="246.1" id="j4lvi8cu0f_1_"><g filter="url(#Adobe_OpacityMaskFilter_2_)"><path id="dhtwi3p32e_1_" class="st3" d="M-86.1.2H45.3v131.5H-86.1V.2z"/></g></mask><path d="M149.6 147.2L-91.1-93.7l-5.2 5.2 240.7 240.9 5.2-5.2z" mask="url(#j4lvi8cu0f_1_)" fill="#fff"/></g><g transform="translate(-50.223)"><defs><filter id="Adobe_OpacityMaskFilter_3_" filterUnits="userSpaceOnUse" x="-106.7" y="-83.3" width="245.9" height="246.1"><feColorMatrix values="1 0 0 0 0 0 1 0 0 0 0 0 1 0 0 0 0 0 1 0"/></filter></defs><mask maskUnits="userSpaceOnUse" x="-106.7" y="-83.3" width="245.9" height="246.1" id="upb6l5helh_1_"><g filter="url(#Adobe_OpacityMaskFilter_3_)"><path id="sqvb4bhj3g_1_" class="st3" d="M-86.1.2H45.3v131.5H-86.1V.2z"/></g></mask><path d="M139.2 157.6L-101.5-83.3l-5.2 5.2 240.7 241 5.2-5.3z" mask="url(#upb6l5helh_1_)" fill="#fff"/></g><g transform="translate(-50.223)"><defs><filter id="Adobe_OpacityMaskFilter_4_" filterUnits="userSpaceOnUse" x="-117.1" y="-72.9" width="245.9" height="246.1"><feColorMatrix values="1 0 0 0 0 0 1 0 0 0 0 0 1 0 0 0 0 0 1 0"/></filter></defs><mask maskUnits="userSpaceOnUse" x="-117.1" y="-72.9" width="245.9" height="246.1" id="_x38_3yxyc21vj_1_"><g filter="url(#Adobe_OpacityMaskFilter_4_)"><path id="_x38_ziiq0xusi_1_" class="st3" d="M-86.1.2H45.3v131.5H-86.1V.2z"/></g></mask><path d="M128.8 168L-111.9-72.9l-5.2 5.2 240.7 240.9 5.2-5.2z" mask="url(#_x38_3yxyc21vj_1_)" fill="#fff"/></g><g transform="translate(-50.223)"><defs><filter id="Adobe_OpacityMaskFilter_5_" filterUnits="userSpaceOnUse" x="-127.5" y="-62.5" width="245.9" height="246.1"><feColorMatrix values="1 0 0 0 0 0 1 0 0 0 0 0 1 0 0 0 0 0 1 0"/></filter></defs><mask maskUnits="userSpaceOnUse" x="-127.5" y="-62.5" width="245.9" height="246.1" id="q2rorciiyl_1_"><g filter="url(#Adobe_OpacityMaskFilter_5_)"><path id="_x36_1shschtpk_1_" class="st3" d="M-86.1.2H45.3v131.5H-86.1V.2z"/></g></mask><path d="M118.4 178.4L-122.3-62.5l-5.2 5.2 240.7 240.9 5.2-5.2z" mask="url(#q2rorciiyl_1_)" fill="#fff"/></g><g transform="translate(-50.223)"><defs><filter id="Adobe_OpacityMaskFilter_6_" filterUnits="userSpaceOnUse" x="-137.9" y="-52.1" width="245.9" height="246.1"><feColorMatrix values="1 0 0 0 0 0 1 0 0 0 0 0 1 0 0 0 0 0 1 0"/></filter></defs><mask maskUnits="userSpaceOnUse" x="-137.9" y="-52.1" width="245.9" height="246.1" id="_x39_0xr8bav1n_1_"><g filter="url(#Adobe_OpacityMaskFilter_6_)"><path id="pdi64iq56m_1_" class="st3" d="M-86.1.2H45.3v131.5H-86.1V.2z"/></g></mask><path d="M108 188.8L-132.7-52.1l-5.2 5.2L102.8 194l5.2-5.2z" mask="url(#_x39_0xr8bav1n_1_)" fill="#fff"/></g><g transform="translate(-50.223)"><defs><filter id="Adobe_OpacityMaskFilter_7_" filterUnits="userSpaceOnUse" x="-148.3" y="-41.7" width="245.9" height="246.1"><feColorMatrix values="1 0 0 0 0 0 1 0 0 0 0 0 1 0 0 0 0 0 1 0"/></filter></defs><mask maskUnits="userSpaceOnUse" x="-148.3" y="-41.7" width="245.9" height="246.1" id="wz2fedocdp_1_"><g filter="url(#Adobe_OpacityMaskFilter_7_)"><path id="k4kzn1kpgo_1_" class="st3" d="M-86.1.2H45.3v131.5H-86.1V.2z"/></g></mask><path d="M97.7 199.2L-143-41.7l-5.2 5.2L92.4 204.4l5.3-5.2z" mask="url(#wz2fedocdp_1_)" fill="#fff"/></g><g transform="translate(-50.223)"><defs><filter id="Adobe_OpacityMaskFilter_8_" filterUnits="userSpaceOnUse" x="-158.7" y="-31.3" width="245.9" height="246.1"><feColorMatrix values="1 0 0 0 0 0 1 0 0 0 0 0 1 0 0 0 0 0 1 0"/></filter></defs><mask maskUnits="userSpaceOnUse" x="-158.7" y="-31.3" width="245.9" height="246.1" id="l3e74t9jhr_1_"><g filter="url(#Adobe_OpacityMaskFilter_8_)"><path id="z913i3pgqq_1_" class="st3" d="M-86.1.2H45.3v131.5H-86.1V.2z"/></g></mask><path d="M87.3 209.6L-153.4-31.3l-5.2 5.2L82 214.8l5.3-5.2z" mask="url(#l3e74t9jhr_1_)" fill="#fff"/></g><g transform="translate(-50.223)"><defs><filter id="Adobe_OpacityMaskFilter_9_" filterUnits="userSpaceOnUse" x="-169.1" y="-20.9" width="245.9" height="246.1"><feColorMatrix values="1 0 0 0 0 0 1 0 0 0 0 0 1 0 0 0 0 0 1 0"/></filter></defs><mask maskUnits="userSpaceOnUse" x="-169.1" y="-20.9" width="245.9" height="246.1" id="guep5a4hbt_1_"><g filter="url(#Adobe_OpacityMaskFilter_9_)"><path id="cbrei5rb0s_1_" class="st3" d="M-86.1.2H45.3v131.5H-86.1V.2z"/></g></mask><path d="M76.9 220L-163.8-20.9l-5.2 5.2L71.6 225.2l5.3-5.2z" mask="url(#guep5a4hbt_1_)" fill="#fff"/></g><g transform="translate(-50.223)"><defs><filter id="Adobe_OpacityMaskFilter_10_" filterUnits="userSpaceOnUse" x="-179.5" y="-10.5" width="245.9" height="246.1"><feColorMatrix values="1 0 0 0 0 0 1 0 0 0 0 0 1 0 0 0 0 0 1 0"/></filter></defs><mask maskUnits="userSpaceOnUse" x="-179.5" y="-10.5" width="245.9" height="246.1" id="jo2u3o3rfv_1_"><g filter="url(#Adobe_OpacityMaskFilter_10_)"><path id="l4omutk0su_1_" class="st3" d="M-86.1.2H45.3v131.5H-86.1V.2z"/></g></mask><path d="M66.5 230.4L-174.2-10.5l-5.2 5.2L61.2 235.6l5.3-5.2z" mask="url(#jo2u3o3rfv_1_)" fill="#fff"/></g><g transform="translate(-50.223)"><defs><filter id="Adobe_OpacityMaskFilter_11_" filterUnits="userSpaceOnUse" x="-189.8" y="-.1" width="245.9" height="246.1"><feColorMatrix values="1 0 0 0 0 0 1 0 0 0 0 0 1 0 0 0 0 0 1 0"/></filter></defs><mask maskUnits="userSpaceOnUse" x="-189.8" y="-.1" width="245.9" height="246.1" id="_x37_vzfzd6dxx_1_"><g filter="url(#Adobe_OpacityMaskFilter_11_)"><path id="xcdmexynfw_1_" class="st3" d="M-86.1.2H45.3v131.5H-86.1V.2z"/></g></mask><path d="M56.1 240.8L-184.6-.1l-5.2 5.2L50.9 246l5.2-5.2z" mask="url(#_x37_vzfzd6dxx_1_)" fill="#fff"/></g><g transform="translate(-50.223 10.095)"><defs><filter id="Adobe_OpacityMaskFilter_12_" filterUnits="userSpaceOnUse" x="-200.2" y=".2" width="245.9" height="246.1"><feColorMatrix values="1 0 0 0 0 0 1 0 0 0 0 0 1 0 0 0 0 0 1 0"/></filter></defs><mask maskUnits="userSpaceOnUse" x="-200.2" y=".2" width="245.9" height="246.1" id="s6la8gxtiz_1_"><g filter="url(#Adobe_OpacityMaskFilter_12_)"><path id="_x32_tczpnw0jy_1_" class="st3" d="M-86.1.2H45.3v121.4H-86.1V.2z"/></g></mask><path d="M45.7 241.1L-195 .2l-5.2 5.2L40.5 246.3l5.2-5.2z" mask="url(#s6la8gxtiz_1_)" fill="#fff"/></g><path class="st0" d="M31.9 65.9c0-17 13.8-30.8 30.8-30.8s30.7 13.8 30.7 30.8-13.8 30.8-30.8 30.8-30.7-13.8-30.7-30.8m30.7 65.8c36.2 0 65.6-29.4 65.6-65.7S98.8.2 62.6.2C26.4.2-3 29.6-3 65.9s29.4 65.8 65.6 65.8"/><path d="M163.1 65.9c0-17 13.8-30.8 30.8-30.8s30.7 13.8 30.7 30.8-13.8 30.8-30.7 30.8c-17.1 0-30.8-13.8-30.8-30.8m30.7 65.8c36.2 0 65.6-29.4 65.6-65.7S230.1.2 193.8.2c-36.2 0-65.6 29.4-65.6 65.7s29.4 65.8 65.6 65.8" fill="#b1c0fa"/></svg>